M48
;DRILL file {KiCad 4.0.2-4+6225~38~ubuntu15.10.1-stable} date IDT 22:32:45 2016 אפר 10 א'
;FORMAT={-:-/ absolute / inch / decimal}
FMAT,2
INCH,TZ
T1C0.013
T2C0.031
T3C0.032
T4C0.040
T5C0.138
%
G90
G05
M72
T1
X3.15Y-4.5521
X3.2062Y-3.228
X3.225Y-4.6169
X3.3067Y-3.6822
X3.4452Y-4.1296
X3.4467Y-4.7074
X3.488Y-2.9077
X3.525Y-4.1545
X3.547Y-2.8755
X3.5856Y-2.8655
X3.627Y-3.23
X3.6436Y-2.7929
X3.675Y-5.0213
X3.6904Y-2.7823
X3.6936Y-2.9081
X3.6958Y-4.0089
X3.702Y-3.0739
X3.7219Y-3.2204
X3.7279Y-3.0063
X3.736Y-2.9094
X3.7596Y-2.7928
X3.7715Y-2.9095
X3.7864Y-3.228
X3.7868Y-3.7872
X3.7888Y-3.0108
X3.7904Y-2.975
X3.7939Y-2.7773
X3.8141Y-4.6947
X3.8157Y-4.6553
X3.8212Y-4.0044
X3.8218Y-3.099
X3.8482Y-2.8822
X3.8492Y-3.1628
X3.8774Y-3.0988
X3.8993Y-2.8755
X3.9Y-4.15
X3.9008Y-4.5695
X3.9031Y-3.1974
X3.9116Y-3.7437
X3.9123Y-3.8579
X3.9305Y-3.2253
X3.9323Y-2.8861
X3.95Y-3.6469
X3.9557Y-3.1736
X3.9632Y-3.8565
X3.9834Y-3.1926
X3.9885Y-4.675
X4.0465Y-4.1537
X4.0624Y-3.0165
X4.1095Y-3.2283
X4.1544Y-3.2204
X4.192Y-3.2084
X4.2345Y-3.1271
T2
X3.7266Y-3.425
X3.825Y-3.425
T3
X3.095Y-4.845
X3.4Y-4.3
X3.6Y-3.6
X3.7Y-3.6
X3.8Y-3.6
X3.9Y-5.1
T4
X3.1Y-3.1
X3.1Y-3.2
X3.1Y-3.3
X3.1Y-3.4
X3.1Y-3.5
X3.1Y-3.6
X3.1Y-3.7
X3.1Y-3.8
X3.1Y-3.9
X3.1Y-4.
X3.1Y-4.1
X3.4Y-3.3
X4.3Y-3.
X4.3Y-3.1
X4.3Y-3.2
X4.3Y-3.3
X4.3Y-3.4
X4.3Y-3.5
X4.3Y-3.6
X4.3Y-3.7
X4.3Y-3.8
X4.3Y-3.9
X4.3Y-4.
X4.3Y-4.1
X4.3Y-4.2
X4.3Y-4.3
X4.3Y-4.4
X4.3Y-4.5
X4.3Y-4.6
X4.3Y-4.7
X4.3Y-4.8
X4.3Y-4.9
T5
X3.175Y-2.7
X3.175Y-5.1
X4.225Y-2.7
X4.225Y-5.1
T0
M30
