G04 #@! TF.FileFunction,Copper,L2,Bot,Mixed*
%FSLAX46Y46*%
G04 Gerber Fmt 4.6, Leading zero omitted, Abs format (unit mm)*
G04 Created by KiCad (PCBNEW 4.0.2-4+6225~38~ubuntu15.10.1-stable) date IDT 22:32:43 2016 אפר 10 א'*
%MOMM*%
G01*
G04 APERTURE LIST*
%ADD10C,0.150000*%
%ADD11R,1.300000X1.300000*%
%ADD12C,1.300000*%
%ADD13R,2.235200X2.235200*%
%ADD14C,1.501140*%
%ADD15C,0.685800*%
%ADD16C,0.355600*%
%ADD17C,0.304800*%
%ADD18C,0.254000*%
G04 APERTURE END LIST*
D10*
D11*
X97155000Y-86995000D03*
D12*
X94655000Y-86995000D03*
D13*
X109220000Y-116840000D03*
X109220000Y-114300000D03*
X109220000Y-124460000D03*
X109220000Y-121920000D03*
X109220000Y-119380000D03*
X109220000Y-104140000D03*
X109220000Y-106680000D03*
X109220000Y-101600000D03*
X109220000Y-99060000D03*
X109220000Y-109220000D03*
X109220000Y-96520000D03*
X109220000Y-76200000D03*
X109220000Y-78740000D03*
X109220000Y-81280000D03*
X109220000Y-83820000D03*
X109220000Y-86360000D03*
X109220000Y-88900000D03*
X109220000Y-91440000D03*
X109220000Y-93980000D03*
X109220000Y-111760000D03*
X78740000Y-78740000D03*
X78740000Y-81280000D03*
X78740000Y-104140000D03*
X78740000Y-83820000D03*
X78740000Y-101600000D03*
X78740000Y-86360000D03*
X78740000Y-99060000D03*
X78740000Y-88900000D03*
X86360000Y-83820000D03*
X78740000Y-91440000D03*
X78740000Y-96520000D03*
X78740000Y-93980000D03*
D14*
X99060000Y-129540000D03*
X86360000Y-109220000D03*
X78613000Y-123063000D03*
X96520000Y-91440000D03*
X91440000Y-91440000D03*
X93980000Y-91440000D03*
D15*
X99835600Y-81922600D03*
X96173700Y-81991100D03*
X93818200Y-73864700D03*
X97769800Y-80335500D03*
X99879600Y-73308000D03*
X92125000Y-82041000D03*
X94536500Y-81797600D03*
X81438600Y-81991200D03*
X90095000Y-73038500D03*
X88595000Y-73856500D03*
X96276400Y-75564600D03*
X103183800Y-76619000D03*
X96364000Y-70542200D03*
X95795000Y-73902200D03*
X95495000Y-70937700D03*
X107557100Y-79428100D03*
X96236600Y-76475500D03*
X106476200Y-81492400D03*
X94895000Y-73899900D03*
X105521100Y-81797600D03*
X94688900Y-76359400D03*
X104382000Y-81998200D03*
X98484700Y-78708500D03*
X101178900Y-81093200D03*
X97074000Y-78713800D03*
X100475800Y-80610300D03*
X94029700Y-78077900D03*
X99139600Y-81215200D03*
X93736300Y-70669300D03*
X92548200Y-70940800D03*
X80010000Y-115623000D03*
X100665000Y-97954400D03*
X99373000Y-97989500D03*
X100330000Y-92632000D03*
X99354400Y-95090300D03*
X96185900Y-96195000D03*
X96877900Y-119245000D03*
X96919200Y-118245000D03*
X101308000Y-118745000D03*
X83990400Y-93528200D03*
X89535000Y-105524000D03*
X102781000Y-105503000D03*
X97058100Y-101713000D03*
X87547300Y-119567000D03*
X93345000Y-127541000D03*
X87509100Y-104893000D03*
X99060000Y-105411000D03*
X93872200Y-101827000D03*
X81915000Y-117269000D03*
X99080000Y-116065000D03*
X97744900Y-73208700D03*
X99041000Y-73037200D03*
X91074000Y-72784200D03*
D16*
X99767100Y-81991100D02*
X99835600Y-81922600D01*
X96173700Y-81991100D02*
X99767100Y-81991100D01*
X97697300Y-80335500D02*
X97769800Y-80335500D01*
X93818200Y-76456400D02*
X97697300Y-80335500D01*
X93818200Y-73864700D02*
X93818200Y-76456400D01*
X99305400Y-73882200D02*
X99879600Y-73308000D01*
X97117200Y-73882200D02*
X99305400Y-73882200D01*
X96353700Y-73118700D02*
X97117200Y-73882200D01*
X93539100Y-73118700D02*
X96353700Y-73118700D01*
X93143700Y-73514100D02*
X93539100Y-73118700D01*
X93143700Y-81392800D02*
X93143700Y-73514100D01*
X92773200Y-81392800D02*
X93143700Y-81392800D01*
X92125000Y-82041000D02*
X92773200Y-81392800D01*
X93548500Y-81797600D02*
X94536500Y-81797600D01*
X93143700Y-81392800D02*
X93548500Y-81797600D01*
D17*
X89277000Y-73856500D02*
X90095000Y-73038500D01*
X88595000Y-73856500D02*
X89277000Y-73856500D01*
X88595000Y-74834800D02*
X88595000Y-73856500D01*
X81438600Y-81991200D02*
X88595000Y-74834800D01*
X102129400Y-75564600D02*
X103183800Y-76619000D01*
X96276400Y-75564600D02*
X102129400Y-75564600D01*
X109220000Y-78740000D02*
X107797300Y-78740000D01*
X99599500Y-70542200D02*
X96364000Y-70542200D01*
X107797300Y-78740000D02*
X99599500Y-70542200D01*
X109220000Y-81280000D02*
X107797300Y-81280000D01*
X106051100Y-79533800D02*
X107797300Y-81280000D01*
X106051100Y-78569300D02*
X106051100Y-79533800D01*
X101846900Y-74365100D02*
X106051100Y-78569300D01*
X96257900Y-74365100D02*
X101846900Y-74365100D01*
X95795000Y-73902200D02*
X96257900Y-74365100D01*
X99524200Y-71395200D02*
X107557100Y-79428100D01*
X95952500Y-71395200D02*
X99524200Y-71395200D01*
X95495000Y-70937700D02*
X95952500Y-71395200D01*
X101459300Y-76475500D02*
X96236600Y-76475500D01*
X106476200Y-81492400D02*
X101459300Y-76475500D01*
X100988900Y-77265400D02*
X105521100Y-81797600D01*
X96081500Y-77265400D02*
X100988900Y-77265400D01*
X95545500Y-76729400D02*
X96081500Y-77265400D01*
X95545500Y-74646800D02*
X95545500Y-76729400D01*
X94895000Y-73996300D02*
X95545500Y-74646800D01*
X94895000Y-73899900D02*
X94895000Y-73996300D01*
X100208900Y-77825100D02*
X104382000Y-81998200D01*
X95913400Y-77825100D02*
X100208900Y-77825100D01*
X94688900Y-76600600D02*
X95913400Y-77825100D01*
X94688900Y-76359400D02*
X94688900Y-76600600D01*
X101178900Y-80378500D02*
X101178900Y-81093200D01*
X99508900Y-78708500D02*
X101178900Y-80378500D01*
X98484700Y-78708500D02*
X99508900Y-78708500D01*
X97573600Y-78713800D02*
X97074000Y-78713800D01*
X99470100Y-80610300D02*
X97573600Y-78713800D01*
X100475800Y-80610300D02*
X99470100Y-80610300D01*
X97167000Y-81215200D02*
X99139600Y-81215200D01*
X94029700Y-78077900D02*
X97167000Y-81215200D01*
X88620700Y-70282000D02*
X80162700Y-78740000D01*
X93349000Y-70282000D02*
X88620700Y-70282000D01*
X93736300Y-70669300D02*
X93349000Y-70282000D01*
X78740000Y-78740000D02*
X80162700Y-78740000D01*
X78740000Y-81280000D02*
X80162700Y-81280000D01*
X90501900Y-70940800D02*
X92548200Y-70940800D01*
X80162700Y-81280000D02*
X90501900Y-70940800D01*
D16*
X97916400Y-73037200D02*
X97744900Y-73208700D01*
X99041000Y-73037200D02*
X97916400Y-73037200D01*
X91247800Y-72610400D02*
X91074000Y-72784200D01*
X97146600Y-72610400D02*
X91247800Y-72610400D01*
X97744900Y-73208700D02*
X97146600Y-72610400D01*
D18*
G36*
X80883941Y-82819740D02*
X81243230Y-82968930D01*
X81632263Y-82969269D01*
X81991812Y-82820707D01*
X82135770Y-82677000D01*
X84600104Y-82677000D01*
X84594960Y-82702400D01*
X84594960Y-84937600D01*
X84639238Y-85172917D01*
X84778310Y-85389041D01*
X84990510Y-85534031D01*
X85242400Y-85585040D01*
X87477600Y-85585040D01*
X87712917Y-85540762D01*
X87929041Y-85401690D01*
X88074031Y-85189490D01*
X88125040Y-84937600D01*
X88125040Y-82702400D01*
X88120261Y-82677000D01*
X91378137Y-82677000D01*
X91570341Y-82869540D01*
X91929630Y-83018730D01*
X92318663Y-83019069D01*
X92678212Y-82870507D01*
X92872057Y-82677000D01*
X94104325Y-82677000D01*
X94341130Y-82775330D01*
X94730163Y-82775669D01*
X94968961Y-82677000D01*
X95476650Y-82677000D01*
X95619041Y-82819640D01*
X95978330Y-82968830D01*
X96367363Y-82969169D01*
X96726912Y-82820607D01*
X96743648Y-82803900D01*
X99408001Y-82803900D01*
X99640230Y-82900330D01*
X100029263Y-82900669D01*
X100388812Y-82752107D01*
X100464050Y-82677000D01*
X103677862Y-82677000D01*
X103827341Y-82826740D01*
X104186630Y-82975930D01*
X104575663Y-82976269D01*
X104935212Y-82827707D01*
X105086183Y-82677000D01*
X105088924Y-82677000D01*
X105325730Y-82775330D01*
X105714763Y-82775669D01*
X105953561Y-82677000D01*
X107460104Y-82677000D01*
X107454960Y-82702400D01*
X107454960Y-84937600D01*
X107484689Y-85095595D01*
X107454960Y-85242400D01*
X107454960Y-87477600D01*
X107484689Y-87635595D01*
X107454960Y-87782400D01*
X107454960Y-90017600D01*
X107484689Y-90175595D01*
X107454960Y-90322400D01*
X107454960Y-92557600D01*
X107484689Y-92715595D01*
X107454960Y-92862400D01*
X107454960Y-95097600D01*
X107484689Y-95255595D01*
X107454960Y-95402400D01*
X107454960Y-97637600D01*
X107484689Y-97795595D01*
X107454960Y-97942400D01*
X107454960Y-100177600D01*
X107484689Y-100335595D01*
X107454960Y-100482400D01*
X107454960Y-102717600D01*
X107484689Y-102875595D01*
X107454960Y-103022400D01*
X107454960Y-105257600D01*
X107484689Y-105415595D01*
X107454960Y-105562400D01*
X107454960Y-107797600D01*
X107484689Y-107955595D01*
X107454960Y-108102400D01*
X107454960Y-110337600D01*
X107484689Y-110495595D01*
X107454960Y-110642400D01*
X107454960Y-112877600D01*
X107481940Y-113020988D01*
X107467400Y-113056091D01*
X107467400Y-114014250D01*
X107626150Y-114173000D01*
X109093000Y-114173000D01*
X109093000Y-114153000D01*
X109347000Y-114153000D01*
X109347000Y-114173000D01*
X109367000Y-114173000D01*
X109367000Y-114427000D01*
X109347000Y-114427000D01*
X109347000Y-114447000D01*
X109093000Y-114447000D01*
X109093000Y-114427000D01*
X107626150Y-114427000D01*
X107467400Y-114585750D01*
X107467400Y-115543909D01*
X107483321Y-115582347D01*
X107454960Y-115722400D01*
X107454960Y-117957600D01*
X107484689Y-118115595D01*
X107454960Y-118262400D01*
X107454960Y-120497600D01*
X107484689Y-120655595D01*
X107454960Y-120802400D01*
X107454960Y-123037600D01*
X107484689Y-123195595D01*
X107454960Y-123342400D01*
X107454960Y-125577600D01*
X107499238Y-125812917D01*
X107638310Y-126029041D01*
X107850510Y-126174031D01*
X108102400Y-126225040D01*
X110337600Y-126225040D01*
X110440000Y-126205772D01*
X110440000Y-132665000D01*
X77520000Y-132665000D01*
X77520000Y-130012325D01*
X78259587Y-130012325D01*
X78621916Y-130889229D01*
X79292242Y-131560726D01*
X80168513Y-131924585D01*
X81117325Y-131925413D01*
X81994229Y-131563084D01*
X82665726Y-130892758D01*
X82823859Y-130511930D01*
X98267675Y-130511930D01*
X98335735Y-130752931D01*
X98855034Y-130937767D01*
X99405538Y-130909805D01*
X99784265Y-130752931D01*
X99852325Y-130511930D01*
X99060000Y-129719605D01*
X98267675Y-130511930D01*
X82823859Y-130511930D01*
X83029585Y-130016487D01*
X83030179Y-129335034D01*
X97662233Y-129335034D01*
X97690195Y-129885538D01*
X97847069Y-130264265D01*
X98088070Y-130332325D01*
X98880395Y-129540000D01*
X99239605Y-129540000D01*
X100031930Y-130332325D01*
X100272931Y-130264265D01*
X100362604Y-130012325D01*
X104929587Y-130012325D01*
X105291916Y-130889229D01*
X105962242Y-131560726D01*
X106838513Y-131924585D01*
X107787325Y-131925413D01*
X108664229Y-131563084D01*
X109335726Y-130892758D01*
X109699585Y-130016487D01*
X109700413Y-129067675D01*
X109338084Y-128190771D01*
X108667758Y-127519274D01*
X107791487Y-127155415D01*
X106842675Y-127154587D01*
X105965771Y-127516916D01*
X105294274Y-128187242D01*
X104930415Y-129063513D01*
X104929587Y-130012325D01*
X100362604Y-130012325D01*
X100457767Y-129744966D01*
X100429805Y-129194462D01*
X100272931Y-128815735D01*
X100031930Y-128747675D01*
X99239605Y-129540000D01*
X98880395Y-129540000D01*
X98088070Y-128747675D01*
X97847069Y-128815735D01*
X97662233Y-129335034D01*
X83030179Y-129335034D01*
X83030413Y-129067675D01*
X82823981Y-128568070D01*
X98267675Y-128568070D01*
X99060000Y-129360395D01*
X99852325Y-128568070D01*
X99784265Y-128327069D01*
X99264966Y-128142233D01*
X98714462Y-128170195D01*
X98335735Y-128327069D01*
X98267675Y-128568070D01*
X82823981Y-128568070D01*
X82668084Y-128190771D01*
X81997758Y-127519274D01*
X81121487Y-127155415D01*
X80172675Y-127154587D01*
X79295771Y-127516916D01*
X78624274Y-128187242D01*
X78260415Y-129063513D01*
X78259587Y-130012325D01*
X77520000Y-130012325D01*
X77520000Y-123929295D01*
X77827113Y-124236944D01*
X78336184Y-124448329D01*
X78887398Y-124448810D01*
X79396837Y-124238314D01*
X79786944Y-123848887D01*
X79998329Y-123339816D01*
X79998810Y-122788602D01*
X79788314Y-122279163D01*
X79398887Y-121889056D01*
X78889816Y-121677671D01*
X78338602Y-121677190D01*
X77829163Y-121887686D01*
X77520000Y-122196310D01*
X77520000Y-109494398D01*
X84974190Y-109494398D01*
X85184686Y-110003837D01*
X85574113Y-110393944D01*
X86083184Y-110605329D01*
X86634398Y-110605810D01*
X87143837Y-110395314D01*
X87533944Y-110005887D01*
X87745329Y-109496816D01*
X87745810Y-108945602D01*
X87535314Y-108436163D01*
X87145887Y-108046056D01*
X86636816Y-107834671D01*
X86085602Y-107834190D01*
X85576163Y-108044686D01*
X85186056Y-108434113D01*
X84974671Y-108943184D01*
X84974190Y-109494398D01*
X77520000Y-109494398D01*
X77520000Y-105884303D01*
X77622400Y-105905040D01*
X79857600Y-105905040D01*
X80092917Y-105860762D01*
X80309041Y-105721690D01*
X80454031Y-105509490D01*
X80505040Y-105257600D01*
X80505040Y-103022400D01*
X80475311Y-102864405D01*
X80505040Y-102717600D01*
X80505040Y-100482400D01*
X80475311Y-100324405D01*
X80505040Y-100177600D01*
X80505040Y-97942400D01*
X80475311Y-97784405D01*
X80505040Y-97637600D01*
X80505040Y-95402400D01*
X80475311Y-95244405D01*
X80505040Y-95097600D01*
X80505040Y-92862400D01*
X80475311Y-92704405D01*
X80505040Y-92557600D01*
X80505040Y-91714398D01*
X90054190Y-91714398D01*
X90264686Y-92223837D01*
X90654113Y-92613944D01*
X91163184Y-92825329D01*
X91714398Y-92825810D01*
X92223837Y-92615314D01*
X92613944Y-92225887D01*
X92709975Y-91994619D01*
X92804686Y-92223837D01*
X93194113Y-92613944D01*
X93703184Y-92825329D01*
X94254398Y-92825810D01*
X94763837Y-92615314D01*
X95153944Y-92225887D01*
X95249975Y-91994619D01*
X95344686Y-92223837D01*
X95734113Y-92613944D01*
X96243184Y-92825329D01*
X96794398Y-92825810D01*
X97303837Y-92615314D01*
X97693944Y-92225887D01*
X97905329Y-91716816D01*
X97905810Y-91165602D01*
X97695314Y-90656163D01*
X97305887Y-90266056D01*
X96796816Y-90054671D01*
X96245602Y-90054190D01*
X95736163Y-90264686D01*
X95346056Y-90654113D01*
X95250025Y-90885381D01*
X95155314Y-90656163D01*
X94765887Y-90266056D01*
X94256816Y-90054671D01*
X93705602Y-90054190D01*
X93196163Y-90264686D01*
X92806056Y-90654113D01*
X92710025Y-90885381D01*
X92615314Y-90656163D01*
X92225887Y-90266056D01*
X91716816Y-90054671D01*
X91165602Y-90054190D01*
X90656163Y-90264686D01*
X90266056Y-90654113D01*
X90054671Y-91163184D01*
X90054190Y-91714398D01*
X80505040Y-91714398D01*
X80505040Y-90322400D01*
X80475311Y-90164405D01*
X80505040Y-90017600D01*
X80505040Y-87782400D01*
X80475311Y-87624405D01*
X80505040Y-87477600D01*
X80505040Y-87249481D01*
X93369777Y-87249481D01*
X93564995Y-87721943D01*
X93926155Y-88083735D01*
X94398276Y-88279777D01*
X94909481Y-88280223D01*
X95381943Y-88085005D01*
X95743735Y-87723845D01*
X95870000Y-87419765D01*
X95870000Y-87771310D01*
X95966673Y-88004699D01*
X96145302Y-88183327D01*
X96378691Y-88280000D01*
X96869250Y-88280000D01*
X97028000Y-88121250D01*
X97028000Y-87122000D01*
X97282000Y-87122000D01*
X97282000Y-88121250D01*
X97440750Y-88280000D01*
X97931309Y-88280000D01*
X98164698Y-88183327D01*
X98343327Y-88004699D01*
X98440000Y-87771310D01*
X98440000Y-87280750D01*
X98281250Y-87122000D01*
X97282000Y-87122000D01*
X97028000Y-87122000D01*
X97008000Y-87122000D01*
X97008000Y-86868000D01*
X97028000Y-86868000D01*
X97028000Y-85868750D01*
X97282000Y-85868750D01*
X97282000Y-86868000D01*
X98281250Y-86868000D01*
X98440000Y-86709250D01*
X98440000Y-86218690D01*
X98343327Y-85985301D01*
X98164698Y-85806673D01*
X97931309Y-85710000D01*
X97440750Y-85710000D01*
X97282000Y-85868750D01*
X97028000Y-85868750D01*
X96869250Y-85710000D01*
X96378691Y-85710000D01*
X96145302Y-85806673D01*
X95966673Y-85985301D01*
X95870000Y-86218690D01*
X95870000Y-86570567D01*
X95745005Y-86268057D01*
X95383845Y-85906265D01*
X94911724Y-85710223D01*
X94400519Y-85709777D01*
X93928057Y-85904995D01*
X93566265Y-86266155D01*
X93370223Y-86738276D01*
X93369777Y-87249481D01*
X80505040Y-87249481D01*
X80505040Y-85242400D01*
X80475311Y-85084405D01*
X80505040Y-84937600D01*
X80505040Y-82702400D01*
X80500261Y-82677000D01*
X80741450Y-82677000D01*
X80883941Y-82819740D01*
X80883941Y-82819740D01*
G37*
X80883941Y-82819740D02*
X81243230Y-82968930D01*
X81632263Y-82969269D01*
X81991812Y-82820707D01*
X82135770Y-82677000D01*
X84600104Y-82677000D01*
X84594960Y-82702400D01*
X84594960Y-84937600D01*
X84639238Y-85172917D01*
X84778310Y-85389041D01*
X84990510Y-85534031D01*
X85242400Y-85585040D01*
X87477600Y-85585040D01*
X87712917Y-85540762D01*
X87929041Y-85401690D01*
X88074031Y-85189490D01*
X88125040Y-84937600D01*
X88125040Y-82702400D01*
X88120261Y-82677000D01*
X91378137Y-82677000D01*
X91570341Y-82869540D01*
X91929630Y-83018730D01*
X92318663Y-83019069D01*
X92678212Y-82870507D01*
X92872057Y-82677000D01*
X94104325Y-82677000D01*
X94341130Y-82775330D01*
X94730163Y-82775669D01*
X94968961Y-82677000D01*
X95476650Y-82677000D01*
X95619041Y-82819640D01*
X95978330Y-82968830D01*
X96367363Y-82969169D01*
X96726912Y-82820607D01*
X96743648Y-82803900D01*
X99408001Y-82803900D01*
X99640230Y-82900330D01*
X100029263Y-82900669D01*
X100388812Y-82752107D01*
X100464050Y-82677000D01*
X103677862Y-82677000D01*
X103827341Y-82826740D01*
X104186630Y-82975930D01*
X104575663Y-82976269D01*
X104935212Y-82827707D01*
X105086183Y-82677000D01*
X105088924Y-82677000D01*
X105325730Y-82775330D01*
X105714763Y-82775669D01*
X105953561Y-82677000D01*
X107460104Y-82677000D01*
X107454960Y-82702400D01*
X107454960Y-84937600D01*
X107484689Y-85095595D01*
X107454960Y-85242400D01*
X107454960Y-87477600D01*
X107484689Y-87635595D01*
X107454960Y-87782400D01*
X107454960Y-90017600D01*
X107484689Y-90175595D01*
X107454960Y-90322400D01*
X107454960Y-92557600D01*
X107484689Y-92715595D01*
X107454960Y-92862400D01*
X107454960Y-95097600D01*
X107484689Y-95255595D01*
X107454960Y-95402400D01*
X107454960Y-97637600D01*
X107484689Y-97795595D01*
X107454960Y-97942400D01*
X107454960Y-100177600D01*
X107484689Y-100335595D01*
X107454960Y-100482400D01*
X107454960Y-102717600D01*
X107484689Y-102875595D01*
X107454960Y-103022400D01*
X107454960Y-105257600D01*
X107484689Y-105415595D01*
X107454960Y-105562400D01*
X107454960Y-107797600D01*
X107484689Y-107955595D01*
X107454960Y-108102400D01*
X107454960Y-110337600D01*
X107484689Y-110495595D01*
X107454960Y-110642400D01*
X107454960Y-112877600D01*
X107481940Y-113020988D01*
X107467400Y-113056091D01*
X107467400Y-114014250D01*
X107626150Y-114173000D01*
X109093000Y-114173000D01*
X109093000Y-114153000D01*
X109347000Y-114153000D01*
X109347000Y-114173000D01*
X109367000Y-114173000D01*
X109367000Y-114427000D01*
X109347000Y-114427000D01*
X109347000Y-114447000D01*
X109093000Y-114447000D01*
X109093000Y-114427000D01*
X107626150Y-114427000D01*
X107467400Y-114585750D01*
X107467400Y-115543909D01*
X107483321Y-115582347D01*
X107454960Y-115722400D01*
X107454960Y-117957600D01*
X107484689Y-118115595D01*
X107454960Y-118262400D01*
X107454960Y-120497600D01*
X107484689Y-120655595D01*
X107454960Y-120802400D01*
X107454960Y-123037600D01*
X107484689Y-123195595D01*
X107454960Y-123342400D01*
X107454960Y-125577600D01*
X107499238Y-125812917D01*
X107638310Y-126029041D01*
X107850510Y-126174031D01*
X108102400Y-126225040D01*
X110337600Y-126225040D01*
X110440000Y-126205772D01*
X110440000Y-132665000D01*
X77520000Y-132665000D01*
X77520000Y-130012325D01*
X78259587Y-130012325D01*
X78621916Y-130889229D01*
X79292242Y-131560726D01*
X80168513Y-131924585D01*
X81117325Y-131925413D01*
X81994229Y-131563084D01*
X82665726Y-130892758D01*
X82823859Y-130511930D01*
X98267675Y-130511930D01*
X98335735Y-130752931D01*
X98855034Y-130937767D01*
X99405538Y-130909805D01*
X99784265Y-130752931D01*
X99852325Y-130511930D01*
X99060000Y-129719605D01*
X98267675Y-130511930D01*
X82823859Y-130511930D01*
X83029585Y-130016487D01*
X83030179Y-129335034D01*
X97662233Y-129335034D01*
X97690195Y-129885538D01*
X97847069Y-130264265D01*
X98088070Y-130332325D01*
X98880395Y-129540000D01*
X99239605Y-129540000D01*
X100031930Y-130332325D01*
X100272931Y-130264265D01*
X100362604Y-130012325D01*
X104929587Y-130012325D01*
X105291916Y-130889229D01*
X105962242Y-131560726D01*
X106838513Y-131924585D01*
X107787325Y-131925413D01*
X108664229Y-131563084D01*
X109335726Y-130892758D01*
X109699585Y-130016487D01*
X109700413Y-129067675D01*
X109338084Y-128190771D01*
X108667758Y-127519274D01*
X107791487Y-127155415D01*
X106842675Y-127154587D01*
X105965771Y-127516916D01*
X105294274Y-128187242D01*
X104930415Y-129063513D01*
X104929587Y-130012325D01*
X100362604Y-130012325D01*
X100457767Y-129744966D01*
X100429805Y-129194462D01*
X100272931Y-128815735D01*
X100031930Y-128747675D01*
X99239605Y-129540000D01*
X98880395Y-129540000D01*
X98088070Y-128747675D01*
X97847069Y-128815735D01*
X97662233Y-129335034D01*
X83030179Y-129335034D01*
X83030413Y-129067675D01*
X82823981Y-128568070D01*
X98267675Y-128568070D01*
X99060000Y-129360395D01*
X99852325Y-128568070D01*
X99784265Y-128327069D01*
X99264966Y-128142233D01*
X98714462Y-128170195D01*
X98335735Y-128327069D01*
X98267675Y-128568070D01*
X82823981Y-128568070D01*
X82668084Y-128190771D01*
X81997758Y-127519274D01*
X81121487Y-127155415D01*
X80172675Y-127154587D01*
X79295771Y-127516916D01*
X78624274Y-128187242D01*
X78260415Y-129063513D01*
X78259587Y-130012325D01*
X77520000Y-130012325D01*
X77520000Y-123929295D01*
X77827113Y-124236944D01*
X78336184Y-124448329D01*
X78887398Y-124448810D01*
X79396837Y-124238314D01*
X79786944Y-123848887D01*
X79998329Y-123339816D01*
X79998810Y-122788602D01*
X79788314Y-122279163D01*
X79398887Y-121889056D01*
X78889816Y-121677671D01*
X78338602Y-121677190D01*
X77829163Y-121887686D01*
X77520000Y-122196310D01*
X77520000Y-109494398D01*
X84974190Y-109494398D01*
X85184686Y-110003837D01*
X85574113Y-110393944D01*
X86083184Y-110605329D01*
X86634398Y-110605810D01*
X87143837Y-110395314D01*
X87533944Y-110005887D01*
X87745329Y-109496816D01*
X87745810Y-108945602D01*
X87535314Y-108436163D01*
X87145887Y-108046056D01*
X86636816Y-107834671D01*
X86085602Y-107834190D01*
X85576163Y-108044686D01*
X85186056Y-108434113D01*
X84974671Y-108943184D01*
X84974190Y-109494398D01*
X77520000Y-109494398D01*
X77520000Y-105884303D01*
X77622400Y-105905040D01*
X79857600Y-105905040D01*
X80092917Y-105860762D01*
X80309041Y-105721690D01*
X80454031Y-105509490D01*
X80505040Y-105257600D01*
X80505040Y-103022400D01*
X80475311Y-102864405D01*
X80505040Y-102717600D01*
X80505040Y-100482400D01*
X80475311Y-100324405D01*
X80505040Y-100177600D01*
X80505040Y-97942400D01*
X80475311Y-97784405D01*
X80505040Y-97637600D01*
X80505040Y-95402400D01*
X80475311Y-95244405D01*
X80505040Y-95097600D01*
X80505040Y-92862400D01*
X80475311Y-92704405D01*
X80505040Y-92557600D01*
X80505040Y-91714398D01*
X90054190Y-91714398D01*
X90264686Y-92223837D01*
X90654113Y-92613944D01*
X91163184Y-92825329D01*
X91714398Y-92825810D01*
X92223837Y-92615314D01*
X92613944Y-92225887D01*
X92709975Y-91994619D01*
X92804686Y-92223837D01*
X93194113Y-92613944D01*
X93703184Y-92825329D01*
X94254398Y-92825810D01*
X94763837Y-92615314D01*
X95153944Y-92225887D01*
X95249975Y-91994619D01*
X95344686Y-92223837D01*
X95734113Y-92613944D01*
X96243184Y-92825329D01*
X96794398Y-92825810D01*
X97303837Y-92615314D01*
X97693944Y-92225887D01*
X97905329Y-91716816D01*
X97905810Y-91165602D01*
X97695314Y-90656163D01*
X97305887Y-90266056D01*
X96796816Y-90054671D01*
X96245602Y-90054190D01*
X95736163Y-90264686D01*
X95346056Y-90654113D01*
X95250025Y-90885381D01*
X95155314Y-90656163D01*
X94765887Y-90266056D01*
X94256816Y-90054671D01*
X93705602Y-90054190D01*
X93196163Y-90264686D01*
X92806056Y-90654113D01*
X92710025Y-90885381D01*
X92615314Y-90656163D01*
X92225887Y-90266056D01*
X91716816Y-90054671D01*
X91165602Y-90054190D01*
X90656163Y-90264686D01*
X90266056Y-90654113D01*
X90054671Y-91163184D01*
X90054190Y-91714398D01*
X80505040Y-91714398D01*
X80505040Y-90322400D01*
X80475311Y-90164405D01*
X80505040Y-90017600D01*
X80505040Y-87782400D01*
X80475311Y-87624405D01*
X80505040Y-87477600D01*
X80505040Y-87249481D01*
X93369777Y-87249481D01*
X93564995Y-87721943D01*
X93926155Y-88083735D01*
X94398276Y-88279777D01*
X94909481Y-88280223D01*
X95381943Y-88085005D01*
X95743735Y-87723845D01*
X95870000Y-87419765D01*
X95870000Y-87771310D01*
X95966673Y-88004699D01*
X96145302Y-88183327D01*
X96378691Y-88280000D01*
X96869250Y-88280000D01*
X97028000Y-88121250D01*
X97028000Y-87122000D01*
X97282000Y-87122000D01*
X97282000Y-88121250D01*
X97440750Y-88280000D01*
X97931309Y-88280000D01*
X98164698Y-88183327D01*
X98343327Y-88004699D01*
X98440000Y-87771310D01*
X98440000Y-87280750D01*
X98281250Y-87122000D01*
X97282000Y-87122000D01*
X97028000Y-87122000D01*
X97008000Y-87122000D01*
X97008000Y-86868000D01*
X97028000Y-86868000D01*
X97028000Y-85868750D01*
X97282000Y-85868750D01*
X97282000Y-86868000D01*
X98281250Y-86868000D01*
X98440000Y-86709250D01*
X98440000Y-86218690D01*
X98343327Y-85985301D01*
X98164698Y-85806673D01*
X97931309Y-85710000D01*
X97440750Y-85710000D01*
X97282000Y-85868750D01*
X97028000Y-85868750D01*
X96869250Y-85710000D01*
X96378691Y-85710000D01*
X96145302Y-85806673D01*
X95966673Y-85985301D01*
X95870000Y-86218690D01*
X95870000Y-86570567D01*
X95745005Y-86268057D01*
X95383845Y-85906265D01*
X94911724Y-85710223D01*
X94400519Y-85709777D01*
X93928057Y-85904995D01*
X93566265Y-86266155D01*
X93370223Y-86738276D01*
X93369777Y-87249481D01*
X80505040Y-87249481D01*
X80505040Y-85242400D01*
X80475311Y-85084405D01*
X80505040Y-84937600D01*
X80505040Y-82702400D01*
X80500261Y-82677000D01*
X80741450Y-82677000D01*
X80883941Y-82819740D01*
M02*
