G04 (created by PCBNEW (25-Oct-2014 BZR 4029)-stable) date IDT 23:59:30 2015 ספט 30 ד'*
%MOIN*%
G04 Gerber Fmt 3.4, Leading zero omitted, Abs format*
%FSLAX34Y34*%
G01*
G70*
G90*
G04 APERTURE LIST*
%ADD10C,0.00590551*%
%ADD11C,0.00984252*%
%ADD12C,0.00492126*%
%ADD13C,0.008*%
%ADD14C,0.015*%
%ADD15C,0.0031*%
%ADD16C,0.012*%
%ADD17C,0.005*%
%ADD18C,0.0063*%
%ADD19C,0.0075*%
%ADD20C,0.006*%
%ADD21C,0.0039*%
%ADD22R,0.0590551X0.0590551*%
%ADD23R,0.0591X0.2087*%
%ADD24R,0.0472X0.0591*%
%ADD25R,0.0591X0.0472*%
%ADD26R,0.015X0.05*%
%ADD27R,0.0394X0.0106*%
%ADD28R,0.0315X0.0394*%
%ADD29C,0.055*%
%ADD30R,0.0511811X0.0511811*%
%ADD31R,0.0787402X0.0511811*%
%ADD32R,0.0236X0.0551*%
%ADD33R,0.011811X0.0314961*%
%ADD34R,0.011811X0.0255906*%
%ADD35R,0.015748X0.0374016*%
G04 APERTURE END LIST*
G54D10*
G54D11*
X38771Y-28046D02*
X38640Y-28046D01*
X38584Y-27840D02*
X38771Y-27840D01*
X38771Y-28234D01*
X38584Y-28234D01*
X38415Y-27840D02*
X38415Y-28234D01*
X38321Y-28234D01*
X38265Y-28215D01*
X38227Y-28178D01*
X38209Y-28140D01*
X38190Y-28065D01*
X38190Y-28009D01*
X38209Y-27934D01*
X38227Y-27896D01*
X38265Y-27859D01*
X38321Y-27840D01*
X38415Y-27840D01*
X37946Y-28234D02*
X37909Y-28234D01*
X37871Y-28215D01*
X37853Y-28196D01*
X37834Y-28159D01*
X37815Y-28084D01*
X37815Y-27990D01*
X37834Y-27915D01*
X37853Y-27878D01*
X37871Y-27859D01*
X37909Y-27840D01*
X37946Y-27840D01*
X37984Y-27859D01*
X38002Y-27878D01*
X38021Y-27915D01*
X38040Y-27990D01*
X38040Y-28084D01*
X38021Y-28159D01*
X38002Y-28196D01*
X37984Y-28215D01*
X37946Y-28234D01*
X37478Y-28234D02*
X37553Y-28234D01*
X37590Y-28215D01*
X37609Y-28196D01*
X37646Y-28140D01*
X37665Y-28065D01*
X37665Y-27915D01*
X37646Y-27878D01*
X37628Y-27859D01*
X37590Y-27840D01*
X37515Y-27840D01*
X37478Y-27859D01*
X37459Y-27878D01*
X37440Y-27915D01*
X37440Y-28009D01*
X37459Y-28046D01*
X37478Y-28065D01*
X37515Y-28084D01*
X37590Y-28084D01*
X37628Y-28065D01*
X37646Y-28046D01*
X37665Y-28009D01*
X37196Y-28234D02*
X37159Y-28234D01*
X37121Y-28215D01*
X37103Y-28196D01*
X37084Y-28159D01*
X37065Y-28084D01*
X37065Y-27990D01*
X37084Y-27915D01*
X37103Y-27878D01*
X37121Y-27859D01*
X37159Y-27840D01*
X37196Y-27840D01*
X37234Y-27859D01*
X37253Y-27878D01*
X37271Y-27915D01*
X37290Y-27990D01*
X37290Y-28084D01*
X37271Y-28159D01*
X37253Y-28196D01*
X37234Y-28215D01*
X37196Y-28234D01*
X36915Y-27859D02*
X36859Y-27840D01*
X36765Y-27840D01*
X36728Y-27859D01*
X36709Y-27878D01*
X36690Y-27915D01*
X36690Y-27953D01*
X36709Y-27990D01*
X36728Y-28009D01*
X36765Y-28028D01*
X36840Y-28046D01*
X36878Y-28065D01*
X36896Y-28084D01*
X36915Y-28121D01*
X36915Y-28159D01*
X36896Y-28196D01*
X36878Y-28215D01*
X36840Y-28234D01*
X36746Y-28234D01*
X36690Y-28215D01*
X36296Y-27878D02*
X36315Y-27859D01*
X36371Y-27840D01*
X36409Y-27840D01*
X36465Y-27859D01*
X36503Y-27896D01*
X36521Y-27934D01*
X36540Y-28009D01*
X36540Y-28065D01*
X36521Y-28140D01*
X36503Y-28178D01*
X36465Y-28215D01*
X36409Y-28234D01*
X36371Y-28234D01*
X36315Y-28215D01*
X36296Y-28196D01*
X35959Y-28103D02*
X35959Y-27840D01*
X36053Y-28253D02*
X36146Y-27971D01*
X35903Y-27971D01*
X35809Y-28234D02*
X35678Y-27840D01*
X35547Y-28234D01*
X35434Y-28196D02*
X35415Y-28215D01*
X35378Y-28234D01*
X35284Y-28234D01*
X35247Y-28215D01*
X35228Y-28196D01*
X35209Y-28159D01*
X35209Y-28121D01*
X35228Y-28065D01*
X35453Y-27840D01*
X35209Y-27840D01*
X37337Y-27397D02*
X37468Y-27397D01*
X37468Y-27191D02*
X37468Y-27584D01*
X37281Y-27584D01*
X37131Y-27191D02*
X37131Y-27584D01*
X36981Y-27584D01*
X36943Y-27565D01*
X36925Y-27547D01*
X36906Y-27509D01*
X36906Y-27453D01*
X36925Y-27416D01*
X36943Y-27397D01*
X36981Y-27378D01*
X37131Y-27378D01*
X36512Y-27228D02*
X36531Y-27209D01*
X36587Y-27191D01*
X36625Y-27191D01*
X36681Y-27209D01*
X36718Y-27247D01*
X36737Y-27284D01*
X36756Y-27359D01*
X36756Y-27416D01*
X36737Y-27491D01*
X36718Y-27528D01*
X36681Y-27565D01*
X36625Y-27584D01*
X36587Y-27584D01*
X36531Y-27565D01*
X36512Y-27547D01*
G54D12*
X41329Y-35785D02*
X41132Y-35785D01*
X41329Y-35701D02*
X41226Y-35701D01*
X41207Y-35710D01*
X41198Y-35729D01*
X41198Y-35757D01*
X41207Y-35776D01*
X41217Y-35785D01*
X41198Y-35635D02*
X41198Y-35560D01*
X41132Y-35607D02*
X41301Y-35607D01*
X41320Y-35598D01*
X41329Y-35579D01*
X41329Y-35560D01*
X41198Y-35523D02*
X41198Y-35448D01*
X41132Y-35495D02*
X41301Y-35495D01*
X41320Y-35485D01*
X41329Y-35466D01*
X41329Y-35448D01*
X41198Y-35382D02*
X41395Y-35382D01*
X41207Y-35382D02*
X41198Y-35363D01*
X41198Y-35326D01*
X41207Y-35307D01*
X41217Y-35298D01*
X41235Y-35288D01*
X41292Y-35288D01*
X41310Y-35298D01*
X41320Y-35307D01*
X41329Y-35326D01*
X41329Y-35363D01*
X41320Y-35382D01*
X41320Y-35213D02*
X41329Y-35195D01*
X41329Y-35157D01*
X41320Y-35138D01*
X41301Y-35129D01*
X41292Y-35129D01*
X41273Y-35138D01*
X41264Y-35157D01*
X41264Y-35185D01*
X41254Y-35204D01*
X41235Y-35213D01*
X41226Y-35213D01*
X41207Y-35204D01*
X41198Y-35185D01*
X41198Y-35157D01*
X41207Y-35138D01*
X41310Y-35045D02*
X41320Y-35035D01*
X41329Y-35045D01*
X41320Y-35054D01*
X41310Y-35045D01*
X41329Y-35045D01*
X41207Y-35045D02*
X41217Y-35035D01*
X41226Y-35045D01*
X41217Y-35054D01*
X41207Y-35045D01*
X41226Y-35045D01*
X41123Y-34810D02*
X41376Y-34979D01*
X41123Y-34604D02*
X41376Y-34773D01*
X41329Y-34538D02*
X41132Y-34538D01*
X41329Y-34454D02*
X41226Y-34454D01*
X41207Y-34463D01*
X41198Y-34482D01*
X41198Y-34510D01*
X41207Y-34529D01*
X41217Y-34538D01*
X41329Y-34276D02*
X41226Y-34276D01*
X41207Y-34285D01*
X41198Y-34304D01*
X41198Y-34342D01*
X41207Y-34360D01*
X41320Y-34276D02*
X41329Y-34295D01*
X41329Y-34342D01*
X41320Y-34360D01*
X41301Y-34370D01*
X41282Y-34370D01*
X41264Y-34360D01*
X41254Y-34342D01*
X41254Y-34295D01*
X41245Y-34276D01*
X41320Y-34098D02*
X41329Y-34117D01*
X41329Y-34154D01*
X41320Y-34173D01*
X41310Y-34182D01*
X41292Y-34192D01*
X41235Y-34192D01*
X41217Y-34182D01*
X41207Y-34173D01*
X41198Y-34154D01*
X41198Y-34117D01*
X41207Y-34098D01*
X41329Y-34013D02*
X41132Y-34013D01*
X41254Y-33995D02*
X41329Y-33938D01*
X41198Y-33938D02*
X41273Y-34013D01*
X41329Y-33770D02*
X41226Y-33770D01*
X41207Y-33779D01*
X41198Y-33798D01*
X41198Y-33835D01*
X41207Y-33854D01*
X41320Y-33770D02*
X41329Y-33788D01*
X41329Y-33835D01*
X41320Y-33854D01*
X41301Y-33863D01*
X41282Y-33863D01*
X41264Y-33854D01*
X41254Y-33835D01*
X41254Y-33788D01*
X41245Y-33770D01*
X41329Y-33592D02*
X41132Y-33592D01*
X41320Y-33592D02*
X41329Y-33610D01*
X41329Y-33648D01*
X41320Y-33667D01*
X41310Y-33676D01*
X41292Y-33685D01*
X41235Y-33685D01*
X41217Y-33676D01*
X41207Y-33667D01*
X41198Y-33648D01*
X41198Y-33610D01*
X41207Y-33592D01*
X41329Y-33414D02*
X41226Y-33414D01*
X41207Y-33423D01*
X41198Y-33442D01*
X41198Y-33479D01*
X41207Y-33498D01*
X41320Y-33414D02*
X41329Y-33432D01*
X41329Y-33479D01*
X41320Y-33498D01*
X41301Y-33507D01*
X41282Y-33507D01*
X41264Y-33498D01*
X41254Y-33479D01*
X41254Y-33432D01*
X41245Y-33414D01*
X41198Y-33339D02*
X41329Y-33292D01*
X41198Y-33245D02*
X41329Y-33292D01*
X41376Y-33310D01*
X41385Y-33320D01*
X41395Y-33339D01*
X41310Y-33170D02*
X41320Y-33160D01*
X41329Y-33170D01*
X41320Y-33179D01*
X41310Y-33170D01*
X41329Y-33170D01*
X41329Y-33076D02*
X41198Y-33076D01*
X41132Y-33076D02*
X41142Y-33085D01*
X41151Y-33076D01*
X41142Y-33067D01*
X41132Y-33076D01*
X41151Y-33076D01*
X41329Y-32954D02*
X41320Y-32973D01*
X41310Y-32982D01*
X41292Y-32992D01*
X41235Y-32992D01*
X41217Y-32982D01*
X41207Y-32973D01*
X41198Y-32954D01*
X41198Y-32926D01*
X41207Y-32907D01*
X41217Y-32898D01*
X41235Y-32889D01*
X41292Y-32889D01*
X41310Y-32898D01*
X41320Y-32907D01*
X41329Y-32926D01*
X41329Y-32954D01*
X41123Y-32664D02*
X41376Y-32832D01*
X41198Y-32598D02*
X41395Y-32598D01*
X41207Y-32598D02*
X41198Y-32579D01*
X41198Y-32542D01*
X41207Y-32523D01*
X41217Y-32514D01*
X41235Y-32504D01*
X41292Y-32504D01*
X41310Y-32514D01*
X41320Y-32523D01*
X41329Y-32542D01*
X41329Y-32579D01*
X41320Y-32598D01*
X41329Y-32420D02*
X41198Y-32420D01*
X41235Y-32420D02*
X41217Y-32411D01*
X41207Y-32401D01*
X41198Y-32382D01*
X41198Y-32364D01*
X41329Y-32270D02*
X41320Y-32289D01*
X41310Y-32298D01*
X41292Y-32307D01*
X41235Y-32307D01*
X41217Y-32298D01*
X41207Y-32289D01*
X41198Y-32270D01*
X41198Y-32242D01*
X41207Y-32223D01*
X41217Y-32214D01*
X41235Y-32204D01*
X41292Y-32204D01*
X41310Y-32214D01*
X41320Y-32223D01*
X41329Y-32242D01*
X41329Y-32270D01*
X41198Y-32120D02*
X41367Y-32120D01*
X41385Y-32129D01*
X41395Y-32148D01*
X41395Y-32157D01*
X41132Y-32120D02*
X41142Y-32129D01*
X41151Y-32120D01*
X41142Y-32111D01*
X41132Y-32120D01*
X41151Y-32120D01*
X41320Y-31951D02*
X41329Y-31970D01*
X41329Y-32007D01*
X41320Y-32026D01*
X41301Y-32036D01*
X41226Y-32036D01*
X41207Y-32026D01*
X41198Y-32007D01*
X41198Y-31970D01*
X41207Y-31951D01*
X41226Y-31942D01*
X41245Y-31942D01*
X41264Y-32036D01*
X41320Y-31773D02*
X41329Y-31792D01*
X41329Y-31829D01*
X41320Y-31848D01*
X41310Y-31857D01*
X41292Y-31867D01*
X41235Y-31867D01*
X41217Y-31857D01*
X41207Y-31848D01*
X41198Y-31829D01*
X41198Y-31792D01*
X41207Y-31773D01*
X41198Y-31717D02*
X41198Y-31642D01*
X41132Y-31689D02*
X41301Y-31689D01*
X41320Y-31679D01*
X41329Y-31661D01*
X41329Y-31642D01*
X41123Y-31436D02*
X41376Y-31604D01*
X41132Y-31389D02*
X41132Y-31258D01*
X41329Y-31342D01*
X41198Y-31098D02*
X41329Y-31098D01*
X41123Y-31145D02*
X41264Y-31192D01*
X41264Y-31070D01*
X41198Y-30911D02*
X41329Y-30911D01*
X41123Y-30958D02*
X41264Y-31004D01*
X41264Y-30883D01*
X41132Y-30826D02*
X41132Y-30705D01*
X41207Y-30770D01*
X41207Y-30742D01*
X41217Y-30723D01*
X41226Y-30714D01*
X41245Y-30705D01*
X41292Y-30705D01*
X41310Y-30714D01*
X41320Y-30723D01*
X41329Y-30742D01*
X41329Y-30798D01*
X41320Y-30817D01*
X41310Y-30826D01*
G54D11*
X41878Y-37890D02*
X41878Y-37758D01*
X42084Y-37702D02*
X42084Y-37890D01*
X41690Y-37890D01*
X41690Y-37702D01*
X41934Y-37533D02*
X41934Y-37233D01*
X42084Y-37046D02*
X41690Y-37046D01*
X41821Y-36858D02*
X42084Y-36858D01*
X41859Y-36858D02*
X41840Y-36840D01*
X41821Y-36802D01*
X41821Y-36746D01*
X41840Y-36708D01*
X41878Y-36690D01*
X42084Y-36690D01*
X42084Y-36502D02*
X41690Y-36502D01*
X41934Y-36465D02*
X42084Y-36352D01*
X41821Y-36352D02*
X41971Y-36502D01*
X42084Y-35884D02*
X41690Y-35884D01*
X41690Y-35790D01*
X41709Y-35734D01*
X41746Y-35696D01*
X41784Y-35677D01*
X41859Y-35659D01*
X41915Y-35659D01*
X41990Y-35677D01*
X42028Y-35696D01*
X42065Y-35734D01*
X42084Y-35790D01*
X42084Y-35884D01*
X42084Y-35490D02*
X41821Y-35490D01*
X41690Y-35490D02*
X41709Y-35509D01*
X41728Y-35490D01*
X41709Y-35471D01*
X41690Y-35490D01*
X41728Y-35490D01*
X42065Y-35321D02*
X42084Y-35284D01*
X42084Y-35209D01*
X42065Y-35171D01*
X42028Y-35152D01*
X42009Y-35152D01*
X41971Y-35171D01*
X41953Y-35209D01*
X41953Y-35265D01*
X41934Y-35302D01*
X41896Y-35321D01*
X41878Y-35321D01*
X41840Y-35302D01*
X41821Y-35265D01*
X41821Y-35209D01*
X41840Y-35171D01*
X41821Y-34984D02*
X42215Y-34984D01*
X41840Y-34984D02*
X41821Y-34946D01*
X41821Y-34871D01*
X41840Y-34834D01*
X41859Y-34815D01*
X41896Y-34796D01*
X42009Y-34796D01*
X42046Y-34815D01*
X42065Y-34834D01*
X42084Y-34871D01*
X42084Y-34946D01*
X42065Y-34984D01*
X42084Y-34571D02*
X42065Y-34609D01*
X42028Y-34627D01*
X41690Y-34627D01*
X42084Y-34253D02*
X41878Y-34253D01*
X41840Y-34271D01*
X41821Y-34309D01*
X41821Y-34384D01*
X41840Y-34421D01*
X42065Y-34253D02*
X42084Y-34290D01*
X42084Y-34384D01*
X42065Y-34421D01*
X42028Y-34440D01*
X41990Y-34440D01*
X41953Y-34421D01*
X41934Y-34384D01*
X41934Y-34290D01*
X41915Y-34253D01*
X41821Y-34103D02*
X42084Y-34009D01*
X41821Y-33915D02*
X42084Y-34009D01*
X42178Y-34046D01*
X42196Y-34065D01*
X42215Y-34103D01*
X41971Y-33484D02*
X41971Y-33296D01*
X42084Y-33521D02*
X41690Y-33390D01*
X42084Y-33259D01*
X42084Y-32959D02*
X41690Y-32959D01*
X42065Y-32959D02*
X42084Y-32996D01*
X42084Y-33071D01*
X42065Y-33109D01*
X42046Y-33128D01*
X42009Y-33146D01*
X41896Y-33146D01*
X41859Y-33128D01*
X41840Y-33109D01*
X41821Y-33071D01*
X41821Y-32996D01*
X41840Y-32959D01*
X42084Y-32603D02*
X41878Y-32603D01*
X41840Y-32621D01*
X41821Y-32659D01*
X41821Y-32734D01*
X41840Y-32771D01*
X42065Y-32603D02*
X42084Y-32640D01*
X42084Y-32734D01*
X42065Y-32771D01*
X42028Y-32790D01*
X41990Y-32790D01*
X41953Y-32771D01*
X41934Y-32734D01*
X41934Y-32640D01*
X41915Y-32603D01*
X41821Y-32415D02*
X42215Y-32415D01*
X41840Y-32415D02*
X41821Y-32378D01*
X41821Y-32303D01*
X41840Y-32265D01*
X41859Y-32247D01*
X41896Y-32228D01*
X42009Y-32228D01*
X42046Y-32247D01*
X42065Y-32265D01*
X42084Y-32303D01*
X42084Y-32378D01*
X42065Y-32415D01*
X41821Y-32115D02*
X41821Y-31965D01*
X41690Y-32059D02*
X42028Y-32059D01*
X42065Y-32040D01*
X42084Y-32003D01*
X42084Y-31965D01*
X42065Y-31684D02*
X42084Y-31722D01*
X42084Y-31797D01*
X42065Y-31834D01*
X42028Y-31853D01*
X41878Y-31853D01*
X41840Y-31834D01*
X41821Y-31797D01*
X41821Y-31722D01*
X41840Y-31684D01*
X41878Y-31665D01*
X41915Y-31665D01*
X41953Y-31853D01*
X42084Y-31497D02*
X41821Y-31497D01*
X41896Y-31497D02*
X41859Y-31478D01*
X41840Y-31459D01*
X41821Y-31422D01*
X41821Y-31384D01*
X41934Y-30953D02*
X41934Y-30653D01*
X42084Y-30166D02*
X41821Y-30166D01*
X41896Y-30166D02*
X41859Y-30147D01*
X41840Y-30128D01*
X41821Y-30091D01*
X41821Y-30053D01*
X42065Y-29772D02*
X42084Y-29809D01*
X42084Y-29884D01*
X42065Y-29922D01*
X42028Y-29941D01*
X41878Y-29941D01*
X41840Y-29922D01*
X41821Y-29884D01*
X41821Y-29809D01*
X41840Y-29772D01*
X41878Y-29753D01*
X41915Y-29753D01*
X41953Y-29941D01*
X41821Y-29622D02*
X42084Y-29528D01*
X41821Y-29434D01*
X42046Y-29284D02*
X42065Y-29266D01*
X42084Y-29284D01*
X42065Y-29303D01*
X42046Y-29284D01*
X42084Y-29284D01*
X42084Y-28591D02*
X42084Y-28816D01*
X42084Y-28703D02*
X41690Y-28703D01*
X41746Y-28741D01*
X41784Y-28778D01*
X41803Y-28816D01*
G54D12*
X38850Y-51467D02*
X38831Y-51457D01*
X38803Y-51457D01*
X38775Y-51467D01*
X38756Y-51485D01*
X38746Y-51504D01*
X38737Y-51542D01*
X38737Y-51570D01*
X38746Y-51607D01*
X38756Y-51626D01*
X38775Y-51645D01*
X38803Y-51654D01*
X38821Y-51654D01*
X38850Y-51645D01*
X38859Y-51635D01*
X38859Y-51570D01*
X38821Y-51570D01*
X38943Y-51654D02*
X38943Y-51457D01*
X39056Y-51654D01*
X39056Y-51457D01*
X39149Y-51654D02*
X39149Y-51457D01*
X39196Y-51457D01*
X39224Y-51467D01*
X39243Y-51485D01*
X39253Y-51504D01*
X39262Y-51542D01*
X39262Y-51570D01*
X39253Y-51607D01*
X39243Y-51626D01*
X39224Y-51645D01*
X39196Y-51654D01*
X39149Y-51654D01*
X32628Y-51579D02*
X32778Y-51579D01*
X32862Y-51476D02*
X32871Y-51467D01*
X32890Y-51457D01*
X32937Y-51457D01*
X32956Y-51467D01*
X32965Y-51476D01*
X32975Y-51495D01*
X32975Y-51514D01*
X32965Y-51542D01*
X32853Y-51654D01*
X32975Y-51654D01*
X33096Y-51457D02*
X33115Y-51457D01*
X33134Y-51467D01*
X33143Y-51476D01*
X33153Y-51495D01*
X33162Y-51532D01*
X33162Y-51579D01*
X33153Y-51617D01*
X33143Y-51635D01*
X33134Y-51645D01*
X33115Y-51654D01*
X33096Y-51654D01*
X33078Y-51645D01*
X33068Y-51635D01*
X33059Y-51617D01*
X33049Y-51579D01*
X33049Y-51532D01*
X33059Y-51495D01*
X33068Y-51476D01*
X33078Y-51467D01*
X33096Y-51457D01*
X33218Y-51457D02*
X33284Y-51654D01*
X33349Y-51457D01*
X33378Y-42454D02*
X33528Y-42454D01*
X33453Y-42529D02*
X33453Y-42379D01*
X33612Y-42351D02*
X33621Y-42342D01*
X33640Y-42332D01*
X33687Y-42332D01*
X33706Y-42342D01*
X33715Y-42351D01*
X33725Y-42370D01*
X33725Y-42389D01*
X33715Y-42417D01*
X33603Y-42529D01*
X33725Y-42529D01*
X33799Y-42351D02*
X33809Y-42342D01*
X33828Y-42332D01*
X33874Y-42332D01*
X33893Y-42342D01*
X33903Y-42351D01*
X33912Y-42370D01*
X33912Y-42389D01*
X33903Y-42417D01*
X33790Y-42529D01*
X33912Y-42529D01*
X33968Y-42332D02*
X34034Y-42529D01*
X34099Y-42332D01*
X38653Y-34454D02*
X38803Y-34454D01*
X38728Y-34529D02*
X38728Y-34379D01*
X39000Y-34529D02*
X38887Y-34529D01*
X38943Y-34529D02*
X38943Y-34332D01*
X38925Y-34360D01*
X38906Y-34379D01*
X38887Y-34389D01*
X39178Y-34332D02*
X39084Y-34332D01*
X39074Y-34426D01*
X39084Y-34417D01*
X39103Y-34407D01*
X39149Y-34407D01*
X39168Y-34417D01*
X39178Y-34426D01*
X39187Y-34445D01*
X39187Y-34492D01*
X39178Y-34510D01*
X39168Y-34520D01*
X39149Y-34529D01*
X39103Y-34529D01*
X39084Y-34520D01*
X39074Y-34510D01*
X39243Y-34332D02*
X39309Y-34529D01*
X39374Y-34332D01*
X33320Y-38693D02*
X33329Y-38665D01*
X33329Y-38618D01*
X33320Y-38599D01*
X33310Y-38590D01*
X33292Y-38581D01*
X33273Y-38581D01*
X33254Y-38590D01*
X33245Y-38599D01*
X33235Y-38618D01*
X33226Y-38656D01*
X33217Y-38674D01*
X33207Y-38684D01*
X33189Y-38693D01*
X33170Y-38693D01*
X33151Y-38684D01*
X33142Y-38674D01*
X33132Y-38656D01*
X33132Y-38609D01*
X33142Y-38581D01*
X33226Y-38496D02*
X33226Y-38431D01*
X33329Y-38403D02*
X33329Y-38496D01*
X33132Y-38496D01*
X33132Y-38403D01*
X33132Y-38346D02*
X33132Y-38234D01*
X33329Y-38290D02*
X33132Y-38290D01*
X33132Y-38046D02*
X33329Y-37981D01*
X33132Y-37915D01*
X33310Y-37737D02*
X33320Y-37746D01*
X33329Y-37775D01*
X33329Y-37793D01*
X33320Y-37821D01*
X33301Y-37840D01*
X33282Y-37850D01*
X33245Y-37859D01*
X33217Y-37859D01*
X33179Y-37850D01*
X33160Y-37840D01*
X33142Y-37821D01*
X33132Y-37793D01*
X33132Y-37775D01*
X33142Y-37746D01*
X33151Y-37737D01*
X33132Y-37615D02*
X33132Y-37578D01*
X33142Y-37559D01*
X33160Y-37540D01*
X33198Y-37531D01*
X33264Y-37531D01*
X33301Y-37540D01*
X33320Y-37559D01*
X33329Y-37578D01*
X33329Y-37615D01*
X33320Y-37634D01*
X33301Y-37653D01*
X33264Y-37662D01*
X33198Y-37662D01*
X33160Y-37653D01*
X33142Y-37634D01*
X33132Y-37615D01*
X33329Y-37446D02*
X33132Y-37446D01*
X33273Y-37381D01*
X33132Y-37315D01*
X33329Y-37315D01*
X36620Y-36457D02*
X36685Y-36654D01*
X36751Y-36457D01*
X36929Y-36635D02*
X36920Y-36645D01*
X36892Y-36654D01*
X36873Y-36654D01*
X36845Y-36645D01*
X36826Y-36626D01*
X36817Y-36607D01*
X36807Y-36570D01*
X36807Y-36542D01*
X36817Y-36504D01*
X36826Y-36485D01*
X36845Y-36467D01*
X36873Y-36457D01*
X36892Y-36457D01*
X36920Y-36467D01*
X36929Y-36476D01*
X37051Y-36457D02*
X37089Y-36457D01*
X37107Y-36467D01*
X37126Y-36485D01*
X37135Y-36523D01*
X37135Y-36589D01*
X37126Y-36626D01*
X37107Y-36645D01*
X37089Y-36654D01*
X37051Y-36654D01*
X37032Y-36645D01*
X37014Y-36626D01*
X37004Y-36589D01*
X37004Y-36523D01*
X37014Y-36485D01*
X37032Y-36467D01*
X37051Y-36457D01*
X37220Y-36654D02*
X37220Y-36457D01*
X37285Y-36598D01*
X37351Y-36457D01*
X37351Y-36654D01*
X35628Y-36579D02*
X35778Y-36579D01*
X35975Y-36654D02*
X35862Y-36654D01*
X35918Y-36654D02*
X35918Y-36457D01*
X35900Y-36485D01*
X35881Y-36504D01*
X35862Y-36514D01*
X36153Y-36457D02*
X36059Y-36457D01*
X36049Y-36551D01*
X36059Y-36542D01*
X36078Y-36532D01*
X36124Y-36532D01*
X36143Y-36542D01*
X36153Y-36551D01*
X36162Y-36570D01*
X36162Y-36617D01*
X36153Y-36635D01*
X36143Y-36645D01*
X36124Y-36654D01*
X36078Y-36654D01*
X36059Y-36645D01*
X36049Y-36635D01*
X36218Y-36457D02*
X36284Y-36654D01*
X36349Y-36457D01*
X36628Y-33454D02*
X36778Y-33454D01*
X36703Y-33529D02*
X36703Y-33379D01*
X36862Y-33351D02*
X36871Y-33342D01*
X36890Y-33332D01*
X36937Y-33332D01*
X36956Y-33342D01*
X36965Y-33351D01*
X36975Y-33370D01*
X36975Y-33389D01*
X36965Y-33417D01*
X36853Y-33529D01*
X36975Y-33529D01*
X37049Y-33351D02*
X37059Y-33342D01*
X37078Y-33332D01*
X37124Y-33332D01*
X37143Y-33342D01*
X37153Y-33351D01*
X37162Y-33370D01*
X37162Y-33389D01*
X37153Y-33417D01*
X37040Y-33529D01*
X37162Y-33529D01*
X37218Y-33332D02*
X37284Y-33529D01*
X37349Y-33332D01*
X35653Y-33454D02*
X35803Y-33454D01*
X35887Y-33351D02*
X35896Y-33342D01*
X35915Y-33332D01*
X35962Y-33332D01*
X35981Y-33342D01*
X35990Y-33351D01*
X36000Y-33370D01*
X36000Y-33389D01*
X35990Y-33417D01*
X35878Y-33529D01*
X36000Y-33529D01*
X36121Y-33332D02*
X36140Y-33332D01*
X36159Y-33342D01*
X36168Y-33351D01*
X36178Y-33370D01*
X36187Y-33407D01*
X36187Y-33454D01*
X36178Y-33492D01*
X36168Y-33510D01*
X36159Y-33520D01*
X36140Y-33529D01*
X36121Y-33529D01*
X36103Y-33520D01*
X36093Y-33510D01*
X36084Y-33492D01*
X36074Y-33454D01*
X36074Y-33407D01*
X36084Y-33370D01*
X36093Y-33351D01*
X36103Y-33342D01*
X36121Y-33332D01*
X36243Y-33332D02*
X36309Y-33529D01*
X36374Y-33332D01*
X40639Y-29382D02*
X40704Y-29579D01*
X40770Y-29382D01*
X40835Y-29579D02*
X40835Y-29382D01*
X40910Y-29382D01*
X40929Y-29392D01*
X40939Y-29401D01*
X40948Y-29420D01*
X40948Y-29448D01*
X40939Y-29467D01*
X40929Y-29476D01*
X40910Y-29485D01*
X40835Y-29485D01*
X41070Y-29382D02*
X41107Y-29382D01*
X41126Y-29392D01*
X41145Y-29410D01*
X41154Y-29448D01*
X41154Y-29514D01*
X41145Y-29551D01*
X41126Y-29570D01*
X41107Y-29579D01*
X41070Y-29579D01*
X41051Y-29570D01*
X41032Y-29551D01*
X41023Y-29514D01*
X41023Y-29448D01*
X41032Y-29410D01*
X41051Y-29392D01*
X41070Y-29382D01*
X41229Y-29570D02*
X41257Y-29579D01*
X41304Y-29579D01*
X41323Y-29570D01*
X41332Y-29560D01*
X41342Y-29542D01*
X41342Y-29523D01*
X41332Y-29504D01*
X41323Y-29495D01*
X41304Y-29485D01*
X41267Y-29476D01*
X41248Y-29467D01*
X41239Y-29457D01*
X41229Y-29439D01*
X41229Y-29420D01*
X41239Y-29401D01*
X41248Y-29392D01*
X41267Y-29382D01*
X41314Y-29382D01*
X41342Y-29392D01*
X39643Y-30382D02*
X39709Y-30579D01*
X39775Y-30382D01*
X39840Y-30579D02*
X39840Y-30382D01*
X39953Y-30579D01*
X39953Y-30382D01*
X40046Y-30476D02*
X40112Y-30476D01*
X40140Y-30579D02*
X40046Y-30579D01*
X40046Y-30382D01*
X40140Y-30382D01*
X40328Y-30392D02*
X40309Y-30382D01*
X40281Y-30382D01*
X40253Y-30392D01*
X40234Y-30410D01*
X40224Y-30429D01*
X40215Y-30467D01*
X40215Y-30495D01*
X40224Y-30532D01*
X40234Y-30551D01*
X40253Y-30570D01*
X40281Y-30579D01*
X40299Y-30579D01*
X40328Y-30570D01*
X40337Y-30560D01*
X40337Y-30495D01*
X40299Y-30495D01*
X36770Y-31392D02*
X36751Y-31382D01*
X36723Y-31382D01*
X36695Y-31392D01*
X36676Y-31410D01*
X36667Y-31429D01*
X36657Y-31467D01*
X36657Y-31495D01*
X36667Y-31532D01*
X36676Y-31551D01*
X36695Y-31570D01*
X36723Y-31579D01*
X36742Y-31579D01*
X36770Y-31570D01*
X36779Y-31560D01*
X36779Y-31495D01*
X36742Y-31495D01*
X36835Y-31382D02*
X36901Y-31579D01*
X36967Y-31382D01*
X37032Y-31579D02*
X37032Y-31382D01*
X37079Y-31382D01*
X37107Y-31392D01*
X37126Y-31410D01*
X37135Y-31429D01*
X37145Y-31467D01*
X37145Y-31495D01*
X37135Y-31532D01*
X37126Y-31551D01*
X37107Y-31570D01*
X37079Y-31579D01*
X37032Y-31579D01*
X37229Y-31579D02*
X37229Y-31382D01*
X37276Y-31382D01*
X37304Y-31392D01*
X37323Y-31410D01*
X37332Y-31429D01*
X37342Y-31467D01*
X37342Y-31495D01*
X37332Y-31532D01*
X37323Y-31551D01*
X37304Y-31570D01*
X37276Y-31579D01*
X37229Y-31579D01*
X32348Y-32382D02*
X32414Y-32579D01*
X32479Y-32382D01*
X32610Y-32476D02*
X32639Y-32485D01*
X32648Y-32495D01*
X32657Y-32514D01*
X32657Y-32542D01*
X32648Y-32560D01*
X32639Y-32570D01*
X32620Y-32579D01*
X32545Y-32579D01*
X32545Y-32382D01*
X32610Y-32382D01*
X32629Y-32392D01*
X32639Y-32401D01*
X32648Y-32420D01*
X32648Y-32439D01*
X32639Y-32457D01*
X32629Y-32467D01*
X32610Y-32476D01*
X32545Y-32476D01*
X32779Y-32382D02*
X32817Y-32382D01*
X32835Y-32392D01*
X32854Y-32410D01*
X32864Y-32448D01*
X32864Y-32514D01*
X32854Y-32551D01*
X32835Y-32570D01*
X32817Y-32579D01*
X32779Y-32579D01*
X32760Y-32570D01*
X32742Y-32551D01*
X32732Y-32514D01*
X32732Y-32448D01*
X32742Y-32410D01*
X32760Y-32392D01*
X32779Y-32382D01*
X33060Y-32579D02*
X32995Y-32485D01*
X32948Y-32579D02*
X32948Y-32382D01*
X33023Y-32382D01*
X33042Y-32392D01*
X33051Y-32401D01*
X33060Y-32420D01*
X33060Y-32448D01*
X33051Y-32467D01*
X33042Y-32476D01*
X33023Y-32485D01*
X32948Y-32485D01*
X33145Y-32579D02*
X33145Y-32382D01*
X33192Y-32382D01*
X33220Y-32392D01*
X33239Y-32410D01*
X33248Y-32429D01*
X33257Y-32467D01*
X33257Y-32495D01*
X33248Y-32532D01*
X33239Y-32551D01*
X33220Y-32570D01*
X33192Y-32579D01*
X33145Y-32579D01*
X33342Y-32476D02*
X33407Y-32476D01*
X33435Y-32579D02*
X33342Y-32579D01*
X33342Y-32382D01*
X33435Y-32382D01*
X33632Y-32579D02*
X33567Y-32485D01*
X33520Y-32579D02*
X33520Y-32382D01*
X33595Y-32382D01*
X33613Y-32392D01*
X33623Y-32401D01*
X33632Y-32420D01*
X33632Y-32448D01*
X33623Y-32467D01*
X33613Y-32476D01*
X33595Y-32485D01*
X33520Y-32485D01*
X42057Y-48356D02*
X42254Y-48290D01*
X42057Y-48224D01*
X42254Y-48159D02*
X42057Y-48159D01*
X42254Y-48046D01*
X42057Y-48046D01*
X42151Y-47953D02*
X42151Y-47887D01*
X42254Y-47859D02*
X42254Y-47953D01*
X42057Y-47953D01*
X42057Y-47859D01*
X42067Y-47671D02*
X42057Y-47690D01*
X42057Y-47718D01*
X42067Y-47746D01*
X42085Y-47765D01*
X42104Y-47775D01*
X42142Y-47784D01*
X42170Y-47784D01*
X42207Y-47775D01*
X42226Y-47765D01*
X42245Y-47746D01*
X42254Y-47718D01*
X42254Y-47700D01*
X42245Y-47671D01*
X42235Y-47662D01*
X42170Y-47662D01*
X42170Y-47700D01*
X42560Y-48192D02*
X42570Y-48201D01*
X42579Y-48229D01*
X42579Y-48248D01*
X42570Y-48276D01*
X42551Y-48295D01*
X42532Y-48304D01*
X42495Y-48314D01*
X42466Y-48314D01*
X42429Y-48304D01*
X42410Y-48295D01*
X42392Y-48276D01*
X42382Y-48248D01*
X42382Y-48229D01*
X42392Y-48201D01*
X42401Y-48192D01*
X42382Y-48135D02*
X42382Y-48023D01*
X42579Y-48079D02*
X42382Y-48079D01*
X42579Y-47845D02*
X42485Y-47910D01*
X42579Y-47957D02*
X42382Y-47957D01*
X42382Y-47882D01*
X42392Y-47864D01*
X42401Y-47854D01*
X42420Y-47845D01*
X42448Y-47845D01*
X42466Y-47854D01*
X42476Y-47864D01*
X42485Y-47882D01*
X42485Y-47957D01*
X42579Y-47667D02*
X42579Y-47760D01*
X42382Y-47760D01*
X42057Y-47360D02*
X42254Y-47295D01*
X42057Y-47229D01*
X42254Y-47164D02*
X42057Y-47164D01*
X42057Y-47089D01*
X42067Y-47070D01*
X42076Y-47060D01*
X42095Y-47051D01*
X42123Y-47051D01*
X42142Y-47060D01*
X42151Y-47070D01*
X42160Y-47089D01*
X42160Y-47164D01*
X42057Y-46929D02*
X42057Y-46892D01*
X42067Y-46873D01*
X42085Y-46854D01*
X42123Y-46845D01*
X42189Y-46845D01*
X42226Y-46854D01*
X42245Y-46873D01*
X42254Y-46892D01*
X42254Y-46929D01*
X42245Y-46948D01*
X42226Y-46967D01*
X42189Y-46976D01*
X42123Y-46976D01*
X42085Y-46967D01*
X42067Y-46948D01*
X42057Y-46929D01*
X42245Y-46770D02*
X42254Y-46742D01*
X42254Y-46695D01*
X42245Y-46676D01*
X42235Y-46667D01*
X42217Y-46657D01*
X42198Y-46657D01*
X42179Y-46667D01*
X42170Y-46676D01*
X42160Y-46695D01*
X42151Y-46732D01*
X42142Y-46751D01*
X42132Y-46760D01*
X42114Y-46770D01*
X42095Y-46770D01*
X42076Y-46760D01*
X42067Y-46751D01*
X42057Y-46732D01*
X42057Y-46685D01*
X42067Y-46657D01*
X42560Y-47192D02*
X42570Y-47201D01*
X42579Y-47229D01*
X42579Y-47248D01*
X42570Y-47276D01*
X42551Y-47295D01*
X42532Y-47304D01*
X42495Y-47314D01*
X42466Y-47314D01*
X42429Y-47304D01*
X42410Y-47295D01*
X42392Y-47276D01*
X42382Y-47248D01*
X42382Y-47229D01*
X42392Y-47201D01*
X42401Y-47192D01*
X42382Y-47135D02*
X42382Y-47023D01*
X42579Y-47079D02*
X42382Y-47079D01*
X42579Y-46845D02*
X42485Y-46910D01*
X42579Y-46957D02*
X42382Y-46957D01*
X42382Y-46882D01*
X42392Y-46864D01*
X42401Y-46854D01*
X42420Y-46845D01*
X42448Y-46845D01*
X42466Y-46854D01*
X42476Y-46864D01*
X42485Y-46882D01*
X42485Y-46957D01*
X42579Y-46667D02*
X42579Y-46760D01*
X42382Y-46760D01*
X42245Y-46360D02*
X42254Y-46332D01*
X42254Y-46285D01*
X42245Y-46267D01*
X42235Y-46257D01*
X42217Y-46248D01*
X42198Y-46248D01*
X42179Y-46257D01*
X42170Y-46267D01*
X42160Y-46285D01*
X42151Y-46323D01*
X42142Y-46342D01*
X42132Y-46351D01*
X42114Y-46360D01*
X42095Y-46360D01*
X42076Y-46351D01*
X42067Y-46342D01*
X42057Y-46323D01*
X42057Y-46276D01*
X42067Y-46248D01*
X42254Y-46164D02*
X42057Y-46164D01*
X42198Y-46098D01*
X42057Y-46032D01*
X42254Y-46032D01*
X42254Y-45939D02*
X42057Y-45939D01*
X42057Y-45864D01*
X42067Y-45845D01*
X42076Y-45835D01*
X42095Y-45826D01*
X42123Y-45826D01*
X42142Y-45835D01*
X42151Y-45845D01*
X42160Y-45864D01*
X42160Y-45939D01*
X42245Y-45751D02*
X42254Y-45723D01*
X42254Y-45676D01*
X42245Y-45657D01*
X42235Y-45648D01*
X42217Y-45639D01*
X42198Y-45639D01*
X42179Y-45648D01*
X42170Y-45657D01*
X42160Y-45676D01*
X42151Y-45714D01*
X42142Y-45732D01*
X42132Y-45742D01*
X42114Y-45751D01*
X42095Y-45751D01*
X42076Y-45742D01*
X42067Y-45732D01*
X42057Y-45714D01*
X42057Y-45667D01*
X42067Y-45639D01*
X42560Y-46192D02*
X42570Y-46201D01*
X42579Y-46229D01*
X42579Y-46248D01*
X42570Y-46276D01*
X42551Y-46295D01*
X42532Y-46304D01*
X42495Y-46314D01*
X42466Y-46314D01*
X42429Y-46304D01*
X42410Y-46295D01*
X42392Y-46276D01*
X42382Y-46248D01*
X42382Y-46229D01*
X42392Y-46201D01*
X42401Y-46192D01*
X42382Y-46135D02*
X42382Y-46023D01*
X42579Y-46079D02*
X42382Y-46079D01*
X42579Y-45845D02*
X42485Y-45910D01*
X42579Y-45957D02*
X42382Y-45957D01*
X42382Y-45882D01*
X42392Y-45864D01*
X42401Y-45854D01*
X42420Y-45845D01*
X42448Y-45845D01*
X42466Y-45854D01*
X42476Y-45864D01*
X42485Y-45882D01*
X42485Y-45957D01*
X42579Y-45667D02*
X42579Y-45760D01*
X42382Y-45760D01*
X42382Y-45243D02*
X42382Y-45121D01*
X42457Y-45187D01*
X42457Y-45159D01*
X42467Y-45140D01*
X42476Y-45131D01*
X42495Y-45121D01*
X42542Y-45121D01*
X42560Y-45131D01*
X42570Y-45140D01*
X42579Y-45159D01*
X42579Y-45215D01*
X42570Y-45234D01*
X42560Y-45243D01*
X42382Y-45065D02*
X42579Y-44999D01*
X42382Y-44934D01*
X42382Y-44887D02*
X42382Y-44765D01*
X42457Y-44831D01*
X42457Y-44803D01*
X42467Y-44784D01*
X42476Y-44775D01*
X42495Y-44765D01*
X42542Y-44765D01*
X42560Y-44775D01*
X42570Y-44784D01*
X42579Y-44803D01*
X42579Y-44859D01*
X42570Y-44878D01*
X42560Y-44887D01*
X42392Y-44149D02*
X42382Y-44168D01*
X42382Y-44196D01*
X42392Y-44224D01*
X42410Y-44243D01*
X42429Y-44253D01*
X42467Y-44262D01*
X42495Y-44262D01*
X42532Y-44253D01*
X42551Y-44243D01*
X42570Y-44224D01*
X42579Y-44196D01*
X42579Y-44178D01*
X42570Y-44149D01*
X42560Y-44140D01*
X42495Y-44140D01*
X42495Y-44178D01*
X42579Y-44056D02*
X42382Y-44056D01*
X42579Y-43943D01*
X42382Y-43943D01*
X42579Y-43850D02*
X42382Y-43850D01*
X42382Y-43803D01*
X42392Y-43775D01*
X42410Y-43756D01*
X42429Y-43746D01*
X42467Y-43737D01*
X42495Y-43737D01*
X42532Y-43746D01*
X42551Y-43756D01*
X42570Y-43775D01*
X42579Y-43803D01*
X42579Y-43850D01*
X42579Y-43145D02*
X42382Y-43145D01*
X42382Y-43098D01*
X42392Y-43070D01*
X42410Y-43051D01*
X42429Y-43042D01*
X42467Y-43032D01*
X42495Y-43032D01*
X42532Y-43042D01*
X42551Y-43051D01*
X42570Y-43070D01*
X42579Y-43098D01*
X42579Y-43145D01*
X42382Y-42967D02*
X42382Y-42835D01*
X42579Y-42920D01*
X42579Y-42145D02*
X42382Y-42145D01*
X42382Y-42098D01*
X42392Y-42070D01*
X42410Y-42051D01*
X42429Y-42042D01*
X42467Y-42032D01*
X42495Y-42032D01*
X42532Y-42042D01*
X42551Y-42051D01*
X42570Y-42070D01*
X42579Y-42098D01*
X42579Y-42145D01*
X42382Y-41854D02*
X42382Y-41948D01*
X42476Y-41957D01*
X42467Y-41948D01*
X42457Y-41929D01*
X42457Y-41882D01*
X42467Y-41864D01*
X42476Y-41854D01*
X42495Y-41845D01*
X42542Y-41845D01*
X42560Y-41854D01*
X42570Y-41864D01*
X42579Y-41882D01*
X42579Y-41929D01*
X42570Y-41948D01*
X42560Y-41957D01*
X42579Y-41145D02*
X42382Y-41145D01*
X42382Y-41098D01*
X42392Y-41070D01*
X42410Y-41051D01*
X42429Y-41042D01*
X42467Y-41032D01*
X42495Y-41032D01*
X42532Y-41042D01*
X42551Y-41051D01*
X42570Y-41070D01*
X42579Y-41098D01*
X42579Y-41145D01*
X42382Y-40967D02*
X42382Y-40845D01*
X42457Y-40910D01*
X42457Y-40882D01*
X42467Y-40864D01*
X42476Y-40854D01*
X42495Y-40845D01*
X42542Y-40845D01*
X42560Y-40854D01*
X42570Y-40864D01*
X42579Y-40882D01*
X42579Y-40939D01*
X42570Y-40957D01*
X42560Y-40967D01*
X42579Y-40145D02*
X42382Y-40145D01*
X42382Y-40098D01*
X42392Y-40070D01*
X42410Y-40051D01*
X42429Y-40042D01*
X42467Y-40032D01*
X42495Y-40032D01*
X42532Y-40042D01*
X42551Y-40051D01*
X42570Y-40070D01*
X42579Y-40098D01*
X42579Y-40145D01*
X42579Y-39845D02*
X42579Y-39957D01*
X42579Y-39901D02*
X42382Y-39901D01*
X42410Y-39920D01*
X42429Y-39939D01*
X42439Y-39957D01*
X42570Y-39257D02*
X42579Y-39229D01*
X42579Y-39182D01*
X42570Y-39164D01*
X42560Y-39154D01*
X42542Y-39145D01*
X42523Y-39145D01*
X42504Y-39154D01*
X42495Y-39164D01*
X42485Y-39182D01*
X42476Y-39220D01*
X42467Y-39239D01*
X42457Y-39248D01*
X42439Y-39257D01*
X42420Y-39257D01*
X42401Y-39248D01*
X42392Y-39239D01*
X42382Y-39220D01*
X42382Y-39173D01*
X42392Y-39145D01*
X42579Y-39060D02*
X42382Y-39060D01*
X42382Y-38985D01*
X42392Y-38967D01*
X42401Y-38957D01*
X42420Y-38948D01*
X42448Y-38948D01*
X42467Y-38957D01*
X42476Y-38967D01*
X42485Y-38985D01*
X42485Y-39060D01*
X42579Y-38864D02*
X42382Y-38864D01*
X42476Y-38864D02*
X42476Y-38751D01*
X42579Y-38751D02*
X42382Y-38751D01*
X42579Y-38145D02*
X42382Y-38145D01*
X42382Y-38070D01*
X42392Y-38051D01*
X42401Y-38042D01*
X42420Y-38032D01*
X42448Y-38032D01*
X42467Y-38042D01*
X42476Y-38051D01*
X42485Y-38070D01*
X42485Y-38145D01*
X42579Y-37939D02*
X42579Y-37901D01*
X42570Y-37882D01*
X42560Y-37873D01*
X42532Y-37854D01*
X42495Y-37845D01*
X42420Y-37845D01*
X42401Y-37854D01*
X42392Y-37864D01*
X42382Y-37882D01*
X42382Y-37920D01*
X42392Y-37939D01*
X42401Y-37948D01*
X42420Y-37957D01*
X42467Y-37957D01*
X42485Y-37948D01*
X42495Y-37939D01*
X42504Y-37920D01*
X42504Y-37882D01*
X42495Y-37864D01*
X42485Y-37854D01*
X42467Y-37845D01*
X42382Y-37107D02*
X42382Y-37070D01*
X42392Y-37051D01*
X42410Y-37032D01*
X42448Y-37023D01*
X42514Y-37023D01*
X42551Y-37032D01*
X42570Y-37051D01*
X42579Y-37070D01*
X42579Y-37107D01*
X42570Y-37126D01*
X42551Y-37145D01*
X42514Y-37154D01*
X42448Y-37154D01*
X42410Y-37145D01*
X42392Y-37126D01*
X42382Y-37107D01*
X42476Y-36939D02*
X42476Y-36873D01*
X42579Y-36845D02*
X42579Y-36939D01*
X42382Y-36939D01*
X42382Y-36845D01*
X42560Y-36018D02*
X42570Y-36028D01*
X42579Y-36056D01*
X42579Y-36074D01*
X42570Y-36103D01*
X42551Y-36121D01*
X42532Y-36131D01*
X42495Y-36140D01*
X42467Y-36140D01*
X42429Y-36131D01*
X42410Y-36121D01*
X42392Y-36103D01*
X42382Y-36074D01*
X42382Y-36056D01*
X42392Y-36028D01*
X42401Y-36018D01*
X42579Y-35840D02*
X42579Y-35934D01*
X42382Y-35934D01*
X42382Y-35262D02*
X42579Y-35196D01*
X42382Y-35131D01*
X42579Y-35065D02*
X42382Y-35065D01*
X42382Y-35018D01*
X42392Y-34990D01*
X42410Y-34971D01*
X42429Y-34962D01*
X42467Y-34953D01*
X42495Y-34953D01*
X42532Y-34962D01*
X42551Y-34971D01*
X42570Y-34990D01*
X42579Y-35018D01*
X42579Y-35065D01*
X42579Y-34868D02*
X42382Y-34868D01*
X42382Y-34821D01*
X42392Y-34793D01*
X42410Y-34775D01*
X42429Y-34765D01*
X42467Y-34756D01*
X42495Y-34756D01*
X42532Y-34765D01*
X42551Y-34775D01*
X42570Y-34793D01*
X42579Y-34821D01*
X42579Y-34868D01*
X42579Y-34028D02*
X42579Y-34121D01*
X42382Y-34121D01*
X42476Y-33962D02*
X42476Y-33896D01*
X42579Y-33868D02*
X42579Y-33962D01*
X42382Y-33962D01*
X42382Y-33868D01*
X42579Y-33239D02*
X42382Y-33239D01*
X42382Y-33164D01*
X42392Y-33145D01*
X42401Y-33135D01*
X42420Y-33126D01*
X42448Y-33126D01*
X42467Y-33135D01*
X42476Y-33145D01*
X42485Y-33164D01*
X42485Y-33239D01*
X42579Y-32939D02*
X42579Y-33051D01*
X42579Y-32995D02*
X42382Y-32995D01*
X42410Y-33014D01*
X42429Y-33032D01*
X42439Y-33051D01*
X42382Y-32817D02*
X42382Y-32798D01*
X42392Y-32779D01*
X42401Y-32770D01*
X42420Y-32760D01*
X42457Y-32751D01*
X42504Y-32751D01*
X42542Y-32760D01*
X42560Y-32770D01*
X42570Y-32779D01*
X42579Y-32798D01*
X42579Y-32817D01*
X42570Y-32835D01*
X42560Y-32845D01*
X42542Y-32854D01*
X42504Y-32864D01*
X42457Y-32864D01*
X42420Y-32854D01*
X42401Y-32845D01*
X42392Y-32835D01*
X42382Y-32817D01*
X42579Y-32145D02*
X42382Y-32145D01*
X42382Y-32098D01*
X42392Y-32070D01*
X42410Y-32051D01*
X42429Y-32042D01*
X42467Y-32032D01*
X42495Y-32032D01*
X42532Y-32042D01*
X42551Y-32051D01*
X42570Y-32070D01*
X42579Y-32098D01*
X42579Y-32145D01*
X42382Y-31910D02*
X42382Y-31892D01*
X42392Y-31873D01*
X42401Y-31864D01*
X42420Y-31854D01*
X42457Y-31845D01*
X42504Y-31845D01*
X42542Y-31854D01*
X42560Y-31864D01*
X42570Y-31873D01*
X42579Y-31892D01*
X42579Y-31910D01*
X42570Y-31929D01*
X42560Y-31939D01*
X42542Y-31948D01*
X42504Y-31957D01*
X42457Y-31957D01*
X42420Y-31948D01*
X42401Y-31939D01*
X42392Y-31929D01*
X42382Y-31910D01*
X42579Y-31145D02*
X42382Y-31145D01*
X42382Y-31098D01*
X42392Y-31070D01*
X42410Y-31051D01*
X42429Y-31042D01*
X42467Y-31032D01*
X42495Y-31032D01*
X42532Y-31042D01*
X42551Y-31051D01*
X42570Y-31070D01*
X42579Y-31098D01*
X42579Y-31145D01*
X42401Y-30957D02*
X42392Y-30948D01*
X42382Y-30929D01*
X42382Y-30882D01*
X42392Y-30864D01*
X42401Y-30854D01*
X42420Y-30845D01*
X42439Y-30845D01*
X42467Y-30854D01*
X42579Y-30967D01*
X42579Y-30845D01*
X42579Y-30145D02*
X42382Y-30145D01*
X42382Y-30098D01*
X42392Y-30070D01*
X42410Y-30051D01*
X42429Y-30042D01*
X42467Y-30032D01*
X42495Y-30032D01*
X42532Y-30042D01*
X42551Y-30051D01*
X42570Y-30070D01*
X42579Y-30098D01*
X42579Y-30145D01*
X42448Y-29864D02*
X42579Y-29864D01*
X42373Y-29910D02*
X42514Y-29957D01*
X42514Y-29835D01*
X42579Y-29145D02*
X42382Y-29145D01*
X42382Y-29098D01*
X42392Y-29070D01*
X42410Y-29051D01*
X42429Y-29042D01*
X42467Y-29032D01*
X42495Y-29032D01*
X42532Y-29042D01*
X42551Y-29051D01*
X42570Y-29070D01*
X42579Y-29098D01*
X42579Y-29145D01*
X42382Y-28864D02*
X42382Y-28901D01*
X42392Y-28920D01*
X42401Y-28929D01*
X42429Y-28948D01*
X42467Y-28957D01*
X42542Y-28957D01*
X42560Y-28948D01*
X42570Y-28939D01*
X42579Y-28920D01*
X42579Y-28882D01*
X42570Y-28864D01*
X42560Y-28854D01*
X42542Y-28845D01*
X42495Y-28845D01*
X42476Y-28854D01*
X42467Y-28864D01*
X42457Y-28882D01*
X42457Y-28920D01*
X42467Y-28939D01*
X42476Y-28948D01*
X42495Y-28957D01*
X31420Y-41760D02*
X31617Y-41760D01*
X31617Y-41835D01*
X31607Y-41854D01*
X31598Y-41864D01*
X31579Y-41873D01*
X31551Y-41873D01*
X31532Y-41864D01*
X31523Y-41854D01*
X31514Y-41835D01*
X31514Y-41760D01*
X31598Y-41948D02*
X31607Y-41957D01*
X31617Y-41976D01*
X31617Y-42023D01*
X31607Y-42042D01*
X31598Y-42051D01*
X31579Y-42060D01*
X31560Y-42060D01*
X31532Y-42051D01*
X31420Y-41939D01*
X31420Y-42060D01*
X31420Y-42248D02*
X31420Y-42135D01*
X31420Y-42192D02*
X31617Y-42192D01*
X31589Y-42173D01*
X31570Y-42154D01*
X31560Y-42135D01*
X31420Y-40760D02*
X31617Y-40760D01*
X31617Y-40835D01*
X31607Y-40854D01*
X31598Y-40864D01*
X31579Y-40873D01*
X31551Y-40873D01*
X31532Y-40864D01*
X31523Y-40854D01*
X31514Y-40835D01*
X31514Y-40760D01*
X31598Y-40948D02*
X31607Y-40957D01*
X31617Y-40976D01*
X31617Y-41023D01*
X31607Y-41042D01*
X31598Y-41051D01*
X31579Y-41060D01*
X31560Y-41060D01*
X31532Y-41051D01*
X31420Y-40939D01*
X31420Y-41060D01*
X31617Y-41239D02*
X31617Y-41145D01*
X31523Y-41135D01*
X31532Y-41145D01*
X31542Y-41164D01*
X31542Y-41210D01*
X31532Y-41229D01*
X31523Y-41239D01*
X31504Y-41248D01*
X31457Y-41248D01*
X31439Y-41239D01*
X31429Y-41229D01*
X31420Y-41210D01*
X31420Y-41164D01*
X31429Y-41145D01*
X31439Y-41135D01*
X31607Y-39648D02*
X31617Y-39629D01*
X31617Y-39601D01*
X31607Y-39573D01*
X31589Y-39554D01*
X31570Y-39545D01*
X31532Y-39535D01*
X31504Y-39535D01*
X31467Y-39545D01*
X31448Y-39554D01*
X31429Y-39573D01*
X31420Y-39601D01*
X31420Y-39620D01*
X31429Y-39648D01*
X31439Y-39657D01*
X31504Y-39657D01*
X31504Y-39620D01*
X31420Y-39742D02*
X31617Y-39742D01*
X31476Y-39807D01*
X31617Y-39873D01*
X31420Y-39873D01*
X31617Y-40004D02*
X31617Y-40042D01*
X31607Y-40060D01*
X31589Y-40079D01*
X31551Y-40089D01*
X31485Y-40089D01*
X31448Y-40079D01*
X31429Y-40060D01*
X31420Y-40042D01*
X31420Y-40004D01*
X31429Y-39985D01*
X31448Y-39967D01*
X31485Y-39957D01*
X31551Y-39957D01*
X31589Y-39967D01*
X31607Y-39985D01*
X31617Y-40004D01*
X31420Y-40173D02*
X31617Y-40173D01*
X31617Y-40220D01*
X31607Y-40248D01*
X31589Y-40267D01*
X31570Y-40276D01*
X31532Y-40285D01*
X31504Y-40285D01*
X31467Y-40276D01*
X31448Y-40267D01*
X31429Y-40248D01*
X31420Y-40220D01*
X31420Y-40173D01*
X31523Y-40370D02*
X31523Y-40435D01*
X31420Y-40464D02*
X31420Y-40370D01*
X31617Y-40370D01*
X31617Y-40464D01*
X31617Y-38568D02*
X31457Y-38568D01*
X31439Y-38578D01*
X31429Y-38587D01*
X31420Y-38606D01*
X31420Y-38643D01*
X31429Y-38662D01*
X31439Y-38671D01*
X31457Y-38681D01*
X31617Y-38681D01*
X31420Y-38878D02*
X31420Y-38765D01*
X31420Y-38821D02*
X31617Y-38821D01*
X31589Y-38803D01*
X31570Y-38784D01*
X31560Y-38765D01*
X31439Y-39074D02*
X31429Y-39065D01*
X31420Y-39037D01*
X31420Y-39018D01*
X31429Y-38990D01*
X31448Y-38971D01*
X31467Y-38962D01*
X31504Y-38953D01*
X31532Y-38953D01*
X31570Y-38962D01*
X31589Y-38971D01*
X31607Y-38990D01*
X31617Y-39018D01*
X31617Y-39037D01*
X31607Y-39065D01*
X31598Y-39074D01*
X31523Y-39159D02*
X31523Y-39224D01*
X31420Y-39253D02*
X31420Y-39159D01*
X31617Y-39159D01*
X31617Y-39253D01*
X31420Y-39440D02*
X31420Y-39328D01*
X31420Y-39384D02*
X31617Y-39384D01*
X31589Y-39365D01*
X31570Y-39346D01*
X31560Y-39328D01*
X31439Y-37878D02*
X31429Y-37868D01*
X31420Y-37840D01*
X31420Y-37821D01*
X31429Y-37793D01*
X31448Y-37775D01*
X31467Y-37765D01*
X31504Y-37756D01*
X31532Y-37756D01*
X31570Y-37765D01*
X31589Y-37775D01*
X31607Y-37793D01*
X31617Y-37821D01*
X31617Y-37840D01*
X31607Y-37868D01*
X31598Y-37878D01*
X31420Y-37962D02*
X31617Y-37962D01*
X31420Y-38074D02*
X31532Y-37990D01*
X31617Y-38074D02*
X31504Y-37962D01*
X31617Y-38131D02*
X31420Y-38196D01*
X31617Y-38262D01*
X31617Y-36568D02*
X31457Y-36568D01*
X31439Y-36578D01*
X31429Y-36587D01*
X31420Y-36606D01*
X31420Y-36643D01*
X31429Y-36662D01*
X31439Y-36671D01*
X31457Y-36681D01*
X31617Y-36681D01*
X31598Y-36765D02*
X31607Y-36775D01*
X31617Y-36793D01*
X31617Y-36840D01*
X31607Y-36859D01*
X31598Y-36868D01*
X31579Y-36878D01*
X31560Y-36878D01*
X31532Y-36868D01*
X31420Y-36756D01*
X31420Y-36878D01*
X31439Y-37074D02*
X31429Y-37065D01*
X31420Y-37037D01*
X31420Y-37018D01*
X31429Y-36990D01*
X31448Y-36971D01*
X31467Y-36962D01*
X31504Y-36953D01*
X31532Y-36953D01*
X31570Y-36962D01*
X31589Y-36971D01*
X31607Y-36990D01*
X31617Y-37018D01*
X31617Y-37037D01*
X31607Y-37065D01*
X31598Y-37074D01*
X31523Y-37159D02*
X31523Y-37224D01*
X31420Y-37253D02*
X31420Y-37159D01*
X31617Y-37159D01*
X31617Y-37253D01*
X31598Y-37328D02*
X31607Y-37337D01*
X31617Y-37356D01*
X31617Y-37403D01*
X31607Y-37421D01*
X31598Y-37431D01*
X31579Y-37440D01*
X31560Y-37440D01*
X31532Y-37431D01*
X31420Y-37318D01*
X31420Y-37440D01*
X31420Y-35760D02*
X31617Y-35760D01*
X31617Y-35835D01*
X31607Y-35854D01*
X31598Y-35864D01*
X31579Y-35873D01*
X31551Y-35873D01*
X31532Y-35864D01*
X31523Y-35854D01*
X31514Y-35835D01*
X31514Y-35760D01*
X31617Y-35939D02*
X31617Y-36060D01*
X31542Y-35995D01*
X31542Y-36023D01*
X31532Y-36042D01*
X31523Y-36051D01*
X31504Y-36060D01*
X31457Y-36060D01*
X31439Y-36051D01*
X31429Y-36042D01*
X31420Y-36023D01*
X31420Y-35967D01*
X31429Y-35948D01*
X31439Y-35939D01*
X31420Y-36154D02*
X31420Y-36192D01*
X31429Y-36210D01*
X31439Y-36220D01*
X31467Y-36239D01*
X31504Y-36248D01*
X31579Y-36248D01*
X31598Y-36239D01*
X31607Y-36229D01*
X31617Y-36210D01*
X31617Y-36173D01*
X31607Y-36154D01*
X31598Y-36145D01*
X31579Y-36135D01*
X31532Y-36135D01*
X31514Y-36145D01*
X31504Y-36154D01*
X31495Y-36173D01*
X31495Y-36210D01*
X31504Y-36229D01*
X31514Y-36239D01*
X31532Y-36248D01*
X31617Y-34568D02*
X31457Y-34568D01*
X31439Y-34578D01*
X31429Y-34587D01*
X31420Y-34606D01*
X31420Y-34643D01*
X31429Y-34662D01*
X31439Y-34671D01*
X31457Y-34681D01*
X31617Y-34681D01*
X31598Y-34765D02*
X31607Y-34775D01*
X31617Y-34793D01*
X31617Y-34840D01*
X31607Y-34859D01*
X31598Y-34868D01*
X31579Y-34878D01*
X31560Y-34878D01*
X31532Y-34868D01*
X31420Y-34756D01*
X31420Y-34878D01*
X31439Y-35074D02*
X31429Y-35065D01*
X31420Y-35037D01*
X31420Y-35018D01*
X31429Y-34990D01*
X31448Y-34971D01*
X31467Y-34962D01*
X31504Y-34953D01*
X31532Y-34953D01*
X31570Y-34962D01*
X31589Y-34971D01*
X31607Y-34990D01*
X31617Y-35018D01*
X31617Y-35037D01*
X31607Y-35065D01*
X31598Y-35074D01*
X31523Y-35159D02*
X31523Y-35224D01*
X31420Y-35253D02*
X31420Y-35159D01*
X31617Y-35159D01*
X31617Y-35253D01*
X31420Y-35440D02*
X31420Y-35328D01*
X31420Y-35384D02*
X31617Y-35384D01*
X31589Y-35365D01*
X31570Y-35346D01*
X31560Y-35328D01*
X31429Y-33760D02*
X31420Y-33789D01*
X31420Y-33835D01*
X31429Y-33854D01*
X31439Y-33864D01*
X31457Y-33873D01*
X31476Y-33873D01*
X31495Y-33864D01*
X31504Y-33854D01*
X31514Y-33835D01*
X31523Y-33798D01*
X31532Y-33779D01*
X31542Y-33770D01*
X31560Y-33760D01*
X31579Y-33760D01*
X31598Y-33770D01*
X31607Y-33779D01*
X31617Y-33798D01*
X31617Y-33845D01*
X31607Y-33873D01*
X31420Y-33957D02*
X31617Y-33957D01*
X31617Y-34032D01*
X31607Y-34051D01*
X31598Y-34060D01*
X31579Y-34070D01*
X31551Y-34070D01*
X31532Y-34060D01*
X31523Y-34051D01*
X31514Y-34032D01*
X31514Y-33957D01*
X31617Y-34126D02*
X31420Y-34192D01*
X31617Y-34257D01*
X31617Y-32568D02*
X31457Y-32568D01*
X31439Y-32578D01*
X31429Y-32587D01*
X31420Y-32606D01*
X31420Y-32643D01*
X31429Y-32662D01*
X31439Y-32671D01*
X31457Y-32681D01*
X31617Y-32681D01*
X31420Y-32878D02*
X31420Y-32765D01*
X31420Y-32821D02*
X31617Y-32821D01*
X31589Y-32803D01*
X31570Y-32784D01*
X31560Y-32765D01*
X31439Y-33074D02*
X31429Y-33065D01*
X31420Y-33037D01*
X31420Y-33018D01*
X31429Y-32990D01*
X31448Y-32971D01*
X31467Y-32962D01*
X31504Y-32953D01*
X31532Y-32953D01*
X31570Y-32962D01*
X31589Y-32971D01*
X31607Y-32990D01*
X31617Y-33018D01*
X31617Y-33037D01*
X31607Y-33065D01*
X31598Y-33074D01*
X31523Y-33159D02*
X31523Y-33224D01*
X31420Y-33253D02*
X31420Y-33159D01*
X31617Y-33159D01*
X31617Y-33253D01*
X31598Y-33328D02*
X31607Y-33337D01*
X31617Y-33356D01*
X31617Y-33403D01*
X31607Y-33421D01*
X31598Y-33431D01*
X31579Y-33440D01*
X31560Y-33440D01*
X31532Y-33431D01*
X31420Y-33318D01*
X31420Y-33440D01*
X31420Y-31760D02*
X31617Y-31760D01*
X31617Y-31835D01*
X31607Y-31854D01*
X31598Y-31864D01*
X31579Y-31873D01*
X31551Y-31873D01*
X31532Y-31864D01*
X31523Y-31854D01*
X31514Y-31835D01*
X31514Y-31760D01*
X31598Y-31948D02*
X31607Y-31957D01*
X31617Y-31976D01*
X31617Y-32023D01*
X31607Y-32042D01*
X31598Y-32051D01*
X31579Y-32060D01*
X31560Y-32060D01*
X31532Y-32051D01*
X31420Y-31939D01*
X31420Y-32060D01*
X31617Y-32229D02*
X31617Y-32192D01*
X31607Y-32173D01*
X31598Y-32164D01*
X31570Y-32145D01*
X31532Y-32135D01*
X31457Y-32135D01*
X31439Y-32145D01*
X31429Y-32154D01*
X31420Y-32173D01*
X31420Y-32210D01*
X31429Y-32229D01*
X31439Y-32239D01*
X31457Y-32248D01*
X31504Y-32248D01*
X31523Y-32239D01*
X31532Y-32229D01*
X31542Y-32210D01*
X31542Y-32173D01*
X31532Y-32154D01*
X31523Y-32145D01*
X31504Y-32135D01*
X31420Y-30760D02*
X31617Y-30760D01*
X31617Y-30835D01*
X31607Y-30854D01*
X31598Y-30864D01*
X31579Y-30873D01*
X31551Y-30873D01*
X31532Y-30864D01*
X31523Y-30854D01*
X31514Y-30835D01*
X31514Y-30760D01*
X31598Y-30948D02*
X31607Y-30957D01*
X31617Y-30976D01*
X31617Y-31023D01*
X31607Y-31042D01*
X31598Y-31051D01*
X31579Y-31060D01*
X31560Y-31060D01*
X31532Y-31051D01*
X31420Y-30939D01*
X31420Y-31060D01*
X31617Y-31182D02*
X31617Y-31201D01*
X31607Y-31220D01*
X31598Y-31229D01*
X31579Y-31239D01*
X31542Y-31248D01*
X31495Y-31248D01*
X31457Y-31239D01*
X31439Y-31229D01*
X31429Y-31220D01*
X31420Y-31201D01*
X31420Y-31182D01*
X31429Y-31164D01*
X31439Y-31154D01*
X31457Y-31145D01*
X31495Y-31135D01*
X31542Y-31135D01*
X31579Y-31145D01*
X31598Y-31154D01*
X31607Y-31164D01*
X31617Y-31182D01*
X32607Y-29789D02*
X32617Y-29770D01*
X32617Y-29742D01*
X32607Y-29714D01*
X32589Y-29695D01*
X32570Y-29685D01*
X32532Y-29676D01*
X32504Y-29676D01*
X32467Y-29685D01*
X32448Y-29695D01*
X32429Y-29714D01*
X32420Y-29742D01*
X32420Y-29760D01*
X32429Y-29789D01*
X32439Y-29798D01*
X32504Y-29798D01*
X32504Y-29760D01*
X32617Y-29854D02*
X32420Y-29920D01*
X32617Y-29985D01*
X32523Y-30051D02*
X32523Y-30117D01*
X32420Y-30145D02*
X32420Y-30051D01*
X32617Y-30051D01*
X32617Y-30145D01*
X32523Y-30229D02*
X32523Y-30295D01*
X32420Y-30323D02*
X32420Y-30229D01*
X32617Y-30229D01*
X32617Y-30323D01*
X32617Y-28620D02*
X32420Y-28685D01*
X32617Y-28751D01*
X32439Y-28929D02*
X32429Y-28920D01*
X32420Y-28892D01*
X32420Y-28873D01*
X32429Y-28845D01*
X32448Y-28826D01*
X32467Y-28817D01*
X32504Y-28807D01*
X32532Y-28807D01*
X32570Y-28817D01*
X32589Y-28826D01*
X32607Y-28845D01*
X32617Y-28873D01*
X32617Y-28892D01*
X32607Y-28920D01*
X32598Y-28929D01*
X32617Y-29051D02*
X32617Y-29089D01*
X32607Y-29107D01*
X32589Y-29126D01*
X32551Y-29135D01*
X32485Y-29135D01*
X32448Y-29126D01*
X32429Y-29107D01*
X32420Y-29089D01*
X32420Y-29051D01*
X32429Y-29032D01*
X32448Y-29014D01*
X32485Y-29004D01*
X32551Y-29004D01*
X32589Y-29014D01*
X32607Y-29032D01*
X32617Y-29051D01*
X32420Y-29220D02*
X32617Y-29220D01*
X32476Y-29285D01*
X32617Y-29351D01*
X32420Y-29351D01*
G54D10*
X43354Y-41645D02*
X43354Y-42354D01*
X43354Y-42354D02*
X42645Y-42354D01*
X42645Y-42354D02*
X42645Y-41645D01*
X42645Y-41645D02*
X43354Y-41645D01*
X43354Y-29645D02*
X43354Y-30354D01*
X43354Y-30354D02*
X42645Y-30354D01*
X42645Y-30354D02*
X42645Y-29645D01*
X42645Y-29645D02*
X43354Y-29645D01*
X43354Y-40645D02*
X43354Y-41354D01*
X43354Y-41354D02*
X42645Y-41354D01*
X42645Y-41354D02*
X42645Y-40645D01*
X42645Y-40645D02*
X43354Y-40645D01*
X43354Y-30645D02*
X43354Y-31354D01*
X43354Y-31354D02*
X42645Y-31354D01*
X42645Y-31354D02*
X42645Y-30645D01*
X42645Y-30645D02*
X43354Y-30645D01*
X31645Y-29354D02*
X31645Y-28645D01*
X31645Y-28645D02*
X32354Y-28645D01*
X32354Y-28645D02*
X32354Y-29354D01*
X32354Y-29354D02*
X31645Y-29354D01*
X40645Y-29645D02*
X41354Y-29645D01*
X41354Y-29645D02*
X41354Y-30354D01*
X41354Y-30354D02*
X40645Y-30354D01*
X40645Y-30354D02*
X40645Y-29645D01*
X39645Y-30645D02*
X40354Y-30645D01*
X40354Y-30645D02*
X40354Y-31354D01*
X40354Y-31354D02*
X39645Y-31354D01*
X39645Y-31354D02*
X39645Y-30645D01*
X43354Y-46645D02*
X43354Y-47354D01*
X43354Y-47354D02*
X42645Y-47354D01*
X42645Y-47354D02*
X42645Y-46645D01*
X42645Y-46645D02*
X43354Y-46645D01*
X33354Y-51354D02*
X32645Y-51354D01*
X32645Y-51354D02*
X32645Y-50645D01*
X32645Y-50645D02*
X33354Y-50645D01*
X33354Y-50645D02*
X33354Y-51354D01*
X39354Y-51354D02*
X38645Y-51354D01*
X38645Y-51354D02*
X38645Y-50645D01*
X38645Y-50645D02*
X39354Y-50645D01*
X39354Y-50645D02*
X39354Y-51354D01*
X30645Y-42354D02*
X30645Y-41645D01*
X30645Y-41645D02*
X31354Y-41645D01*
X31354Y-41645D02*
X31354Y-42354D01*
X31354Y-42354D02*
X30645Y-42354D01*
X38645Y-34645D02*
X39354Y-34645D01*
X39354Y-34645D02*
X39354Y-35354D01*
X39354Y-35354D02*
X38645Y-35354D01*
X38645Y-35354D02*
X38645Y-34645D01*
X36645Y-33645D02*
X37354Y-33645D01*
X37354Y-33645D02*
X37354Y-34354D01*
X37354Y-34354D02*
X36645Y-34354D01*
X36645Y-34354D02*
X36645Y-33645D01*
X35645Y-33645D02*
X36354Y-33645D01*
X36354Y-33645D02*
X36354Y-34354D01*
X36354Y-34354D02*
X35645Y-34354D01*
X35645Y-34354D02*
X35645Y-33645D01*
X35645Y-34645D02*
X36354Y-34645D01*
X36354Y-34645D02*
X36354Y-35354D01*
X36354Y-35354D02*
X35645Y-35354D01*
X35645Y-35354D02*
X35645Y-34645D01*
X43354Y-34645D02*
X43354Y-35354D01*
X43354Y-35354D02*
X42645Y-35354D01*
X42645Y-35354D02*
X42645Y-34645D01*
X42645Y-34645D02*
X43354Y-34645D01*
X30645Y-31354D02*
X30645Y-30645D01*
X30645Y-30645D02*
X31354Y-30645D01*
X31354Y-30645D02*
X31354Y-31354D01*
X31354Y-31354D02*
X30645Y-31354D01*
X43354Y-42645D02*
X43354Y-43354D01*
X43354Y-43354D02*
X42645Y-43354D01*
X42645Y-43354D02*
X42645Y-42645D01*
X42645Y-42645D02*
X43354Y-42645D01*
X43354Y-28645D02*
X43354Y-29354D01*
X43354Y-29354D02*
X42645Y-29354D01*
X42645Y-29354D02*
X42645Y-28645D01*
X42645Y-28645D02*
X43354Y-28645D01*
X43354Y-39645D02*
X43354Y-40354D01*
X43354Y-40354D02*
X42645Y-40354D01*
X42645Y-40354D02*
X42645Y-39645D01*
X42645Y-39645D02*
X43354Y-39645D01*
X43354Y-44645D02*
X43354Y-45354D01*
X43354Y-45354D02*
X42645Y-45354D01*
X42645Y-45354D02*
X42645Y-44645D01*
X42645Y-44645D02*
X43354Y-44645D01*
X43354Y-43645D02*
X43354Y-44354D01*
X43354Y-44354D02*
X42645Y-44354D01*
X42645Y-44354D02*
X42645Y-43645D01*
X42645Y-43645D02*
X43354Y-43645D01*
X33645Y-42645D02*
X34354Y-42645D01*
X34354Y-42645D02*
X34354Y-43354D01*
X34354Y-43354D02*
X33645Y-43354D01*
X33645Y-43354D02*
X33645Y-42645D01*
X43354Y-45645D02*
X43354Y-46354D01*
X43354Y-46354D02*
X42645Y-46354D01*
X42645Y-46354D02*
X42645Y-45645D01*
X42645Y-45645D02*
X43354Y-45645D01*
X43354Y-31645D02*
X43354Y-32354D01*
X43354Y-32354D02*
X42645Y-32354D01*
X42645Y-32354D02*
X42645Y-31645D01*
X42645Y-31645D02*
X43354Y-31645D01*
X43354Y-38645D02*
X43354Y-39354D01*
X43354Y-39354D02*
X42645Y-39354D01*
X42645Y-39354D02*
X42645Y-38645D01*
X42645Y-38645D02*
X43354Y-38645D01*
X43354Y-32645D02*
X43354Y-33354D01*
X43354Y-33354D02*
X42645Y-33354D01*
X42645Y-33354D02*
X42645Y-32645D01*
X42645Y-32645D02*
X43354Y-32645D01*
X43354Y-37645D02*
X43354Y-38354D01*
X43354Y-38354D02*
X42645Y-38354D01*
X42645Y-38354D02*
X42645Y-37645D01*
X42645Y-37645D02*
X43354Y-37645D01*
X43354Y-36645D02*
X43354Y-37354D01*
X43354Y-37354D02*
X42645Y-37354D01*
X42645Y-37354D02*
X42645Y-36645D01*
X42645Y-36645D02*
X43354Y-36645D01*
X43354Y-33645D02*
X43354Y-34354D01*
X43354Y-34354D02*
X42645Y-34354D01*
X42645Y-34354D02*
X42645Y-33645D01*
X42645Y-33645D02*
X43354Y-33645D01*
X43354Y-35645D02*
X43354Y-36354D01*
X43354Y-36354D02*
X42645Y-36354D01*
X42645Y-36354D02*
X42645Y-35645D01*
X42645Y-35645D02*
X43354Y-35645D01*
X38645Y-35645D02*
X39354Y-35645D01*
X39354Y-35645D02*
X39354Y-36354D01*
X39354Y-36354D02*
X38645Y-36354D01*
X38645Y-36354D02*
X38645Y-35645D01*
X35645Y-35645D02*
X36354Y-35645D01*
X36354Y-35645D02*
X36354Y-36354D01*
X36354Y-36354D02*
X35645Y-36354D01*
X35645Y-36354D02*
X35645Y-35645D01*
X36645Y-35645D02*
X37354Y-35645D01*
X37354Y-35645D02*
X37354Y-36354D01*
X37354Y-36354D02*
X36645Y-36354D01*
X36645Y-36354D02*
X36645Y-35645D01*
G54D13*
X39250Y-49700D02*
X38550Y-49700D01*
X38550Y-49700D02*
X38300Y-49450D01*
X38300Y-49450D02*
X38300Y-48050D01*
X38300Y-48050D02*
X38550Y-47800D01*
X38550Y-47800D02*
X39950Y-47800D01*
X39950Y-47800D02*
X40200Y-48050D01*
X40200Y-48050D02*
X40200Y-49450D01*
X40200Y-49450D02*
X39950Y-49700D01*
X39950Y-49700D02*
X39250Y-49700D01*
X38250Y-43950D02*
X37550Y-43950D01*
X37550Y-43950D02*
X37300Y-43700D01*
X37300Y-43700D02*
X37300Y-42300D01*
X37300Y-42300D02*
X37550Y-42050D01*
X37550Y-42050D02*
X38950Y-42050D01*
X38950Y-42050D02*
X39200Y-42300D01*
X39200Y-42300D02*
X39200Y-43700D01*
X39200Y-43700D02*
X38950Y-43950D01*
X38950Y-43950D02*
X38250Y-43950D01*
G54D14*
X34300Y-35250D02*
X34300Y-35650D01*
X34300Y-35250D02*
X34300Y-34850D01*
X35200Y-35250D02*
X35200Y-35650D01*
X35200Y-35250D02*
X35200Y-34850D01*
X32250Y-47300D02*
X31850Y-47300D01*
X32250Y-47300D02*
X32650Y-47300D01*
X32250Y-48200D02*
X31850Y-48200D01*
X32250Y-48200D02*
X32650Y-48200D01*
X40500Y-42050D02*
X40100Y-42050D01*
X40500Y-42050D02*
X40900Y-42050D01*
X40500Y-42950D02*
X40100Y-42950D01*
X40500Y-42950D02*
X40900Y-42950D01*
X34500Y-47450D02*
X34900Y-47450D01*
X34500Y-47450D02*
X34100Y-47450D01*
X34500Y-46550D02*
X34900Y-46550D01*
X34500Y-46550D02*
X34100Y-46550D01*
X35700Y-40500D02*
X35700Y-40100D01*
X35700Y-40500D02*
X35700Y-40900D01*
X34800Y-40500D02*
X34800Y-40100D01*
X34800Y-40500D02*
X34800Y-40900D01*
X40700Y-40500D02*
X40700Y-40100D01*
X40700Y-40500D02*
X40700Y-40900D01*
X39800Y-40500D02*
X39800Y-40100D01*
X39800Y-40500D02*
X39800Y-40900D01*
X38200Y-40500D02*
X38200Y-40100D01*
X38200Y-40500D02*
X38200Y-40900D01*
X37300Y-40500D02*
X37300Y-40100D01*
X37300Y-40500D02*
X37300Y-40900D01*
X35750Y-42700D02*
X36150Y-42700D01*
X35750Y-42700D02*
X35350Y-42700D01*
X35750Y-41800D02*
X36150Y-41800D01*
X35750Y-41800D02*
X35350Y-41800D01*
G54D13*
X36625Y-37375D02*
X37125Y-37850D01*
X37125Y-37375D02*
X35875Y-37375D01*
X35875Y-37375D02*
X35875Y-38625D01*
X35875Y-38625D02*
X37125Y-38625D01*
X37125Y-38625D02*
X37125Y-37375D01*
X40250Y-46900D02*
G75*
G03X40250Y-46900I-100J0D01*
G74*
G01*
X40350Y-45900D02*
X40350Y-47100D01*
X40350Y-47100D02*
X39150Y-47100D01*
X39150Y-47100D02*
X39150Y-45900D01*
X39150Y-45900D02*
X40350Y-45900D01*
G54D15*
X41025Y-43862D02*
G75*
G03X41025Y-43862I-62J0D01*
G74*
G01*
X40000Y-44200D02*
X40000Y-43800D01*
X41025Y-44200D02*
X41025Y-43800D01*
X40000Y-43800D02*
X41025Y-43800D01*
X41025Y-44200D02*
X40000Y-44200D01*
G54D14*
X36750Y-50177D02*
X37144Y-49843D01*
X37144Y-49843D02*
X36356Y-49843D01*
X36356Y-49843D02*
X36750Y-50177D01*
X36750Y-50177D02*
X36356Y-50177D01*
X36750Y-50177D02*
X37144Y-50177D01*
X36061Y-49094D02*
X36120Y-49094D01*
X36061Y-50768D02*
X36100Y-50768D01*
X36061Y-50906D02*
X36100Y-50906D01*
X37439Y-49094D02*
X37400Y-49094D01*
X37439Y-50768D02*
X37400Y-50768D01*
X37439Y-50906D02*
X37400Y-50906D01*
X35963Y-50768D02*
X36041Y-50768D01*
X37537Y-50768D02*
X37459Y-50768D01*
X35964Y-50904D02*
X36042Y-50904D01*
X35964Y-49092D02*
X35964Y-50904D01*
X35964Y-49092D02*
X36042Y-49092D01*
X37537Y-49094D02*
X37459Y-49094D01*
X37537Y-49094D02*
X37537Y-50906D01*
X37537Y-50906D02*
X37459Y-50906D01*
X35823Y-45250D02*
X36157Y-45644D01*
X36157Y-45644D02*
X36157Y-44856D01*
X36157Y-44856D02*
X35823Y-45250D01*
X35823Y-45250D02*
X35823Y-44856D01*
X35823Y-45250D02*
X35823Y-45644D01*
X36906Y-44561D02*
X36906Y-44620D01*
X35232Y-44561D02*
X35232Y-44600D01*
X35094Y-44561D02*
X35094Y-44600D01*
X36906Y-45939D02*
X36906Y-45900D01*
X35232Y-45939D02*
X35232Y-45900D01*
X35094Y-45939D02*
X35094Y-45900D01*
X35232Y-44463D02*
X35232Y-44541D01*
X35232Y-46037D02*
X35232Y-45959D01*
X35096Y-44464D02*
X35096Y-44542D01*
X36908Y-44464D02*
X35096Y-44464D01*
X36908Y-44464D02*
X36908Y-44542D01*
X36906Y-46037D02*
X36906Y-45959D01*
X36906Y-46037D02*
X35094Y-46037D01*
X35094Y-46037D02*
X35094Y-45959D01*
X34500Y-49823D02*
X34106Y-50157D01*
X34106Y-50157D02*
X34894Y-50157D01*
X34894Y-50157D02*
X34500Y-49823D01*
X34500Y-49823D02*
X34894Y-49823D01*
X34500Y-49823D02*
X34106Y-49823D01*
X35189Y-50906D02*
X35130Y-50906D01*
X35189Y-49232D02*
X35150Y-49232D01*
X35189Y-49094D02*
X35150Y-49094D01*
X33811Y-50906D02*
X33850Y-50906D01*
X33811Y-49232D02*
X33850Y-49232D01*
X33811Y-49094D02*
X33850Y-49094D01*
X35287Y-49232D02*
X35209Y-49232D01*
X33713Y-49232D02*
X33791Y-49232D01*
X35286Y-49096D02*
X35208Y-49096D01*
X35286Y-50908D02*
X35286Y-49096D01*
X35286Y-50908D02*
X35208Y-50908D01*
X33713Y-50906D02*
X33791Y-50906D01*
X33713Y-50906D02*
X33713Y-49094D01*
X33713Y-49094D02*
X33791Y-49094D01*
X39250Y-44550D02*
X38850Y-44550D01*
X39250Y-44550D02*
X39650Y-44550D01*
X39250Y-45450D02*
X38850Y-45450D01*
X39250Y-45450D02*
X39650Y-45450D01*
X36950Y-40500D02*
X36950Y-40100D01*
X36950Y-40500D02*
X36950Y-40900D01*
X36050Y-40500D02*
X36050Y-40100D01*
X36050Y-40500D02*
X36050Y-40900D01*
X32250Y-46050D02*
X31850Y-46050D01*
X32250Y-46050D02*
X32650Y-46050D01*
X32250Y-46950D02*
X31850Y-46950D01*
X32250Y-46950D02*
X32650Y-46950D01*
X34450Y-40500D02*
X34450Y-40100D01*
X34450Y-40500D02*
X34450Y-40900D01*
X33550Y-40500D02*
X33550Y-40100D01*
X33550Y-40500D02*
X33550Y-40900D01*
X39450Y-40500D02*
X39450Y-40100D01*
X39450Y-40500D02*
X39450Y-40900D01*
X38550Y-40500D02*
X38550Y-40100D01*
X38550Y-40500D02*
X38550Y-40900D01*
X32250Y-48550D02*
X31850Y-48550D01*
X32250Y-48550D02*
X32650Y-48550D01*
X32250Y-49450D02*
X31850Y-49450D01*
X32250Y-49450D02*
X32650Y-49450D01*
X36500Y-47450D02*
X36900Y-47450D01*
X36500Y-47450D02*
X36100Y-47450D01*
X36500Y-46550D02*
X36900Y-46550D01*
X36500Y-46550D02*
X36100Y-46550D01*
X35750Y-43050D02*
X35350Y-43050D01*
X35750Y-43050D02*
X36150Y-43050D01*
X35750Y-43950D02*
X35350Y-43950D01*
X35750Y-43950D02*
X36150Y-43950D01*
G54D16*
X38500Y-34270D02*
X38500Y-36250D01*
X38500Y-36250D02*
X37500Y-36250D01*
X37500Y-36250D02*
X37500Y-34250D01*
X37500Y-34250D02*
X38500Y-34250D01*
X38250Y-34250D02*
X38500Y-34500D01*
G54D10*
X33614Y-38885D02*
X33614Y-37114D01*
X33614Y-37114D02*
X35385Y-37114D01*
X35385Y-37114D02*
X35385Y-38885D01*
X35385Y-38885D02*
X33614Y-38885D01*
G54D17*
X33300Y-43550D02*
X33300Y-43500D01*
X33300Y-43500D02*
X31200Y-43500D01*
X31200Y-45000D02*
X33300Y-45000D01*
X33300Y-45000D02*
X33300Y-43550D01*
X33300Y-44450D02*
X33100Y-44450D01*
X33100Y-44450D02*
X33100Y-44050D01*
X33100Y-44050D02*
X33300Y-44050D01*
X31200Y-45000D02*
X31200Y-43500D01*
X39800Y-37300D02*
X39800Y-37250D01*
X39800Y-37250D02*
X37700Y-37250D01*
X37700Y-38750D02*
X39800Y-38750D01*
X39800Y-38750D02*
X39800Y-37300D01*
X39800Y-38200D02*
X39600Y-38200D01*
X39600Y-38200D02*
X39600Y-37800D01*
X39600Y-37800D02*
X39800Y-37800D01*
X37700Y-38750D02*
X37700Y-37250D01*
G54D10*
X43354Y-47645D02*
X43354Y-48354D01*
X43354Y-48354D02*
X42645Y-48354D01*
X42645Y-48354D02*
X42645Y-47645D01*
X42645Y-47645D02*
X43354Y-47645D01*
X34395Y-29887D02*
X39592Y-29887D01*
X34395Y-28824D02*
X34395Y-29887D01*
X39592Y-28824D02*
X34395Y-28824D01*
X39592Y-29887D02*
X39592Y-28824D01*
X36645Y-31645D02*
X37354Y-31645D01*
X37354Y-31645D02*
X37354Y-32354D01*
X37354Y-32354D02*
X36645Y-32354D01*
X36645Y-32354D02*
X36645Y-31645D01*
X30645Y-32354D02*
X30645Y-31645D01*
X30645Y-31645D02*
X31354Y-31645D01*
X31354Y-31645D02*
X31354Y-32354D01*
X31354Y-32354D02*
X30645Y-32354D01*
X31645Y-30354D02*
X31645Y-29645D01*
X31645Y-29645D02*
X32354Y-29645D01*
X32354Y-29645D02*
X32354Y-30354D01*
X32354Y-30354D02*
X31645Y-30354D01*
X30645Y-41354D02*
X30645Y-40645D01*
X30645Y-40645D02*
X31354Y-40645D01*
X31354Y-40645D02*
X31354Y-41354D01*
X31354Y-41354D02*
X30645Y-41354D01*
X30645Y-39354D02*
X30645Y-38645D01*
X30645Y-38645D02*
X31354Y-38645D01*
X31354Y-38645D02*
X31354Y-39354D01*
X31354Y-39354D02*
X30645Y-39354D01*
X30645Y-33354D02*
X30645Y-32645D01*
X30645Y-32645D02*
X31354Y-32645D01*
X31354Y-32645D02*
X31354Y-33354D01*
X31354Y-33354D02*
X30645Y-33354D01*
X30645Y-40354D02*
X30645Y-39645D01*
X30645Y-39645D02*
X31354Y-39645D01*
X31354Y-39645D02*
X31354Y-40354D01*
X31354Y-40354D02*
X30645Y-40354D01*
X32645Y-32645D02*
X33354Y-32645D01*
X33354Y-32645D02*
X33354Y-33354D01*
X33354Y-33354D02*
X32645Y-33354D01*
X32645Y-33354D02*
X32645Y-32645D01*
X30645Y-34354D02*
X30645Y-33645D01*
X30645Y-33645D02*
X31354Y-33645D01*
X31354Y-33645D02*
X31354Y-34354D01*
X31354Y-34354D02*
X30645Y-34354D01*
X30645Y-38354D02*
X30645Y-37645D01*
X30645Y-37645D02*
X31354Y-37645D01*
X31354Y-37645D02*
X31354Y-38354D01*
X31354Y-38354D02*
X30645Y-38354D01*
X30645Y-37354D02*
X30645Y-36645D01*
X30645Y-36645D02*
X31354Y-36645D01*
X31354Y-36645D02*
X31354Y-37354D01*
X31354Y-37354D02*
X30645Y-37354D01*
X30645Y-35354D02*
X30645Y-34645D01*
X30645Y-34645D02*
X31354Y-34645D01*
X31354Y-34645D02*
X31354Y-35354D01*
X31354Y-35354D02*
X30645Y-35354D01*
X30645Y-36354D02*
X30645Y-35645D01*
X30645Y-35645D02*
X31354Y-35645D01*
X31354Y-35645D02*
X31354Y-36354D01*
X31354Y-36354D02*
X30645Y-36354D01*
X36645Y-34645D02*
X37354Y-34645D01*
X37354Y-34645D02*
X37354Y-35354D01*
X37354Y-35354D02*
X36645Y-35354D01*
X36645Y-35354D02*
X36645Y-34645D01*
G54D14*
X34750Y-31450D02*
X35150Y-31450D01*
X34750Y-31450D02*
X34350Y-31450D01*
X34750Y-30550D02*
X35150Y-30550D01*
X34750Y-30550D02*
X34350Y-30550D01*
G54D18*
X40934Y-49565D02*
X40934Y-49753D01*
X40540Y-49753D01*
X40934Y-49227D02*
X40934Y-49453D01*
X40934Y-49340D02*
X40540Y-49340D01*
X40596Y-49378D01*
X40634Y-49415D01*
X40653Y-49453D01*
X39092Y-49297D02*
X39077Y-49282D01*
X39062Y-49252D01*
X39062Y-49177D01*
X39077Y-49147D01*
X39092Y-49132D01*
X39122Y-49117D01*
X39152Y-49117D01*
X39197Y-49132D01*
X39377Y-49312D01*
X39377Y-49117D01*
X39092Y-48997D02*
X39077Y-48982D01*
X39062Y-48952D01*
X39062Y-48877D01*
X39077Y-48847D01*
X39092Y-48832D01*
X39122Y-48817D01*
X39152Y-48817D01*
X39197Y-48832D01*
X39377Y-49012D01*
X39377Y-48817D01*
X39167Y-48547D02*
X39377Y-48547D01*
X39167Y-48682D02*
X39332Y-48682D01*
X39362Y-48667D01*
X39377Y-48637D01*
X39377Y-48592D01*
X39362Y-48562D01*
X39347Y-48547D01*
X39377Y-48397D02*
X39062Y-48397D01*
X39212Y-48397D02*
X39212Y-48217D01*
X39377Y-48217D02*
X39062Y-48217D01*
X38659Y-44415D02*
X38659Y-44603D01*
X38265Y-44603D01*
X38303Y-44303D02*
X38284Y-44284D01*
X38265Y-44246D01*
X38265Y-44153D01*
X38284Y-44115D01*
X38303Y-44096D01*
X38340Y-44077D01*
X38378Y-44077D01*
X38434Y-44096D01*
X38659Y-44321D01*
X38659Y-44077D01*
X38092Y-43547D02*
X38077Y-43532D01*
X38062Y-43502D01*
X38062Y-43427D01*
X38077Y-43397D01*
X38092Y-43382D01*
X38122Y-43367D01*
X38152Y-43367D01*
X38197Y-43382D01*
X38377Y-43562D01*
X38377Y-43367D01*
X38092Y-43247D02*
X38077Y-43232D01*
X38062Y-43202D01*
X38062Y-43127D01*
X38077Y-43097D01*
X38092Y-43082D01*
X38122Y-43067D01*
X38152Y-43067D01*
X38197Y-43082D01*
X38377Y-43262D01*
X38377Y-43067D01*
X38167Y-42797D02*
X38377Y-42797D01*
X38167Y-42932D02*
X38332Y-42932D01*
X38362Y-42917D01*
X38377Y-42887D01*
X38377Y-42842D01*
X38362Y-42812D01*
X38347Y-42797D01*
X38377Y-42647D02*
X38062Y-42647D01*
X38212Y-42647D02*
X38212Y-42467D01*
X38377Y-42467D02*
X38062Y-42467D01*
G54D16*
X33992Y-35350D02*
X33707Y-35550D01*
X33992Y-35692D02*
X33392Y-35692D01*
X33392Y-35464D01*
X33421Y-35407D01*
X33450Y-35378D01*
X33507Y-35350D01*
X33592Y-35350D01*
X33650Y-35378D01*
X33678Y-35407D01*
X33707Y-35464D01*
X33707Y-35692D01*
X33392Y-35150D02*
X33392Y-34750D01*
X33992Y-35007D01*
G54D19*
X31261Y-47816D02*
X31071Y-47949D01*
X31261Y-48045D02*
X30861Y-48045D01*
X30861Y-47892D01*
X30880Y-47854D01*
X30900Y-47835D01*
X30938Y-47816D01*
X30995Y-47816D01*
X31033Y-47835D01*
X31052Y-47854D01*
X31071Y-47892D01*
X31071Y-48045D01*
X30900Y-47664D02*
X30880Y-47645D01*
X30861Y-47607D01*
X30861Y-47511D01*
X30880Y-47473D01*
X30900Y-47454D01*
X30938Y-47435D01*
X30976Y-47435D01*
X31033Y-47454D01*
X31261Y-47683D01*
X31261Y-47435D01*
X41661Y-43241D02*
X41471Y-43374D01*
X41661Y-43470D02*
X41261Y-43470D01*
X41261Y-43317D01*
X41280Y-43279D01*
X41300Y-43260D01*
X41338Y-43241D01*
X41395Y-43241D01*
X41433Y-43260D01*
X41452Y-43279D01*
X41471Y-43317D01*
X41471Y-43470D01*
X41661Y-42860D02*
X41661Y-43089D01*
X41661Y-42974D02*
X41261Y-42974D01*
X41319Y-43013D01*
X41357Y-43051D01*
X41376Y-43089D01*
X33661Y-47816D02*
X33471Y-47949D01*
X33661Y-48045D02*
X33261Y-48045D01*
X33261Y-47892D01*
X33280Y-47854D01*
X33300Y-47835D01*
X33338Y-47816D01*
X33395Y-47816D01*
X33433Y-47835D01*
X33452Y-47854D01*
X33471Y-47892D01*
X33471Y-48045D01*
X33261Y-47683D02*
X33261Y-47435D01*
X33414Y-47569D01*
X33414Y-47511D01*
X33433Y-47473D01*
X33452Y-47454D01*
X33490Y-47435D01*
X33585Y-47435D01*
X33623Y-47454D01*
X33642Y-47473D01*
X33661Y-47511D01*
X33661Y-47626D01*
X33642Y-47664D01*
X33623Y-47683D01*
X34886Y-39716D02*
X34696Y-39849D01*
X34886Y-39945D02*
X34486Y-39945D01*
X34486Y-39792D01*
X34505Y-39754D01*
X34525Y-39735D01*
X34563Y-39716D01*
X34620Y-39716D01*
X34658Y-39735D01*
X34677Y-39754D01*
X34696Y-39792D01*
X34696Y-39945D01*
X34658Y-39488D02*
X34639Y-39526D01*
X34620Y-39545D01*
X34582Y-39564D01*
X34563Y-39564D01*
X34525Y-39545D01*
X34505Y-39526D01*
X34486Y-39488D01*
X34486Y-39411D01*
X34505Y-39373D01*
X34525Y-39354D01*
X34563Y-39335D01*
X34582Y-39335D01*
X34620Y-39354D01*
X34639Y-39373D01*
X34658Y-39411D01*
X34658Y-39488D01*
X34677Y-39526D01*
X34696Y-39545D01*
X34734Y-39564D01*
X34810Y-39564D01*
X34848Y-39545D01*
X34867Y-39526D01*
X34886Y-39488D01*
X34886Y-39411D01*
X34867Y-39373D01*
X34848Y-39354D01*
X34810Y-39335D01*
X34734Y-39335D01*
X34696Y-39354D01*
X34677Y-39373D01*
X34658Y-39411D01*
X39861Y-39716D02*
X39671Y-39849D01*
X39861Y-39945D02*
X39461Y-39945D01*
X39461Y-39792D01*
X39480Y-39754D01*
X39500Y-39735D01*
X39538Y-39716D01*
X39595Y-39716D01*
X39633Y-39735D01*
X39652Y-39754D01*
X39671Y-39792D01*
X39671Y-39945D01*
X39461Y-39373D02*
X39461Y-39449D01*
X39480Y-39488D01*
X39500Y-39507D01*
X39557Y-39545D01*
X39633Y-39564D01*
X39785Y-39564D01*
X39823Y-39545D01*
X39842Y-39526D01*
X39861Y-39488D01*
X39861Y-39411D01*
X39842Y-39373D01*
X39823Y-39354D01*
X39785Y-39335D01*
X39690Y-39335D01*
X39652Y-39354D01*
X39633Y-39373D01*
X39614Y-39411D01*
X39614Y-39488D01*
X39633Y-39526D01*
X39652Y-39545D01*
X39690Y-39564D01*
X37386Y-39716D02*
X37196Y-39849D01*
X37386Y-39945D02*
X36986Y-39945D01*
X36986Y-39792D01*
X37005Y-39754D01*
X37025Y-39735D01*
X37063Y-39716D01*
X37120Y-39716D01*
X37158Y-39735D01*
X37177Y-39754D01*
X37196Y-39792D01*
X37196Y-39945D01*
X37120Y-39373D02*
X37386Y-39373D01*
X36967Y-39469D02*
X37253Y-39564D01*
X37253Y-39316D01*
X34761Y-42191D02*
X34571Y-42324D01*
X34761Y-42420D02*
X34361Y-42420D01*
X34361Y-42267D01*
X34380Y-42229D01*
X34400Y-42210D01*
X34438Y-42191D01*
X34495Y-42191D01*
X34533Y-42210D01*
X34552Y-42229D01*
X34571Y-42267D01*
X34571Y-42420D01*
X34361Y-41829D02*
X34361Y-42020D01*
X34552Y-42039D01*
X34533Y-42020D01*
X34514Y-41982D01*
X34514Y-41886D01*
X34533Y-41848D01*
X34552Y-41829D01*
X34590Y-41810D01*
X34685Y-41810D01*
X34723Y-41829D01*
X34742Y-41848D01*
X34761Y-41886D01*
X34761Y-41982D01*
X34742Y-42020D01*
X34723Y-42039D01*
G54D20*
X37215Y-37550D02*
X37534Y-37550D01*
X37571Y-37531D01*
X37590Y-37512D01*
X37609Y-37475D01*
X37609Y-37400D01*
X37590Y-37362D01*
X37571Y-37343D01*
X37534Y-37325D01*
X37215Y-37325D01*
X37346Y-36968D02*
X37609Y-36968D01*
X37196Y-37062D02*
X37478Y-37156D01*
X37478Y-36912D01*
G54D17*
X35833Y-38309D02*
X35646Y-38309D01*
X35646Y-37915D01*
X35965Y-38309D02*
X35965Y-37915D01*
X36096Y-38196D01*
X36227Y-37915D01*
X36227Y-38309D01*
X36378Y-37915D02*
X36621Y-37915D01*
X36490Y-38065D01*
X36546Y-38065D01*
X36584Y-38084D01*
X36603Y-38103D01*
X36621Y-38140D01*
X36621Y-38234D01*
X36603Y-38271D01*
X36584Y-38290D01*
X36546Y-38309D01*
X36434Y-38309D01*
X36396Y-38290D01*
X36378Y-38271D01*
X36978Y-37915D02*
X36790Y-37915D01*
X36772Y-38103D01*
X36790Y-38084D01*
X36828Y-38065D01*
X36922Y-38065D01*
X36959Y-38084D01*
X36978Y-38103D01*
X36997Y-38140D01*
X36997Y-38234D01*
X36978Y-38271D01*
X36959Y-38290D01*
X36922Y-38309D01*
X36828Y-38309D01*
X36790Y-38290D01*
X36772Y-38271D01*
X37222Y-38084D02*
X37184Y-38065D01*
X37166Y-38046D01*
X37147Y-38009D01*
X37147Y-37990D01*
X37166Y-37953D01*
X37184Y-37934D01*
X37222Y-37915D01*
X37297Y-37915D01*
X37334Y-37934D01*
X37353Y-37953D01*
X37372Y-37990D01*
X37372Y-38009D01*
X37353Y-38046D01*
X37334Y-38065D01*
X37297Y-38084D01*
X37222Y-38084D01*
X37184Y-38103D01*
X37166Y-38121D01*
X37147Y-38159D01*
X37147Y-38234D01*
X37166Y-38271D01*
X37184Y-38290D01*
X37222Y-38309D01*
X37297Y-38309D01*
X37334Y-38290D01*
X37353Y-38271D01*
X37372Y-38234D01*
X37372Y-38159D01*
X37353Y-38121D01*
X37334Y-38103D01*
X37297Y-38084D01*
G54D20*
X40571Y-47553D02*
X40814Y-47553D01*
X40842Y-47539D01*
X40857Y-47525D01*
X40871Y-47496D01*
X40871Y-47439D01*
X40857Y-47410D01*
X40842Y-47396D01*
X40814Y-47382D01*
X40571Y-47382D01*
X40871Y-47082D02*
X40871Y-47253D01*
X40871Y-47167D02*
X40571Y-47167D01*
X40614Y-47196D01*
X40642Y-47225D01*
X40657Y-47253D01*
X39621Y-47092D02*
X39621Y-47235D01*
X39321Y-47235D01*
X39321Y-47035D02*
X39321Y-46864D01*
X39621Y-46949D02*
X39321Y-46949D01*
X39621Y-46607D02*
X39621Y-46778D01*
X39621Y-46692D02*
X39321Y-46692D01*
X39364Y-46721D01*
X39392Y-46750D01*
X39407Y-46778D01*
X39621Y-46464D02*
X39621Y-46407D01*
X39607Y-46378D01*
X39592Y-46364D01*
X39550Y-46335D01*
X39492Y-46321D01*
X39378Y-46321D01*
X39350Y-46335D01*
X39335Y-46350D01*
X39321Y-46378D01*
X39321Y-46435D01*
X39335Y-46464D01*
X39350Y-46478D01*
X39378Y-46492D01*
X39450Y-46492D01*
X39478Y-46478D01*
X39492Y-46464D01*
X39507Y-46435D01*
X39507Y-46378D01*
X39492Y-46350D01*
X39478Y-46335D01*
X39450Y-46321D01*
X39421Y-46064D02*
X39621Y-46064D01*
X39307Y-46135D02*
X39521Y-46207D01*
X39521Y-46021D01*
X39321Y-45764D02*
X39321Y-45907D01*
X39464Y-45921D01*
X39450Y-45907D01*
X39435Y-45878D01*
X39435Y-45807D01*
X39450Y-45778D01*
X39464Y-45764D01*
X39492Y-45750D01*
X39564Y-45750D01*
X39592Y-45764D01*
X39607Y-45778D01*
X39621Y-45807D01*
X39621Y-45878D01*
X39607Y-45907D01*
X39592Y-45921D01*
G54D19*
X41650Y-44288D02*
X41630Y-44326D01*
X41592Y-44364D01*
X41535Y-44421D01*
X41516Y-44459D01*
X41516Y-44497D01*
X41611Y-44478D02*
X41592Y-44516D01*
X41554Y-44554D01*
X41478Y-44573D01*
X41345Y-44573D01*
X41269Y-44554D01*
X41230Y-44516D01*
X41211Y-44478D01*
X41211Y-44402D01*
X41230Y-44364D01*
X41269Y-44326D01*
X41345Y-44307D01*
X41478Y-44307D01*
X41554Y-44326D01*
X41592Y-44364D01*
X41611Y-44402D01*
X41611Y-44478D01*
X41611Y-43926D02*
X41611Y-44154D01*
X41611Y-44040D02*
X41211Y-44040D01*
X41269Y-44078D01*
X41307Y-44116D01*
X41326Y-44154D01*
G54D21*
X40038Y-44079D02*
X40038Y-43882D01*
X40104Y-44023D01*
X40170Y-43882D01*
X40170Y-44079D01*
X40301Y-43882D02*
X40338Y-43882D01*
X40357Y-43892D01*
X40376Y-43910D01*
X40385Y-43948D01*
X40385Y-44014D01*
X40376Y-44051D01*
X40357Y-44070D01*
X40338Y-44079D01*
X40301Y-44079D01*
X40282Y-44070D01*
X40263Y-44051D01*
X40254Y-44014D01*
X40254Y-43948D01*
X40263Y-43910D01*
X40282Y-43892D01*
X40301Y-43882D01*
X40460Y-44070D02*
X40489Y-44079D01*
X40535Y-44079D01*
X40554Y-44070D01*
X40564Y-44060D01*
X40573Y-44042D01*
X40573Y-44023D01*
X40564Y-44004D01*
X40554Y-43995D01*
X40535Y-43985D01*
X40498Y-43976D01*
X40479Y-43967D01*
X40470Y-43957D01*
X40460Y-43939D01*
X40460Y-43920D01*
X40470Y-43901D01*
X40479Y-43892D01*
X40498Y-43882D01*
X40545Y-43882D01*
X40573Y-43892D01*
X40611Y-44098D02*
X40761Y-44098D01*
X40808Y-44079D02*
X40808Y-43882D01*
X40883Y-43882D01*
X40901Y-43892D01*
X40911Y-43901D01*
X40920Y-43920D01*
X40920Y-43948D01*
X40911Y-43967D01*
X40901Y-43976D01*
X40883Y-43985D01*
X40808Y-43985D01*
G54D16*
X38342Y-50917D02*
X37742Y-50917D01*
X37742Y-50775D01*
X37771Y-50689D01*
X37828Y-50632D01*
X37885Y-50603D01*
X38000Y-50575D01*
X38085Y-50575D01*
X38200Y-50603D01*
X38257Y-50632D01*
X38314Y-50689D01*
X38342Y-50775D01*
X38342Y-50917D01*
X37800Y-50346D02*
X37771Y-50317D01*
X37742Y-50260D01*
X37742Y-50117D01*
X37771Y-50060D01*
X37800Y-50032D01*
X37857Y-50003D01*
X37914Y-50003D01*
X38000Y-50032D01*
X38342Y-50375D01*
X38342Y-50003D01*
G54D21*
X36005Y-48786D02*
X36005Y-48693D01*
X36061Y-48805D02*
X35864Y-48739D01*
X36061Y-48674D01*
X36061Y-51232D02*
X35864Y-51232D01*
X36061Y-51120D02*
X35949Y-51204D01*
X35864Y-51120D02*
X35977Y-51232D01*
G54D19*
X33736Y-45795D02*
X33336Y-45795D01*
X33336Y-45699D01*
X33355Y-45642D01*
X33394Y-45604D01*
X33432Y-45585D01*
X33508Y-45566D01*
X33565Y-45566D01*
X33641Y-45585D01*
X33679Y-45604D01*
X33717Y-45642D01*
X33736Y-45699D01*
X33736Y-45795D01*
X33736Y-45185D02*
X33736Y-45414D01*
X33736Y-45299D02*
X33336Y-45299D01*
X33394Y-45338D01*
X33432Y-45376D01*
X33451Y-45414D01*
G54D21*
X37213Y-44505D02*
X37306Y-44505D01*
X37194Y-44561D02*
X37260Y-44364D01*
X37325Y-44561D01*
X34767Y-44561D02*
X34767Y-44364D01*
X34879Y-44561D02*
X34795Y-44449D01*
X34879Y-44364D02*
X34767Y-44477D01*
G54D16*
X33517Y-50442D02*
X32917Y-50442D01*
X32917Y-50300D01*
X32946Y-50214D01*
X33003Y-50157D01*
X33060Y-50128D01*
X33175Y-50100D01*
X33260Y-50100D01*
X33375Y-50128D01*
X33432Y-50157D01*
X33489Y-50214D01*
X33517Y-50300D01*
X33517Y-50442D01*
X32917Y-49900D02*
X32917Y-49528D01*
X33146Y-49728D01*
X33146Y-49642D01*
X33175Y-49585D01*
X33203Y-49557D01*
X33260Y-49528D01*
X33403Y-49528D01*
X33460Y-49557D01*
X33489Y-49585D01*
X33517Y-49642D01*
X33517Y-49814D01*
X33489Y-49871D01*
X33460Y-49900D01*
G54D21*
X35291Y-51306D02*
X35291Y-51213D01*
X35347Y-51325D02*
X35150Y-51259D01*
X35347Y-51194D01*
X35347Y-48870D02*
X35150Y-48870D01*
X35347Y-48758D02*
X35235Y-48842D01*
X35150Y-48758D02*
X35263Y-48870D01*
G54D19*
X40598Y-45316D02*
X40617Y-45335D01*
X40636Y-45392D01*
X40636Y-45430D01*
X40617Y-45488D01*
X40579Y-45526D01*
X40541Y-45545D01*
X40465Y-45564D01*
X40408Y-45564D01*
X40332Y-45545D01*
X40294Y-45526D01*
X40255Y-45488D01*
X40236Y-45430D01*
X40236Y-45392D01*
X40255Y-45335D01*
X40275Y-45316D01*
X40636Y-44935D02*
X40636Y-45164D01*
X40636Y-45049D02*
X40236Y-45049D01*
X40294Y-45088D01*
X40332Y-45126D01*
X40351Y-45164D01*
X36073Y-39716D02*
X36092Y-39735D01*
X36111Y-39792D01*
X36111Y-39830D01*
X36092Y-39888D01*
X36054Y-39926D01*
X36016Y-39945D01*
X35940Y-39964D01*
X35883Y-39964D01*
X35807Y-39945D01*
X35769Y-39926D01*
X35730Y-39888D01*
X35711Y-39830D01*
X35711Y-39792D01*
X35730Y-39735D01*
X35750Y-39716D01*
X35711Y-39373D02*
X35711Y-39449D01*
X35730Y-39488D01*
X35750Y-39507D01*
X35807Y-39545D01*
X35883Y-39564D01*
X36035Y-39564D01*
X36073Y-39545D01*
X36092Y-39526D01*
X36111Y-39488D01*
X36111Y-39411D01*
X36092Y-39373D01*
X36073Y-39354D01*
X36035Y-39335D01*
X35940Y-39335D01*
X35902Y-39354D01*
X35883Y-39373D01*
X35864Y-39411D01*
X35864Y-39488D01*
X35883Y-39526D01*
X35902Y-39545D01*
X35940Y-39564D01*
X31223Y-46566D02*
X31242Y-46585D01*
X31261Y-46642D01*
X31261Y-46680D01*
X31242Y-46738D01*
X31204Y-46776D01*
X31166Y-46795D01*
X31090Y-46814D01*
X31033Y-46814D01*
X30957Y-46795D01*
X30919Y-46776D01*
X30880Y-46738D01*
X30861Y-46680D01*
X30861Y-46642D01*
X30880Y-46585D01*
X30900Y-46566D01*
X30861Y-46204D02*
X30861Y-46395D01*
X31052Y-46414D01*
X31033Y-46395D01*
X31014Y-46357D01*
X31014Y-46261D01*
X31033Y-46223D01*
X31052Y-46204D01*
X31090Y-46185D01*
X31185Y-46185D01*
X31223Y-46204D01*
X31242Y-46223D01*
X31261Y-46261D01*
X31261Y-46357D01*
X31242Y-46395D01*
X31223Y-46414D01*
X33598Y-39716D02*
X33617Y-39735D01*
X33636Y-39792D01*
X33636Y-39830D01*
X33617Y-39888D01*
X33579Y-39926D01*
X33541Y-39945D01*
X33465Y-39964D01*
X33408Y-39964D01*
X33332Y-39945D01*
X33294Y-39926D01*
X33255Y-39888D01*
X33236Y-39830D01*
X33236Y-39792D01*
X33255Y-39735D01*
X33275Y-39716D01*
X33408Y-39488D02*
X33389Y-39526D01*
X33370Y-39545D01*
X33332Y-39564D01*
X33313Y-39564D01*
X33275Y-39545D01*
X33255Y-39526D01*
X33236Y-39488D01*
X33236Y-39411D01*
X33255Y-39373D01*
X33275Y-39354D01*
X33313Y-39335D01*
X33332Y-39335D01*
X33370Y-39354D01*
X33389Y-39373D01*
X33408Y-39411D01*
X33408Y-39488D01*
X33427Y-39526D01*
X33446Y-39545D01*
X33484Y-39564D01*
X33560Y-39564D01*
X33598Y-39545D01*
X33617Y-39526D01*
X33636Y-39488D01*
X33636Y-39411D01*
X33617Y-39373D01*
X33598Y-39354D01*
X33560Y-39335D01*
X33484Y-39335D01*
X33446Y-39354D01*
X33427Y-39373D01*
X33408Y-39411D01*
X38573Y-41441D02*
X38592Y-41460D01*
X38611Y-41517D01*
X38611Y-41555D01*
X38592Y-41613D01*
X38554Y-41651D01*
X38516Y-41670D01*
X38440Y-41689D01*
X38383Y-41689D01*
X38307Y-41670D01*
X38269Y-41651D01*
X38230Y-41613D01*
X38211Y-41555D01*
X38211Y-41517D01*
X38230Y-41460D01*
X38250Y-41441D01*
X38211Y-41308D02*
X38211Y-41041D01*
X38611Y-41213D01*
X31223Y-49066D02*
X31242Y-49085D01*
X31261Y-49142D01*
X31261Y-49180D01*
X31242Y-49238D01*
X31204Y-49276D01*
X31166Y-49295D01*
X31090Y-49314D01*
X31033Y-49314D01*
X30957Y-49295D01*
X30919Y-49276D01*
X30880Y-49238D01*
X30861Y-49180D01*
X30861Y-49142D01*
X30880Y-49085D01*
X30900Y-49066D01*
X30861Y-48933D02*
X30861Y-48685D01*
X31014Y-48819D01*
X31014Y-48761D01*
X31033Y-48723D01*
X31052Y-48704D01*
X31090Y-48685D01*
X31185Y-48685D01*
X31223Y-48704D01*
X31242Y-48723D01*
X31261Y-48761D01*
X31261Y-48876D01*
X31242Y-48914D01*
X31223Y-48933D01*
X35823Y-47816D02*
X35842Y-47835D01*
X35861Y-47892D01*
X35861Y-47930D01*
X35842Y-47988D01*
X35804Y-48026D01*
X35766Y-48045D01*
X35690Y-48064D01*
X35633Y-48064D01*
X35557Y-48045D01*
X35519Y-48026D01*
X35480Y-47988D01*
X35461Y-47930D01*
X35461Y-47892D01*
X35480Y-47835D01*
X35500Y-47816D01*
X35500Y-47664D02*
X35480Y-47645D01*
X35461Y-47607D01*
X35461Y-47511D01*
X35480Y-47473D01*
X35500Y-47454D01*
X35538Y-47435D01*
X35576Y-47435D01*
X35633Y-47454D01*
X35861Y-47683D01*
X35861Y-47435D01*
X34748Y-43816D02*
X34767Y-43835D01*
X34786Y-43892D01*
X34786Y-43930D01*
X34767Y-43988D01*
X34729Y-44026D01*
X34691Y-44045D01*
X34615Y-44064D01*
X34558Y-44064D01*
X34482Y-44045D01*
X34444Y-44026D01*
X34405Y-43988D01*
X34386Y-43930D01*
X34386Y-43892D01*
X34405Y-43835D01*
X34425Y-43816D01*
X34520Y-43473D02*
X34786Y-43473D01*
X34367Y-43569D02*
X34653Y-43664D01*
X34653Y-43416D01*
G54D13*
X38123Y-33816D02*
X38142Y-33835D01*
X38161Y-33892D01*
X38161Y-33930D01*
X38142Y-33988D01*
X38104Y-34026D01*
X38066Y-34045D01*
X37990Y-34064D01*
X37933Y-34064D01*
X37857Y-34045D01*
X37819Y-34026D01*
X37780Y-33988D01*
X37761Y-33930D01*
X37761Y-33892D01*
X37780Y-33835D01*
X37800Y-33816D01*
X38161Y-33626D02*
X38161Y-33549D01*
X38142Y-33511D01*
X38123Y-33492D01*
X38066Y-33454D01*
X37990Y-33435D01*
X37838Y-33435D01*
X37800Y-33454D01*
X37780Y-33473D01*
X37761Y-33511D01*
X37761Y-33588D01*
X37780Y-33626D01*
X37800Y-33645D01*
X37838Y-33664D01*
X37933Y-33664D01*
X37971Y-33645D01*
X37990Y-33626D01*
X38009Y-33588D01*
X38009Y-33511D01*
X37990Y-33473D01*
X37971Y-33454D01*
X37933Y-33435D01*
G54D10*
X34659Y-38234D02*
X34471Y-38365D01*
X34659Y-38459D02*
X34265Y-38459D01*
X34265Y-38309D01*
X34284Y-38271D01*
X34303Y-38253D01*
X34340Y-38234D01*
X34396Y-38234D01*
X34434Y-38253D01*
X34453Y-38271D01*
X34471Y-38309D01*
X34471Y-38459D01*
X34265Y-38121D02*
X34659Y-37990D01*
X34265Y-37859D01*
X34659Y-37521D02*
X34659Y-37746D01*
X34659Y-37634D02*
X34265Y-37634D01*
X34321Y-37671D01*
X34359Y-37709D01*
X34378Y-37746D01*
G54D19*
X30661Y-44554D02*
X30985Y-44554D01*
X31023Y-44535D01*
X31042Y-44516D01*
X31061Y-44478D01*
X31061Y-44402D01*
X31042Y-44364D01*
X31023Y-44345D01*
X30985Y-44326D01*
X30661Y-44326D01*
X30661Y-44173D02*
X30661Y-43926D01*
X30814Y-44059D01*
X30814Y-44002D01*
X30833Y-43964D01*
X30852Y-43945D01*
X30890Y-43926D01*
X30985Y-43926D01*
X31023Y-43945D01*
X31042Y-43964D01*
X31061Y-44002D01*
X31061Y-44116D01*
X31042Y-44154D01*
X31023Y-44173D01*
G54D20*
X31491Y-44041D02*
X31725Y-44041D01*
X31575Y-44391D01*
X31875Y-44391D02*
X31941Y-44391D01*
X31975Y-44375D01*
X31991Y-44358D01*
X32025Y-44308D01*
X32041Y-44241D01*
X32041Y-44108D01*
X32025Y-44075D01*
X32008Y-44058D01*
X31975Y-44041D01*
X31908Y-44041D01*
X31875Y-44058D01*
X31858Y-44075D01*
X31841Y-44108D01*
X31841Y-44191D01*
X31858Y-44225D01*
X31875Y-44241D01*
X31908Y-44258D01*
X31975Y-44258D01*
X32008Y-44241D01*
X32025Y-44225D01*
X32041Y-44191D01*
X32358Y-44391D02*
X32191Y-44391D01*
X32191Y-44041D01*
X32658Y-44391D02*
X32458Y-44391D01*
X32558Y-44391D02*
X32558Y-44041D01*
X32525Y-44091D01*
X32491Y-44125D01*
X32458Y-44141D01*
X32975Y-44041D02*
X32808Y-44041D01*
X32791Y-44208D01*
X32808Y-44191D01*
X32841Y-44175D01*
X32925Y-44175D01*
X32958Y-44191D01*
X32975Y-44208D01*
X32991Y-44241D01*
X32991Y-44325D01*
X32975Y-44358D01*
X32958Y-44375D01*
X32925Y-44391D01*
X32841Y-44391D01*
X32808Y-44375D01*
X32791Y-44358D01*
X39882Y-37542D02*
X40246Y-37542D01*
X40289Y-37521D01*
X40310Y-37500D01*
X40332Y-37457D01*
X40332Y-37371D01*
X40310Y-37328D01*
X40289Y-37307D01*
X40246Y-37285D01*
X39882Y-37285D01*
X39925Y-37092D02*
X39903Y-37071D01*
X39882Y-37028D01*
X39882Y-36921D01*
X39903Y-36878D01*
X39925Y-36857D01*
X39967Y-36835D01*
X40010Y-36835D01*
X40075Y-36857D01*
X40332Y-37114D01*
X40332Y-36835D01*
X37991Y-37791D02*
X38225Y-37791D01*
X38075Y-38141D01*
X38408Y-37941D02*
X38375Y-37925D01*
X38358Y-37908D01*
X38341Y-37875D01*
X38341Y-37858D01*
X38358Y-37825D01*
X38375Y-37808D01*
X38408Y-37791D01*
X38475Y-37791D01*
X38508Y-37808D01*
X38525Y-37825D01*
X38541Y-37858D01*
X38541Y-37875D01*
X38525Y-37908D01*
X38508Y-37925D01*
X38475Y-37941D01*
X38408Y-37941D01*
X38375Y-37958D01*
X38358Y-37975D01*
X38341Y-38008D01*
X38341Y-38075D01*
X38358Y-38108D01*
X38375Y-38125D01*
X38408Y-38141D01*
X38475Y-38141D01*
X38508Y-38125D01*
X38525Y-38108D01*
X38541Y-38075D01*
X38541Y-38008D01*
X38525Y-37975D01*
X38508Y-37958D01*
X38475Y-37941D01*
X38858Y-38141D02*
X38691Y-38141D01*
X38691Y-37791D01*
X39158Y-38141D02*
X38958Y-38141D01*
X39058Y-38141D02*
X39058Y-37791D01*
X39025Y-37841D01*
X38991Y-37875D01*
X38958Y-37891D01*
X39475Y-37791D02*
X39308Y-37791D01*
X39291Y-37958D01*
X39308Y-37941D01*
X39341Y-37925D01*
X39425Y-37925D01*
X39458Y-37941D01*
X39475Y-37958D01*
X39491Y-37991D01*
X39491Y-38075D01*
X39475Y-38108D01*
X39458Y-38125D01*
X39425Y-38141D01*
X39341Y-38141D01*
X39308Y-38125D01*
X39291Y-38108D01*
G54D10*
X36700Y-30265D02*
X36700Y-30584D01*
X36718Y-30621D01*
X36737Y-30640D01*
X36775Y-30659D01*
X36850Y-30659D01*
X36887Y-30640D01*
X36906Y-30621D01*
X36925Y-30584D01*
X36925Y-30265D01*
X37299Y-30265D02*
X37112Y-30265D01*
X37093Y-30453D01*
X37112Y-30434D01*
X37149Y-30415D01*
X37243Y-30415D01*
X37281Y-30434D01*
X37299Y-30453D01*
X37318Y-30490D01*
X37318Y-30584D01*
X37299Y-30621D01*
X37281Y-30640D01*
X37243Y-30659D01*
X37149Y-30659D01*
X37112Y-30640D01*
X37093Y-30621D01*
G54D16*
X33142Y-31200D02*
X33571Y-31200D01*
X33657Y-31228D01*
X33714Y-31285D01*
X33742Y-31371D01*
X33742Y-31428D01*
X33742Y-30600D02*
X33742Y-30942D01*
X33742Y-30771D02*
X33142Y-30771D01*
X33228Y-30828D01*
X33285Y-30885D01*
X33314Y-30942D01*
%LPC*%
G54D22*
X43000Y-42000D03*
X43000Y-30000D03*
X43000Y-41000D03*
X43000Y-31000D03*
X32000Y-29000D03*
X41000Y-30000D03*
X40000Y-31000D03*
X43000Y-47000D03*
X33000Y-51000D03*
X39000Y-51000D03*
X31000Y-42000D03*
X39000Y-35000D03*
X37000Y-34000D03*
X36000Y-34000D03*
X36000Y-35000D03*
X43000Y-35000D03*
X31000Y-31000D03*
X43000Y-43000D03*
X43000Y-29000D03*
X43000Y-40000D03*
X43000Y-45000D03*
X43000Y-44000D03*
X34000Y-43000D03*
X43000Y-46000D03*
X43000Y-32000D03*
X43000Y-39000D03*
X43000Y-33000D03*
X43000Y-38000D03*
X43000Y-37000D03*
X43000Y-34000D03*
X43000Y-36000D03*
X39000Y-36000D03*
X36000Y-36000D03*
X37000Y-36000D03*
G54D23*
X40100Y-48750D03*
X38400Y-48750D03*
X39100Y-43000D03*
X37400Y-43000D03*
G54D24*
X34750Y-35762D03*
X34750Y-34738D03*
G54D25*
X31738Y-47750D03*
X32762Y-47750D03*
X39988Y-42500D03*
X41012Y-42500D03*
X35012Y-47000D03*
X33988Y-47000D03*
G54D24*
X35250Y-39988D03*
X35250Y-41012D03*
X40250Y-39988D03*
X40250Y-41012D03*
X37750Y-39988D03*
X37750Y-41012D03*
G54D25*
X36262Y-42250D03*
X35238Y-42250D03*
G54D26*
X36884Y-37150D03*
X36628Y-37150D03*
X36372Y-37150D03*
X36116Y-37150D03*
X36116Y-38850D03*
X36372Y-38850D03*
X36628Y-38850D03*
X36884Y-38850D03*
G54D27*
X40625Y-46900D03*
X40625Y-46700D03*
X40625Y-46500D03*
X40625Y-46300D03*
X40625Y-46100D03*
X38875Y-46100D03*
X38875Y-46300D03*
X38875Y-46500D03*
X38875Y-46700D03*
X38875Y-46900D03*
G54D28*
X40500Y-44433D03*
X40125Y-43567D03*
X40875Y-43567D03*
G54D10*
G36*
X36041Y-47893D02*
X37459Y-47893D01*
X37065Y-49586D01*
X36435Y-49586D01*
X36041Y-47893D01*
X36041Y-47893D01*
G37*
G36*
X37459Y-52106D02*
X36041Y-52106D01*
X36435Y-50413D01*
X37065Y-50413D01*
X37459Y-52106D01*
X37459Y-52106D01*
G37*
G36*
X38106Y-44541D02*
X38106Y-45959D01*
X36413Y-45565D01*
X36413Y-44935D01*
X38106Y-44541D01*
X38106Y-44541D01*
G37*
G36*
X33893Y-45959D02*
X33893Y-44541D01*
X35586Y-44935D01*
X35586Y-45565D01*
X33893Y-45959D01*
X33893Y-45959D01*
G37*
G36*
X35209Y-52106D02*
X33791Y-52106D01*
X34185Y-50413D01*
X34815Y-50413D01*
X35209Y-52106D01*
X35209Y-52106D01*
G37*
G36*
X33791Y-47893D02*
X35209Y-47893D01*
X34815Y-49586D01*
X34185Y-49586D01*
X33791Y-47893D01*
X33791Y-47893D01*
G37*
G54D25*
X38738Y-45000D03*
X39762Y-45000D03*
G54D24*
X36500Y-39988D03*
X36500Y-41012D03*
G54D25*
X31738Y-46500D03*
X32762Y-46500D03*
G54D24*
X34000Y-39988D03*
X34000Y-41012D03*
X39000Y-39988D03*
X39000Y-41012D03*
G54D25*
X31738Y-49000D03*
X32762Y-49000D03*
X37012Y-47000D03*
X35988Y-47000D03*
X35238Y-43500D03*
X36262Y-43500D03*
G54D29*
X38000Y-34750D03*
X38000Y-35750D03*
G54D30*
X34047Y-36834D03*
X34952Y-36834D03*
G54D31*
X34500Y-39000D03*
G54D32*
X33000Y-45300D03*
X33000Y-43200D03*
X32500Y-45300D03*
X32000Y-45300D03*
X31500Y-45300D03*
X32500Y-43200D03*
X32000Y-43200D03*
X31500Y-43200D03*
X39500Y-39050D03*
X39500Y-36950D03*
X39000Y-39050D03*
X38500Y-39050D03*
X38000Y-39050D03*
X39000Y-36950D03*
X38500Y-36950D03*
X38000Y-36950D03*
G54D22*
X43000Y-48000D03*
G54D33*
X34750Y-29907D03*
G54D34*
X34868Y-28903D03*
G54D33*
X34986Y-29907D03*
G54D34*
X35104Y-28903D03*
G54D33*
X35222Y-29907D03*
G54D34*
X35340Y-28903D03*
G54D33*
X35458Y-29907D03*
G54D34*
X35576Y-28903D03*
G54D33*
X35694Y-29907D03*
G54D34*
X35812Y-28903D03*
G54D33*
X35931Y-29907D03*
G54D34*
X36049Y-28903D03*
G54D33*
X36167Y-29907D03*
G54D34*
X36285Y-28903D03*
G54D33*
X36403Y-29907D03*
G54D34*
X36521Y-28903D03*
G54D33*
X36639Y-29907D03*
G54D34*
X36757Y-28903D03*
G54D33*
X36875Y-29907D03*
G54D34*
X36994Y-28903D03*
G54D33*
X37112Y-29907D03*
G54D34*
X37230Y-28903D03*
G54D33*
X37348Y-29907D03*
G54D34*
X37466Y-28903D03*
G54D33*
X37584Y-29907D03*
G54D34*
X37702Y-28903D03*
G54D33*
X37820Y-29907D03*
G54D34*
X37938Y-28903D03*
G54D33*
X38057Y-29907D03*
G54D34*
X38175Y-28903D03*
G54D33*
X38293Y-29907D03*
G54D34*
X38411Y-28903D03*
G54D33*
X38529Y-29907D03*
G54D34*
X38647Y-28903D03*
G54D33*
X38765Y-29907D03*
G54D34*
X38883Y-28903D03*
G54D33*
X39001Y-29907D03*
G54D34*
X39120Y-28903D03*
G54D33*
X39238Y-29907D03*
G54D35*
X39513Y-29799D03*
X34474Y-29799D03*
G54D22*
X37000Y-32000D03*
X31000Y-32000D03*
X32000Y-30000D03*
X31000Y-41000D03*
X31000Y-39000D03*
X31000Y-33000D03*
X31000Y-40000D03*
X33000Y-33000D03*
X31000Y-34000D03*
X31000Y-38000D03*
X31000Y-37000D03*
X31000Y-35000D03*
X31000Y-36000D03*
X37000Y-35000D03*
G54D25*
X35262Y-31000D03*
X34238Y-31000D03*
M02*
