G04 #@! TF.FileFunction,Copper,L1,Top,Signal*
%FSLAX46Y46*%
G04 Gerber Fmt 4.6, Leading zero omitted, Abs format (unit mm)*
G04 Created by KiCad (PCBNEW 4.0.2-4+6225~38~ubuntu15.10.1-stable) date IDT 22:32:43 2016 אפר 10 א'*
%MOMM*%
G01*
G04 APERTURE LIST*
%ADD10C,0.150000*%
%ADD11R,1.500000X1.250000*%
%ADD12R,1.250000X1.500000*%
%ADD13R,1.300000X1.300000*%
%ADD14C,1.300000*%
%ADD15R,1.501140X5.300980*%
%ADD16R,2.235200X2.235200*%
%ADD17R,0.800100X1.000760*%
%ADD18R,1.500000X1.300000*%
%ADD19R,1.300000X1.500000*%
%ADD20R,2.000000X1.300000*%
%ADD21C,1.501140*%
%ADD22R,1.400000X0.300000*%
%ADD23R,1.450000X0.450000*%
%ADD24R,0.599440X1.399540*%
%ADD25R,0.300000X0.800000*%
%ADD26R,0.300000X0.650000*%
%ADD27R,0.400000X0.950000*%
%ADD28C,0.685800*%
%ADD29C,0.355600*%
%ADD30C,0.304800*%
%ADD31C,0.299800*%
G04 APERTURE END LIST*
D10*
D11*
X101580000Y-114935000D03*
X99080000Y-114935000D03*
X93960000Y-119380000D03*
X91460000Y-119380000D03*
X80665000Y-123825000D03*
X83165000Y-123825000D03*
X89555000Y-110490000D03*
X92055000Y-110490000D03*
X80665000Y-117475000D03*
X83165000Y-117475000D03*
D12*
X92710000Y-101620000D03*
X92710000Y-104120000D03*
X99060000Y-101620000D03*
X99060000Y-104120000D03*
X86360000Y-101620000D03*
X86360000Y-104120000D03*
D13*
X97155000Y-86995000D03*
D14*
X94655000Y-86995000D03*
D10*
G36*
X96790510Y-113134140D02*
X96790510Y-116735860D01*
X92490290Y-115735100D01*
X92490290Y-114134900D01*
X96790510Y-113134140D01*
X96790510Y-113134140D01*
G37*
G36*
X86089490Y-116735860D02*
X86089490Y-113134140D01*
X90389710Y-114134900D01*
X90389710Y-115735100D01*
X86089490Y-116735860D01*
X86089490Y-116735860D01*
G37*
G36*
X91544140Y-121649490D02*
X95145860Y-121649490D01*
X94145100Y-125949710D01*
X92544900Y-125949710D01*
X91544140Y-121649490D01*
X91544140Y-121649490D01*
G37*
G36*
X95145860Y-132350510D02*
X91544140Y-132350510D01*
X92544900Y-128050290D01*
X94145100Y-128050290D01*
X95145860Y-132350510D01*
X95145860Y-132350510D01*
G37*
G36*
X89430860Y-132350510D02*
X85829140Y-132350510D01*
X86829900Y-128050290D01*
X88430100Y-128050290D01*
X89430860Y-132350510D01*
X89430860Y-132350510D01*
G37*
G36*
X85829140Y-121649490D02*
X89430860Y-121649490D01*
X88430100Y-125949710D01*
X86829900Y-125949710D01*
X85829140Y-121649490D01*
X85829140Y-121649490D01*
G37*
D15*
X101854000Y-125095000D03*
X97536000Y-125095000D03*
X99314000Y-109220000D03*
X94996000Y-109220000D03*
D16*
X109220000Y-116840000D03*
X109220000Y-114300000D03*
X109220000Y-124460000D03*
X109220000Y-121920000D03*
X109220000Y-119380000D03*
X109220000Y-104140000D03*
X109220000Y-106680000D03*
X109220000Y-101600000D03*
X109220000Y-99060000D03*
X109220000Y-109220000D03*
X109220000Y-96520000D03*
X109220000Y-76200000D03*
X109220000Y-78740000D03*
X109220000Y-81280000D03*
X109220000Y-83820000D03*
X109220000Y-86360000D03*
X109220000Y-88900000D03*
X109220000Y-91440000D03*
X109220000Y-93980000D03*
X109220000Y-111760000D03*
X78740000Y-78740000D03*
X78740000Y-81280000D03*
X78740000Y-104140000D03*
X78740000Y-83820000D03*
X78740000Y-101600000D03*
X78740000Y-86360000D03*
X78740000Y-99060000D03*
X78740000Y-88900000D03*
X86360000Y-83820000D03*
X78740000Y-91440000D03*
X78740000Y-96520000D03*
X78740000Y-93980000D03*
D17*
X102870000Y-112224820D03*
X101917500Y-110025180D03*
X103822500Y-110025180D03*
D18*
X101520000Y-107950000D03*
X104220000Y-107950000D03*
X80565000Y-120650000D03*
X83265000Y-120650000D03*
X88980000Y-119380000D03*
X86280000Y-119380000D03*
D19*
X95885000Y-101520000D03*
X95885000Y-104220000D03*
D18*
X92155000Y-107315000D03*
X89455000Y-107315000D03*
D19*
X102235000Y-101520000D03*
X102235000Y-104220000D03*
X88265000Y-90885000D03*
X88265000Y-88185000D03*
X89535000Y-101520000D03*
X89535000Y-104220000D03*
D13*
X85210000Y-93560000D03*
X87510000Y-93560000D03*
D20*
X86360000Y-99060000D03*
D21*
X99060000Y-129540000D03*
X86360000Y-109220000D03*
X78613000Y-123063000D03*
X96520000Y-91440000D03*
X91440000Y-91440000D03*
X93980000Y-91440000D03*
D22*
X102530000Y-119745000D03*
X102530000Y-119245000D03*
X102530000Y-118745000D03*
X102530000Y-118245000D03*
X102530000Y-117745000D03*
X98130000Y-117745000D03*
X98130000Y-118245000D03*
X98130000Y-118745000D03*
X98130000Y-119245000D03*
X98130000Y-119745000D03*
D23*
X94910000Y-97495000D03*
X94910000Y-96845000D03*
X94910000Y-96195000D03*
X94910000Y-95545000D03*
X90510000Y-95545000D03*
X90510000Y-96195000D03*
X90510000Y-96845000D03*
X90510000Y-97495000D03*
D24*
X97790000Y-93853000D03*
X97790000Y-99187000D03*
X99060000Y-93853000D03*
X100330000Y-93853000D03*
X101600000Y-93853000D03*
X99060000Y-99187000D03*
X100330000Y-99187000D03*
X101600000Y-99187000D03*
X83820000Y-114427000D03*
X83820000Y-109093000D03*
X82550000Y-114427000D03*
X81280000Y-114427000D03*
X80010000Y-114427000D03*
X82550000Y-109093000D03*
X81280000Y-109093000D03*
X80010000Y-109093000D03*
D25*
X99695000Y-71863000D03*
D26*
X99395000Y-74738000D03*
D25*
X99095000Y-71863000D03*
D26*
X98795000Y-74738000D03*
D25*
X98495000Y-71863000D03*
D26*
X98195000Y-74738000D03*
D25*
X97895000Y-71863000D03*
D26*
X97595000Y-74738000D03*
D25*
X97295000Y-71863000D03*
D26*
X96995000Y-74738000D03*
D25*
X96695000Y-71863000D03*
D26*
X96395000Y-74738000D03*
D25*
X96095000Y-71863000D03*
D26*
X95795000Y-74738000D03*
D25*
X95495000Y-71863000D03*
D26*
X95195000Y-74738000D03*
D25*
X94895000Y-71863000D03*
D26*
X94595000Y-74738000D03*
D25*
X94295000Y-71863000D03*
D26*
X93995000Y-74738000D03*
D25*
X93695000Y-71863000D03*
D26*
X93395000Y-74738000D03*
D25*
X93095000Y-71863000D03*
D26*
X92795000Y-74738000D03*
D25*
X92495000Y-71863000D03*
D26*
X92195000Y-74738000D03*
D25*
X91895000Y-71863000D03*
D26*
X91595000Y-74738000D03*
D25*
X91295000Y-71863000D03*
D26*
X90995000Y-74738000D03*
D25*
X90695000Y-71863000D03*
D26*
X90395000Y-74738000D03*
D25*
X90095000Y-71863000D03*
D26*
X89795000Y-74738000D03*
D25*
X89495000Y-71863000D03*
D26*
X89195000Y-74738000D03*
D25*
X88895000Y-71863000D03*
D26*
X88595000Y-74738000D03*
D25*
X88295000Y-71863000D03*
D27*
X87595000Y-72138000D03*
X100395000Y-72138000D03*
D28*
X99835600Y-81922600D03*
X96173700Y-81991100D03*
X93818200Y-73864700D03*
X97769800Y-80335500D03*
X99879600Y-73308000D03*
X92125000Y-82041000D03*
X94536500Y-81797600D03*
X81438600Y-81991200D03*
X90095000Y-73038500D03*
X88595000Y-73856500D03*
X96276400Y-75564600D03*
X103183800Y-76619000D03*
X96364000Y-70542200D03*
X95795000Y-73902200D03*
X95495000Y-70937700D03*
X107557100Y-79428100D03*
X96236600Y-76475500D03*
X106476200Y-81492400D03*
X94895000Y-73899900D03*
X105521100Y-81797600D03*
X94688900Y-76359400D03*
X104382000Y-81998200D03*
X98484700Y-78708500D03*
X101178900Y-81093200D03*
X97074000Y-78713800D03*
X100475800Y-80610300D03*
X94029700Y-78077900D03*
X99139600Y-81215200D03*
X93736300Y-70669300D03*
X92548200Y-70940800D03*
X80010000Y-115623000D03*
X100665000Y-97954400D03*
X99373000Y-97989500D03*
X100330000Y-92632000D03*
X99354400Y-95090300D03*
X96185900Y-96195000D03*
X96877900Y-119245000D03*
X96919200Y-118245000D03*
X101308000Y-118745000D03*
X83990400Y-93528200D03*
X89535000Y-105524000D03*
X102781000Y-105503000D03*
X97058100Y-101713000D03*
X87547300Y-119567000D03*
X93345000Y-127541000D03*
X87509100Y-104893000D03*
X99060000Y-105411000D03*
X93872200Y-101827000D03*
X81915000Y-117269000D03*
X99080000Y-116065000D03*
X97744900Y-73208700D03*
X99041000Y-73037200D03*
X91074000Y-72784200D03*
D29*
X101154500Y-101620000D02*
X101254500Y-101520000D01*
X99060000Y-101620000D02*
X101154500Y-101620000D01*
X102235000Y-101520000D02*
X101254500Y-101520000D01*
X99060000Y-101620000D02*
X98104500Y-101620000D01*
X99395000Y-74738000D02*
X99395000Y-75393500D01*
X96173700Y-91093700D02*
X96173700Y-81991100D01*
X96520000Y-91440000D02*
X96173700Y-91093700D01*
X97790000Y-101305500D02*
X97790000Y-99187000D01*
X98104500Y-101620000D02*
X97790000Y-101305500D01*
X97790000Y-99187000D02*
X97790000Y-98156700D01*
X96635800Y-98050500D02*
X97159800Y-97526500D01*
X92121000Y-98050500D02*
X96635800Y-98050500D01*
X91565500Y-97495000D02*
X92121000Y-98050500D01*
X97790000Y-98156700D02*
X97159800Y-97526500D01*
X97159800Y-92079800D02*
X96520000Y-91440000D01*
X97159800Y-97526500D02*
X97159800Y-92079800D01*
X90510000Y-97495000D02*
X91565500Y-97495000D01*
X99666400Y-75664900D02*
X99395000Y-75393500D01*
X99666400Y-80789600D02*
X99666400Y-75664900D01*
X99835600Y-80958800D02*
X99666400Y-80789600D01*
X99835600Y-81922600D02*
X99835600Y-80958800D01*
X89555000Y-113619600D02*
X89555000Y-110490000D01*
X88239600Y-114935000D02*
X89555000Y-113619600D01*
X89763900Y-106334500D02*
X89455000Y-106334500D01*
X91754500Y-104343900D02*
X89763900Y-106334500D01*
X91754500Y-104120000D02*
X91754500Y-104343900D01*
X92710000Y-104120000D02*
X91754500Y-104120000D01*
X89455000Y-107315000D02*
X89455000Y-106334500D01*
X89555000Y-109320000D02*
X89455000Y-109220000D01*
X89555000Y-110490000D02*
X89555000Y-109320000D01*
X89455000Y-109220000D02*
X86360000Y-109220000D01*
X89455000Y-109220000D02*
X89455000Y-107315000D01*
X95084900Y-102700600D02*
X93665500Y-104120000D01*
X102922300Y-102700600D02*
X95084900Y-102700600D01*
X103241500Y-102381400D02*
X102922300Y-102700600D01*
X103241500Y-99295500D02*
X103241500Y-102381400D01*
X100843700Y-96897700D02*
X103241500Y-99295500D01*
X99804400Y-96897700D02*
X100843700Y-96897700D01*
X97790000Y-94883300D02*
X99804400Y-96897700D01*
X97790000Y-93853000D02*
X97790000Y-94883300D01*
X92710000Y-104120000D02*
X93665500Y-104120000D01*
X98135600Y-92477100D02*
X97790000Y-92822700D01*
X98135600Y-83847100D02*
X98135600Y-92477100D01*
X97769800Y-83481300D02*
X98135600Y-83847100D01*
X97769800Y-80335500D02*
X97769800Y-83481300D01*
X97790000Y-93853000D02*
X97790000Y-92822700D01*
X93095000Y-73141500D02*
X93818200Y-73864700D01*
X93095000Y-71863000D02*
X93095000Y-73141500D01*
X101520000Y-107950000D02*
X101520000Y-108930500D01*
X101917500Y-109673300D02*
X101917500Y-109321400D01*
X101910900Y-109321400D02*
X101520000Y-108930500D01*
X101917500Y-109321400D02*
X101910900Y-109321400D01*
X101917500Y-109673300D02*
X101917500Y-110025200D01*
X101520000Y-107950000D02*
X101520000Y-106969500D01*
X109220000Y-116840000D02*
X107771900Y-116840000D01*
X105132500Y-106969500D02*
X103775700Y-106969500D01*
X105748100Y-107585100D02*
X105132500Y-106969500D01*
X105748100Y-114816200D02*
X105748100Y-107585100D01*
X107771900Y-116840000D02*
X105748100Y-114816200D01*
X103775700Y-106969500D02*
X101520000Y-106969500D01*
X98795000Y-74738000D02*
X98795000Y-75393500D01*
X98795000Y-75647400D02*
X98795000Y-75393500D01*
X99158100Y-76010500D02*
X98795000Y-75647400D01*
X99158100Y-79487000D02*
X99158100Y-76010500D01*
X98443200Y-80201900D02*
X99158100Y-79487000D01*
X98443200Y-81628100D02*
X98443200Y-80201900D01*
X98704600Y-81889500D02*
X98443200Y-81628100D01*
X98704600Y-89597100D02*
X98704600Y-81889500D01*
X101066600Y-91959100D02*
X98704600Y-89597100D01*
X101066600Y-92919500D02*
X101066600Y-91959100D01*
X100969800Y-93016300D02*
X101066600Y-92919500D01*
X100969800Y-95294000D02*
X100969800Y-93016300D01*
X103775700Y-98099900D02*
X100969800Y-95294000D01*
X103775700Y-106969500D02*
X103775700Y-98099900D01*
X86360000Y-101620000D02*
X87315500Y-101620000D01*
X87415500Y-101520000D02*
X89535000Y-101520000D01*
X87315500Y-101620000D02*
X87415500Y-101520000D01*
X88265000Y-88185000D02*
X89118400Y-88185000D01*
X89118400Y-88185000D02*
X89245500Y-88185000D01*
X91440000Y-90379500D02*
X91440000Y-91440000D01*
X89245500Y-88185000D02*
X91440000Y-90379500D01*
X84514100Y-100729600D02*
X85404500Y-101620000D01*
X84514100Y-98066100D02*
X84514100Y-100729600D01*
X87272900Y-95307300D02*
X84514100Y-98066100D01*
X87572700Y-95307300D02*
X87272900Y-95307300D01*
X91440000Y-91440000D02*
X87572700Y-95307300D01*
X86360000Y-101620000D02*
X85404500Y-101620000D01*
X83820000Y-103204500D02*
X85404500Y-101620000D01*
X83820000Y-109093000D02*
X83820000Y-103204500D01*
X92125000Y-85305500D02*
X92125000Y-82041000D01*
X89245500Y-88185000D02*
X92125000Y-85305500D01*
X99879600Y-72778100D02*
X99879600Y-73308000D01*
X99695000Y-72593500D02*
X99879600Y-72778100D01*
X99695000Y-71863000D02*
X99695000Y-72593500D01*
X95250000Y-95205000D02*
X94910000Y-95545000D01*
X95250000Y-90889000D02*
X95250000Y-95205000D01*
X95665300Y-90473700D02*
X95250000Y-90889000D01*
X95665300Y-82926400D02*
X95665300Y-90473700D01*
X94536500Y-81797600D02*
X95665300Y-82926400D01*
X78822500Y-123063000D02*
X79584500Y-123825000D01*
X78613000Y-123063000D02*
X78822500Y-123063000D01*
X80665000Y-123825000D02*
X79584500Y-123825000D01*
X80565000Y-120650000D02*
X80565000Y-121630500D01*
X80665000Y-119569500D02*
X80565000Y-119669500D01*
X80665000Y-117475000D02*
X80665000Y-119569500D01*
X80565000Y-120650000D02*
X80565000Y-119669500D01*
X80665000Y-117475000D02*
X80665000Y-116519500D01*
X82550000Y-114427000D02*
X82550000Y-115457300D01*
X81280000Y-115457300D02*
X82550000Y-115457300D01*
X81280000Y-114427000D02*
X81280000Y-115457300D01*
X81280000Y-115904500D02*
X80665000Y-116519500D01*
X81280000Y-115457300D02*
X81280000Y-115904500D01*
X80665000Y-121730500D02*
X80665000Y-123825000D01*
X80565000Y-121630500D02*
X80665000Y-121730500D01*
X87630000Y-128391400D02*
X87630000Y-130200400D01*
X84019100Y-124780500D02*
X87630000Y-128391400D01*
X80665000Y-124780500D02*
X84019100Y-124780500D01*
X80665000Y-123825000D02*
X80665000Y-124780500D01*
X82550000Y-114427000D02*
X82550000Y-113396700D01*
X81280000Y-110123300D02*
X82550000Y-110123300D01*
X81280000Y-109093000D02*
X81280000Y-110123300D01*
X82550000Y-109093000D02*
X82550000Y-110123300D01*
X82550000Y-113396700D02*
X82550000Y-110123300D01*
X92798400Y-75396900D02*
X92795000Y-75393500D01*
X92798400Y-91641800D02*
X92798400Y-75396900D01*
X90987400Y-93452800D02*
X92798400Y-91641800D01*
X90866200Y-93452800D02*
X90987400Y-93452800D01*
X88249300Y-96069700D02*
X90866200Y-93452800D01*
X87232900Y-96069700D02*
X88249300Y-96069700D01*
X85029500Y-98273100D02*
X87232900Y-96069700D01*
X85029500Y-99846900D02*
X85029500Y-98273100D01*
X85602400Y-100419800D02*
X85029500Y-99846900D01*
X90352200Y-100419800D02*
X85602400Y-100419800D01*
X90547900Y-100615500D02*
X90352200Y-100419800D01*
X90547900Y-102445200D02*
X90547900Y-100615500D01*
X90292500Y-102700600D02*
X90547900Y-102445200D01*
X89118400Y-102700600D02*
X90292500Y-102700600D01*
X88368500Y-103450500D02*
X89118400Y-102700600D01*
X88368500Y-105481500D02*
X88368500Y-103450500D01*
X84730500Y-109119500D02*
X88368500Y-105481500D01*
X84730500Y-109668600D02*
X84730500Y-109119500D01*
X84275800Y-110123300D02*
X84730500Y-109668600D01*
X82550000Y-110123300D02*
X84275800Y-110123300D01*
X92795000Y-74738000D02*
X92795000Y-75393500D01*
D30*
X81438600Y-87624100D02*
X80162700Y-88900000D01*
X81438600Y-81991200D02*
X81438600Y-87624100D01*
X78740000Y-88900000D02*
X80162700Y-88900000D01*
X90095000Y-73038500D02*
X90095000Y-71863000D01*
X88595000Y-74738000D02*
X88595000Y-73856500D01*
X109220000Y-104140000D02*
X107797300Y-104140000D01*
X98495000Y-71863000D02*
X98495000Y-72568100D01*
X105879800Y-102222500D02*
X107797300Y-104140000D01*
X105879800Y-94059900D02*
X105879800Y-102222500D01*
X101827000Y-90007100D02*
X105879800Y-94059900D01*
X101827000Y-80605000D02*
X101827000Y-90007100D01*
X100553000Y-79331000D02*
X101827000Y-80605000D01*
X100553000Y-74978300D02*
X100553000Y-79331000D01*
X99259900Y-73685200D02*
X100553000Y-74978300D01*
X98772600Y-73685200D02*
X99259900Y-73685200D01*
X98393000Y-73305600D02*
X98772600Y-73685200D01*
X98393000Y-72670100D02*
X98393000Y-73305600D01*
X98495000Y-72568100D02*
X98393000Y-72670100D01*
X109220000Y-76200000D02*
X107797300Y-76200000D01*
X96395000Y-75446000D02*
X96276400Y-75564600D01*
X96395000Y-74738000D02*
X96395000Y-75446000D01*
X107378300Y-76619000D02*
X107797300Y-76200000D01*
X103183800Y-76619000D02*
X107378300Y-76619000D01*
X96143100Y-70763100D02*
X96364000Y-70542200D01*
X96143100Y-71814900D02*
X96143100Y-70763100D01*
X96095000Y-71863000D02*
X96143100Y-71814900D01*
X95795000Y-74738000D02*
X95795000Y-74107900D01*
X95795000Y-74107900D02*
X95795000Y-73902200D01*
X109220000Y-83820000D02*
X107797300Y-83820000D01*
X95495000Y-71863000D02*
X95495000Y-71157900D01*
X95495000Y-71157900D02*
X95495000Y-70937700D01*
X107797300Y-79668300D02*
X107557100Y-79428100D01*
X107797300Y-83820000D02*
X107797300Y-79668300D01*
X106476200Y-85038900D02*
X107797300Y-86360000D01*
X106476200Y-81492400D02*
X106476200Y-85038900D01*
X109220000Y-86360000D02*
X107797300Y-86360000D01*
X95195000Y-75433900D02*
X96236600Y-76475500D01*
X95195000Y-74738000D02*
X95195000Y-75433900D01*
X109220000Y-88900000D02*
X107797300Y-88900000D01*
X94895000Y-71863000D02*
X94895000Y-73899900D01*
X105521100Y-86623800D02*
X105521100Y-81797600D01*
X107797300Y-88900000D02*
X105521100Y-86623800D01*
X94688900Y-75462000D02*
X94688900Y-76359400D01*
X94595000Y-75368100D02*
X94688900Y-75462000D01*
X109220000Y-91440000D02*
X107797300Y-91440000D01*
X94595000Y-74738000D02*
X94595000Y-75368100D01*
X104382000Y-88024700D02*
X104382000Y-81998200D01*
X107797300Y-91440000D02*
X104382000Y-88024700D01*
X94295000Y-71863000D02*
X94295000Y-71157900D01*
X95826700Y-69626200D02*
X94295000Y-71157900D01*
X101101100Y-69626200D02*
X95826700Y-69626200D01*
X102528000Y-71053100D02*
X101101100Y-69626200D01*
X102528000Y-77280500D02*
X102528000Y-71053100D01*
X103657100Y-78409600D02*
X102528000Y-77280500D01*
X103657100Y-88595400D02*
X103657100Y-78409600D01*
X109041700Y-93980000D02*
X103657100Y-88595400D01*
X109220000Y-93980000D02*
X109041700Y-93980000D01*
X92055000Y-108370100D02*
X92055000Y-110490000D01*
X92155000Y-108270100D02*
X92055000Y-108370100D01*
X92155000Y-107315000D02*
X92155000Y-108270100D01*
X92790000Y-106359900D02*
X92155000Y-106359900D01*
X94929900Y-104220000D02*
X92790000Y-106359900D01*
X92155000Y-107315000D02*
X92155000Y-106359900D01*
X95885000Y-104220000D02*
X94929900Y-104220000D01*
X98884400Y-106264300D02*
X96840100Y-104220000D01*
X100227700Y-106264300D02*
X98884400Y-106264300D01*
X100464900Y-106501500D02*
X100227700Y-106264300D01*
X100464900Y-109961700D02*
X100464900Y-106501500D01*
X101777600Y-111274400D02*
X100464900Y-109961700D01*
X103294100Y-111274400D02*
X101777600Y-111274400D01*
X103620900Y-111601200D02*
X103294100Y-111274400D01*
X103620900Y-117659200D02*
X103620900Y-111601200D01*
X103535100Y-117745000D02*
X103620900Y-117659200D01*
X102530000Y-117745000D02*
X103535100Y-117745000D01*
X95885000Y-104220000D02*
X96840100Y-104220000D01*
X91895000Y-71863000D02*
X91895000Y-71157900D01*
X78740000Y-83820000D02*
X80162700Y-83820000D01*
X91895000Y-73421100D02*
X91895000Y-71863000D01*
X91595000Y-73721100D02*
X91895000Y-73421100D01*
X91595000Y-74738000D02*
X91595000Y-73721100D01*
X91723800Y-71157900D02*
X91895000Y-71157900D01*
X90807400Y-70241500D02*
X91723800Y-71157900D01*
X87040100Y-70241500D02*
X90807400Y-70241500D01*
X80162700Y-77118900D02*
X87040100Y-70241500D01*
X80162700Y-83820000D02*
X80162700Y-77118900D01*
X109220000Y-106680000D02*
X107797300Y-106680000D01*
X98195000Y-74738000D02*
X98195000Y-75368100D01*
X105173900Y-104056600D02*
X107797300Y-106680000D01*
X105173900Y-94001100D02*
X105173900Y-104056600D01*
X101178900Y-90006100D02*
X105173900Y-94001100D01*
X101178900Y-81093200D02*
X101178900Y-90006100D01*
X98195000Y-75730300D02*
X98195000Y-75368100D01*
X98484700Y-76020000D02*
X98195000Y-75730300D01*
X98484700Y-78708500D02*
X98484700Y-76020000D01*
D31*
X102530000Y-119745000D02*
X103696900Y-120911900D01*
D30*
X88980000Y-119380000D02*
X88980000Y-118424900D01*
X92385800Y-118424900D02*
X88980000Y-118424900D01*
X92515100Y-118554200D02*
X92385800Y-118424900D01*
X92515100Y-119811800D02*
X92515100Y-118554200D01*
X93224900Y-120521600D02*
X92515100Y-119811800D01*
X94506500Y-120521600D02*
X93224900Y-120521600D01*
X95451000Y-121466100D02*
X94506500Y-120521600D01*
X95451000Y-126842600D02*
X95451000Y-121466100D01*
X96706200Y-128097800D02*
X95451000Y-126842600D01*
X102683800Y-128097800D02*
X96706200Y-128097800D01*
X102909700Y-127871900D02*
X102683800Y-128097800D01*
X102909700Y-121699100D02*
X102909700Y-127871900D01*
X103696900Y-120911900D02*
X102909700Y-121699100D01*
X84535000Y-118424900D02*
X83265000Y-119694900D01*
X88980000Y-118424900D02*
X84535000Y-118424900D01*
X83265000Y-120650000D02*
X83265000Y-120378100D01*
X83265000Y-120378100D02*
X83265000Y-119694900D01*
X83165000Y-120478100D02*
X83165000Y-123825000D01*
X83265000Y-120378100D02*
X83165000Y-120478100D01*
X109220000Y-101600000D02*
X107797300Y-101600000D01*
X106337300Y-100140000D02*
X107797300Y-101600000D01*
X106337300Y-93870400D02*
X106337300Y-100140000D01*
X102284500Y-89817600D02*
X106337300Y-93870400D01*
X102284500Y-80415500D02*
X102284500Y-89817600D01*
X101010500Y-79141500D02*
X102284500Y-80415500D01*
X101010500Y-71573500D02*
X101010500Y-79141500D01*
X100521100Y-71084100D02*
X101010500Y-71573500D01*
X98271800Y-71084100D02*
X100521100Y-71084100D01*
X97895000Y-71460900D02*
X98271800Y-71084100D01*
X97895000Y-71863000D02*
X97895000Y-71460900D01*
X109220000Y-109220000D02*
X107797300Y-109220000D01*
X96995000Y-74738000D02*
X96995000Y-75368100D01*
X107797300Y-107974500D02*
X107797300Y-109220000D01*
X104716300Y-104893500D02*
X107797300Y-107974500D01*
X104716300Y-94190500D02*
X104716300Y-104893500D01*
X100483600Y-89957800D02*
X104716300Y-94190500D01*
X100483600Y-80618100D02*
X100483600Y-89957800D01*
X100475800Y-80610300D02*
X100483600Y-80618100D01*
X97074000Y-75447100D02*
X96995000Y-75368100D01*
X97074000Y-78713800D02*
X97074000Y-75447100D01*
X109220000Y-111760000D02*
X107797300Y-111760000D01*
X106623600Y-110586300D02*
X107797300Y-111760000D01*
X106623600Y-107447900D02*
X106623600Y-110586300D01*
X104258700Y-105083000D02*
X106623600Y-107447900D01*
X104258700Y-94379900D02*
X104258700Y-105083000D01*
X99187500Y-89308700D02*
X104258700Y-94379900D01*
X99187500Y-81263100D02*
X99187500Y-89308700D01*
X99139600Y-81215200D02*
X99187500Y-81263100D01*
X93995000Y-78043200D02*
X94029700Y-78077900D01*
X93995000Y-75368100D02*
X93995000Y-78043200D01*
X93995000Y-74738000D02*
X93995000Y-75368100D01*
X93736300Y-71116600D02*
X93736300Y-70669300D01*
X93695000Y-71157900D02*
X93736300Y-71116600D01*
X93695000Y-71863000D02*
X93695000Y-71157900D01*
X92495000Y-71863000D02*
X92495000Y-71157900D01*
X92548200Y-71104700D02*
X92548200Y-70940800D01*
X92495000Y-71157900D02*
X92548200Y-71104700D01*
X83346000Y-100956700D02*
X80162700Y-104140000D01*
X83346000Y-97724000D02*
X83346000Y-100956700D01*
X86554800Y-94515200D02*
X83346000Y-97724000D01*
X86554800Y-87824800D02*
X86554800Y-94515200D01*
X91477000Y-82902600D02*
X86554800Y-87824800D01*
X91477000Y-79710200D02*
X91477000Y-82902600D01*
X92195000Y-78992200D02*
X91477000Y-79710200D01*
X92195000Y-74738000D02*
X92195000Y-78992200D01*
X78740000Y-104140000D02*
X80162700Y-104140000D01*
X78740000Y-93980000D02*
X80162700Y-93980000D01*
X80162700Y-93711000D02*
X80162700Y-93980000D01*
X82857500Y-91016200D02*
X80162700Y-93711000D01*
X82857500Y-78304800D02*
X82857500Y-91016200D01*
X88295000Y-72867300D02*
X82857500Y-78304800D01*
X88295000Y-71863000D02*
X88295000Y-72867300D01*
X109220000Y-99060000D02*
X107797300Y-99060000D01*
X106794800Y-98057500D02*
X107797300Y-99060000D01*
X106794800Y-93223300D02*
X106794800Y-98057500D01*
X102742000Y-89170500D02*
X106794800Y-93223300D01*
X102742000Y-80108500D02*
X102742000Y-89170500D01*
X101468000Y-78834500D02*
X102742000Y-80108500D01*
X101468000Y-71305000D02*
X101468000Y-78834500D01*
X100751900Y-70588900D02*
X101468000Y-71305000D01*
X98033500Y-70588900D02*
X100751900Y-70588900D01*
X97295000Y-71327400D02*
X98033500Y-70588900D01*
X97295000Y-71863000D02*
X97295000Y-71327400D01*
X103905400Y-109219700D02*
X103822500Y-109219700D01*
X104220000Y-108905100D02*
X103905400Y-109219700D01*
X104220000Y-107950000D02*
X104220000Y-108905100D01*
X103822500Y-109421000D02*
X103822500Y-109367800D01*
X103822500Y-109622400D02*
X103822500Y-109421000D01*
X103822500Y-109367800D02*
X103822500Y-109219700D01*
X109220000Y-119380000D02*
X107797300Y-119380000D01*
X103822500Y-109622400D02*
X103822500Y-110025200D01*
X104527600Y-116110300D02*
X107797300Y-119380000D01*
X104527600Y-110025200D02*
X104527600Y-116110300D01*
X103822500Y-110025200D02*
X104527600Y-110025200D01*
D29*
X101854000Y-125095000D02*
X101854000Y-122114000D01*
D31*
X98348800Y-118745000D02*
X98130000Y-118745000D01*
D29*
X98348800Y-118745000D02*
X99392100Y-118745000D01*
X99392100Y-119652100D02*
X101854000Y-122114000D01*
X99392100Y-118745000D02*
X99392100Y-119652100D01*
X101580000Y-116557100D02*
X99392100Y-118745000D01*
X101580000Y-114935000D02*
X101580000Y-116557100D01*
X101580000Y-114935000D02*
X101580000Y-113979500D01*
X102870000Y-112224800D02*
X102870000Y-113055700D01*
X102503800Y-113055700D02*
X102870000Y-113055700D01*
X101580000Y-113979500D02*
X102503800Y-113055700D01*
X99314000Y-109220000D02*
X99314000Y-112201000D01*
X99801500Y-112201000D02*
X99314000Y-112201000D01*
X101580000Y-113979500D02*
X99801500Y-112201000D01*
D30*
X96695000Y-71863000D02*
X96695000Y-71157900D01*
X109220000Y-96520000D02*
X107797300Y-96520000D01*
X107797300Y-93389500D02*
X107797300Y-96520000D01*
X103199500Y-88791700D02*
X107797300Y-93389500D01*
X103199500Y-78763200D02*
X103199500Y-88791700D01*
X101925500Y-77489200D02*
X103199500Y-78763200D01*
X101925500Y-71097700D02*
X101925500Y-77489200D01*
X100930900Y-70103100D02*
X101925500Y-71097700D01*
X97749800Y-70103100D02*
X100930900Y-70103100D01*
X96695000Y-71157900D02*
X97749800Y-70103100D01*
X78740000Y-99060000D02*
X80162700Y-99060000D01*
X90232100Y-74107900D02*
X90395000Y-74107900D01*
X88895000Y-72770800D02*
X90232100Y-74107900D01*
X88895000Y-71863000D02*
X88895000Y-72770800D01*
X90395000Y-74738000D02*
X90395000Y-74107900D01*
X81767600Y-97455100D02*
X80162700Y-99060000D01*
X81767600Y-93400100D02*
X81767600Y-97455100D01*
X84157000Y-91010700D02*
X81767600Y-93400100D01*
X84157000Y-88734300D02*
X84157000Y-91010700D01*
X90395000Y-82496300D02*
X84157000Y-88734300D01*
X90395000Y-74738000D02*
X90395000Y-82496300D01*
X97536000Y-125095000D02*
X97536000Y-122683500D01*
X93960000Y-119380000D02*
X95015100Y-119380000D01*
X98130000Y-119745000D02*
X96755100Y-121119900D01*
X97111500Y-121476400D02*
X96755100Y-121119900D01*
X97111500Y-122259000D02*
X97111500Y-121476400D01*
X97536000Y-122683500D02*
X97111500Y-122259000D01*
X96755100Y-121119900D02*
X95015100Y-119380000D01*
X94996000Y-109220000D02*
X94996000Y-112175600D01*
X94996000Y-114935000D02*
X94996000Y-112175600D01*
X95320000Y-114935000D02*
X94996000Y-114935000D01*
X98130000Y-117745000D02*
X95320000Y-114935000D01*
X94996000Y-114935000D02*
X94640400Y-114935000D01*
X90695000Y-71863000D02*
X90695000Y-71157900D01*
X78740000Y-86360000D02*
X80162700Y-86360000D01*
X90236400Y-70699300D02*
X90695000Y-71157900D01*
X87229400Y-70699300D02*
X90236400Y-70699300D01*
X80773600Y-77155100D02*
X87229400Y-70699300D01*
X80773600Y-85749100D02*
X80773600Y-77155100D01*
X80162700Y-86360000D02*
X80773600Y-85749100D01*
X82804400Y-98958300D02*
X80162700Y-101600000D01*
X82804400Y-93010400D02*
X82804400Y-98958300D01*
X84843200Y-90971600D02*
X82804400Y-93010400D01*
X84843200Y-88695200D02*
X84843200Y-90971600D01*
X90995000Y-82543400D02*
X84843200Y-88695200D01*
X90995000Y-75368100D02*
X90995000Y-82543400D01*
X90995000Y-74738000D02*
X90995000Y-75368100D01*
X78740000Y-101600000D02*
X80162700Y-101600000D01*
X78740000Y-96520000D02*
X80162700Y-96520000D01*
X80852600Y-95830100D02*
X80162700Y-96520000D01*
X80852600Y-93668100D02*
X80852600Y-95830100D01*
X83699500Y-90821200D02*
X80852600Y-93668100D01*
X83699500Y-81685300D02*
X83699500Y-90821200D01*
X89195000Y-76189800D02*
X83699500Y-81685300D01*
X89195000Y-74738000D02*
X89195000Y-76189800D01*
X89495000Y-71863000D02*
X89495000Y-71157900D01*
X78740000Y-91440000D02*
X80162700Y-91440000D01*
X82086600Y-89516100D02*
X80162700Y-91440000D01*
X82086600Y-76513800D02*
X82086600Y-89516100D01*
X87442500Y-71157900D02*
X82086600Y-76513800D01*
X89495000Y-71157900D02*
X87442500Y-71157900D01*
D29*
X89795000Y-78936900D02*
X86360000Y-82371900D01*
X89795000Y-75393500D02*
X89795000Y-78936900D01*
X89795000Y-74738000D02*
X89795000Y-75393500D01*
X86360000Y-83820000D02*
X86360000Y-82371900D01*
X90510000Y-96845000D02*
X91037800Y-96845000D01*
X90510000Y-96195000D02*
X91565500Y-96195000D01*
X91565500Y-96618600D02*
X91565500Y-96195000D01*
X91339100Y-96845000D02*
X91565500Y-96618600D01*
X91037800Y-96845000D02*
X91339100Y-96845000D01*
X91565500Y-93854500D02*
X93980000Y-91440000D01*
X91565500Y-96195000D02*
X91565500Y-93854500D01*
X94655000Y-90765000D02*
X94655000Y-86995000D01*
X93980000Y-91440000D02*
X94655000Y-90765000D01*
X93347100Y-85687100D02*
X94655000Y-86995000D01*
X93347100Y-75441400D02*
X93347100Y-85687100D01*
X93395000Y-75393500D02*
X93347100Y-75441400D01*
X93395000Y-74738000D02*
X93395000Y-75393500D01*
D30*
X102530000Y-119245000D02*
X102622800Y-119245000D01*
D31*
X102667600Y-119289800D02*
X102622800Y-119245000D01*
X102668000Y-119289800D02*
X102667600Y-119289800D01*
D30*
X107797300Y-123722300D02*
X107797300Y-124460000D01*
X103364800Y-119289800D02*
X107797300Y-123722300D01*
X102668000Y-119289800D02*
X103364800Y-119289800D01*
X109220000Y-124460000D02*
X107797300Y-124460000D01*
X102530000Y-118245000D02*
X102627600Y-118245000D01*
D31*
X102670000Y-118202600D02*
X102627600Y-118245000D01*
X102670400Y-118202600D02*
X102670000Y-118202600D01*
D30*
X107616400Y-121920000D02*
X109220000Y-121920000D01*
X103899000Y-118202600D02*
X107616400Y-121920000D01*
X102670400Y-118202600D02*
X103899000Y-118202600D01*
D29*
X80010000Y-115623000D02*
X80010000Y-114427000D01*
X100463000Y-98156700D02*
X100665000Y-97954400D01*
X100330000Y-98156700D02*
X100463000Y-98156700D01*
X100330000Y-99187000D02*
X100330000Y-98156700D01*
X99060000Y-98156700D02*
X99060000Y-99187000D01*
X99205800Y-98156700D02*
X99060000Y-98156700D01*
X99373000Y-97989500D02*
X99205800Y-98156700D01*
X100330000Y-92632000D02*
X100330000Y-93853000D01*
X99060000Y-94883300D02*
X99060000Y-93853000D01*
X99147400Y-94883300D02*
X99060000Y-94883300D01*
X99354400Y-95090300D02*
X99147400Y-94883300D01*
X96185900Y-96195000D02*
X94910000Y-96195000D01*
X96877900Y-119245000D02*
X98130000Y-119245000D01*
X96919200Y-118245000D02*
X98130000Y-118245000D01*
X101308000Y-118745000D02*
X102530000Y-118745000D01*
X84229500Y-93560000D02*
X85210000Y-93560000D01*
X84197700Y-93528200D02*
X84229500Y-93560000D01*
X83990400Y-93528200D02*
X84197700Y-93528200D01*
X89535000Y-105524000D02*
X89535000Y-104220000D01*
X102235000Y-105300000D02*
X102235000Y-104220000D01*
X102578000Y-105300000D02*
X102235000Y-105300000D01*
X102781000Y-105503000D02*
X102578000Y-105300000D01*
X96865500Y-101520000D02*
X95885000Y-101520000D01*
X97058100Y-101713000D02*
X96865500Y-101520000D01*
X87360500Y-119380000D02*
X87547300Y-119567000D01*
X86280000Y-119380000D02*
X87360500Y-119380000D01*
X87315500Y-104120000D02*
X86360000Y-104120000D01*
X87315500Y-104699000D02*
X87315500Y-104120000D01*
X87509100Y-104893000D02*
X87315500Y-104699000D01*
X99060000Y-105411000D02*
X99060000Y-104120000D01*
X93665500Y-101620000D02*
X93872200Y-101827000D01*
X92710000Y-101620000D02*
X93665500Y-101620000D01*
X82084500Y-117439000D02*
X81915000Y-117269000D01*
X82084500Y-117475000D02*
X82084500Y-117439000D01*
X83165000Y-117475000D02*
X82084500Y-117475000D01*
X99080000Y-116065000D02*
X99080000Y-114935000D01*
X93345000Y-127541000D02*
X93345000Y-130200000D01*
X93345000Y-130200000D02*
X93345000Y-130200400D01*
X97155000Y-86995000D02*
X97155000Y-86014500D01*
X97595000Y-74876300D02*
X97595000Y-75393500D01*
X97595000Y-74876300D02*
X97595000Y-74738000D01*
X99095000Y-71863000D02*
X99095000Y-72593500D01*
X97595000Y-74738000D02*
X97595000Y-74082500D01*
X91295000Y-71863000D02*
X91295000Y-72593500D01*
X91264700Y-72593500D02*
X91295000Y-72593500D01*
X91074000Y-72784200D02*
X91264700Y-72593500D01*
X97744900Y-73932600D02*
X97744900Y-73208700D01*
X97595000Y-74082500D02*
X97744900Y-73932600D01*
X99095000Y-72983200D02*
X99041000Y-73037200D01*
X99095000Y-72593500D02*
X99095000Y-72983200D01*
X97595000Y-75813200D02*
X97595000Y-75393500D01*
X97747400Y-75965600D02*
X97595000Y-75813200D01*
X97747400Y-78992800D02*
X97747400Y-75965600D01*
X97091600Y-79648600D02*
X97747400Y-78992800D01*
X97091600Y-85951100D02*
X97091600Y-79648600D01*
X97155000Y-86014500D02*
X97091600Y-85951100D01*
D30*
X91460000Y-119380000D02*
X91460000Y-120310100D01*
X91460000Y-123799600D02*
X91460000Y-120310100D01*
X87630000Y-123799600D02*
X91460000Y-123799600D01*
X91460000Y-123799600D02*
X93345000Y-123799600D01*
X88174800Y-91940100D02*
X88265000Y-91940100D01*
X87510000Y-92604900D02*
X88174800Y-91940100D01*
X87510000Y-93560000D02*
X87510000Y-92604900D01*
X88265000Y-90885000D02*
X88265000Y-91940100D01*
X86920000Y-98104900D02*
X86360000Y-98104900D01*
X89479900Y-95545000D02*
X86920000Y-98104900D01*
X90510000Y-95545000D02*
X89479900Y-95545000D01*
X86360000Y-99060000D02*
X86360000Y-98104900D01*
X93879900Y-96845000D02*
X93879900Y-97495000D01*
X94910000Y-96845000D02*
X93879900Y-96845000D01*
X94910000Y-97495000D02*
X93879900Y-97495000D01*
M02*
