G04 (created by PCBNEW (25-Oct-2014 BZR 4029)-stable) date IDT 23:59:30 2015 ספט 30 ד'*
%MOIN*%
G04 Gerber Fmt 3.4, Leading zero omitted, Abs format*
%FSLAX34Y34*%
G01*
G70*
G90*
G04 APERTURE LIST*
%ADD10C,0.00590551*%
%ADD11R,0.0590551X0.0590551*%
%ADD12R,0.0591X0.2087*%
%ADD13R,0.0472X0.0591*%
%ADD14R,0.0591X0.0472*%
%ADD15R,0.015X0.05*%
%ADD16R,0.0394X0.0106*%
%ADD17R,0.0315X0.0394*%
%ADD18C,0.055*%
%ADD19R,0.0511811X0.0511811*%
%ADD20R,0.0787402X0.0511811*%
%ADD21R,0.0236X0.0551*%
%ADD22R,0.011811X0.0314961*%
%ADD23R,0.011811X0.0255906*%
%ADD24R,0.015748X0.0374016*%
%ADD25C,0.027*%
%ADD26C,0.014*%
%ADD27C,0.012*%
%ADD28C,0.0105906*%
G04 APERTURE END LIST*
G54D10*
G54D11*
X43000Y-42000D03*
X43000Y-30000D03*
X43000Y-41000D03*
X43000Y-31000D03*
X32000Y-29000D03*
X41000Y-30000D03*
X40000Y-31000D03*
X43000Y-47000D03*
X33000Y-51000D03*
X39000Y-51000D03*
X31000Y-42000D03*
X39000Y-35000D03*
X37000Y-34000D03*
X36000Y-34000D03*
X36000Y-35000D03*
X43000Y-35000D03*
X31000Y-31000D03*
X43000Y-43000D03*
X43000Y-29000D03*
X43000Y-40000D03*
X43000Y-45000D03*
X43000Y-44000D03*
X34000Y-43000D03*
X43000Y-46000D03*
X43000Y-32000D03*
X43000Y-39000D03*
X43000Y-33000D03*
X43000Y-38000D03*
X43000Y-37000D03*
X43000Y-34000D03*
X43000Y-36000D03*
X39000Y-36000D03*
X36000Y-36000D03*
X37000Y-36000D03*
G54D12*
X40100Y-48750D03*
X38400Y-48750D03*
X39100Y-43000D03*
X37400Y-43000D03*
G54D13*
X34750Y-35762D03*
X34750Y-34738D03*
G54D14*
X31738Y-47750D03*
X32762Y-47750D03*
X39988Y-42500D03*
X41012Y-42500D03*
X35012Y-47000D03*
X33988Y-47000D03*
G54D13*
X35250Y-39988D03*
X35250Y-41012D03*
X40250Y-39988D03*
X40250Y-41012D03*
X37750Y-39988D03*
X37750Y-41012D03*
G54D14*
X36262Y-42250D03*
X35238Y-42250D03*
G54D15*
X36884Y-37150D03*
X36628Y-37150D03*
X36372Y-37150D03*
X36116Y-37150D03*
X36116Y-38850D03*
X36372Y-38850D03*
X36628Y-38850D03*
X36884Y-38850D03*
G54D16*
X40625Y-46900D03*
X40625Y-46700D03*
X40625Y-46500D03*
X40625Y-46300D03*
X40625Y-46100D03*
X38875Y-46100D03*
X38875Y-46300D03*
X38875Y-46500D03*
X38875Y-46700D03*
X38875Y-46900D03*
G54D17*
X40500Y-44433D03*
X40125Y-43567D03*
X40875Y-43567D03*
G54D10*
G36*
X36041Y-47893D02*
X37459Y-47893D01*
X37065Y-49586D01*
X36435Y-49586D01*
X36041Y-47893D01*
X36041Y-47893D01*
G37*
G36*
X37459Y-52106D02*
X36041Y-52106D01*
X36435Y-50413D01*
X37065Y-50413D01*
X37459Y-52106D01*
X37459Y-52106D01*
G37*
G36*
X38106Y-44541D02*
X38106Y-45959D01*
X36413Y-45565D01*
X36413Y-44935D01*
X38106Y-44541D01*
X38106Y-44541D01*
G37*
G36*
X33893Y-45959D02*
X33893Y-44541D01*
X35586Y-44935D01*
X35586Y-45565D01*
X33893Y-45959D01*
X33893Y-45959D01*
G37*
G36*
X35209Y-52106D02*
X33791Y-52106D01*
X34185Y-50413D01*
X34815Y-50413D01*
X35209Y-52106D01*
X35209Y-52106D01*
G37*
G36*
X33791Y-47893D02*
X35209Y-47893D01*
X34815Y-49586D01*
X34185Y-49586D01*
X33791Y-47893D01*
X33791Y-47893D01*
G37*
G54D14*
X38738Y-45000D03*
X39762Y-45000D03*
G54D13*
X36500Y-39988D03*
X36500Y-41012D03*
G54D14*
X31738Y-46500D03*
X32762Y-46500D03*
G54D13*
X34000Y-39988D03*
X34000Y-41012D03*
X39000Y-39988D03*
X39000Y-41012D03*
G54D14*
X31738Y-49000D03*
X32762Y-49000D03*
X37012Y-47000D03*
X35988Y-47000D03*
X35238Y-43500D03*
X36262Y-43500D03*
G54D18*
X38000Y-34750D03*
X38000Y-35750D03*
G54D19*
X34047Y-36834D03*
X34952Y-36834D03*
G54D20*
X34500Y-39000D03*
G54D21*
X33000Y-45300D03*
X33000Y-43200D03*
X32500Y-45300D03*
X32000Y-45300D03*
X31500Y-45300D03*
X32500Y-43200D03*
X32000Y-43200D03*
X31500Y-43200D03*
X39500Y-39050D03*
X39500Y-36950D03*
X39000Y-39050D03*
X38500Y-39050D03*
X38000Y-39050D03*
X39000Y-36950D03*
X38500Y-36950D03*
X38000Y-36950D03*
G54D11*
X43000Y-48000D03*
G54D22*
X34750Y-29907D03*
G54D23*
X34868Y-28903D03*
G54D22*
X34986Y-29907D03*
G54D23*
X35104Y-28903D03*
G54D22*
X35222Y-29907D03*
G54D23*
X35340Y-28903D03*
G54D22*
X35458Y-29907D03*
G54D23*
X35576Y-28903D03*
G54D22*
X35694Y-29907D03*
G54D23*
X35812Y-28903D03*
G54D22*
X35931Y-29907D03*
G54D23*
X36049Y-28903D03*
G54D22*
X36167Y-29907D03*
G54D23*
X36285Y-28903D03*
G54D22*
X36403Y-29907D03*
G54D23*
X36521Y-28903D03*
G54D22*
X36639Y-29907D03*
G54D23*
X36757Y-28903D03*
G54D22*
X36875Y-29907D03*
G54D23*
X36994Y-28903D03*
G54D22*
X37112Y-29907D03*
G54D23*
X37230Y-28903D03*
G54D22*
X37348Y-29907D03*
G54D23*
X37466Y-28903D03*
G54D22*
X37584Y-29907D03*
G54D23*
X37702Y-28903D03*
G54D22*
X37820Y-29907D03*
G54D23*
X37938Y-28903D03*
G54D22*
X38057Y-29907D03*
G54D23*
X38175Y-28903D03*
G54D22*
X38293Y-29907D03*
G54D23*
X38411Y-28903D03*
G54D22*
X38529Y-29907D03*
G54D23*
X38647Y-28903D03*
G54D22*
X38765Y-29907D03*
G54D23*
X38883Y-28903D03*
G54D22*
X39001Y-29907D03*
G54D23*
X39120Y-28903D03*
G54D22*
X39238Y-29907D03*
G54D24*
X39513Y-29799D03*
X34474Y-29799D03*
G54D11*
X37000Y-32000D03*
X31000Y-32000D03*
X32000Y-30000D03*
X31000Y-41000D03*
X31000Y-39000D03*
X31000Y-33000D03*
X31000Y-40000D03*
X33000Y-33000D03*
X31000Y-34000D03*
X31000Y-38000D03*
X31000Y-37000D03*
X31000Y-35000D03*
X31000Y-36000D03*
X37000Y-35000D03*
G54D14*
X35262Y-31000D03*
X34238Y-31000D03*
G54D25*
X35750Y-29500D03*
X40050Y-46500D03*
X39001Y-29539D03*
X39250Y-45019D03*
X40685Y-41081D03*
X39446Y-41177D03*
X38500Y-38564D03*
X38513Y-37440D03*
X38200Y-46600D03*
X34500Y-36651D03*
X34447Y-41093D03*
X38188Y-40060D03*
X34480Y-47066D03*
X32762Y-46952D03*
X31582Y-45779D03*
X35842Y-51028D03*
X36938Y-40060D03*
X35694Y-41093D03*
G54D26*
X39000Y-36000D02*
X39000Y-35000D01*
X39500Y-36870D02*
X39500Y-36950D01*
X39054Y-36425D02*
X39500Y-36870D01*
X39000Y-36425D02*
X39054Y-36425D01*
X39000Y-36000D02*
X39000Y-36425D01*
X39748Y-37603D02*
X39748Y-39775D01*
X39500Y-37355D02*
X39748Y-37603D01*
X39500Y-36950D02*
X39500Y-37355D01*
X39748Y-39775D02*
X39000Y-39775D01*
X39000Y-39988D02*
X39000Y-39987D01*
X39000Y-39987D02*
X39000Y-39775D01*
X39883Y-39988D02*
X40249Y-39988D01*
X39748Y-39852D02*
X39883Y-39988D01*
X39748Y-39775D02*
X39748Y-39852D01*
X40249Y-39988D02*
X40250Y-39988D01*
X40249Y-39988D02*
X40250Y-39987D01*
X38787Y-39562D02*
X38787Y-39562D01*
X37442Y-39230D02*
X36884Y-39230D01*
X37774Y-39562D02*
X37442Y-39230D01*
X38787Y-39562D02*
X37774Y-39562D01*
X39000Y-39775D02*
X38787Y-39562D01*
X36884Y-38850D02*
X36884Y-39230D01*
X37208Y-34425D02*
X37000Y-34425D01*
X37425Y-34641D02*
X37208Y-34425D01*
X37425Y-34771D02*
X37425Y-34641D01*
X37903Y-35250D02*
X37425Y-34771D01*
X38088Y-35250D02*
X37903Y-35250D01*
X37000Y-34000D02*
X37000Y-34425D01*
X34740Y-44364D02*
X34740Y-45250D01*
X35237Y-43866D02*
X34740Y-44364D01*
X35237Y-43500D02*
X35237Y-43866D01*
X34000Y-43000D02*
X34425Y-43000D01*
X35237Y-43000D02*
X34425Y-43000D01*
X35237Y-43500D02*
X35237Y-43000D01*
X38415Y-35576D02*
X38088Y-35250D01*
X38415Y-36255D02*
X38415Y-35576D01*
X38248Y-36423D02*
X38415Y-36255D01*
X38248Y-37578D02*
X38248Y-36423D01*
X38298Y-37628D02*
X38248Y-37578D01*
X35910Y-40788D02*
X36133Y-41012D01*
X35910Y-38532D02*
X35910Y-40788D01*
X36815Y-37628D02*
X35910Y-38532D01*
X38298Y-37628D02*
X36815Y-37628D01*
X39313Y-38644D02*
X38298Y-37628D01*
X39500Y-38644D02*
X39313Y-38644D01*
X39500Y-39050D02*
X39500Y-38644D01*
X36500Y-41012D02*
X36133Y-41012D01*
X35237Y-43000D02*
X35237Y-42250D01*
X35237Y-42250D02*
X35237Y-41883D01*
X36133Y-41028D02*
X36133Y-41012D01*
X35278Y-41883D02*
X36133Y-41028D01*
X35237Y-41883D02*
X35278Y-41883D01*
X39988Y-43102D02*
X39988Y-42449D01*
X40125Y-43239D02*
X39988Y-43102D01*
X40125Y-43566D02*
X40125Y-43239D01*
X43000Y-44574D02*
X43000Y-45000D01*
X42787Y-44574D02*
X43000Y-44574D01*
X42574Y-44361D02*
X42787Y-44574D01*
X42574Y-43330D02*
X42574Y-44361D01*
X41378Y-42133D02*
X42574Y-43330D01*
X39988Y-42133D02*
X41378Y-42133D01*
X39988Y-42449D02*
X39988Y-42133D01*
X39987Y-42450D02*
X39987Y-42500D01*
X39988Y-42449D02*
X39987Y-42450D01*
X40125Y-43567D02*
X40125Y-43566D01*
X40125Y-43567D02*
X40125Y-43567D01*
X34750Y-34737D02*
X34750Y-34312D01*
X35487Y-33574D02*
X34750Y-34312D01*
X36350Y-33574D02*
X35487Y-33574D01*
X36425Y-33649D02*
X36350Y-33574D01*
X36425Y-34574D02*
X36425Y-33649D01*
X36000Y-35000D02*
X36425Y-34574D01*
X33000Y-40621D02*
X33633Y-39987D01*
X33000Y-43200D02*
X33000Y-40621D01*
X34000Y-39987D02*
X33633Y-39987D01*
X36115Y-37150D02*
X36115Y-36769D01*
X34000Y-39987D02*
X34000Y-39775D01*
X34000Y-39775D02*
X34000Y-39562D01*
X34671Y-39775D02*
X34883Y-39987D01*
X34000Y-39775D02*
X34671Y-39775D01*
X35250Y-39987D02*
X34883Y-39987D01*
X36115Y-36769D02*
X36002Y-36769D01*
X33975Y-39537D02*
X34000Y-39562D01*
X33975Y-38689D02*
X33975Y-39537D01*
X34114Y-38550D02*
X33975Y-38689D01*
X34221Y-38550D02*
X34114Y-38550D01*
X36002Y-36769D02*
X34221Y-38550D01*
X36000Y-36000D02*
X36000Y-35000D01*
X36002Y-36427D02*
X36002Y-36769D01*
X36000Y-36425D02*
X36002Y-36427D01*
X36000Y-36000D02*
X36000Y-36425D01*
X33000Y-50045D02*
X33000Y-51000D01*
X31737Y-49000D02*
X32163Y-49000D01*
X31737Y-46500D02*
X31737Y-46133D01*
X36000Y-34000D02*
X36000Y-34425D01*
X32000Y-43605D02*
X32500Y-43605D01*
X32000Y-43200D02*
X32000Y-43605D01*
X32500Y-43200D02*
X32500Y-43605D01*
X32500Y-45300D02*
X32500Y-43605D01*
X32500Y-45300D02*
X32500Y-45705D01*
X32000Y-45705D02*
X32500Y-45705D01*
X32000Y-45300D02*
X32000Y-45705D01*
X32500Y-39879D02*
X32500Y-43200D01*
X35149Y-37229D02*
X32500Y-39879D01*
X35258Y-37229D02*
X35149Y-37229D01*
X35574Y-36914D02*
X35258Y-37229D01*
X35574Y-34638D02*
X35574Y-36914D01*
X35787Y-34425D02*
X35574Y-34638D01*
X36000Y-34425D02*
X35787Y-34425D01*
X33685Y-51259D02*
X34499Y-51259D01*
X33425Y-51000D02*
X33685Y-51259D01*
X33000Y-51000D02*
X33425Y-51000D01*
X34499Y-51259D02*
X34500Y-51259D01*
X34499Y-51259D02*
X34500Y-51260D01*
X32000Y-45871D02*
X32000Y-45705D01*
X31737Y-46133D02*
X32000Y-45871D01*
X31737Y-49000D02*
X31737Y-47750D01*
X31737Y-47750D02*
X31737Y-46500D01*
X32163Y-49209D02*
X33000Y-50045D01*
X32163Y-49000D02*
X32163Y-49209D01*
G54D27*
X35458Y-29907D02*
X35458Y-29750D01*
X35458Y-30791D02*
X35458Y-29907D01*
X35262Y-30987D02*
X35458Y-30791D01*
X35262Y-31000D02*
X35262Y-30987D01*
X35262Y-31000D02*
X35262Y-32271D01*
X31000Y-38000D02*
X31000Y-37584D01*
X31207Y-37584D02*
X31000Y-37584D01*
X32462Y-36329D02*
X31207Y-37584D01*
X32462Y-35070D02*
X32462Y-36329D01*
X35262Y-32271D02*
X32462Y-35070D01*
X38765Y-30567D02*
X38765Y-29907D01*
X39486Y-31287D02*
X38765Y-30567D01*
X39486Y-32268D02*
X39486Y-31287D01*
X42802Y-35584D02*
X39486Y-32268D01*
X43000Y-35584D02*
X42802Y-35584D01*
X43000Y-36000D02*
X43000Y-35584D01*
X37938Y-28655D02*
X37938Y-28903D01*
X38299Y-28295D02*
X37938Y-28655D01*
X40566Y-28295D02*
X38299Y-28295D01*
X41861Y-29589D02*
X40566Y-28295D01*
X41861Y-30622D02*
X41861Y-29589D01*
X42822Y-31584D02*
X41861Y-30622D01*
X43000Y-31584D02*
X42822Y-31584D01*
X43000Y-32000D02*
X43000Y-31584D01*
X37820Y-30754D02*
X37820Y-29907D01*
X38215Y-31148D02*
X37820Y-30754D01*
X38215Y-32431D02*
X38215Y-31148D01*
X40114Y-34331D02*
X38215Y-32431D01*
X40114Y-36143D02*
X40114Y-34331D01*
X41186Y-37214D02*
X40114Y-36143D01*
X41186Y-37964D02*
X41186Y-37214D01*
X42805Y-39584D02*
X41186Y-37964D01*
X43000Y-39584D02*
X42805Y-39584D01*
X43000Y-40000D02*
X43000Y-39584D01*
X37702Y-28602D02*
X37702Y-28903D01*
X38190Y-28115D02*
X37702Y-28602D01*
X40641Y-28115D02*
X38190Y-28115D01*
X42040Y-29514D02*
X40641Y-28115D01*
X42040Y-29801D02*
X42040Y-29514D01*
X42823Y-30584D02*
X42040Y-29801D01*
X43000Y-30584D02*
X42823Y-30584D01*
X43000Y-31000D02*
X43000Y-30584D01*
X37584Y-30185D02*
X37584Y-29907D01*
X37584Y-30185D02*
X37584Y-30185D01*
X37584Y-30997D02*
X37584Y-30185D01*
X38034Y-31447D02*
X37584Y-30997D01*
X38034Y-32506D02*
X38034Y-31447D01*
X39844Y-34316D02*
X38034Y-32506D01*
X39844Y-36127D02*
X39844Y-34316D01*
X41006Y-37289D02*
X39844Y-36127D01*
X41006Y-38767D02*
X41006Y-37289D01*
X42822Y-40584D02*
X41006Y-38767D01*
X43000Y-40584D02*
X42822Y-40584D01*
X43000Y-41000D02*
X43000Y-40584D01*
X37466Y-28577D02*
X37466Y-28903D01*
X38109Y-27935D02*
X37466Y-28577D01*
X40715Y-27935D02*
X38109Y-27935D01*
X42584Y-29803D02*
X40715Y-27935D01*
X42584Y-30000D02*
X42584Y-29803D01*
X43000Y-30000D02*
X42584Y-30000D01*
X43000Y-41584D02*
X43000Y-42000D01*
X42814Y-41584D02*
X43000Y-41584D01*
X40620Y-39390D02*
X42814Y-41584D01*
X40620Y-37157D02*
X40620Y-39390D01*
X39601Y-36138D02*
X40620Y-37157D01*
X39601Y-34433D02*
X39601Y-36138D01*
X37854Y-32687D02*
X39601Y-34433D01*
X37854Y-31522D02*
X37854Y-32687D01*
X37348Y-31015D02*
X37854Y-31522D01*
X37348Y-30185D02*
X37348Y-31015D01*
X37348Y-30185D02*
X37348Y-30185D01*
X37348Y-29907D02*
X37348Y-30185D01*
X37230Y-28546D02*
X37230Y-28903D01*
X38021Y-27754D02*
X37230Y-28546D01*
X40813Y-27754D02*
X38021Y-27754D01*
X42058Y-29000D02*
X40813Y-27754D01*
X43000Y-29000D02*
X42058Y-29000D01*
X37112Y-31065D02*
X37112Y-29907D01*
X37596Y-31549D02*
X37112Y-31065D01*
X37596Y-32683D02*
X37596Y-31549D01*
X39415Y-34502D02*
X37596Y-32683D01*
X39415Y-36297D02*
X39415Y-34502D01*
X39948Y-36830D02*
X39415Y-36297D01*
X39948Y-38972D02*
X39948Y-36830D01*
X42584Y-41609D02*
X39948Y-38972D01*
X42584Y-42376D02*
X42584Y-41609D01*
X42792Y-42584D02*
X42584Y-42376D01*
X43000Y-42584D02*
X42792Y-42584D01*
X43000Y-43000D02*
X43000Y-42584D01*
X40625Y-46100D02*
X40625Y-46100D01*
X38930Y-41836D02*
X38106Y-41011D01*
X39458Y-41836D02*
X38930Y-41836D01*
X39572Y-41950D02*
X39458Y-41836D01*
X39572Y-43566D02*
X39572Y-41950D01*
X39939Y-43933D02*
X39572Y-43566D01*
X40539Y-43933D02*
X39939Y-43933D01*
X40942Y-44336D02*
X40539Y-43933D01*
X40942Y-46100D02*
X40942Y-44336D01*
X40625Y-46100D02*
X40942Y-46100D01*
X37571Y-41012D02*
X37393Y-41012D01*
X37571Y-41012D02*
X37750Y-41012D01*
X38106Y-41012D02*
X38106Y-41011D01*
X37750Y-41012D02*
X38106Y-41012D01*
X36262Y-43500D02*
X36262Y-42250D01*
X36512Y-41893D02*
X37393Y-41012D01*
X36262Y-41893D02*
X36512Y-41893D01*
X36262Y-42250D02*
X36262Y-41893D01*
X36167Y-29318D02*
X36167Y-29907D01*
X36049Y-29200D02*
X36167Y-29318D01*
X36049Y-28903D02*
X36049Y-29200D01*
X36167Y-31875D02*
X36167Y-29907D01*
X31202Y-39584D02*
X31000Y-39584D01*
X33247Y-37539D02*
X31202Y-39584D01*
X33247Y-34795D02*
X33247Y-37539D01*
X36167Y-31875D02*
X33247Y-34795D01*
X31000Y-40000D02*
X31000Y-39584D01*
G54D26*
X36639Y-31214D02*
X36639Y-29907D01*
X37000Y-31574D02*
X36639Y-31214D01*
X37000Y-32000D02*
X37000Y-31574D01*
X32425Y-30000D02*
X32000Y-30000D01*
X32425Y-29613D02*
X32425Y-30000D01*
X34386Y-27652D02*
X32425Y-29613D01*
X35528Y-27652D02*
X34386Y-27652D01*
X36521Y-28645D02*
X35528Y-27652D01*
X36521Y-28903D02*
X36521Y-28645D01*
G54D27*
X38647Y-28655D02*
X38647Y-28903D01*
X40417Y-28655D02*
X38647Y-28655D01*
X41437Y-29674D02*
X40417Y-28655D01*
X41437Y-32229D02*
X41437Y-29674D01*
X42792Y-33584D02*
X41437Y-32229D01*
X43000Y-33584D02*
X42792Y-33584D01*
X43000Y-34000D02*
X43000Y-33584D01*
X32762Y-47750D02*
X32762Y-49000D01*
X34231Y-47750D02*
X32762Y-47750D01*
X34618Y-47750D02*
X35012Y-47356D01*
X34231Y-47750D02*
X34618Y-47750D01*
X35012Y-47000D02*
X35012Y-47356D01*
X40625Y-46900D02*
X40625Y-46900D01*
X36500Y-47400D02*
X36575Y-47475D01*
X40950Y-46900D02*
X40625Y-46900D01*
X41100Y-47050D02*
X40950Y-46900D01*
X41100Y-49850D02*
X41100Y-47050D01*
X40650Y-50300D02*
X41100Y-49850D01*
X37950Y-50300D02*
X40650Y-50300D01*
X37750Y-50100D02*
X37950Y-50300D01*
X37750Y-47750D02*
X37750Y-50100D01*
X37550Y-47550D02*
X37750Y-47750D01*
X36650Y-47550D02*
X37550Y-47550D01*
X36575Y-47475D02*
X36650Y-47550D01*
X36367Y-46643D02*
X35012Y-46643D01*
X36575Y-46851D02*
X36367Y-46643D01*
X36575Y-47475D02*
X36575Y-46851D01*
X35012Y-47000D02*
X35012Y-46643D01*
X38529Y-30603D02*
X38529Y-29907D01*
X39025Y-31099D02*
X38529Y-30603D01*
X39025Y-32223D02*
X39025Y-31099D01*
X40745Y-33943D02*
X39025Y-32223D01*
X40745Y-34507D02*
X40745Y-33943D01*
X42822Y-36584D02*
X40745Y-34507D01*
X43000Y-36584D02*
X42822Y-36584D01*
X43000Y-37000D02*
X43000Y-36584D01*
X38175Y-28773D02*
X38175Y-28903D01*
X38473Y-28475D02*
X38175Y-28773D01*
X40492Y-28475D02*
X38473Y-28475D01*
X41680Y-29664D02*
X40492Y-28475D01*
X41680Y-31473D02*
X41680Y-29664D01*
X42792Y-32584D02*
X41680Y-31473D01*
X43000Y-32584D02*
X42792Y-32584D01*
X43000Y-33000D02*
X43000Y-32584D01*
X31000Y-29238D02*
X31000Y-31000D01*
X31932Y-28306D02*
X31000Y-29238D01*
X32773Y-28306D02*
X31932Y-28306D01*
X33848Y-27231D02*
X32773Y-28306D01*
X35704Y-27231D02*
X33848Y-27231D01*
X36994Y-28520D02*
X35704Y-27231D01*
X36994Y-28903D02*
X36994Y-28520D01*
X31000Y-42000D02*
X31000Y-41584D01*
X36875Y-31083D02*
X36875Y-29907D01*
X37415Y-31623D02*
X36875Y-31083D01*
X37415Y-32378D02*
X37415Y-31623D01*
X36794Y-33000D02*
X37415Y-32378D01*
X35780Y-33000D02*
X36794Y-33000D01*
X33607Y-35172D02*
X35780Y-33000D01*
X33607Y-38062D02*
X33607Y-35172D01*
X31996Y-39673D02*
X33607Y-38062D01*
X31996Y-40795D02*
X31996Y-39673D01*
X31207Y-41584D02*
X31996Y-40795D01*
X31000Y-41584D02*
X31207Y-41584D01*
X31000Y-41000D02*
X31000Y-40584D01*
X36403Y-32049D02*
X36403Y-29907D01*
X33427Y-35025D02*
X36403Y-32049D01*
X33427Y-37803D02*
X33427Y-35025D01*
X31415Y-39815D02*
X33427Y-37803D01*
X31415Y-40345D02*
X31415Y-39815D01*
X31175Y-40584D02*
X31415Y-40345D01*
X31000Y-40584D02*
X31175Y-40584D01*
X36285Y-28710D02*
X36285Y-28903D01*
X35439Y-27864D02*
X36285Y-28710D01*
X34443Y-27864D02*
X35439Y-27864D01*
X32754Y-29553D02*
X34443Y-27864D01*
X32754Y-30037D02*
X32754Y-29553D01*
X31207Y-31584D02*
X32754Y-30037D01*
X31000Y-31584D02*
X31207Y-31584D01*
X31000Y-32000D02*
X31000Y-31584D01*
X34666Y-30268D02*
X34666Y-32357D01*
X34750Y-30185D02*
X34666Y-30268D01*
X34750Y-29907D02*
X34750Y-30185D01*
X31415Y-35608D02*
X34666Y-32357D01*
X31415Y-36000D02*
X31415Y-35608D01*
X31000Y-36000D02*
X31415Y-36000D01*
X38293Y-30622D02*
X38293Y-29907D01*
X38665Y-30994D02*
X38293Y-30622D01*
X38665Y-32223D02*
X38665Y-30994D01*
X40565Y-34123D02*
X38665Y-32223D01*
X40565Y-35326D02*
X40565Y-34123D01*
X42822Y-37584D02*
X40565Y-35326D01*
X43000Y-37584D02*
X42822Y-37584D01*
X43000Y-38000D02*
X43000Y-37584D01*
X40874Y-43884D02*
X40874Y-43567D01*
X42584Y-45593D02*
X40874Y-43884D01*
X42584Y-46000D02*
X42584Y-45593D01*
X43000Y-46000D02*
X42584Y-46000D01*
X40874Y-43567D02*
X40875Y-43567D01*
X40874Y-43567D02*
X40874Y-43567D01*
X41011Y-43112D02*
X41011Y-42806D01*
X40874Y-43250D02*
X41011Y-43112D01*
X40874Y-43567D02*
X40874Y-43250D01*
X41011Y-42806D02*
X41011Y-42500D01*
X41012Y-42806D02*
X41012Y-42500D01*
X41011Y-42806D02*
X41012Y-42806D01*
G54D26*
X38737Y-44633D02*
X39149Y-44222D01*
X38737Y-45000D02*
X38737Y-44633D01*
X39100Y-44173D02*
X39100Y-43000D01*
X39149Y-44222D02*
X39100Y-44173D01*
X38875Y-46500D02*
X39301Y-46500D01*
X40100Y-47100D02*
X40100Y-48750D01*
X39500Y-46500D02*
X40100Y-47100D01*
X39301Y-46500D02*
X39500Y-46500D01*
X39301Y-45929D02*
X39301Y-46500D01*
X38737Y-45366D02*
X39301Y-45929D01*
X38737Y-45000D02*
X38737Y-45366D01*
X40500Y-44433D02*
X40499Y-44433D01*
X39359Y-44433D02*
X39149Y-44222D01*
X40499Y-44433D02*
X39359Y-44433D01*
X40499Y-44433D02*
X40500Y-44432D01*
G54D27*
X38057Y-30185D02*
X38057Y-29907D01*
X38057Y-30185D02*
X38057Y-30185D01*
X38057Y-30640D02*
X38057Y-30185D01*
X38485Y-31069D02*
X38057Y-30640D01*
X38485Y-32447D02*
X38485Y-31069D01*
X40295Y-34257D02*
X38485Y-32447D01*
X40295Y-36068D02*
X40295Y-34257D01*
X42811Y-38584D02*
X40295Y-36068D01*
X43000Y-38584D02*
X42811Y-38584D01*
X43000Y-39000D02*
X43000Y-38584D01*
X34986Y-29513D02*
X34986Y-29907D01*
X35250Y-29250D02*
X34986Y-29513D01*
X35500Y-29250D02*
X35250Y-29250D01*
X35576Y-29173D02*
X35500Y-29250D01*
X35576Y-28903D02*
X35576Y-29173D01*
X31211Y-33584D02*
X31000Y-33584D01*
X33381Y-31414D02*
X31211Y-33584D01*
X33381Y-29472D02*
X33381Y-31414D01*
X34612Y-28241D02*
X33381Y-29472D01*
X35265Y-28241D02*
X34612Y-28241D01*
X35576Y-28552D02*
X35265Y-28241D01*
X35576Y-28903D02*
X35576Y-28552D01*
X31000Y-34000D02*
X31000Y-33584D01*
X38400Y-48750D02*
X38400Y-48145D01*
X38557Y-46900D02*
X38875Y-46900D01*
X38557Y-47428D02*
X38557Y-46900D01*
X38400Y-47586D02*
X38557Y-47428D01*
X38400Y-48145D02*
X38400Y-47586D01*
X37427Y-47172D02*
X37427Y-47000D01*
X38400Y-48145D02*
X37427Y-47172D01*
X37012Y-47000D02*
X37427Y-47000D01*
X38875Y-46100D02*
X38304Y-46100D01*
X38304Y-46100D02*
X38250Y-46100D01*
X37400Y-43000D02*
X37400Y-44163D01*
X37400Y-45250D02*
X37400Y-44163D01*
X38213Y-46063D02*
X37400Y-45250D01*
X38267Y-46063D02*
X38213Y-46063D01*
X38267Y-46063D02*
X38267Y-46063D01*
X38304Y-46100D02*
X38267Y-46063D01*
X37400Y-45250D02*
X37260Y-45250D01*
X35694Y-32093D02*
X35694Y-29907D01*
X31000Y-39000D02*
X31000Y-38584D01*
X31176Y-38584D02*
X31000Y-38584D01*
X32823Y-36938D02*
X31176Y-38584D01*
X32823Y-34964D02*
X32823Y-36938D01*
X35694Y-32093D02*
X32823Y-34964D01*
X31000Y-32584D02*
X31000Y-33000D01*
X31207Y-32584D02*
X31000Y-32584D01*
X33201Y-30590D02*
X31207Y-32584D01*
X33201Y-29388D02*
X33201Y-30590D01*
X34543Y-28046D02*
X33201Y-29388D01*
X35344Y-28046D02*
X34543Y-28046D01*
X35812Y-28515D02*
X35344Y-28046D01*
X35812Y-28655D02*
X35812Y-28515D01*
X35812Y-28655D02*
X35812Y-28655D01*
X35812Y-28903D02*
X35812Y-28655D01*
X33822Y-29576D02*
X33822Y-32938D01*
X34742Y-28655D02*
X33822Y-29576D01*
X35104Y-28655D02*
X34742Y-28655D01*
X35104Y-28903D02*
X35104Y-28655D01*
X31760Y-35000D02*
X31000Y-35000D01*
X33822Y-32938D02*
X31760Y-35000D01*
X34846Y-30561D02*
X34846Y-32432D01*
X35222Y-30185D02*
X34846Y-30561D01*
X35222Y-29907D02*
X35222Y-30185D01*
X31207Y-36584D02*
X31000Y-36584D01*
X31832Y-35959D02*
X31207Y-36584D01*
X31832Y-35446D02*
X31832Y-35959D01*
X34846Y-32432D02*
X31832Y-35446D01*
X31000Y-37000D02*
X31000Y-36584D01*
G54D26*
X33000Y-32574D02*
X33000Y-33000D01*
X33571Y-32002D02*
X33000Y-32574D01*
X33571Y-29557D02*
X33571Y-32002D01*
X34684Y-28444D02*
X33571Y-29557D01*
X35167Y-28444D02*
X34684Y-28444D01*
X35340Y-28617D02*
X35167Y-28444D01*
X35340Y-28645D02*
X35340Y-28617D01*
X35340Y-28645D02*
X35340Y-28645D01*
X35340Y-28903D02*
X35340Y-28645D01*
X32425Y-29000D02*
X32000Y-29000D01*
X34004Y-27421D02*
X32425Y-29000D01*
X35607Y-27421D02*
X34004Y-27421D01*
X36757Y-28571D02*
X35607Y-27421D01*
X36757Y-28903D02*
X36757Y-28571D01*
X38883Y-29161D02*
X38883Y-28903D01*
X39343Y-29161D02*
X38883Y-29161D01*
X40859Y-30677D02*
X39343Y-29161D01*
X40859Y-32647D02*
X40859Y-30677D01*
X42787Y-34574D02*
X40859Y-32647D01*
X43000Y-34574D02*
X42787Y-34574D01*
X43000Y-35000D02*
X43000Y-34574D01*
X40000Y-30574D02*
X40000Y-31000D01*
X39620Y-30195D02*
X40000Y-30574D01*
X39238Y-30195D02*
X39620Y-30195D01*
X39238Y-29907D02*
X39238Y-30195D01*
G54D28*
X40674Y-46719D02*
X40654Y-46700D01*
G54D27*
X41304Y-46719D02*
X40674Y-46719D01*
X42584Y-48000D02*
X41304Y-46719D01*
X43000Y-48000D02*
X42584Y-48000D01*
X40625Y-46700D02*
X40654Y-46700D01*
X40625Y-46700D02*
X40625Y-46700D01*
G54D26*
X39477Y-28903D02*
X39120Y-28903D01*
X40574Y-30000D02*
X39477Y-28903D01*
X41000Y-30000D02*
X40574Y-30000D01*
G54D28*
X40674Y-46280D02*
X40654Y-46300D01*
G54D27*
X41864Y-46280D02*
X40674Y-46280D01*
X42584Y-47000D02*
X41864Y-46280D01*
X43000Y-47000D02*
X42584Y-47000D01*
X40625Y-46300D02*
X40654Y-46300D01*
X40625Y-46300D02*
X40625Y-46300D01*
G54D26*
X35931Y-29681D02*
X35931Y-29907D01*
X35750Y-29500D02*
X35931Y-29681D01*
X39336Y-45000D02*
X39762Y-45000D01*
X39317Y-45019D02*
X39336Y-45000D01*
X39250Y-45019D02*
X39317Y-45019D01*
X39001Y-29907D02*
X39001Y-29539D01*
X38411Y-29161D02*
X38411Y-28903D01*
X38789Y-29539D02*
X38411Y-29161D01*
X39001Y-29539D02*
X38789Y-29539D01*
X39000Y-37355D02*
X38500Y-37355D01*
X39000Y-36950D02*
X39000Y-37355D01*
X38500Y-37426D02*
X38513Y-37440D01*
X38500Y-37355D02*
X38500Y-37426D01*
X40625Y-46500D02*
X40625Y-46500D01*
X40625Y-46500D02*
X40050Y-46500D01*
X39000Y-39050D02*
X38500Y-39050D01*
X38500Y-39050D02*
X38500Y-38564D01*
X38500Y-36950D02*
X38500Y-37355D01*
X39762Y-45000D02*
X39762Y-45000D01*
X38300Y-46700D02*
X38200Y-46600D01*
X38875Y-46700D02*
X38300Y-46700D01*
X38300Y-46300D02*
X38875Y-46300D01*
X38100Y-46500D02*
X38300Y-46300D01*
X38200Y-46600D02*
X38100Y-46500D01*
X34433Y-36718D02*
X34433Y-36834D01*
X34500Y-36651D02*
X34433Y-36718D01*
X34047Y-36834D02*
X34433Y-36834D01*
X39000Y-41011D02*
X39000Y-41011D01*
X39366Y-41011D02*
X39000Y-41011D01*
X39366Y-41096D02*
X39366Y-41011D01*
X39446Y-41177D02*
X39366Y-41096D01*
X39000Y-41011D02*
X39000Y-41012D01*
X34000Y-41012D02*
X34366Y-41012D01*
X34366Y-41012D02*
X34447Y-41093D01*
X37750Y-39987D02*
X38116Y-39987D01*
X38188Y-40060D02*
X38116Y-39987D01*
X40250Y-41011D02*
X40250Y-41011D01*
X40616Y-41011D02*
X40685Y-41081D01*
X40250Y-41011D02*
X40616Y-41011D01*
X40250Y-41011D02*
X40250Y-41012D01*
X33987Y-47000D02*
X34413Y-47000D01*
X34413Y-47000D02*
X34480Y-47066D01*
X32762Y-46952D02*
X32762Y-46500D01*
X31500Y-45300D02*
X31500Y-45705D01*
X31508Y-45705D02*
X31582Y-45779D01*
X31500Y-45705D02*
X31508Y-45705D01*
X36518Y-51028D02*
X36750Y-51260D01*
X35842Y-51028D02*
X36518Y-51028D01*
X36500Y-39987D02*
X36866Y-39987D01*
X36938Y-40060D02*
X36866Y-39987D01*
X35616Y-41015D02*
X35616Y-41012D01*
X35694Y-41093D02*
X35616Y-41015D01*
X35250Y-41012D02*
X35616Y-41012D01*
G54D27*
X34500Y-48740D02*
X34500Y-48740D01*
X34500Y-48740D02*
X35987Y-48740D01*
X34500Y-48740D02*
X34500Y-48740D01*
X35987Y-48740D02*
X36749Y-48740D01*
X36749Y-48740D02*
X36750Y-48740D01*
X36749Y-48740D02*
X36750Y-48740D01*
X35987Y-48740D02*
X35987Y-47355D01*
X35987Y-47355D02*
X35987Y-47000D01*
X36372Y-37641D02*
X36372Y-37150D01*
X35013Y-39000D02*
X36372Y-37641D01*
X34500Y-39000D02*
X35013Y-39000D01*
X34237Y-29512D02*
X34237Y-31000D01*
X34500Y-29250D02*
X34237Y-29512D01*
X34750Y-29250D02*
X34500Y-29250D01*
X34868Y-29131D02*
X34750Y-29250D01*
X34868Y-28903D02*
X34868Y-29131D01*
X34952Y-36380D02*
X34750Y-36177D01*
X34952Y-36834D02*
X34952Y-36380D01*
X34750Y-35762D02*
X34750Y-36177D01*
X37665Y-35750D02*
X37415Y-36000D01*
X38000Y-35750D02*
X37665Y-35750D01*
X37000Y-36000D02*
X37415Y-36000D01*
X37000Y-35000D02*
X37000Y-36000D01*
X36884Y-36531D02*
X36884Y-37150D01*
X37000Y-36415D02*
X36884Y-36531D01*
X37000Y-36000D02*
X37000Y-36415D01*
X36627Y-37150D02*
X36884Y-37150D01*
M02*
