G04 #@! TF.FileFunction,Legend,Bot*
%FSLAX46Y46*%
G04 Gerber Fmt 4.6, Leading zero omitted, Abs format (unit mm)*
G04 Created by KiCad (PCBNEW 4.0.4+e1-6308~48~ubuntu16.04.1-stable) date Wed Oct 19 17:44:58 2016*
%MOMM*%
%LPD*%
G01*
G04 APERTURE LIST*
%ADD10C,0.150000*%
%ADD11C,0.250000*%
%ADD12C,3.200000*%
%ADD13R,1.300000X1.300000*%
%ADD14C,1.300000*%
%ADD15R,2.235200X2.235200*%
%ADD16R,2.032000X1.727200*%
%ADD17O,2.032000X1.727200*%
%ADD18O,2.300000X1.600000*%
%ADD19C,3.000000*%
G04 APERTURE END LIST*
D10*
D11*
X111940953Y-132532381D02*
X111940953Y-131532381D01*
X111512381Y-132532381D02*
X111512381Y-132008571D01*
X111560000Y-131913333D01*
X111655238Y-131865714D01*
X111798096Y-131865714D01*
X111893334Y-131913333D01*
X111940953Y-131960952D01*
X111179048Y-131865714D02*
X110798096Y-131865714D01*
X111036191Y-131532381D02*
X111036191Y-132389524D01*
X110988572Y-132484762D01*
X110893334Y-132532381D01*
X110798096Y-132532381D01*
X110607619Y-131865714D02*
X110226667Y-131865714D01*
X110464762Y-131532381D02*
X110464762Y-132389524D01*
X110417143Y-132484762D01*
X110321905Y-132532381D01*
X110226667Y-132532381D01*
X109893333Y-131865714D02*
X109893333Y-132865714D01*
X109893333Y-131913333D02*
X109798095Y-131865714D01*
X109607618Y-131865714D01*
X109512380Y-131913333D01*
X109464761Y-131960952D01*
X109417142Y-132056190D01*
X109417142Y-132341905D01*
X109464761Y-132437143D01*
X109512380Y-132484762D01*
X109607618Y-132532381D01*
X109798095Y-132532381D01*
X109893333Y-132484762D01*
X109036190Y-132484762D02*
X108940952Y-132532381D01*
X108750476Y-132532381D01*
X108655237Y-132484762D01*
X108607618Y-132389524D01*
X108607618Y-132341905D01*
X108655237Y-132246667D01*
X108750476Y-132199048D01*
X108893333Y-132199048D01*
X108988571Y-132151429D01*
X109036190Y-132056190D01*
X109036190Y-132008571D01*
X108988571Y-131913333D01*
X108893333Y-131865714D01*
X108750476Y-131865714D01*
X108655237Y-131913333D01*
X108179047Y-132437143D02*
X108131428Y-132484762D01*
X108179047Y-132532381D01*
X108226666Y-132484762D01*
X108179047Y-132437143D01*
X108179047Y-132532381D01*
X108179047Y-131913333D02*
X108131428Y-131960952D01*
X108179047Y-132008571D01*
X108226666Y-131960952D01*
X108179047Y-131913333D01*
X108179047Y-132008571D01*
X106988571Y-131484762D02*
X107845714Y-132770476D01*
X105940952Y-131484762D02*
X106798095Y-132770476D01*
X105607619Y-132532381D02*
X105607619Y-131532381D01*
X105179047Y-132532381D02*
X105179047Y-132008571D01*
X105226666Y-131913333D01*
X105321904Y-131865714D01*
X105464762Y-131865714D01*
X105560000Y-131913333D01*
X105607619Y-131960952D01*
X104274285Y-132532381D02*
X104274285Y-132008571D01*
X104321904Y-131913333D01*
X104417142Y-131865714D01*
X104607619Y-131865714D01*
X104702857Y-131913333D01*
X104274285Y-132484762D02*
X104369523Y-132532381D01*
X104607619Y-132532381D01*
X104702857Y-132484762D01*
X104750476Y-132389524D01*
X104750476Y-132294286D01*
X104702857Y-132199048D01*
X104607619Y-132151429D01*
X104369523Y-132151429D01*
X104274285Y-132103810D01*
X103369523Y-132484762D02*
X103464761Y-132532381D01*
X103655238Y-132532381D01*
X103750476Y-132484762D01*
X103798095Y-132437143D01*
X103845714Y-132341905D01*
X103845714Y-132056190D01*
X103798095Y-131960952D01*
X103750476Y-131913333D01*
X103655238Y-131865714D01*
X103464761Y-131865714D01*
X103369523Y-131913333D01*
X102940952Y-132532381D02*
X102940952Y-131532381D01*
X102845714Y-132151429D02*
X102559999Y-132532381D01*
X102559999Y-131865714D02*
X102940952Y-132246667D01*
X101702856Y-132532381D02*
X101702856Y-132008571D01*
X101750475Y-131913333D01*
X101845713Y-131865714D01*
X102036190Y-131865714D01*
X102131428Y-131913333D01*
X101702856Y-132484762D02*
X101798094Y-132532381D01*
X102036190Y-132532381D01*
X102131428Y-132484762D01*
X102179047Y-132389524D01*
X102179047Y-132294286D01*
X102131428Y-132199048D01*
X102036190Y-132151429D01*
X101798094Y-132151429D01*
X101702856Y-132103810D01*
X100798094Y-132532381D02*
X100798094Y-131532381D01*
X100798094Y-132484762D02*
X100893332Y-132532381D01*
X101083809Y-132532381D01*
X101179047Y-132484762D01*
X101226666Y-132437143D01*
X101274285Y-132341905D01*
X101274285Y-132056190D01*
X101226666Y-131960952D01*
X101179047Y-131913333D01*
X101083809Y-131865714D01*
X100893332Y-131865714D01*
X100798094Y-131913333D01*
X99893332Y-132532381D02*
X99893332Y-132008571D01*
X99940951Y-131913333D01*
X100036189Y-131865714D01*
X100226666Y-131865714D01*
X100321904Y-131913333D01*
X99893332Y-132484762D02*
X99988570Y-132532381D01*
X100226666Y-132532381D01*
X100321904Y-132484762D01*
X100369523Y-132389524D01*
X100369523Y-132294286D01*
X100321904Y-132199048D01*
X100226666Y-132151429D01*
X99988570Y-132151429D01*
X99893332Y-132103810D01*
X99512380Y-131865714D02*
X99274285Y-132532381D01*
X99036189Y-131865714D02*
X99274285Y-132532381D01*
X99369523Y-132770476D01*
X99417142Y-132818095D01*
X99512380Y-132865714D01*
X98655237Y-132437143D02*
X98607618Y-132484762D01*
X98655237Y-132532381D01*
X98702856Y-132484762D01*
X98655237Y-132437143D01*
X98655237Y-132532381D01*
X98179047Y-132532381D02*
X98179047Y-131865714D01*
X98179047Y-131532381D02*
X98226666Y-131580000D01*
X98179047Y-131627619D01*
X98131428Y-131580000D01*
X98179047Y-131532381D01*
X98179047Y-131627619D01*
X97560000Y-132532381D02*
X97655238Y-132484762D01*
X97702857Y-132437143D01*
X97750476Y-132341905D01*
X97750476Y-132056190D01*
X97702857Y-131960952D01*
X97655238Y-131913333D01*
X97560000Y-131865714D01*
X97417142Y-131865714D01*
X97321904Y-131913333D01*
X97274285Y-131960952D01*
X97226666Y-132056190D01*
X97226666Y-132341905D01*
X97274285Y-132437143D01*
X97321904Y-132484762D01*
X97417142Y-132532381D01*
X97560000Y-132532381D01*
X96083809Y-131484762D02*
X96940952Y-132770476D01*
X95750476Y-131865714D02*
X95750476Y-132865714D01*
X95750476Y-131913333D02*
X95655238Y-131865714D01*
X95464761Y-131865714D01*
X95369523Y-131913333D01*
X95321904Y-131960952D01*
X95274285Y-132056190D01*
X95274285Y-132341905D01*
X95321904Y-132437143D01*
X95369523Y-132484762D01*
X95464761Y-132532381D01*
X95655238Y-132532381D01*
X95750476Y-132484762D01*
X94845714Y-132532381D02*
X94845714Y-131865714D01*
X94845714Y-132056190D02*
X94798095Y-131960952D01*
X94750476Y-131913333D01*
X94655238Y-131865714D01*
X94559999Y-131865714D01*
X94083809Y-132532381D02*
X94179047Y-132484762D01*
X94226666Y-132437143D01*
X94274285Y-132341905D01*
X94274285Y-132056190D01*
X94226666Y-131960952D01*
X94179047Y-131913333D01*
X94083809Y-131865714D01*
X93940951Y-131865714D01*
X93845713Y-131913333D01*
X93798094Y-131960952D01*
X93750475Y-132056190D01*
X93750475Y-132341905D01*
X93798094Y-132437143D01*
X93845713Y-132484762D01*
X93940951Y-132532381D01*
X94083809Y-132532381D01*
X93321904Y-131865714D02*
X93321904Y-132722857D01*
X93369523Y-132818095D01*
X93464761Y-132865714D01*
X93512380Y-132865714D01*
X93321904Y-131532381D02*
X93369523Y-131580000D01*
X93321904Y-131627619D01*
X93274285Y-131580000D01*
X93321904Y-131532381D01*
X93321904Y-131627619D01*
X92464761Y-132484762D02*
X92559999Y-132532381D01*
X92750476Y-132532381D01*
X92845714Y-132484762D01*
X92893333Y-132389524D01*
X92893333Y-132008571D01*
X92845714Y-131913333D01*
X92750476Y-131865714D01*
X92559999Y-131865714D01*
X92464761Y-131913333D01*
X92417142Y-132008571D01*
X92417142Y-132103810D01*
X92893333Y-132199048D01*
X91559999Y-132484762D02*
X91655237Y-132532381D01*
X91845714Y-132532381D01*
X91940952Y-132484762D01*
X91988571Y-132437143D01*
X92036190Y-132341905D01*
X92036190Y-132056190D01*
X91988571Y-131960952D01*
X91940952Y-131913333D01*
X91845714Y-131865714D01*
X91655237Y-131865714D01*
X91559999Y-131913333D01*
X91274285Y-131865714D02*
X90893333Y-131865714D01*
X91131428Y-131532381D02*
X91131428Y-132389524D01*
X91083809Y-132484762D01*
X90988571Y-132532381D01*
X90893333Y-132532381D01*
X89845713Y-131484762D02*
X90702856Y-132770476D01*
X89607618Y-131532381D02*
X88940951Y-131532381D01*
X89369523Y-132532381D01*
X88131427Y-131865714D02*
X88131427Y-132532381D01*
X88369523Y-131484762D02*
X88607618Y-132199048D01*
X87988570Y-132199048D01*
X87179046Y-131865714D02*
X87179046Y-132532381D01*
X87417142Y-131484762D02*
X87655237Y-132199048D01*
X87036189Y-132199048D01*
X86750475Y-131532381D02*
X86131427Y-131532381D01*
X86464761Y-131913333D01*
X86321903Y-131913333D01*
X86226665Y-131960952D01*
X86179046Y-132008571D01*
X86131427Y-132103810D01*
X86131427Y-132341905D01*
X86179046Y-132437143D01*
X86226665Y-132484762D01*
X86321903Y-132532381D01*
X86607618Y-132532381D01*
X86702856Y-132484762D01*
X86750475Y-132437143D01*
X110845716Y-129468571D02*
X110512382Y-129468571D01*
X110369525Y-129992381D02*
X110845716Y-129992381D01*
X110845716Y-128992381D01*
X110369525Y-128992381D01*
X109940954Y-129611429D02*
X109179049Y-129611429D01*
X108702859Y-129992381D02*
X108702859Y-128992381D01*
X108226669Y-129325714D02*
X108226669Y-129992381D01*
X108226669Y-129420952D02*
X108179050Y-129373333D01*
X108083812Y-129325714D01*
X107940954Y-129325714D01*
X107845716Y-129373333D01*
X107798097Y-129468571D01*
X107798097Y-129992381D01*
X107321907Y-129992381D02*
X107321907Y-128992381D01*
X107226669Y-129611429D02*
X106940954Y-129992381D01*
X106940954Y-129325714D02*
X107321907Y-129706667D01*
X105750478Y-129992381D02*
X105750478Y-128992381D01*
X105512383Y-128992381D01*
X105369525Y-129040000D01*
X105274287Y-129135238D01*
X105226668Y-129230476D01*
X105179049Y-129420952D01*
X105179049Y-129563810D01*
X105226668Y-129754286D01*
X105274287Y-129849524D01*
X105369525Y-129944762D01*
X105512383Y-129992381D01*
X105750478Y-129992381D01*
X104750478Y-129992381D02*
X104750478Y-129325714D01*
X104750478Y-128992381D02*
X104798097Y-129040000D01*
X104750478Y-129087619D01*
X104702859Y-129040000D01*
X104750478Y-128992381D01*
X104750478Y-129087619D01*
X104321907Y-129944762D02*
X104226669Y-129992381D01*
X104036193Y-129992381D01*
X103940954Y-129944762D01*
X103893335Y-129849524D01*
X103893335Y-129801905D01*
X103940954Y-129706667D01*
X104036193Y-129659048D01*
X104179050Y-129659048D01*
X104274288Y-129611429D01*
X104321907Y-129516190D01*
X104321907Y-129468571D01*
X104274288Y-129373333D01*
X104179050Y-129325714D01*
X104036193Y-129325714D01*
X103940954Y-129373333D01*
X103464764Y-129325714D02*
X103464764Y-130325714D01*
X103464764Y-129373333D02*
X103369526Y-129325714D01*
X103179049Y-129325714D01*
X103083811Y-129373333D01*
X103036192Y-129420952D01*
X102988573Y-129516190D01*
X102988573Y-129801905D01*
X103036192Y-129897143D01*
X103083811Y-129944762D01*
X103179049Y-129992381D01*
X103369526Y-129992381D01*
X103464764Y-129944762D01*
X102417145Y-129992381D02*
X102512383Y-129944762D01*
X102560002Y-129849524D01*
X102560002Y-128992381D01*
X101607620Y-129992381D02*
X101607620Y-129468571D01*
X101655239Y-129373333D01*
X101750477Y-129325714D01*
X101940954Y-129325714D01*
X102036192Y-129373333D01*
X101607620Y-129944762D02*
X101702858Y-129992381D01*
X101940954Y-129992381D01*
X102036192Y-129944762D01*
X102083811Y-129849524D01*
X102083811Y-129754286D01*
X102036192Y-129659048D01*
X101940954Y-129611429D01*
X101702858Y-129611429D01*
X101607620Y-129563810D01*
X101226668Y-129325714D02*
X100988573Y-129992381D01*
X100750477Y-129325714D02*
X100988573Y-129992381D01*
X101083811Y-130230476D01*
X101131430Y-130278095D01*
X101226668Y-130325714D01*
X99655239Y-129706667D02*
X99179048Y-129706667D01*
X99750477Y-129992381D02*
X99417144Y-128992381D01*
X99083810Y-129992381D01*
X98321905Y-129992381D02*
X98321905Y-128992381D01*
X98321905Y-129944762D02*
X98417143Y-129992381D01*
X98607620Y-129992381D01*
X98702858Y-129944762D01*
X98750477Y-129897143D01*
X98798096Y-129801905D01*
X98798096Y-129516190D01*
X98750477Y-129420952D01*
X98702858Y-129373333D01*
X98607620Y-129325714D01*
X98417143Y-129325714D01*
X98321905Y-129373333D01*
X97417143Y-129992381D02*
X97417143Y-129468571D01*
X97464762Y-129373333D01*
X97560000Y-129325714D01*
X97750477Y-129325714D01*
X97845715Y-129373333D01*
X97417143Y-129944762D02*
X97512381Y-129992381D01*
X97750477Y-129992381D01*
X97845715Y-129944762D01*
X97893334Y-129849524D01*
X97893334Y-129754286D01*
X97845715Y-129659048D01*
X97750477Y-129611429D01*
X97512381Y-129611429D01*
X97417143Y-129563810D01*
X96940953Y-129325714D02*
X96940953Y-130325714D01*
X96940953Y-129373333D02*
X96845715Y-129325714D01*
X96655238Y-129325714D01*
X96560000Y-129373333D01*
X96512381Y-129420952D01*
X96464762Y-129516190D01*
X96464762Y-129801905D01*
X96512381Y-129897143D01*
X96560000Y-129944762D01*
X96655238Y-129992381D01*
X96845715Y-129992381D01*
X96940953Y-129944762D01*
X96179048Y-129325714D02*
X95798096Y-129325714D01*
X96036191Y-128992381D02*
X96036191Y-129849524D01*
X95988572Y-129944762D01*
X95893334Y-129992381D01*
X95798096Y-129992381D01*
X95083809Y-129944762D02*
X95179047Y-129992381D01*
X95369524Y-129992381D01*
X95464762Y-129944762D01*
X95512381Y-129849524D01*
X95512381Y-129468571D01*
X95464762Y-129373333D01*
X95369524Y-129325714D01*
X95179047Y-129325714D01*
X95083809Y-129373333D01*
X95036190Y-129468571D01*
X95036190Y-129563810D01*
X95512381Y-129659048D01*
X94607619Y-129992381D02*
X94607619Y-129325714D01*
X94607619Y-129516190D02*
X94560000Y-129420952D01*
X94512381Y-129373333D01*
X94417143Y-129325714D01*
X94321904Y-129325714D01*
X93226666Y-129611429D02*
X92464761Y-129611429D01*
X91226666Y-129992381D02*
X91226666Y-129325714D01*
X91226666Y-129516190D02*
X91179047Y-129420952D01*
X91131428Y-129373333D01*
X91036190Y-129325714D01*
X90940951Y-129325714D01*
X90226665Y-129944762D02*
X90321903Y-129992381D01*
X90512380Y-129992381D01*
X90607618Y-129944762D01*
X90655237Y-129849524D01*
X90655237Y-129468571D01*
X90607618Y-129373333D01*
X90512380Y-129325714D01*
X90321903Y-129325714D01*
X90226665Y-129373333D01*
X90179046Y-129468571D01*
X90179046Y-129563810D01*
X90655237Y-129659048D01*
X89845713Y-129325714D02*
X89607618Y-129992381D01*
X89369522Y-129325714D01*
X88988570Y-129897143D02*
X88940951Y-129944762D01*
X88988570Y-129992381D01*
X89036189Y-129944762D01*
X88988570Y-129897143D01*
X88988570Y-129992381D01*
X87798094Y-129087619D02*
X87750475Y-129040000D01*
X87655237Y-128992381D01*
X87417141Y-128992381D01*
X87321903Y-129040000D01*
X87274284Y-129087619D01*
X87226665Y-129182857D01*
X87226665Y-129278095D01*
X87274284Y-129420952D01*
X87845713Y-129992381D01*
X87226665Y-129992381D01*
%LPC*%
D12*
X160020000Y-113792000D03*
X160020000Y-145288000D03*
X81788000Y-145288000D03*
D13*
X140208000Y-131064000D03*
D14*
X140208000Y-128564000D03*
D15*
X93980000Y-147320000D03*
X101600000Y-147320000D03*
X99060000Y-147320000D03*
X104140000Y-147320000D03*
X96520000Y-147320000D03*
X106680000Y-147320000D03*
X109220000Y-147320000D03*
X134620000Y-142240000D03*
D16*
X154940000Y-142240000D03*
D17*
X154940000Y-144780000D03*
X154940000Y-147320000D03*
D16*
X152400000Y-116840000D03*
D17*
X152400000Y-114300000D03*
X152400000Y-111760000D03*
D16*
X149860000Y-116840000D03*
D17*
X149860000Y-114300000D03*
X149860000Y-111760000D03*
D16*
X147320000Y-116840000D03*
D17*
X147320000Y-114300000D03*
X147320000Y-111760000D03*
D16*
X144780000Y-116840000D03*
D17*
X144780000Y-114300000D03*
X144780000Y-111760000D03*
D16*
X142240000Y-116840000D03*
D17*
X142240000Y-114300000D03*
X142240000Y-111760000D03*
D16*
X139700000Y-116840000D03*
D17*
X139700000Y-114300000D03*
X139700000Y-111760000D03*
D16*
X152400000Y-142240000D03*
D17*
X152400000Y-144780000D03*
X152400000Y-147320000D03*
D16*
X144780000Y-142240000D03*
D17*
X144780000Y-144780000D03*
X144780000Y-147320000D03*
D16*
X142240000Y-142240000D03*
D17*
X142240000Y-144780000D03*
X142240000Y-147320000D03*
D16*
X149860000Y-142240000D03*
D17*
X149860000Y-144780000D03*
X149860000Y-147320000D03*
D16*
X147320000Y-142240000D03*
D17*
X147320000Y-144780000D03*
X147320000Y-147320000D03*
D18*
X123444000Y-131064000D03*
X123444000Y-128524000D03*
X123444000Y-125984000D03*
X123444000Y-123444000D03*
X123444000Y-120904000D03*
X123444000Y-118364000D03*
X123444000Y-115824000D03*
X123444000Y-113284000D03*
X115824000Y-113284000D03*
X115824000Y-115824000D03*
X115824000Y-118364000D03*
X115824000Y-120904000D03*
X115824000Y-123444000D03*
X115824000Y-125984000D03*
X115824000Y-128524000D03*
X115824000Y-131064000D03*
X134620000Y-131064000D03*
X134620000Y-128524000D03*
X134620000Y-125984000D03*
X134620000Y-123444000D03*
X134620000Y-120904000D03*
X134620000Y-118364000D03*
X134620000Y-115824000D03*
X134620000Y-113284000D03*
X127000000Y-113284000D03*
X127000000Y-115824000D03*
X127000000Y-118364000D03*
X127000000Y-120904000D03*
X127000000Y-123444000D03*
X127000000Y-125984000D03*
X127000000Y-128524000D03*
X127000000Y-131064000D03*
D19*
X80772000Y-126619000D03*
X119126000Y-142240000D03*
X116840000Y-146050000D03*
X121666000Y-146050000D03*
X126746000Y-146050000D03*
X124206000Y-142240000D03*
X131826000Y-146050000D03*
X129286000Y-142240000D03*
D16*
X154940000Y-116840000D03*
D17*
X154940000Y-114300000D03*
X154940000Y-111760000D03*
D15*
X91440000Y-147320000D03*
D12*
X81788000Y-113792000D03*
M02*
