M48
INCH,TZ
T1C0.013
T2C0.031
T3C0.032
T4C0.118
%
G90
G05
T1
X031583Y-045779
X032762Y-046952
X034448Y-041094
X034481Y-047067
X034500Y-036652
X035694Y-041094
X035750Y-029500
X035842Y-051029
X036938Y-040060
X038188Y-040060
X038200Y-046600
X038500Y-038565
X038513Y-037440
X039002Y-029539
X039250Y-045019
X039447Y-041177
X040050Y-046500
X040685Y-041081
T2
X031000Y-031000
X031000Y-032000
X031000Y-033000
X031000Y-034000
X031000Y-035000
X031000Y-036000
X031000Y-037000
X031000Y-038000
X031000Y-039000
X031000Y-040000
X031000Y-041000
X031000Y-042000
X032000Y-029000
X032000Y-030000
X033000Y-033000
X033000Y-051000
X034000Y-043000
X036000Y-034000
X036000Y-035000
X036000Y-036000
X037000Y-032000
X037000Y-034000
X037000Y-035000
X037000Y-036000
X039000Y-035000
X039000Y-036000
X039000Y-051000
X040000Y-031000
X041000Y-030000
X043000Y-029000
X043000Y-030000
X043000Y-031000
X043000Y-032000
X043000Y-033000
X043000Y-034000
X043000Y-035000
X043000Y-036000
X043000Y-037000
X043000Y-038000
X043000Y-039000
X043000Y-040000
X043000Y-041000
X043000Y-042000
X043000Y-043000
X043000Y-044000
X043000Y-045000
X043000Y-046000
X043000Y-047000
X043000Y-048000
T3
X038000Y-034750
X038000Y-035750
T4
X031500Y-026750
X031500Y-051250
X042500Y-026750
X042500Y-051250
T0
M30
