G04 #@! TF.FileFunction,Legend,Top*
%FSLAX46Y46*%
G04 Gerber Fmt 4.6, Leading zero omitted, Abs format (unit mm)*
G04 Created by KiCad (PCBNEW 4.0.4+e1-6308~48~ubuntu16.04.1-stable) date Wed Oct 19 17:44:58 2016*
%MOMM*%
%LPD*%
G01*
G04 APERTURE LIST*
%ADD10C,0.150000*%
%ADD11C,0.125000*%
%ADD12C,0.078740*%
%ADD13C,0.127000*%
%ADD14C,0.119380*%
%ADD15C,0.099060*%
%ADD16C,0.152400*%
%ADD17C,3.200000*%
%ADD18R,1.500000X1.250000*%
%ADD19R,1.250000X1.500000*%
%ADD20R,1.300000X1.300000*%
%ADD21C,1.300000*%
%ADD22R,1.501140X5.300980*%
%ADD23R,2.235200X2.235200*%
%ADD24R,0.800100X1.000760*%
%ADD25R,1.500000X1.300000*%
%ADD26R,1.300000X1.500000*%
%ADD27R,1.300000X2.000000*%
%ADD28R,1.400000X0.300000*%
%ADD29R,0.450000X1.450000*%
%ADD30R,2.032000X1.727200*%
%ADD31O,2.032000X1.727200*%
%ADD32O,2.300000X1.600000*%
%ADD33R,1.399540X0.599440*%
%ADD34C,3.000000*%
%ADD35R,1.200000X0.650000*%
G04 APERTURE END LIST*
D10*
D11*
X130691049Y-143799714D02*
X131072001Y-143799714D01*
X130881525Y-143990190D02*
X130881525Y-143609238D01*
X131286287Y-143537810D02*
X131310097Y-143514000D01*
X131357716Y-143490190D01*
X131476763Y-143490190D01*
X131524382Y-143514000D01*
X131548192Y-143537810D01*
X131572001Y-143585429D01*
X131572001Y-143633048D01*
X131548192Y-143704476D01*
X131262478Y-143990190D01*
X131572001Y-143990190D01*
X131762477Y-143537810D02*
X131786287Y-143514000D01*
X131833906Y-143490190D01*
X131952953Y-143490190D01*
X132000572Y-143514000D01*
X132024382Y-143537810D01*
X132048191Y-143585429D01*
X132048191Y-143633048D01*
X132024382Y-143704476D01*
X131738668Y-143990190D01*
X132048191Y-143990190D01*
X132191048Y-143490190D02*
X132357715Y-143990190D01*
X132524381Y-143490190D01*
X125611049Y-143799714D02*
X125992001Y-143799714D01*
X125801525Y-143990190D02*
X125801525Y-143609238D01*
X126492001Y-143990190D02*
X126206287Y-143990190D01*
X126349144Y-143990190D02*
X126349144Y-143490190D01*
X126301525Y-143561619D01*
X126253906Y-143609238D01*
X126206287Y-143633048D01*
X126944382Y-143490190D02*
X126706287Y-143490190D01*
X126682477Y-143728286D01*
X126706287Y-143704476D01*
X126753906Y-143680667D01*
X126872953Y-143680667D01*
X126920572Y-143704476D01*
X126944382Y-143728286D01*
X126968191Y-143775905D01*
X126968191Y-143894952D01*
X126944382Y-143942571D01*
X126920572Y-143966381D01*
X126872953Y-143990190D01*
X126753906Y-143990190D01*
X126706287Y-143966381D01*
X126682477Y-143942571D01*
X127111048Y-143490190D02*
X127277715Y-143990190D01*
X127444381Y-143490190D01*
X120531049Y-143799714D02*
X120912001Y-143799714D01*
X121412001Y-143990190D02*
X121126287Y-143990190D01*
X121269144Y-143990190D02*
X121269144Y-143490190D01*
X121221525Y-143561619D01*
X121173906Y-143609238D01*
X121126287Y-143633048D01*
X121864382Y-143490190D02*
X121626287Y-143490190D01*
X121602477Y-143728286D01*
X121626287Y-143704476D01*
X121673906Y-143680667D01*
X121792953Y-143680667D01*
X121840572Y-143704476D01*
X121864382Y-143728286D01*
X121888191Y-143775905D01*
X121888191Y-143894952D01*
X121864382Y-143942571D01*
X121840572Y-143966381D01*
X121792953Y-143990190D01*
X121673906Y-143990190D01*
X121626287Y-143966381D01*
X121602477Y-143942571D01*
X122031048Y-143490190D02*
X122197715Y-143990190D01*
X122364381Y-143490190D01*
X118491047Y-139450000D02*
X118443428Y-139426190D01*
X118372000Y-139426190D01*
X118300571Y-139450000D01*
X118252952Y-139497619D01*
X118229143Y-139545238D01*
X118205333Y-139640476D01*
X118205333Y-139711905D01*
X118229143Y-139807143D01*
X118252952Y-139854762D01*
X118300571Y-139902381D01*
X118372000Y-139926190D01*
X118419619Y-139926190D01*
X118491047Y-139902381D01*
X118514857Y-139878571D01*
X118514857Y-139711905D01*
X118419619Y-139711905D01*
X118729143Y-139926190D02*
X118729143Y-139426190D01*
X119014857Y-139926190D01*
X119014857Y-139426190D01*
X119252953Y-139926190D02*
X119252953Y-139426190D01*
X119372000Y-139426190D01*
X119443429Y-139450000D01*
X119491048Y-139497619D01*
X119514857Y-139545238D01*
X119538667Y-139640476D01*
X119538667Y-139711905D01*
X119514857Y-139807143D01*
X119491048Y-139854762D01*
X119443429Y-139902381D01*
X119372000Y-139926190D01*
X119252953Y-139926190D01*
X127897049Y-139735714D02*
X128278001Y-139735714D01*
X128492287Y-139473810D02*
X128516097Y-139450000D01*
X128563716Y-139426190D01*
X128682763Y-139426190D01*
X128730382Y-139450000D01*
X128754192Y-139473810D01*
X128778001Y-139521429D01*
X128778001Y-139569048D01*
X128754192Y-139640476D01*
X128468478Y-139926190D01*
X128778001Y-139926190D01*
X129087525Y-139426190D02*
X129135144Y-139426190D01*
X129182763Y-139450000D01*
X129206572Y-139473810D01*
X129230382Y-139521429D01*
X129254191Y-139616667D01*
X129254191Y-139735714D01*
X129230382Y-139830952D01*
X129206572Y-139878571D01*
X129182763Y-139902381D01*
X129135144Y-139926190D01*
X129087525Y-139926190D01*
X129039906Y-139902381D01*
X129016096Y-139878571D01*
X128992287Y-139830952D01*
X128968477Y-139735714D01*
X128968477Y-139616667D01*
X128992287Y-139521429D01*
X129016096Y-139473810D01*
X129039906Y-139450000D01*
X129087525Y-139426190D01*
X129397048Y-139426190D02*
X129563715Y-139926190D01*
X129730381Y-139426190D01*
X123241714Y-139426190D02*
X123408381Y-139926190D01*
X123575047Y-139426190D01*
X124027428Y-139878571D02*
X124003618Y-139902381D01*
X123932190Y-139926190D01*
X123884571Y-139926190D01*
X123813142Y-139902381D01*
X123765523Y-139854762D01*
X123741714Y-139807143D01*
X123717904Y-139711905D01*
X123717904Y-139640476D01*
X123741714Y-139545238D01*
X123765523Y-139497619D01*
X123813142Y-139450000D01*
X123884571Y-139426190D01*
X123932190Y-139426190D01*
X124003618Y-139450000D01*
X124027428Y-139473810D01*
X124336952Y-139426190D02*
X124432190Y-139426190D01*
X124479809Y-139450000D01*
X124527428Y-139497619D01*
X124551237Y-139592857D01*
X124551237Y-139759524D01*
X124527428Y-139854762D01*
X124479809Y-139902381D01*
X124432190Y-139926190D01*
X124336952Y-139926190D01*
X124289333Y-139902381D01*
X124241714Y-139854762D01*
X124217904Y-139759524D01*
X124217904Y-139592857D01*
X124241714Y-139497619D01*
X124289333Y-139450000D01*
X124336952Y-139426190D01*
X124765524Y-139926190D02*
X124765524Y-139426190D01*
X124932190Y-139783333D01*
X125098857Y-139426190D01*
X125098857Y-139926190D01*
X115919334Y-143490190D02*
X116086001Y-143990190D01*
X116252667Y-143490190D01*
X116705048Y-143942571D02*
X116681238Y-143966381D01*
X116609810Y-143990190D01*
X116562191Y-143990190D01*
X116490762Y-143966381D01*
X116443143Y-143918762D01*
X116419334Y-143871143D01*
X116395524Y-143775905D01*
X116395524Y-143704476D01*
X116419334Y-143609238D01*
X116443143Y-143561619D01*
X116490762Y-143514000D01*
X116562191Y-143490190D01*
X116609810Y-143490190D01*
X116681238Y-143514000D01*
X116705048Y-143537810D01*
X117205048Y-143942571D02*
X117181238Y-143966381D01*
X117109810Y-143990190D01*
X117062191Y-143990190D01*
X116990762Y-143966381D01*
X116943143Y-143918762D01*
X116919334Y-143871143D01*
X116895524Y-143775905D01*
X116895524Y-143704476D01*
X116919334Y-143609238D01*
X116943143Y-143561619D01*
X116990762Y-143514000D01*
X117062191Y-143490190D01*
X117109810Y-143490190D01*
X117181238Y-143514000D01*
X117205048Y-143537810D01*
D10*
X97712494Y-127274756D02*
X97379160Y-127852107D01*
X97696772Y-126825794D02*
X97133433Y-127325337D01*
X97669544Y-127634861D01*
X98250313Y-127200367D02*
X98827664Y-127533701D01*
X97956510Y-128185440D01*
X99322535Y-127819415D02*
X99405015Y-127867034D01*
X99463684Y-127955892D01*
X99481113Y-128020941D01*
X99474734Y-128127229D01*
X99420735Y-128315996D01*
X99301687Y-128522193D01*
X99165210Y-128663340D01*
X99076351Y-128722009D01*
X99011303Y-128739439D01*
X98905015Y-128733059D01*
X98822535Y-128685440D01*
X98763866Y-128596582D01*
X98746436Y-128531533D01*
X98752816Y-128425245D01*
X98806815Y-128236478D01*
X98925863Y-128030281D01*
X99062340Y-127889134D01*
X99151198Y-127830465D01*
X99216247Y-127813035D01*
X99322535Y-127819415D01*
X99482364Y-129066392D02*
X99982364Y-128200367D01*
X99977236Y-129352107D02*
X99891797Y-128642949D01*
X100477236Y-128486082D02*
X99696650Y-128695239D01*
D11*
X139291343Y-119364005D02*
X139984163Y-119764005D01*
X139831782Y-120027936D01*
X139760696Y-120074872D01*
X139708657Y-120088816D01*
X139623626Y-120083712D01*
X139524652Y-120026569D01*
X139477717Y-119955482D01*
X139463773Y-119903444D01*
X139468877Y-119818413D01*
X139621258Y-119554481D01*
X139537228Y-120385739D02*
X139551172Y-120437777D01*
X139546068Y-120522808D01*
X139450830Y-120687765D01*
X139379744Y-120734700D01*
X139327704Y-120748645D01*
X139242674Y-120743541D01*
X139176691Y-120705446D01*
X139096764Y-120615311D01*
X138929438Y-119990842D01*
X138681819Y-120419731D01*
X139031782Y-121413577D02*
X139107973Y-121281611D01*
X139113077Y-121196581D01*
X139099133Y-121144542D01*
X139038254Y-121021416D01*
X138925336Y-120912234D01*
X138661404Y-120759853D01*
X138576374Y-120754749D01*
X138524334Y-120768693D01*
X138453248Y-120815629D01*
X138377057Y-120947594D01*
X138371953Y-121032624D01*
X138385897Y-121084664D01*
X138432832Y-121155751D01*
X138597789Y-121250989D01*
X138682820Y-121256093D01*
X138734860Y-121242148D01*
X138805946Y-121195213D01*
X138882136Y-121063248D01*
X138887241Y-120978217D01*
X138873297Y-120926178D01*
X138826361Y-120855091D01*
X141831343Y-119364005D02*
X142524163Y-119764005D01*
X142371782Y-120027936D01*
X142300696Y-120074872D01*
X142248657Y-120088816D01*
X142163626Y-120083712D01*
X142064652Y-120026569D01*
X142017717Y-119955482D01*
X142003773Y-119903444D01*
X142008877Y-119818413D01*
X142161258Y-119554481D01*
X142077228Y-120385739D02*
X142091172Y-120437777D01*
X142086068Y-120522808D01*
X141990830Y-120687765D01*
X141919744Y-120734700D01*
X141867704Y-120748645D01*
X141782674Y-120743541D01*
X141716691Y-120705446D01*
X141636764Y-120615311D01*
X141469438Y-119990842D01*
X141221819Y-120419731D01*
X141552734Y-121446569D02*
X141743211Y-121116654D01*
X141432344Y-120893187D01*
X141446288Y-120945225D01*
X141441184Y-121030256D01*
X141345946Y-121195213D01*
X141274860Y-121242148D01*
X141222820Y-121256093D01*
X141137789Y-121250989D01*
X140972832Y-121155751D01*
X140925897Y-121084664D01*
X140911953Y-121032624D01*
X140917057Y-120947594D01*
X141012295Y-120782637D01*
X141083382Y-120735701D01*
X141135421Y-120721758D01*
X144371343Y-119364005D02*
X145064163Y-119764005D01*
X144911782Y-120027936D01*
X144840696Y-120074872D01*
X144788657Y-120088816D01*
X144703626Y-120083712D01*
X144604652Y-120026569D01*
X144557717Y-119955482D01*
X144543773Y-119903444D01*
X144548877Y-119818413D01*
X144701258Y-119554481D01*
X144617228Y-120385739D02*
X144631172Y-120437777D01*
X144626068Y-120522808D01*
X144530830Y-120687765D01*
X144459744Y-120734700D01*
X144407704Y-120748645D01*
X144322674Y-120743541D01*
X144256691Y-120705446D01*
X144176764Y-120615311D01*
X144009438Y-119990842D01*
X143761819Y-120419731D01*
X143380867Y-121079560D02*
X143609438Y-120683663D01*
X143495153Y-120881611D02*
X144187973Y-121281611D01*
X144127094Y-121158486D01*
X144099206Y-121054407D01*
X144104310Y-120969377D01*
X146911343Y-119364005D02*
X147604163Y-119764005D01*
X147451782Y-120027936D01*
X147380696Y-120074872D01*
X147328657Y-120088816D01*
X147243626Y-120083712D01*
X147144652Y-120026569D01*
X147097717Y-119955482D01*
X147083773Y-119903444D01*
X147088877Y-119818413D01*
X147241258Y-119554481D01*
X147157228Y-120385739D02*
X147171172Y-120437777D01*
X147166068Y-120522808D01*
X147070830Y-120687765D01*
X146999744Y-120734700D01*
X146947704Y-120748645D01*
X146862674Y-120743541D01*
X146796691Y-120705446D01*
X146716764Y-120615311D01*
X146549438Y-119990842D01*
X146301819Y-120419731D01*
X146747020Y-121248620D02*
X146708925Y-121314603D01*
X146637839Y-121361538D01*
X146585800Y-121375482D01*
X146500769Y-121370378D01*
X146349755Y-121327179D01*
X146184798Y-121231941D01*
X146071880Y-121122759D01*
X146024945Y-121051672D01*
X146011001Y-120999633D01*
X146016105Y-120914603D01*
X146054200Y-120848620D01*
X146125286Y-120801685D01*
X146177326Y-120787741D01*
X146262356Y-120792844D01*
X146413370Y-120836044D01*
X146578327Y-120931282D01*
X146691245Y-121040463D01*
X146738181Y-121111550D01*
X146752124Y-121163590D01*
X146747020Y-121248620D01*
X149288755Y-119797998D02*
X149274810Y-119745958D01*
X149298962Y-119627936D01*
X149337057Y-119561954D01*
X149427191Y-119482027D01*
X149531270Y-119454139D01*
X149616300Y-119459243D01*
X149767313Y-119502442D01*
X149866288Y-119559585D01*
X149979206Y-119668767D01*
X150026142Y-119739853D01*
X150054029Y-119843932D01*
X150029877Y-119961954D01*
X149991782Y-120027936D01*
X149901648Y-120107863D01*
X149849609Y-120121807D01*
X149414249Y-120266349D02*
X149280916Y-120497289D01*
X148860867Y-120386740D02*
X149051343Y-120056825D01*
X149744163Y-120456825D01*
X149553687Y-120786740D01*
X149335323Y-121012576D02*
X149349267Y-121064615D01*
X149344163Y-121149646D01*
X149248925Y-121314603D01*
X149177839Y-121361538D01*
X149125799Y-121375483D01*
X149040769Y-121370378D01*
X148974786Y-121332283D01*
X148894859Y-121242149D01*
X148727533Y-120617680D01*
X148479914Y-121046569D01*
X151828755Y-119797998D02*
X151814810Y-119745958D01*
X151838962Y-119627936D01*
X151877057Y-119561954D01*
X151967191Y-119482027D01*
X152071270Y-119454139D01*
X152156300Y-119459243D01*
X152307313Y-119502442D01*
X152406288Y-119559585D01*
X152519206Y-119668767D01*
X152566142Y-119739853D01*
X152594029Y-119843932D01*
X152569877Y-119961954D01*
X152531782Y-120027936D01*
X152441648Y-120107863D01*
X152389609Y-120121807D01*
X151954249Y-120266349D02*
X151820916Y-120497289D01*
X151400867Y-120386740D02*
X151591343Y-120056825D01*
X152284163Y-120456825D01*
X152093687Y-120786740D01*
X151019914Y-121046569D02*
X151248486Y-120650671D01*
X151134200Y-120848620D02*
X151827020Y-121248620D01*
X151766142Y-121125495D01*
X151738254Y-121021416D01*
X151743358Y-120936386D01*
X154531343Y-119364005D02*
X155224163Y-119764005D01*
X155071782Y-120027936D01*
X155000696Y-120074872D01*
X154948657Y-120088816D01*
X154863626Y-120083712D01*
X154764652Y-120026569D01*
X154717717Y-119955482D01*
X154703773Y-119903444D01*
X154708877Y-119818413D01*
X154861258Y-119554481D01*
X154862258Y-120390842D02*
X154614639Y-120819731D01*
X154484041Y-120436410D01*
X154426898Y-120535384D01*
X154355812Y-120582319D01*
X154303773Y-120596264D01*
X154218742Y-120591160D01*
X154053785Y-120495922D01*
X154006850Y-120424835D01*
X153992906Y-120372795D01*
X153998010Y-120287765D01*
X154112296Y-120089816D01*
X154183382Y-120042881D01*
X154235421Y-120028938D01*
X153731343Y-120749645D02*
X153655153Y-120881611D01*
X153650048Y-120966642D01*
X153663993Y-121018681D01*
X153724871Y-121141807D01*
X153837789Y-121250989D01*
X154101721Y-121403370D01*
X154186752Y-121408474D01*
X154238791Y-121394529D01*
X154309877Y-121347594D01*
X154386068Y-121215629D01*
X154391172Y-121130598D01*
X154377228Y-121078559D01*
X154330293Y-121007472D01*
X154165336Y-120912234D01*
X154080306Y-120907130D01*
X154028266Y-120921074D01*
X153957179Y-120968010D01*
X153880989Y-121099975D01*
X153875885Y-121185005D01*
X153889829Y-121237045D01*
X153936764Y-121308132D01*
X155296618Y-139729939D02*
X155386752Y-139650012D01*
X155481990Y-139485055D01*
X155487094Y-139400025D01*
X155473150Y-139347985D01*
X155426215Y-139276899D01*
X155360232Y-139238803D01*
X155275202Y-139233699D01*
X155223163Y-139247644D01*
X155152075Y-139294579D01*
X155042894Y-139407497D01*
X154971807Y-139454433D01*
X154919768Y-139468376D01*
X154834737Y-139463272D01*
X154768755Y-139425177D01*
X154721819Y-139354090D01*
X154707875Y-139302052D01*
X154712980Y-139217021D01*
X154808218Y-139052064D01*
X154898352Y-138972137D01*
X155729609Y-139056166D02*
X155036789Y-138656166D01*
X155366703Y-138846642D02*
X155595275Y-138450745D01*
X155958181Y-138660269D02*
X155265361Y-138260269D01*
X156377228Y-137934457D02*
X155913980Y-137974921D01*
X156148657Y-138330355D02*
X155455837Y-137930355D01*
X155608218Y-137666423D01*
X155679304Y-137619487D01*
X155731343Y-137605544D01*
X155816374Y-137610648D01*
X155915348Y-137667790D01*
X155962283Y-137738877D01*
X155976227Y-137790916D01*
X155971123Y-137875947D01*
X155818742Y-138139878D01*
X153037228Y-139320098D02*
X152573980Y-139360562D01*
X152808657Y-139715995D02*
X152115837Y-139315995D01*
X152268218Y-139052064D01*
X152339304Y-139005128D01*
X152391343Y-138991184D01*
X152476374Y-138996288D01*
X152575348Y-139053431D01*
X152622283Y-139124518D01*
X152636227Y-139176556D01*
X152631123Y-139261587D01*
X152478742Y-139525519D01*
X153399133Y-138693260D02*
X153208657Y-139023175D01*
X152515837Y-138623175D01*
X149575837Y-139315995D02*
X150136691Y-139639805D01*
X150221721Y-139644909D01*
X150273761Y-139630965D01*
X150344847Y-139584030D01*
X150421038Y-139452064D01*
X150426142Y-139367033D01*
X150412198Y-139314994D01*
X150365263Y-139243907D01*
X149804408Y-138920098D01*
X150041819Y-138661270D02*
X150027875Y-138609231D01*
X150032980Y-138524201D01*
X150128218Y-138359243D01*
X150199304Y-138312309D01*
X150251343Y-138298364D01*
X150336374Y-138303468D01*
X150402356Y-138341563D01*
X150482283Y-138431697D01*
X150649609Y-139056166D01*
X150897228Y-138627278D01*
X151231245Y-137896362D02*
X151245190Y-137948401D01*
X151221038Y-138066423D01*
X151182943Y-138132406D01*
X151092809Y-138212333D01*
X150988730Y-138240221D01*
X150903700Y-138235117D01*
X150752687Y-138191918D01*
X150653712Y-138134775D01*
X150540794Y-138025593D01*
X150493858Y-137954506D01*
X150465971Y-137850428D01*
X150490123Y-137732406D01*
X150528218Y-137666423D01*
X150618352Y-137586496D01*
X150670391Y-137572552D01*
X151105751Y-137428010D02*
X151239084Y-137197070D01*
X151659133Y-137307620D02*
X151468657Y-137637534D01*
X150775837Y-137237534D01*
X150966313Y-136907620D01*
X151184677Y-136681783D02*
X151170733Y-136629744D01*
X151175837Y-136544713D01*
X151271075Y-136379756D01*
X151342161Y-136332821D01*
X151394201Y-136318877D01*
X151479231Y-136323981D01*
X151545214Y-136362076D01*
X151625141Y-136452210D01*
X151792467Y-137076679D01*
X152040086Y-136647790D01*
X147035837Y-139315995D02*
X147596691Y-139639805D01*
X147681721Y-139644909D01*
X147733761Y-139630965D01*
X147804847Y-139584030D01*
X147881038Y-139452064D01*
X147886142Y-139367033D01*
X147872198Y-139314994D01*
X147825263Y-139243907D01*
X147264408Y-138920098D01*
X147501819Y-138661270D02*
X147487875Y-138609231D01*
X147492980Y-138524201D01*
X147588218Y-138359243D01*
X147659304Y-138312309D01*
X147711343Y-138298364D01*
X147796374Y-138303468D01*
X147862356Y-138341563D01*
X147942283Y-138431697D01*
X148109609Y-139056166D01*
X148357228Y-138627278D01*
X148691245Y-137896362D02*
X148705190Y-137948401D01*
X148681038Y-138066423D01*
X148642943Y-138132406D01*
X148552809Y-138212333D01*
X148448730Y-138240221D01*
X148363700Y-138235117D01*
X148212687Y-138191918D01*
X148113712Y-138134775D01*
X148000794Y-138025593D01*
X147953858Y-137954506D01*
X147925971Y-137850428D01*
X147950123Y-137732406D01*
X147988218Y-137666423D01*
X148078352Y-137586496D01*
X148130391Y-137572552D01*
X148565751Y-137428010D02*
X148699084Y-137197070D01*
X149119133Y-137307620D02*
X148928657Y-137637534D01*
X148235837Y-137237534D01*
X148426313Y-136907620D01*
X149500086Y-136647790D02*
X149271514Y-137043688D01*
X149385800Y-136845740D02*
X148692980Y-136445740D01*
X148753858Y-136568865D01*
X148781746Y-136672943D01*
X148776642Y-136757973D01*
X144495837Y-139315995D02*
X145056691Y-139639805D01*
X145141721Y-139644909D01*
X145193761Y-139630965D01*
X145264847Y-139584030D01*
X145341038Y-139452064D01*
X145346142Y-139367033D01*
X145332198Y-139314994D01*
X145285263Y-139243907D01*
X144724408Y-138920098D01*
X145817228Y-138627278D02*
X145588657Y-139023175D01*
X145702942Y-138825227D02*
X145010122Y-138425227D01*
X145071001Y-138548352D01*
X145098889Y-138652431D01*
X145093785Y-138737461D01*
X146151245Y-137896362D02*
X146165190Y-137948401D01*
X146141038Y-138066423D01*
X146102943Y-138132406D01*
X146012809Y-138212333D01*
X145908730Y-138240221D01*
X145823700Y-138235117D01*
X145672687Y-138191918D01*
X145573712Y-138134775D01*
X145460794Y-138025593D01*
X145413858Y-137954506D01*
X145385971Y-137850428D01*
X145410123Y-137732406D01*
X145448218Y-137666423D01*
X145538352Y-137586496D01*
X145590391Y-137572552D01*
X146025751Y-137428010D02*
X146159084Y-137197070D01*
X146579133Y-137307620D02*
X146388657Y-137637534D01*
X145695837Y-137237534D01*
X145886313Y-136907620D01*
X146104677Y-136681783D02*
X146090733Y-136629744D01*
X146095837Y-136544713D01*
X146191075Y-136379756D01*
X146262161Y-136332821D01*
X146314201Y-136318877D01*
X146399231Y-136323981D01*
X146465214Y-136362076D01*
X146545141Y-136452210D01*
X146712467Y-137076679D01*
X146960086Y-136647790D01*
X79069620Y-124535381D02*
X79141049Y-124559190D01*
X79260096Y-124559190D01*
X79307715Y-124535381D01*
X79331525Y-124511571D01*
X79355334Y-124463952D01*
X79355334Y-124416333D01*
X79331525Y-124368714D01*
X79307715Y-124344905D01*
X79260096Y-124321095D01*
X79164858Y-124297286D01*
X79117239Y-124273476D01*
X79093430Y-124249667D01*
X79069620Y-124202048D01*
X79069620Y-124154429D01*
X79093430Y-124106810D01*
X79117239Y-124083000D01*
X79164858Y-124059190D01*
X79283906Y-124059190D01*
X79355334Y-124083000D01*
X79569620Y-124559190D02*
X79569620Y-124059190D01*
X79736286Y-124416333D01*
X79902953Y-124059190D01*
X79902953Y-124559190D01*
X80141049Y-124559190D02*
X80141049Y-124059190D01*
X80331525Y-124059190D01*
X80379144Y-124083000D01*
X80402953Y-124106810D01*
X80426763Y-124154429D01*
X80426763Y-124225857D01*
X80402953Y-124273476D01*
X80379144Y-124297286D01*
X80331525Y-124321095D01*
X80141049Y-124321095D01*
X80617239Y-124535381D02*
X80688668Y-124559190D01*
X80807715Y-124559190D01*
X80855334Y-124535381D01*
X80879144Y-124511571D01*
X80902953Y-124463952D01*
X80902953Y-124416333D01*
X80879144Y-124368714D01*
X80855334Y-124344905D01*
X80807715Y-124321095D01*
X80712477Y-124297286D01*
X80664858Y-124273476D01*
X80641049Y-124249667D01*
X80617239Y-124202048D01*
X80617239Y-124154429D01*
X80641049Y-124106810D01*
X80664858Y-124083000D01*
X80712477Y-124059190D01*
X80831525Y-124059190D01*
X80902953Y-124083000D01*
X80998191Y-124606810D02*
X81379143Y-124606810D01*
X81426762Y-124059190D02*
X81593429Y-124559190D01*
X81760095Y-124059190D01*
X81926762Y-124559190D02*
X81926762Y-124059190D01*
X82164857Y-124559190D02*
X82164857Y-124059190D01*
X82450571Y-124559190D01*
X82450571Y-124059190D01*
X137540953Y-112010000D02*
X137588572Y-112033810D01*
X137660000Y-112033810D01*
X137731429Y-112010000D01*
X137779048Y-111962381D01*
X137802857Y-111914762D01*
X137826667Y-111819524D01*
X137826667Y-111748095D01*
X137802857Y-111652857D01*
X137779048Y-111605238D01*
X137731429Y-111557619D01*
X137660000Y-111533810D01*
X137612381Y-111533810D01*
X137540953Y-111557619D01*
X137517143Y-111581429D01*
X137517143Y-111748095D01*
X137612381Y-111748095D01*
X137302857Y-111533810D02*
X137302857Y-112033810D01*
X137017143Y-111533810D01*
X137017143Y-112033810D01*
X136779047Y-111533810D02*
X136779047Y-112033810D01*
X136660000Y-112033810D01*
X136588571Y-112010000D01*
X136540952Y-111962381D01*
X136517143Y-111914762D01*
X136493333Y-111819524D01*
X136493333Y-111748095D01*
X136517143Y-111652857D01*
X136540952Y-111605238D01*
X136588571Y-111557619D01*
X136660000Y-111533810D01*
X136779047Y-111533810D01*
X137826666Y-117113810D02*
X137659999Y-116613810D01*
X137493333Y-117113810D01*
X137040952Y-116661429D02*
X137064762Y-116637619D01*
X137136190Y-116613810D01*
X137183809Y-116613810D01*
X137255238Y-116637619D01*
X137302857Y-116685238D01*
X137326666Y-116732857D01*
X137350476Y-116828095D01*
X137350476Y-116899524D01*
X137326666Y-116994762D01*
X137302857Y-117042381D01*
X137255238Y-117090000D01*
X137183809Y-117113810D01*
X137136190Y-117113810D01*
X137064762Y-117090000D01*
X137040952Y-117066190D01*
X136540952Y-116661429D02*
X136564762Y-116637619D01*
X136636190Y-116613810D01*
X136683809Y-116613810D01*
X136755238Y-116637619D01*
X136802857Y-116685238D01*
X136826666Y-116732857D01*
X136850476Y-116828095D01*
X136850476Y-116899524D01*
X136826666Y-116994762D01*
X136802857Y-117042381D01*
X136755238Y-117090000D01*
X136683809Y-117113810D01*
X136636190Y-117113810D01*
X136564762Y-117090000D01*
X136540952Y-117066190D01*
X139065047Y-147070000D02*
X139017428Y-147046190D01*
X138946000Y-147046190D01*
X138874571Y-147070000D01*
X138826952Y-147117619D01*
X138803143Y-147165238D01*
X138779333Y-147260476D01*
X138779333Y-147331905D01*
X138803143Y-147427143D01*
X138826952Y-147474762D01*
X138874571Y-147522381D01*
X138946000Y-147546190D01*
X138993619Y-147546190D01*
X139065047Y-147522381D01*
X139088857Y-147498571D01*
X139088857Y-147331905D01*
X138993619Y-147331905D01*
X139303143Y-147546190D02*
X139303143Y-147046190D01*
X139588857Y-147546190D01*
X139588857Y-147046190D01*
X139826953Y-147546190D02*
X139826953Y-147046190D01*
X139946000Y-147046190D01*
X140017429Y-147070000D01*
X140065048Y-147117619D01*
X140088857Y-147165238D01*
X140112667Y-147260476D01*
X140112667Y-147331905D01*
X140088857Y-147427143D01*
X140065048Y-147474762D01*
X140017429Y-147522381D01*
X139946000Y-147546190D01*
X139826953Y-147546190D01*
X138779334Y-141966190D02*
X138946001Y-142466190D01*
X139112667Y-141966190D01*
X139565048Y-142418571D02*
X139541238Y-142442381D01*
X139469810Y-142466190D01*
X139422191Y-142466190D01*
X139350762Y-142442381D01*
X139303143Y-142394762D01*
X139279334Y-142347143D01*
X139255524Y-142251905D01*
X139255524Y-142180476D01*
X139279334Y-142085238D01*
X139303143Y-142037619D01*
X139350762Y-141990000D01*
X139422191Y-141966190D01*
X139469810Y-141966190D01*
X139541238Y-141990000D01*
X139565048Y-142013810D01*
X140065048Y-142418571D02*
X140041238Y-142442381D01*
X139969810Y-142466190D01*
X139922191Y-142466190D01*
X139850762Y-142442381D01*
X139803143Y-142394762D01*
X139779334Y-142347143D01*
X139755524Y-142251905D01*
X139755524Y-142180476D01*
X139779334Y-142085238D01*
X139803143Y-142037619D01*
X139850762Y-141990000D01*
X139922191Y-141966190D01*
X139969810Y-141966190D01*
X140041238Y-141990000D01*
X140065048Y-142013810D01*
X109012027Y-144772030D02*
X109088218Y-144640064D01*
X109159304Y-144593128D01*
X109263382Y-144565240D01*
X109414395Y-144608440D01*
X109645336Y-144741773D01*
X109758254Y-144850955D01*
X109786142Y-144955033D01*
X109781038Y-145040064D01*
X109704847Y-145172030D01*
X109633761Y-145218965D01*
X109529682Y-145246852D01*
X109378669Y-145203653D01*
X109147729Y-145070320D01*
X109034810Y-144961138D01*
X109006923Y-144857060D01*
X109012027Y-144772030D01*
X109684798Y-144368660D02*
X109818132Y-144137719D01*
X110238181Y-144248269D02*
X110047704Y-144578184D01*
X109354884Y-144178184D01*
X109545361Y-143848269D01*
X107251245Y-144870002D02*
X107265190Y-144922042D01*
X107241038Y-145040064D01*
X107202943Y-145106046D01*
X107112809Y-145185973D01*
X107008730Y-145213861D01*
X106923700Y-145208757D01*
X106772687Y-145165558D01*
X106673712Y-145108415D01*
X106560794Y-144999233D01*
X106513858Y-144928147D01*
X106485971Y-144824068D01*
X106510123Y-144706046D01*
X106548218Y-144640064D01*
X106638352Y-144560137D01*
X106690391Y-144546193D01*
X107679133Y-144281260D02*
X107488657Y-144611175D01*
X106795837Y-144211175D01*
X102008657Y-145303995D02*
X101315837Y-144903995D01*
X101411075Y-144739038D01*
X101501209Y-144659111D01*
X101605287Y-144631223D01*
X101690318Y-144636327D01*
X101841331Y-144679526D01*
X101940306Y-144736669D01*
X102053224Y-144845851D01*
X102100159Y-144916937D01*
X102128047Y-145021016D01*
X102103895Y-145139038D01*
X102008657Y-145303995D01*
X102191660Y-144529880D02*
X102382136Y-144199966D01*
X102351514Y-144710150D02*
X101792027Y-144079209D01*
X102618181Y-144248269D01*
X102001551Y-143716304D02*
X102230122Y-143320407D01*
X102808657Y-143918355D02*
X102115837Y-143518355D01*
X102839279Y-143408171D02*
X103029755Y-143078257D01*
X102999133Y-143588441D02*
X102439646Y-142957500D01*
X103265800Y-143126560D01*
X99416618Y-145317939D02*
X99506752Y-145238012D01*
X99601990Y-145073055D01*
X99607094Y-144988025D01*
X99593150Y-144935985D01*
X99546215Y-144864899D01*
X99480232Y-144826803D01*
X99395202Y-144821699D01*
X99343163Y-144835644D01*
X99272075Y-144882579D01*
X99162894Y-144995497D01*
X99091807Y-145042433D01*
X99039768Y-145056376D01*
X98954737Y-145051272D01*
X98888755Y-145013177D01*
X98841819Y-144942090D01*
X98827875Y-144890052D01*
X98832980Y-144805021D01*
X98928218Y-144640064D01*
X99018352Y-144560137D01*
X100078181Y-144248269D02*
X99614932Y-144288733D01*
X99849609Y-144644166D02*
X99156789Y-144244166D01*
X99309170Y-143980235D01*
X99380257Y-143933299D01*
X99432296Y-143919355D01*
X99517326Y-143924459D01*
X99616300Y-143981602D01*
X99663236Y-144052689D01*
X99677180Y-144104727D01*
X99672075Y-144189758D01*
X99519694Y-144453690D01*
X100412198Y-143517353D02*
X100426142Y-143569392D01*
X100401990Y-143687414D01*
X100363895Y-143753397D01*
X100273761Y-143833324D01*
X100169682Y-143861212D01*
X100084652Y-143856108D01*
X99933639Y-143812909D01*
X99834664Y-143755766D01*
X99721746Y-143646584D01*
X99674810Y-143575497D01*
X99646923Y-143471419D01*
X99671075Y-143353397D01*
X99709170Y-143287414D01*
X99799304Y-143207487D01*
X99851343Y-143193544D01*
X100840086Y-142928611D02*
X100649609Y-143258526D01*
X99956789Y-142858526D01*
X100973419Y-142697671D02*
X100280599Y-142297671D01*
X101201990Y-142301774D02*
X100634664Y-142370125D01*
X100509170Y-141901774D02*
X100676496Y-142526243D01*
X153713738Y-147839881D02*
X153785167Y-147863690D01*
X153904214Y-147863690D01*
X153951833Y-147839881D01*
X153975643Y-147816071D01*
X153999452Y-147768452D01*
X153999452Y-147720833D01*
X153975643Y-147673214D01*
X153951833Y-147649405D01*
X153904214Y-147625595D01*
X153808976Y-147601786D01*
X153761357Y-147577976D01*
X153737548Y-147554167D01*
X153713738Y-147506548D01*
X153713738Y-147458929D01*
X153737548Y-147411310D01*
X153761357Y-147387500D01*
X153808976Y-147363690D01*
X153928024Y-147363690D01*
X153999452Y-147387500D01*
X154213738Y-147863690D02*
X154213738Y-147363690D01*
X154213738Y-147601786D02*
X154499452Y-147601786D01*
X154499452Y-147863690D02*
X154499452Y-147363690D01*
X155023262Y-147863690D02*
X154856595Y-147625595D01*
X154737548Y-147863690D02*
X154737548Y-147363690D01*
X154928024Y-147363690D01*
X154975643Y-147387500D01*
X154999452Y-147411310D01*
X155023262Y-147458929D01*
X155023262Y-147530357D01*
X154999452Y-147577976D01*
X154975643Y-147601786D01*
X154928024Y-147625595D01*
X154737548Y-147625595D01*
X151780881Y-147863690D02*
X151614214Y-147625595D01*
X151495167Y-147863690D02*
X151495167Y-147363690D01*
X151685643Y-147363690D01*
X151733262Y-147387500D01*
X151757071Y-147411310D01*
X151780881Y-147458929D01*
X151780881Y-147530357D01*
X151757071Y-147577976D01*
X151733262Y-147601786D01*
X151685643Y-147625595D01*
X151495167Y-147625595D01*
X152233262Y-147863690D02*
X151995167Y-147863690D01*
X151995167Y-147363690D01*
D10*
X106331190Y-125499762D02*
X106474047Y-125547381D01*
X106712143Y-125547381D01*
X106807381Y-125499762D01*
X106855000Y-125452143D01*
X106902619Y-125356905D01*
X106902619Y-125261667D01*
X106855000Y-125166429D01*
X106807381Y-125118810D01*
X106712143Y-125071190D01*
X106521666Y-125023571D01*
X106426428Y-124975952D01*
X106378809Y-124928333D01*
X106331190Y-124833095D01*
X106331190Y-124737857D01*
X106378809Y-124642619D01*
X106426428Y-124595000D01*
X106521666Y-124547381D01*
X106759762Y-124547381D01*
X106902619Y-124595000D01*
X107331190Y-125023571D02*
X107664524Y-125023571D01*
X107807381Y-125547381D02*
X107331190Y-125547381D01*
X107331190Y-124547381D01*
X107807381Y-124547381D01*
X108093095Y-124547381D02*
X108664524Y-124547381D01*
X108378809Y-125547381D02*
X108378809Y-124547381D01*
X109616905Y-124547381D02*
X109950238Y-125547381D01*
X110283572Y-124547381D01*
X111188334Y-125452143D02*
X111140715Y-125499762D01*
X110997858Y-125547381D01*
X110902620Y-125547381D01*
X110759762Y-125499762D01*
X110664524Y-125404524D01*
X110616905Y-125309286D01*
X110569286Y-125118810D01*
X110569286Y-124975952D01*
X110616905Y-124785476D01*
X110664524Y-124690238D01*
X110759762Y-124595000D01*
X110902620Y-124547381D01*
X110997858Y-124547381D01*
X111140715Y-124595000D01*
X111188334Y-124642619D01*
X111807381Y-124547381D02*
X111997858Y-124547381D01*
X112093096Y-124595000D01*
X112188334Y-124690238D01*
X112235953Y-124880714D01*
X112235953Y-125214048D01*
X112188334Y-125404524D01*
X112093096Y-125499762D01*
X111997858Y-125547381D01*
X111807381Y-125547381D01*
X111712143Y-125499762D01*
X111616905Y-125404524D01*
X111569286Y-125214048D01*
X111569286Y-124880714D01*
X111616905Y-124690238D01*
X111712143Y-124595000D01*
X111807381Y-124547381D01*
X112664524Y-125547381D02*
X112664524Y-124547381D01*
X112997858Y-125261667D01*
X113331191Y-124547381D01*
X113331191Y-125547381D01*
D11*
X131310476Y-138898381D02*
X131643809Y-139898381D01*
X131977143Y-138898381D01*
X132643810Y-139374571D02*
X132786667Y-139422190D01*
X132834286Y-139469810D01*
X132881905Y-139565048D01*
X132881905Y-139707905D01*
X132834286Y-139803143D01*
X132786667Y-139850762D01*
X132691429Y-139898381D01*
X132310476Y-139898381D01*
X132310476Y-138898381D01*
X132643810Y-138898381D01*
X132739048Y-138946000D01*
X132786667Y-138993619D01*
X132834286Y-139088857D01*
X132834286Y-139184095D01*
X132786667Y-139279333D01*
X132739048Y-139326952D01*
X132643810Y-139374571D01*
X132310476Y-139374571D01*
X133500952Y-138898381D02*
X133691429Y-138898381D01*
X133786667Y-138946000D01*
X133881905Y-139041238D01*
X133929524Y-139231714D01*
X133929524Y-139565048D01*
X133881905Y-139755524D01*
X133786667Y-139850762D01*
X133691429Y-139898381D01*
X133500952Y-139898381D01*
X133405714Y-139850762D01*
X133310476Y-139755524D01*
X133262857Y-139565048D01*
X133262857Y-139231714D01*
X133310476Y-139041238D01*
X133405714Y-138946000D01*
X133500952Y-138898381D01*
X134929524Y-139898381D02*
X134596190Y-139422190D01*
X134358095Y-139898381D02*
X134358095Y-138898381D01*
X134739048Y-138898381D01*
X134834286Y-138946000D01*
X134881905Y-138993619D01*
X134929524Y-139088857D01*
X134929524Y-139231714D01*
X134881905Y-139326952D01*
X134834286Y-139374571D01*
X134739048Y-139422190D01*
X134358095Y-139422190D01*
X135358095Y-139898381D02*
X135358095Y-138898381D01*
X135596190Y-138898381D01*
X135739048Y-138946000D01*
X135834286Y-139041238D01*
X135881905Y-139136476D01*
X135929524Y-139326952D01*
X135929524Y-139469810D01*
X135881905Y-139660286D01*
X135834286Y-139755524D01*
X135739048Y-139850762D01*
X135596190Y-139898381D01*
X135358095Y-139898381D01*
X136358095Y-139374571D02*
X136691429Y-139374571D01*
X136834286Y-139898381D02*
X136358095Y-139898381D01*
X136358095Y-138898381D01*
X136834286Y-138898381D01*
X137834286Y-139898381D02*
X137500952Y-139422190D01*
X137262857Y-139898381D02*
X137262857Y-138898381D01*
X137643810Y-138898381D01*
X137739048Y-138946000D01*
X137786667Y-138993619D01*
X137834286Y-139088857D01*
X137834286Y-139231714D01*
X137786667Y-139326952D01*
X137739048Y-139374571D01*
X137643810Y-139422190D01*
X137262857Y-139422190D01*
X90342617Y-144423354D02*
X90574760Y-144021271D01*
X90697195Y-144380634D01*
X90750766Y-144287847D01*
X90817410Y-144243844D01*
X90866197Y-144230773D01*
X90945913Y-144235556D01*
X91100561Y-144324842D01*
X91144562Y-144391487D01*
X91157634Y-144440273D01*
X91152850Y-144519990D01*
X91045707Y-144705566D01*
X90979063Y-144749568D01*
X90930276Y-144762640D01*
X90681903Y-143835694D02*
X91456422Y-143994187D01*
X90931903Y-143402681D01*
X91021188Y-143248034D02*
X91253331Y-142845951D01*
X91375767Y-143205314D01*
X91429338Y-143112526D01*
X91495982Y-143068524D01*
X91544769Y-143055452D01*
X91624485Y-143060236D01*
X91779133Y-143149522D01*
X91823133Y-143216166D01*
X91836206Y-143264952D01*
X91831421Y-143344669D01*
X91724279Y-143530246D01*
X91657634Y-143574247D01*
X91608848Y-143587320D01*
X91407292Y-145079284D02*
X92181811Y-145237777D01*
X91657292Y-144646271D01*
X92431810Y-144804765D02*
X91782291Y-144429765D01*
X92610382Y-144495471D02*
X91960863Y-144120471D01*
X92824668Y-144124316D01*
X92175149Y-143749316D01*
X93938352Y-144560137D02*
X93867265Y-144607073D01*
X93810123Y-144706046D01*
X93785971Y-144824068D01*
X93813858Y-144928147D01*
X93860794Y-144999233D01*
X93973712Y-145108415D01*
X94072687Y-145165558D01*
X94223700Y-145208757D01*
X94308730Y-145213861D01*
X94412809Y-145185973D01*
X94502943Y-145106046D01*
X94541038Y-145040064D01*
X94565190Y-144922042D01*
X94551245Y-144870002D01*
X94320306Y-144736669D01*
X94244115Y-144868635D01*
X94788657Y-144611175D02*
X94095837Y-144211175D01*
X95017228Y-144215278D01*
X94324408Y-143815278D01*
X95207704Y-143885364D02*
X94514884Y-143485364D01*
X94610122Y-143320407D01*
X94700256Y-143240479D01*
X94804334Y-143212591D01*
X94889365Y-143217695D01*
X95040378Y-143260895D01*
X95139353Y-143318038D01*
X95252271Y-143427219D01*
X95299206Y-143498306D01*
X95327094Y-143602384D01*
X95302942Y-143720407D01*
X95207704Y-143885364D01*
X96876618Y-145317939D02*
X96966752Y-145238012D01*
X97061990Y-145073055D01*
X97067094Y-144988025D01*
X97053150Y-144935985D01*
X97006215Y-144864899D01*
X96940232Y-144826803D01*
X96855202Y-144821699D01*
X96803163Y-144835644D01*
X96732075Y-144882579D01*
X96622894Y-144995497D01*
X96551807Y-145042433D01*
X96499768Y-145056376D01*
X96414737Y-145051272D01*
X96348755Y-145013177D01*
X96301819Y-144942090D01*
X96287875Y-144890052D01*
X96292980Y-144805021D01*
X96388218Y-144640064D01*
X96478352Y-144560137D01*
X97538181Y-144248269D02*
X97074932Y-144288733D01*
X97309609Y-144644166D02*
X96616789Y-144244166D01*
X96769170Y-143980235D01*
X96840257Y-143933299D01*
X96892296Y-143919355D01*
X96977326Y-143924459D01*
X97076300Y-143981602D01*
X97123236Y-144052689D01*
X97137180Y-144104727D01*
X97132075Y-144189758D01*
X96979694Y-144453690D01*
X97092980Y-143419380D02*
X97169170Y-143287414D01*
X97240257Y-143240479D01*
X97344334Y-143212591D01*
X97495348Y-143255790D01*
X97726288Y-143389124D01*
X97839206Y-143498306D01*
X97867095Y-143602384D01*
X97861990Y-143687414D01*
X97785800Y-143819380D01*
X97714714Y-143866315D01*
X97610635Y-143894203D01*
X97459622Y-143851004D01*
X97228681Y-143717670D01*
X97115763Y-143608489D01*
X97087876Y-143504410D01*
X97092980Y-143419380D01*
X97765751Y-143016010D02*
X97899084Y-142785070D01*
X98319133Y-142895620D02*
X98128657Y-143225534D01*
X97435837Y-142825534D01*
X97626313Y-142495620D01*
X96021169Y-145000000D02*
X97583074Y-142294701D01*
X104739133Y-144974080D02*
X104548657Y-145303995D01*
X103855837Y-144903995D01*
X104655470Y-144661846D02*
X104845946Y-144331932D01*
X104815323Y-144842116D02*
X104255837Y-144211175D01*
X105081990Y-144380235D01*
X104465360Y-143848270D02*
X104693932Y-143452372D01*
X105272466Y-144050321D02*
X104579646Y-143650321D01*
X105682674Y-143187439D02*
X105696618Y-143239478D01*
X105672466Y-143357500D01*
X105634371Y-143423483D01*
X105544237Y-143503410D01*
X105440158Y-143531298D01*
X105355128Y-143526194D01*
X105204115Y-143482995D01*
X105105140Y-143425852D01*
X104992222Y-143316670D01*
X104945286Y-143245583D01*
X104917399Y-143141505D01*
X104941551Y-143023483D01*
X104979646Y-142957500D01*
X105069780Y-142877573D01*
X105121819Y-142863629D01*
X105920085Y-142928612D02*
X105227265Y-142528612D01*
X105557179Y-142719088D02*
X105785751Y-142323190D01*
X106148657Y-142532714D02*
X105455837Y-142132714D01*
X141955837Y-139315995D02*
X142516691Y-139639805D01*
X142601721Y-139644909D01*
X142653761Y-139630965D01*
X142724847Y-139584030D01*
X142801038Y-139452064D01*
X142806142Y-139367033D01*
X142792198Y-139314994D01*
X142745263Y-139243907D01*
X142184408Y-138920098D01*
X143277228Y-138627278D02*
X143048657Y-139023175D01*
X143162942Y-138825227D02*
X142470122Y-138425227D01*
X142531001Y-138548352D01*
X142558889Y-138652431D01*
X142553785Y-138737461D01*
X143611245Y-137896362D02*
X143625190Y-137948401D01*
X143601038Y-138066423D01*
X143562943Y-138132406D01*
X143472809Y-138212333D01*
X143368730Y-138240221D01*
X143283700Y-138235117D01*
X143132687Y-138191918D01*
X143033712Y-138134775D01*
X142920794Y-138025593D01*
X142873858Y-137954506D01*
X142845971Y-137850428D01*
X142870123Y-137732406D01*
X142908218Y-137666423D01*
X142998352Y-137586496D01*
X143050391Y-137572552D01*
X143485751Y-137428010D02*
X143619084Y-137197070D01*
X144039133Y-137307620D02*
X143848657Y-137637534D01*
X143155837Y-137237534D01*
X143346313Y-136907620D01*
X144420086Y-136647790D02*
X144191514Y-137043688D01*
X144305800Y-136845740D02*
X143612980Y-136445740D01*
X143673858Y-136568865D01*
X143701746Y-136672943D01*
X143696642Y-136757973D01*
D10*
X80399000Y-131914000D02*
X81399000Y-131914000D01*
X81399000Y-130214000D02*
X80399000Y-130214000D01*
X94988000Y-132246000D02*
X93988000Y-132246000D01*
X93988000Y-133946000D02*
X94988000Y-133946000D01*
X93988000Y-130263000D02*
X94988000Y-130263000D01*
X94988000Y-128563000D02*
X93988000Y-128563000D01*
X94242000Y-116420000D02*
X95242000Y-116420000D01*
X95242000Y-114720000D02*
X94242000Y-114720000D01*
X111848000Y-141216000D02*
X111848000Y-140216000D01*
X110148000Y-140216000D02*
X110148000Y-141216000D01*
X95242000Y-110910000D02*
X94242000Y-110910000D01*
X94242000Y-112610000D02*
X95242000Y-112610000D01*
X107100000Y-115197000D02*
X107100000Y-116197000D01*
X108800000Y-116197000D02*
X108800000Y-115197000D01*
X112610000Y-133215000D02*
X112610000Y-132215000D01*
X110910000Y-132215000D02*
X110910000Y-133215000D01*
X137709000Y-129739000D02*
X142707000Y-129739000D01*
X137717000Y-129599000D02*
X142699000Y-129599000D01*
X137733000Y-129459000D02*
X140113000Y-129459000D01*
X140303000Y-129459000D02*
X142683000Y-129459000D01*
X137757000Y-129319000D02*
X139718000Y-129319000D01*
X140698000Y-129319000D02*
X142659000Y-129319000D01*
X137790000Y-129179000D02*
X139551000Y-129179000D01*
X140865000Y-129179000D02*
X142626000Y-129179000D01*
X137831000Y-129039000D02*
X139444000Y-129039000D01*
X140972000Y-129039000D02*
X142585000Y-129039000D01*
X137881000Y-128899000D02*
X139373000Y-128899000D01*
X141043000Y-128899000D02*
X142535000Y-128899000D01*
X137942000Y-128759000D02*
X139329000Y-128759000D01*
X141087000Y-128759000D02*
X142474000Y-128759000D01*
X138012000Y-128619000D02*
X139310000Y-128619000D01*
X141106000Y-128619000D02*
X142404000Y-128619000D01*
X138094000Y-128479000D02*
X139312000Y-128479000D01*
X141104000Y-128479000D02*
X142322000Y-128479000D01*
X138189000Y-128339000D02*
X139337000Y-128339000D01*
X141079000Y-128339000D02*
X142227000Y-128339000D01*
X138300000Y-128199000D02*
X139385000Y-128199000D01*
X141031000Y-128199000D02*
X142116000Y-128199000D01*
X138428000Y-128059000D02*
X139463000Y-128059000D01*
X140953000Y-128059000D02*
X141988000Y-128059000D01*
X138577000Y-127919000D02*
X139580000Y-127919000D01*
X140836000Y-127919000D02*
X141839000Y-127919000D01*
X138756000Y-127779000D02*
X139768000Y-127779000D01*
X140648000Y-127779000D02*
X141660000Y-127779000D01*
X138975000Y-127639000D02*
X141441000Y-127639000D01*
X139264000Y-127499000D02*
X141152000Y-127499000D01*
X139736000Y-127359000D02*
X140680000Y-127359000D01*
X141108000Y-128564000D02*
G75*
G03X141108000Y-128564000I-900000J0D01*
G01*
X142745500Y-129814000D02*
G75*
G03X142745500Y-129814000I-2537500J0D01*
G01*
X88646000Y-117175420D02*
X89646760Y-118023780D01*
X89646760Y-118023780D02*
X87645240Y-118023780D01*
X87645240Y-118023780D02*
X88646000Y-117175420D01*
X88646000Y-117175420D02*
X87645240Y-117175420D01*
X88646000Y-117175420D02*
X89646760Y-117175420D01*
X86846000Y-115168680D02*
X87045800Y-115168680D01*
X86895940Y-115625720D02*
X86995000Y-115625720D01*
X86846000Y-119771160D02*
X86995000Y-119771160D01*
X90446000Y-115173760D02*
X90297000Y-115173760D01*
X90446000Y-115625720D02*
X90297000Y-115625720D01*
X90446000Y-119776240D02*
X90297000Y-119776240D01*
X86697020Y-115625720D02*
X86895140Y-115625720D01*
X90644980Y-115625720D02*
X90446860Y-115625720D01*
X86649560Y-119771160D02*
X86847680Y-119771160D01*
X86649560Y-115168680D02*
X86649560Y-119771160D01*
X86649560Y-115168680D02*
X86847680Y-115168680D01*
X90644980Y-115173760D02*
X90446860Y-115173760D01*
X90644980Y-115173760D02*
X90644980Y-119776240D01*
X90644980Y-119776240D02*
X90446860Y-119776240D01*
X91140420Y-140589000D02*
X91988780Y-139588240D01*
X91988780Y-139588240D02*
X91988780Y-141589760D01*
X91988780Y-141589760D02*
X91140420Y-140589000D01*
X91140420Y-140589000D02*
X91140420Y-141589760D01*
X91140420Y-140589000D02*
X91140420Y-139588240D01*
X89133680Y-142389000D02*
X89133680Y-142189200D01*
X89590720Y-142339060D02*
X89590720Y-142240000D01*
X93736160Y-142389000D02*
X93736160Y-142240000D01*
X89138760Y-138789000D02*
X89138760Y-138938000D01*
X89590720Y-138789000D02*
X89590720Y-138938000D01*
X93741240Y-138789000D02*
X93741240Y-138938000D01*
X89590720Y-142537980D02*
X89590720Y-142339860D01*
X89590720Y-138590020D02*
X89590720Y-138788140D01*
X93736160Y-142585440D02*
X93736160Y-142387320D01*
X89133680Y-142585440D02*
X93736160Y-142585440D01*
X89133680Y-142585440D02*
X89133680Y-142387320D01*
X89138760Y-138590020D02*
X89138760Y-138788140D01*
X89138760Y-138590020D02*
X93741240Y-138590020D01*
X93741240Y-138590020D02*
X93741240Y-138788140D01*
X103078420Y-139700000D02*
X103926780Y-138699240D01*
X103926780Y-138699240D02*
X103926780Y-140700760D01*
X103926780Y-140700760D02*
X103078420Y-139700000D01*
X103078420Y-139700000D02*
X103078420Y-140700760D01*
X103078420Y-139700000D02*
X103078420Y-138699240D01*
X101071680Y-141500000D02*
X101071680Y-141300200D01*
X101528720Y-141450060D02*
X101528720Y-141351000D01*
X105674160Y-141500000D02*
X105674160Y-141351000D01*
X101076760Y-137900000D02*
X101076760Y-138049000D01*
X101528720Y-137900000D02*
X101528720Y-138049000D01*
X105679240Y-137900000D02*
X105679240Y-138049000D01*
X101528720Y-141648980D02*
X101528720Y-141450860D01*
X101528720Y-137701020D02*
X101528720Y-137899140D01*
X105674160Y-141696440D02*
X105674160Y-141498320D01*
X101071680Y-141696440D02*
X105674160Y-141696440D01*
X101071680Y-141696440D02*
X101071680Y-141498320D01*
X101076760Y-137701020D02*
X101076760Y-137899140D01*
X101076760Y-137701020D02*
X105679240Y-137701020D01*
X105679240Y-137701020D02*
X105679240Y-137899140D01*
X87376000Y-131572000D02*
X89154000Y-131572000D01*
X89154000Y-131572000D02*
X89789000Y-132207000D01*
X89789000Y-132207000D02*
X89789000Y-135763000D01*
X89789000Y-135763000D02*
X89154000Y-136398000D01*
X89154000Y-136398000D02*
X85598000Y-136398000D01*
X85598000Y-136398000D02*
X84963000Y-135763000D01*
X84963000Y-135763000D02*
X84963000Y-132207000D01*
X84963000Y-132207000D02*
X85598000Y-131572000D01*
X85598000Y-131572000D02*
X87376000Y-131572000D01*
X82296000Y-118110000D02*
X84074000Y-118110000D01*
X84074000Y-118110000D02*
X84709000Y-118745000D01*
X84709000Y-118745000D02*
X84709000Y-122301000D01*
X84709000Y-122301000D02*
X84074000Y-122936000D01*
X84074000Y-122936000D02*
X80518000Y-122936000D01*
X80518000Y-122936000D02*
X79883000Y-122301000D01*
X79883000Y-122301000D02*
X79883000Y-118745000D01*
X79883000Y-118745000D02*
X80518000Y-118110000D01*
X80518000Y-118110000D02*
X82296000Y-118110000D01*
X95530000Y-145770000D02*
X95530000Y-147320000D01*
X92430000Y-147320000D02*
X92430000Y-145770000D01*
X92430000Y-145770000D02*
X95530000Y-145770000D01*
X92710000Y-148590000D02*
X95250000Y-148590000D01*
X103150000Y-145770000D02*
X103150000Y-147320000D01*
X100050000Y-147320000D02*
X100050000Y-145770000D01*
X100050000Y-145770000D02*
X103150000Y-145770000D01*
X100330000Y-148590000D02*
X102870000Y-148590000D01*
X100610000Y-145770000D02*
X100610000Y-147320000D01*
X97510000Y-147320000D02*
X97510000Y-145770000D01*
X97510000Y-145770000D02*
X100610000Y-145770000D01*
X97790000Y-148590000D02*
X100330000Y-148590000D01*
X105690000Y-145770000D02*
X105690000Y-147320000D01*
X102590000Y-147320000D02*
X102590000Y-145770000D01*
X102590000Y-145770000D02*
X105690000Y-145770000D01*
X102870000Y-148590000D02*
X105410000Y-148590000D01*
D12*
X80009050Y-135859520D02*
G75*
G03X80009050Y-135859520I-159070J0D01*
G01*
X82296000Y-135001000D02*
X82296000Y-136017000D01*
X79692500Y-135001000D02*
X79692500Y-136017000D01*
X82296000Y-136017000D02*
X79692500Y-136017000D01*
X79692500Y-135001000D02*
X82296000Y-135001000D01*
D10*
X80426000Y-138571000D02*
X81626000Y-138571000D01*
X81626000Y-140321000D02*
X80426000Y-140321000D01*
X93888000Y-125871000D02*
X95088000Y-125871000D01*
X95088000Y-127621000D02*
X93888000Y-127621000D01*
X93888000Y-135904000D02*
X95088000Y-135904000D01*
X95088000Y-137654000D02*
X93888000Y-137654000D01*
X94142000Y-122315000D02*
X95342000Y-122315000D01*
X95342000Y-124065000D02*
X94142000Y-124065000D01*
X95342000Y-120255000D02*
X94142000Y-120255000D01*
X94142000Y-118505000D02*
X95342000Y-118505000D01*
X112635000Y-115097000D02*
X112635000Y-116297000D01*
X110885000Y-116297000D02*
X110885000Y-115097000D01*
X106969000Y-127141000D02*
X108169000Y-127141000D01*
X108169000Y-128891000D02*
X106969000Y-128891000D01*
X107075000Y-133315000D02*
X107075000Y-132115000D01*
X108825000Y-132115000D02*
X108825000Y-133315000D01*
X106208000Y-119289000D02*
X110708000Y-119289000D01*
X110708000Y-119289000D02*
X110708000Y-123789000D01*
X110708000Y-123789000D02*
X106208000Y-123789000D01*
X106208000Y-123789000D02*
X106208000Y-119289000D01*
X88543000Y-128802000D02*
X88543000Y-128502000D01*
X85193000Y-128802000D02*
X85193000Y-128502000D01*
X85193000Y-125452000D02*
X85193000Y-125752000D01*
X88543000Y-125452000D02*
X88543000Y-125752000D01*
X88543000Y-128802000D02*
X85193000Y-128802000D01*
X88543000Y-125452000D02*
X85193000Y-125452000D01*
X88543000Y-128502000D02*
X89768000Y-128502000D01*
X99417000Y-126008000D02*
X99667000Y-126008000D01*
X99417000Y-122658000D02*
X99667000Y-122658000D01*
X102767000Y-122658000D02*
X102517000Y-122658000D01*
X102767000Y-126008000D02*
X102517000Y-126008000D01*
X99417000Y-126008000D02*
X99417000Y-122658000D01*
X102767000Y-126008000D02*
X102767000Y-122658000D01*
X99667000Y-126008000D02*
X99667000Y-127258000D01*
X98070000Y-145770000D02*
X98070000Y-147320000D01*
X94970000Y-147320000D02*
X94970000Y-145770000D01*
X94970000Y-145770000D02*
X98070000Y-145770000D01*
X95250000Y-148590000D02*
X97790000Y-148590000D01*
X108230000Y-145770000D02*
X108230000Y-147320000D01*
X105130000Y-147320000D02*
X105130000Y-145770000D01*
X105130000Y-145770000D02*
X108230000Y-145770000D01*
X105410000Y-148590000D02*
X107950000Y-148590000D01*
X110770000Y-145770000D02*
X110770000Y-147320000D01*
X107670000Y-147320000D02*
X107670000Y-145770000D01*
X107670000Y-145770000D02*
X110770000Y-145770000D01*
X107950000Y-148590000D02*
X110490000Y-148590000D01*
X133070000Y-143790000D02*
X133070000Y-142240000D01*
X136170000Y-142240000D02*
X136170000Y-143790000D01*
X136170000Y-143790000D02*
X133070000Y-143790000D01*
X135890000Y-140970000D02*
X133350000Y-140970000D01*
X153670000Y-143510000D02*
X153670000Y-148590000D01*
X153670000Y-148590000D02*
X156210000Y-148590000D01*
X156210000Y-148590000D02*
X156210000Y-143510000D01*
X156490000Y-140690000D02*
X156490000Y-142240000D01*
X156210000Y-143510000D02*
X153670000Y-143510000D01*
X153390000Y-142240000D02*
X153390000Y-140690000D01*
X153390000Y-140690000D02*
X156490000Y-140690000D01*
X153670000Y-115570000D02*
X153670000Y-110490000D01*
X153670000Y-110490000D02*
X151130000Y-110490000D01*
X151130000Y-110490000D02*
X151130000Y-115570000D01*
X150850000Y-118390000D02*
X150850000Y-116840000D01*
X151130000Y-115570000D02*
X153670000Y-115570000D01*
X153950000Y-116840000D02*
X153950000Y-118390000D01*
X153950000Y-118390000D02*
X150850000Y-118390000D01*
X151130000Y-115570000D02*
X151130000Y-110490000D01*
X151130000Y-110490000D02*
X148590000Y-110490000D01*
X148590000Y-110490000D02*
X148590000Y-115570000D01*
X148310000Y-118390000D02*
X148310000Y-116840000D01*
X148590000Y-115570000D02*
X151130000Y-115570000D01*
X151410000Y-116840000D02*
X151410000Y-118390000D01*
X151410000Y-118390000D02*
X148310000Y-118390000D01*
X148590000Y-115570000D02*
X148590000Y-110490000D01*
X148590000Y-110490000D02*
X146050000Y-110490000D01*
X146050000Y-110490000D02*
X146050000Y-115570000D01*
X145770000Y-118390000D02*
X145770000Y-116840000D01*
X146050000Y-115570000D02*
X148590000Y-115570000D01*
X148870000Y-116840000D02*
X148870000Y-118390000D01*
X148870000Y-118390000D02*
X145770000Y-118390000D01*
X146050000Y-115570000D02*
X146050000Y-110490000D01*
X146050000Y-110490000D02*
X143510000Y-110490000D01*
X143510000Y-110490000D02*
X143510000Y-115570000D01*
X143230000Y-118390000D02*
X143230000Y-116840000D01*
X143510000Y-115570000D02*
X146050000Y-115570000D01*
X146330000Y-116840000D02*
X146330000Y-118390000D01*
X146330000Y-118390000D02*
X143230000Y-118390000D01*
X143510000Y-115570000D02*
X143510000Y-110490000D01*
X143510000Y-110490000D02*
X140970000Y-110490000D01*
X140970000Y-110490000D02*
X140970000Y-115570000D01*
X140690000Y-118390000D02*
X140690000Y-116840000D01*
X140970000Y-115570000D02*
X143510000Y-115570000D01*
X143790000Y-116840000D02*
X143790000Y-118390000D01*
X143790000Y-118390000D02*
X140690000Y-118390000D01*
X140970000Y-115570000D02*
X140970000Y-110490000D01*
X140970000Y-110490000D02*
X138430000Y-110490000D01*
X138430000Y-110490000D02*
X138430000Y-115570000D01*
X138150000Y-118390000D02*
X138150000Y-116840000D01*
X138430000Y-115570000D02*
X140970000Y-115570000D01*
X141250000Y-116840000D02*
X141250000Y-118390000D01*
X141250000Y-118390000D02*
X138150000Y-118390000D01*
X151130000Y-143510000D02*
X151130000Y-148590000D01*
X151130000Y-148590000D02*
X153670000Y-148590000D01*
X153670000Y-148590000D02*
X153670000Y-143510000D01*
X153950000Y-140690000D02*
X153950000Y-142240000D01*
X153670000Y-143510000D02*
X151130000Y-143510000D01*
X150850000Y-142240000D02*
X150850000Y-140690000D01*
X150850000Y-140690000D02*
X153950000Y-140690000D01*
X143510000Y-143510000D02*
X143510000Y-148590000D01*
X143510000Y-148590000D02*
X146050000Y-148590000D01*
X146050000Y-148590000D02*
X146050000Y-143510000D01*
X146330000Y-140690000D02*
X146330000Y-142240000D01*
X146050000Y-143510000D02*
X143510000Y-143510000D01*
X143230000Y-142240000D02*
X143230000Y-140690000D01*
X143230000Y-140690000D02*
X146330000Y-140690000D01*
X140970000Y-143510000D02*
X140970000Y-148590000D01*
X140970000Y-148590000D02*
X143510000Y-148590000D01*
X143510000Y-148590000D02*
X143510000Y-143510000D01*
X143790000Y-140690000D02*
X143790000Y-142240000D01*
X143510000Y-143510000D02*
X140970000Y-143510000D01*
X140690000Y-142240000D02*
X140690000Y-140690000D01*
X140690000Y-140690000D02*
X143790000Y-140690000D01*
X148590000Y-143510000D02*
X148590000Y-148590000D01*
X148590000Y-148590000D02*
X151130000Y-148590000D01*
X151130000Y-148590000D02*
X151130000Y-143510000D01*
X151410000Y-140690000D02*
X151410000Y-142240000D01*
X151130000Y-143510000D02*
X148590000Y-143510000D01*
X148310000Y-142240000D02*
X148310000Y-140690000D01*
X148310000Y-140690000D02*
X151410000Y-140690000D01*
X146050000Y-143510000D02*
X146050000Y-148590000D01*
X146050000Y-148590000D02*
X148590000Y-148590000D01*
X148590000Y-148590000D02*
X148590000Y-143510000D01*
X148870000Y-140690000D02*
X148870000Y-142240000D01*
X148590000Y-143510000D02*
X146050000Y-143510000D01*
X145770000Y-142240000D02*
X145770000Y-140690000D01*
X145770000Y-140690000D02*
X148870000Y-140690000D01*
X123309000Y-133359000D02*
X123309000Y-132089000D01*
X115959000Y-133359000D02*
X115959000Y-132089000D01*
X115959000Y-110989000D02*
X115959000Y-112259000D01*
X123309000Y-110989000D02*
X123309000Y-112259000D01*
X123309000Y-133359000D02*
X115959000Y-133359000D01*
X123309000Y-110989000D02*
X115959000Y-110989000D01*
X123309000Y-132089000D02*
X124594000Y-132089000D01*
X134485000Y-133359000D02*
X134485000Y-132089000D01*
X127135000Y-133359000D02*
X127135000Y-132089000D01*
X127135000Y-110989000D02*
X127135000Y-112259000D01*
X134485000Y-110989000D02*
X134485000Y-112259000D01*
X134485000Y-133359000D02*
X127135000Y-133359000D01*
X134485000Y-110989000D02*
X127135000Y-110989000D01*
X134485000Y-132089000D02*
X135770000Y-132089000D01*
D13*
X103886000Y-118872000D02*
X104013000Y-118872000D01*
X104013000Y-118872000D02*
X104013000Y-113538000D01*
X100203000Y-113538000D02*
X100203000Y-118872000D01*
X100203000Y-118872000D02*
X103886000Y-118872000D01*
X101600000Y-118872000D02*
X101600000Y-118364000D01*
X101600000Y-118364000D02*
X102616000Y-118364000D01*
X102616000Y-118364000D02*
X102616000Y-118872000D01*
X100203000Y-113538000D02*
X104013000Y-113538000D01*
X103378000Y-135255000D02*
X103505000Y-135255000D01*
X103505000Y-135255000D02*
X103505000Y-129921000D01*
X99695000Y-129921000D02*
X99695000Y-135255000D01*
X99695000Y-135255000D02*
X103378000Y-135255000D01*
X101092000Y-135255000D02*
X101092000Y-134747000D01*
X101092000Y-134747000D02*
X102108000Y-134747000D01*
X102108000Y-134747000D02*
X102108000Y-135255000D01*
X99695000Y-129921000D02*
X103505000Y-129921000D01*
D10*
X156210000Y-115570000D02*
X156210000Y-110490000D01*
X156210000Y-110490000D02*
X153670000Y-110490000D01*
X153670000Y-110490000D02*
X153670000Y-115570000D01*
X153390000Y-118390000D02*
X153390000Y-116840000D01*
X153670000Y-115570000D02*
X156210000Y-115570000D01*
X156490000Y-116840000D02*
X156490000Y-118390000D01*
X156490000Y-118390000D02*
X153390000Y-118390000D01*
X92990000Y-145770000D02*
X92990000Y-147320000D01*
X89890000Y-147320000D02*
X89890000Y-145770000D01*
X89890000Y-145770000D02*
X92990000Y-145770000D01*
X90170000Y-148590000D02*
X92710000Y-148590000D01*
X158680000Y-135455000D02*
X158680000Y-123755000D01*
X154180000Y-136655000D02*
X155180000Y-136655000D01*
X154180000Y-136655000D02*
X154180000Y-122455000D01*
X154180000Y-122455000D02*
X155180000Y-122455000D01*
X159650000Y-128000000D02*
X160285000Y-128508000D01*
X162190000Y-128000000D02*
X159650000Y-128000000D01*
X159650000Y-128000000D02*
X160285000Y-127492000D01*
X159650000Y-131126000D02*
X160285000Y-131634000D01*
X162190000Y-131126000D02*
X159650000Y-131126000D01*
X159650000Y-131126000D02*
X160285000Y-130618000D01*
X159650000Y-129604000D02*
X160285000Y-129096000D01*
X162190000Y-129604000D02*
X159650000Y-129604000D01*
X159650000Y-129604000D02*
X160285000Y-130112000D01*
X157830000Y-136155000D02*
X157830000Y-122955000D01*
X155130000Y-136155000D02*
X157830000Y-136155000D01*
X155130000Y-122955000D02*
X155130000Y-136155000D01*
X157830000Y-122955000D02*
X155130000Y-122955000D01*
X79081334Y-129643143D02*
X79033715Y-129690762D01*
X78890858Y-129738381D01*
X78795620Y-129738381D01*
X78652762Y-129690762D01*
X78557524Y-129595524D01*
X78509905Y-129500286D01*
X78462286Y-129309810D01*
X78462286Y-129166952D01*
X78509905Y-128976476D01*
X78557524Y-128881238D01*
X78652762Y-128786000D01*
X78795620Y-128738381D01*
X78890858Y-128738381D01*
X79033715Y-128786000D01*
X79081334Y-128833619D01*
X80033715Y-129738381D02*
X79462286Y-129738381D01*
X79748000Y-129738381D02*
X79748000Y-128738381D01*
X79652762Y-128881238D01*
X79557524Y-128976476D01*
X79462286Y-129024095D01*
X80383239Y-132627714D02*
X80383239Y-133294381D01*
X80145143Y-132246762D02*
X79907048Y-132961048D01*
X80526096Y-132961048D01*
X80907048Y-133199143D02*
X80954667Y-133246762D01*
X80907048Y-133294381D01*
X80859429Y-133246762D01*
X80907048Y-133199143D01*
X80907048Y-133294381D01*
X81288000Y-132294381D02*
X81954667Y-132294381D01*
X81526095Y-133294381D01*
X82764191Y-132627714D02*
X82764191Y-133294381D01*
X82335619Y-132627714D02*
X82335619Y-133151524D01*
X82383238Y-133246762D01*
X82478476Y-133294381D01*
X82621334Y-133294381D01*
X82716572Y-133246762D01*
X82764191Y-133199143D01*
X83573715Y-132770571D02*
X83240381Y-132770571D01*
X83240381Y-133294381D02*
X83240381Y-132294381D01*
X83716572Y-132294381D01*
X91670143Y-133262666D02*
X91717762Y-133310285D01*
X91765381Y-133453142D01*
X91765381Y-133548380D01*
X91717762Y-133691238D01*
X91622524Y-133786476D01*
X91527286Y-133834095D01*
X91336810Y-133881714D01*
X91193952Y-133881714D01*
X91003476Y-133834095D01*
X90908238Y-133786476D01*
X90813000Y-133691238D01*
X90765381Y-133548380D01*
X90765381Y-133453142D01*
X90813000Y-133310285D01*
X90860619Y-133262666D01*
X90860619Y-132881714D02*
X90813000Y-132834095D01*
X90765381Y-132738857D01*
X90765381Y-132500761D01*
X90813000Y-132405523D01*
X90860619Y-132357904D01*
X90955857Y-132310285D01*
X91051095Y-132310285D01*
X91193952Y-132357904D01*
X91765381Y-132929333D01*
X91765381Y-132310285D01*
X93575381Y-135326381D02*
X93003952Y-135326381D01*
X93289666Y-135326381D02*
X93289666Y-134326381D01*
X93194428Y-134469238D01*
X93099190Y-134564476D01*
X93003952Y-134612095D01*
X94194428Y-134326381D02*
X94289667Y-134326381D01*
X94384905Y-134374000D01*
X94432524Y-134421619D01*
X94480143Y-134516857D01*
X94527762Y-134707333D01*
X94527762Y-134945429D01*
X94480143Y-135135905D01*
X94432524Y-135231143D01*
X94384905Y-135278762D01*
X94289667Y-135326381D01*
X94194428Y-135326381D01*
X94099190Y-135278762D01*
X94051571Y-135231143D01*
X94003952Y-135135905D01*
X93956333Y-134945429D01*
X93956333Y-134707333D01*
X94003952Y-134516857D01*
X94051571Y-134421619D01*
X94099190Y-134374000D01*
X94194428Y-134326381D01*
X95146809Y-134326381D02*
X95242048Y-134326381D01*
X95337286Y-134374000D01*
X95384905Y-134421619D01*
X95432524Y-134516857D01*
X95480143Y-134707333D01*
X95480143Y-134945429D01*
X95432524Y-135135905D01*
X95384905Y-135231143D01*
X95337286Y-135278762D01*
X95242048Y-135326381D01*
X95146809Y-135326381D01*
X95051571Y-135278762D01*
X95003952Y-135231143D01*
X94956333Y-135135905D01*
X94908714Y-134945429D01*
X94908714Y-134707333D01*
X94956333Y-134516857D01*
X95003952Y-134421619D01*
X95051571Y-134374000D01*
X95146809Y-134326381D01*
X95908714Y-134659714D02*
X95908714Y-135326381D01*
X95908714Y-134754952D02*
X95956333Y-134707333D01*
X96051571Y-134659714D01*
X96194429Y-134659714D01*
X96289667Y-134707333D01*
X96337286Y-134802571D01*
X96337286Y-135326381D01*
X97146810Y-134802571D02*
X96813476Y-134802571D01*
X96813476Y-135326381D02*
X96813476Y-134326381D01*
X97289667Y-134326381D01*
X91670143Y-129579666D02*
X91717762Y-129627285D01*
X91765381Y-129770142D01*
X91765381Y-129865380D01*
X91717762Y-130008238D01*
X91622524Y-130103476D01*
X91527286Y-130151095D01*
X91336810Y-130198714D01*
X91193952Y-130198714D01*
X91003476Y-130151095D01*
X90908238Y-130103476D01*
X90813000Y-130008238D01*
X90765381Y-129865380D01*
X90765381Y-129770142D01*
X90813000Y-129627285D01*
X90860619Y-129579666D01*
X90765381Y-129246333D02*
X90765381Y-128627285D01*
X91146333Y-128960619D01*
X91146333Y-128817761D01*
X91193952Y-128722523D01*
X91241571Y-128674904D01*
X91336810Y-128627285D01*
X91574905Y-128627285D01*
X91670143Y-128674904D01*
X91717762Y-128722523D01*
X91765381Y-128817761D01*
X91765381Y-129103476D01*
X91717762Y-129198714D01*
X91670143Y-129246333D01*
X93575381Y-131643381D02*
X93003952Y-131643381D01*
X93289666Y-131643381D02*
X93289666Y-130643381D01*
X93194428Y-130786238D01*
X93099190Y-130881476D01*
X93003952Y-130929095D01*
X94194428Y-130643381D02*
X94289667Y-130643381D01*
X94384905Y-130691000D01*
X94432524Y-130738619D01*
X94480143Y-130833857D01*
X94527762Y-131024333D01*
X94527762Y-131262429D01*
X94480143Y-131452905D01*
X94432524Y-131548143D01*
X94384905Y-131595762D01*
X94289667Y-131643381D01*
X94194428Y-131643381D01*
X94099190Y-131595762D01*
X94051571Y-131548143D01*
X94003952Y-131452905D01*
X93956333Y-131262429D01*
X93956333Y-131024333D01*
X94003952Y-130833857D01*
X94051571Y-130738619D01*
X94099190Y-130691000D01*
X94194428Y-130643381D01*
X95146809Y-130643381D02*
X95242048Y-130643381D01*
X95337286Y-130691000D01*
X95384905Y-130738619D01*
X95432524Y-130833857D01*
X95480143Y-131024333D01*
X95480143Y-131262429D01*
X95432524Y-131452905D01*
X95384905Y-131548143D01*
X95337286Y-131595762D01*
X95242048Y-131643381D01*
X95146809Y-131643381D01*
X95051571Y-131595762D01*
X95003952Y-131548143D01*
X94956333Y-131452905D01*
X94908714Y-131262429D01*
X94908714Y-131024333D01*
X94956333Y-130833857D01*
X95003952Y-130738619D01*
X95051571Y-130691000D01*
X95146809Y-130643381D01*
X95908714Y-130976714D02*
X95908714Y-131976714D01*
X95908714Y-131024333D02*
X96003952Y-130976714D01*
X96194429Y-130976714D01*
X96289667Y-131024333D01*
X96337286Y-131071952D01*
X96384905Y-131167190D01*
X96384905Y-131452905D01*
X96337286Y-131548143D01*
X96289667Y-131595762D01*
X96194429Y-131643381D01*
X96003952Y-131643381D01*
X95908714Y-131595762D01*
X97146810Y-131119571D02*
X96813476Y-131119571D01*
X96813476Y-131643381D02*
X96813476Y-130643381D01*
X97289667Y-130643381D01*
X92051143Y-115863666D02*
X92098762Y-115911285D01*
X92146381Y-116054142D01*
X92146381Y-116149380D01*
X92098762Y-116292238D01*
X92003524Y-116387476D01*
X91908286Y-116435095D01*
X91717810Y-116482714D01*
X91574952Y-116482714D01*
X91384476Y-116435095D01*
X91289238Y-116387476D01*
X91194000Y-116292238D01*
X91146381Y-116149380D01*
X91146381Y-116054142D01*
X91194000Y-115911285D01*
X91241619Y-115863666D01*
X91479714Y-115006523D02*
X92146381Y-115006523D01*
X91098762Y-115244619D02*
X91813048Y-115482714D01*
X91813048Y-114863666D01*
X93591239Y-117133714D02*
X93591239Y-117800381D01*
X93353143Y-116752762D02*
X93115048Y-117467048D01*
X93734096Y-117467048D01*
X94115048Y-117705143D02*
X94162667Y-117752762D01*
X94115048Y-117800381D01*
X94067429Y-117752762D01*
X94115048Y-117705143D01*
X94115048Y-117800381D01*
X94496000Y-116800381D02*
X95162667Y-116800381D01*
X94734095Y-117800381D01*
X95543619Y-117133714D02*
X95543619Y-118133714D01*
X95543619Y-117181333D02*
X95638857Y-117133714D01*
X95829334Y-117133714D01*
X95924572Y-117181333D01*
X95972191Y-117228952D01*
X96019810Y-117324190D01*
X96019810Y-117609905D01*
X95972191Y-117705143D01*
X95924572Y-117752762D01*
X95829334Y-117800381D01*
X95638857Y-117800381D01*
X95543619Y-117752762D01*
X96781715Y-117276571D02*
X96448381Y-117276571D01*
X96448381Y-117800381D02*
X96448381Y-116800381D01*
X96924572Y-116800381D01*
X113117334Y-139930143D02*
X113069715Y-139977762D01*
X112926858Y-140025381D01*
X112831620Y-140025381D01*
X112688762Y-139977762D01*
X112593524Y-139882524D01*
X112545905Y-139787286D01*
X112498286Y-139596810D01*
X112498286Y-139453952D01*
X112545905Y-139263476D01*
X112593524Y-139168238D01*
X112688762Y-139073000D01*
X112831620Y-139025381D01*
X112926858Y-139025381D01*
X113069715Y-139073000D01*
X113117334Y-139120619D01*
X114022096Y-139025381D02*
X113545905Y-139025381D01*
X113498286Y-139501571D01*
X113545905Y-139453952D01*
X113641143Y-139406333D01*
X113879239Y-139406333D01*
X113974477Y-139453952D01*
X114022096Y-139501571D01*
X114069715Y-139596810D01*
X114069715Y-139834905D01*
X114022096Y-139930143D01*
X113974477Y-139977762D01*
X113879239Y-140025381D01*
X113641143Y-140025381D01*
X113545905Y-139977762D01*
X113498286Y-139930143D01*
X113196762Y-141549381D02*
X112625333Y-141549381D01*
X112911047Y-141549381D02*
X112911047Y-140549381D01*
X112815809Y-140692238D01*
X112720571Y-140787476D01*
X112625333Y-140835095D01*
X114053905Y-140882714D02*
X114053905Y-141549381D01*
X113625333Y-140882714D02*
X113625333Y-141406524D01*
X113672952Y-141501762D01*
X113768190Y-141549381D01*
X113911048Y-141549381D01*
X114006286Y-141501762D01*
X114053905Y-141454143D01*
X114863429Y-141025571D02*
X114530095Y-141025571D01*
X114530095Y-141549381D02*
X114530095Y-140549381D01*
X115006286Y-140549381D01*
X92051143Y-111926666D02*
X92098762Y-111974285D01*
X92146381Y-112117142D01*
X92146381Y-112212380D01*
X92098762Y-112355238D01*
X92003524Y-112450476D01*
X91908286Y-112498095D01*
X91717810Y-112545714D01*
X91574952Y-112545714D01*
X91384476Y-112498095D01*
X91289238Y-112450476D01*
X91194000Y-112355238D01*
X91146381Y-112212380D01*
X91146381Y-112117142D01*
X91194000Y-111974285D01*
X91241619Y-111926666D01*
X91146381Y-111069523D02*
X91146381Y-111260000D01*
X91194000Y-111355238D01*
X91241619Y-111402857D01*
X91384476Y-111498095D01*
X91574952Y-111545714D01*
X91955905Y-111545714D01*
X92051143Y-111498095D01*
X92098762Y-111450476D01*
X92146381Y-111355238D01*
X92146381Y-111164761D01*
X92098762Y-111069523D01*
X92051143Y-111021904D01*
X91955905Y-110974285D01*
X91717810Y-110974285D01*
X91622571Y-111021904D01*
X91574952Y-111069523D01*
X91527333Y-111164761D01*
X91527333Y-111355238D01*
X91574952Y-111450476D01*
X91622571Y-111498095D01*
X91717810Y-111545714D01*
X94146762Y-113990381D02*
X93575333Y-113990381D01*
X93861047Y-113990381D02*
X93861047Y-112990381D01*
X93765809Y-113133238D01*
X93670571Y-113228476D01*
X93575333Y-113276095D01*
X95003905Y-113323714D02*
X95003905Y-113990381D01*
X94575333Y-113323714D02*
X94575333Y-113847524D01*
X94622952Y-113942762D01*
X94718190Y-113990381D01*
X94861048Y-113990381D01*
X94956286Y-113942762D01*
X95003905Y-113895143D01*
X95813429Y-113466571D02*
X95480095Y-113466571D01*
X95480095Y-113990381D02*
X95480095Y-112990381D01*
X95956286Y-112990381D01*
X108180143Y-112307666D02*
X108227762Y-112355285D01*
X108275381Y-112498142D01*
X108275381Y-112593380D01*
X108227762Y-112736238D01*
X108132524Y-112831476D01*
X108037286Y-112879095D01*
X107846810Y-112926714D01*
X107703952Y-112926714D01*
X107513476Y-112879095D01*
X107418238Y-112831476D01*
X107323000Y-112736238D01*
X107275381Y-112593380D01*
X107275381Y-112498142D01*
X107323000Y-112355285D01*
X107370619Y-112307666D01*
X107275381Y-111974333D02*
X107275381Y-111307666D01*
X108275381Y-111736238D01*
X110307381Y-117244619D02*
X110307381Y-117816048D01*
X110307381Y-117530334D02*
X109307381Y-117530334D01*
X109450238Y-117625572D01*
X109545476Y-117720810D01*
X109593095Y-117816048D01*
X109307381Y-116625572D02*
X109307381Y-116530333D01*
X109355000Y-116435095D01*
X109402619Y-116387476D01*
X109497857Y-116339857D01*
X109688333Y-116292238D01*
X109926429Y-116292238D01*
X110116905Y-116339857D01*
X110212143Y-116387476D01*
X110259762Y-116435095D01*
X110307381Y-116530333D01*
X110307381Y-116625572D01*
X110259762Y-116720810D01*
X110212143Y-116768429D01*
X110116905Y-116816048D01*
X109926429Y-116863667D01*
X109688333Y-116863667D01*
X109497857Y-116816048D01*
X109402619Y-116768429D01*
X109355000Y-116720810D01*
X109307381Y-116625572D01*
X109307381Y-115673191D02*
X109307381Y-115577952D01*
X109355000Y-115482714D01*
X109402619Y-115435095D01*
X109497857Y-115387476D01*
X109688333Y-115339857D01*
X109926429Y-115339857D01*
X110116905Y-115387476D01*
X110212143Y-115435095D01*
X110259762Y-115482714D01*
X110307381Y-115577952D01*
X110307381Y-115673191D01*
X110259762Y-115768429D01*
X110212143Y-115816048D01*
X110116905Y-115863667D01*
X109926429Y-115911286D01*
X109688333Y-115911286D01*
X109497857Y-115863667D01*
X109402619Y-115816048D01*
X109355000Y-115768429D01*
X109307381Y-115673191D01*
X109640714Y-114911286D02*
X110307381Y-114911286D01*
X109735952Y-114911286D02*
X109688333Y-114863667D01*
X109640714Y-114768429D01*
X109640714Y-114625571D01*
X109688333Y-114530333D01*
X109783571Y-114482714D01*
X110307381Y-114482714D01*
X109783571Y-113673190D02*
X109783571Y-114006524D01*
X110307381Y-114006524D02*
X109307381Y-114006524D01*
X109307381Y-113530333D01*
X113768143Y-136564666D02*
X113815762Y-136612285D01*
X113863381Y-136755142D01*
X113863381Y-136850380D01*
X113815762Y-136993238D01*
X113720524Y-137088476D01*
X113625286Y-137136095D01*
X113434810Y-137183714D01*
X113291952Y-137183714D01*
X113101476Y-137136095D01*
X113006238Y-137088476D01*
X112911000Y-136993238D01*
X112863381Y-136850380D01*
X112863381Y-136755142D01*
X112911000Y-136612285D01*
X112958619Y-136564666D01*
X113291952Y-135993238D02*
X113244333Y-136088476D01*
X113196714Y-136136095D01*
X113101476Y-136183714D01*
X113053857Y-136183714D01*
X112958619Y-136136095D01*
X112911000Y-136088476D01*
X112863381Y-135993238D01*
X112863381Y-135802761D01*
X112911000Y-135707523D01*
X112958619Y-135659904D01*
X113053857Y-135612285D01*
X113101476Y-135612285D01*
X113196714Y-135659904D01*
X113244333Y-135707523D01*
X113291952Y-135802761D01*
X113291952Y-135993238D01*
X113339571Y-136088476D01*
X113387190Y-136136095D01*
X113482429Y-136183714D01*
X113672905Y-136183714D01*
X113768143Y-136136095D01*
X113815762Y-136088476D01*
X113863381Y-135993238D01*
X113863381Y-135802761D01*
X113815762Y-135707523D01*
X113768143Y-135659904D01*
X113672905Y-135612285D01*
X113482429Y-135612285D01*
X113387190Y-135659904D01*
X113339571Y-135707523D01*
X113291952Y-135802761D01*
X113990381Y-133881619D02*
X113990381Y-134453048D01*
X113990381Y-134167334D02*
X112990381Y-134167334D01*
X113133238Y-134262572D01*
X113228476Y-134357810D01*
X113276095Y-134453048D01*
X112990381Y-133262572D02*
X112990381Y-133167333D01*
X113038000Y-133072095D01*
X113085619Y-133024476D01*
X113180857Y-132976857D01*
X113371333Y-132929238D01*
X113609429Y-132929238D01*
X113799905Y-132976857D01*
X113895143Y-133024476D01*
X113942762Y-133072095D01*
X113990381Y-133167333D01*
X113990381Y-133262572D01*
X113942762Y-133357810D01*
X113895143Y-133405429D01*
X113799905Y-133453048D01*
X113609429Y-133500667D01*
X113371333Y-133500667D01*
X113180857Y-133453048D01*
X113085619Y-133405429D01*
X113038000Y-133357810D01*
X112990381Y-133262572D01*
X112990381Y-132310191D02*
X112990381Y-132214952D01*
X113038000Y-132119714D01*
X113085619Y-132072095D01*
X113180857Y-132024476D01*
X113371333Y-131976857D01*
X113609429Y-131976857D01*
X113799905Y-132024476D01*
X113895143Y-132072095D01*
X113942762Y-132119714D01*
X113990381Y-132214952D01*
X113990381Y-132310191D01*
X113942762Y-132405429D01*
X113895143Y-132453048D01*
X113799905Y-132500667D01*
X113609429Y-132548286D01*
X113371333Y-132548286D01*
X113180857Y-132500667D01*
X113085619Y-132453048D01*
X113038000Y-132405429D01*
X112990381Y-132310191D01*
X113323714Y-131548286D02*
X113990381Y-131548286D01*
X113418952Y-131548286D02*
X113371333Y-131500667D01*
X113323714Y-131405429D01*
X113323714Y-131262571D01*
X113371333Y-131167333D01*
X113466571Y-131119714D01*
X113990381Y-131119714D01*
X113466571Y-130310190D02*
X113466571Y-130643524D01*
X113990381Y-130643524D02*
X112990381Y-130643524D01*
X112990381Y-130167333D01*
X144232334Y-130151143D02*
X144184715Y-130198762D01*
X144041858Y-130246381D01*
X143946620Y-130246381D01*
X143803762Y-130198762D01*
X143708524Y-130103524D01*
X143660905Y-130008286D01*
X143613286Y-129817810D01*
X143613286Y-129674952D01*
X143660905Y-129484476D01*
X143708524Y-129389238D01*
X143803762Y-129294000D01*
X143946620Y-129246381D01*
X144041858Y-129246381D01*
X144184715Y-129294000D01*
X144232334Y-129341619D01*
X144708524Y-130246381D02*
X144899000Y-130246381D01*
X144994239Y-130198762D01*
X145041858Y-130151143D01*
X145137096Y-130008286D01*
X145184715Y-129817810D01*
X145184715Y-129436857D01*
X145137096Y-129341619D01*
X145089477Y-129294000D01*
X144994239Y-129246381D01*
X144803762Y-129246381D01*
X144708524Y-129294000D01*
X144660905Y-129341619D01*
X144613286Y-129436857D01*
X144613286Y-129674952D01*
X144660905Y-129770190D01*
X144708524Y-129817810D01*
X144803762Y-129865429D01*
X144994239Y-129865429D01*
X145089477Y-129817810D01*
X145137096Y-129770190D01*
X145184715Y-129674952D01*
X143994381Y-132024381D02*
X143422952Y-132024381D01*
X143708666Y-132024381D02*
X143708666Y-131024381D01*
X143613428Y-131167238D01*
X143518190Y-131262476D01*
X143422952Y-131310095D01*
X144613428Y-131024381D02*
X144708667Y-131024381D01*
X144803905Y-131072000D01*
X144851524Y-131119619D01*
X144899143Y-131214857D01*
X144946762Y-131405333D01*
X144946762Y-131643429D01*
X144899143Y-131833905D01*
X144851524Y-131929143D01*
X144803905Y-131976762D01*
X144708667Y-132024381D01*
X144613428Y-132024381D01*
X144518190Y-131976762D01*
X144470571Y-131929143D01*
X144422952Y-131833905D01*
X144375333Y-131643429D01*
X144375333Y-131405333D01*
X144422952Y-131214857D01*
X144470571Y-131119619D01*
X144518190Y-131072000D01*
X144613428Y-131024381D01*
X145565809Y-131024381D02*
X145661048Y-131024381D01*
X145756286Y-131072000D01*
X145803905Y-131119619D01*
X145851524Y-131214857D01*
X145899143Y-131405333D01*
X145899143Y-131643429D01*
X145851524Y-131833905D01*
X145803905Y-131929143D01*
X145756286Y-131976762D01*
X145661048Y-132024381D01*
X145565809Y-132024381D01*
X145470571Y-131976762D01*
X145422952Y-131929143D01*
X145375333Y-131833905D01*
X145327714Y-131643429D01*
X145327714Y-131405333D01*
X145375333Y-131214857D01*
X145422952Y-131119619D01*
X145470571Y-131072000D01*
X145565809Y-131024381D01*
X146756286Y-131357714D02*
X146756286Y-132024381D01*
X146327714Y-131357714D02*
X146327714Y-131881524D01*
X146375333Y-131976762D01*
X146470571Y-132024381D01*
X146613429Y-132024381D01*
X146708667Y-131976762D01*
X146756286Y-131929143D01*
X147565810Y-131500571D02*
X147232476Y-131500571D01*
X147232476Y-132024381D02*
X147232476Y-131024381D01*
X147708667Y-131024381D01*
X86510905Y-111450381D02*
X86510905Y-110450381D01*
X86749000Y-110450381D01*
X86891858Y-110498000D01*
X86987096Y-110593238D01*
X87034715Y-110688476D01*
X87082334Y-110878952D01*
X87082334Y-111021810D01*
X87034715Y-111212286D01*
X86987096Y-111307524D01*
X86891858Y-111402762D01*
X86749000Y-111450381D01*
X86510905Y-111450381D01*
X88034715Y-111450381D02*
X87463286Y-111450381D01*
X87749000Y-111450381D02*
X87749000Y-110450381D01*
X87653762Y-110593238D01*
X87558524Y-110688476D01*
X87463286Y-110736095D01*
X86848381Y-114536905D02*
X85848381Y-114536905D01*
X86848381Y-113965476D02*
X86276952Y-114394048D01*
X85848381Y-113965476D02*
X86419810Y-114536905D01*
X86562667Y-120663095D02*
X86562667Y-120186904D01*
X86848381Y-120758333D02*
X85848381Y-120425000D01*
X86848381Y-120091666D01*
X85875905Y-144089381D02*
X85875905Y-143089381D01*
X86114000Y-143089381D01*
X86256858Y-143137000D01*
X86352096Y-143232238D01*
X86399715Y-143327476D01*
X86447334Y-143517952D01*
X86447334Y-143660810D01*
X86399715Y-143851286D01*
X86352096Y-143946524D01*
X86256858Y-144041762D01*
X86114000Y-144089381D01*
X85875905Y-144089381D01*
X86828286Y-143184619D02*
X86875905Y-143137000D01*
X86971143Y-143089381D01*
X87209239Y-143089381D01*
X87304477Y-143137000D01*
X87352096Y-143184619D01*
X87399715Y-143279857D01*
X87399715Y-143375095D01*
X87352096Y-143517952D01*
X86780667Y-144089381D01*
X87399715Y-144089381D01*
X87978095Y-143291381D02*
X87978095Y-142291381D01*
X88549524Y-143291381D02*
X88120952Y-142719952D01*
X88549524Y-142291381D02*
X87978095Y-142862810D01*
X93995905Y-138850667D02*
X94472096Y-138850667D01*
X93900667Y-139136381D02*
X94234000Y-138136381D01*
X94567334Y-139136381D01*
X107211905Y-137485381D02*
X107211905Y-136485381D01*
X107450000Y-136485381D01*
X107592858Y-136533000D01*
X107688096Y-136628238D01*
X107735715Y-136723476D01*
X107783334Y-136913952D01*
X107783334Y-137056810D01*
X107735715Y-137247286D01*
X107688096Y-137342524D01*
X107592858Y-137437762D01*
X107450000Y-137485381D01*
X107211905Y-137485381D01*
X108116667Y-136485381D02*
X108735715Y-136485381D01*
X108402381Y-136866333D01*
X108545239Y-136866333D01*
X108640477Y-136913952D01*
X108688096Y-136961571D01*
X108735715Y-137056810D01*
X108735715Y-137294905D01*
X108688096Y-137390143D01*
X108640477Y-137437762D01*
X108545239Y-137485381D01*
X108259524Y-137485381D01*
X108164286Y-137437762D01*
X108116667Y-137390143D01*
X100322095Y-137993381D02*
X100322095Y-136993381D01*
X100893524Y-137993381D02*
X100464952Y-137421952D01*
X100893524Y-136993381D02*
X100322095Y-137564810D01*
X105933905Y-137707667D02*
X106410096Y-137707667D01*
X105838667Y-137993381D02*
X106172000Y-136993381D01*
X106505334Y-137993381D01*
X88733334Y-130881381D02*
X88257143Y-130881381D01*
X88257143Y-129881381D01*
X89590477Y-130881381D02*
X89019048Y-130881381D01*
X89304762Y-130881381D02*
X89304762Y-129881381D01*
X89209524Y-130024238D01*
X89114286Y-130119476D01*
X89019048Y-130167095D01*
X85764905Y-137215619D02*
X85812524Y-137168000D01*
X85907762Y-137120381D01*
X86145858Y-137120381D01*
X86241096Y-137168000D01*
X86288715Y-137215619D01*
X86336334Y-137310857D01*
X86336334Y-137406095D01*
X86288715Y-137548952D01*
X85717286Y-138120381D01*
X86336334Y-138120381D01*
X86717286Y-137215619D02*
X86764905Y-137168000D01*
X86860143Y-137120381D01*
X87098239Y-137120381D01*
X87193477Y-137168000D01*
X87241096Y-137215619D01*
X87288715Y-137310857D01*
X87288715Y-137406095D01*
X87241096Y-137548952D01*
X86669667Y-138120381D01*
X87288715Y-138120381D01*
X88145858Y-137453714D02*
X88145858Y-138120381D01*
X87717286Y-137453714D02*
X87717286Y-137977524D01*
X87764905Y-138072762D01*
X87860143Y-138120381D01*
X88003001Y-138120381D01*
X88098239Y-138072762D01*
X88145858Y-138025143D01*
X88622048Y-138120381D02*
X88622048Y-137120381D01*
X88622048Y-137596571D02*
X89193477Y-137596571D01*
X89193477Y-138120381D02*
X89193477Y-137120381D01*
X79335334Y-117292381D02*
X78859143Y-117292381D01*
X78859143Y-116292381D01*
X79621048Y-116387619D02*
X79668667Y-116340000D01*
X79763905Y-116292381D01*
X80002001Y-116292381D01*
X80097239Y-116340000D01*
X80144858Y-116387619D01*
X80192477Y-116482857D01*
X80192477Y-116578095D01*
X80144858Y-116720952D01*
X79573429Y-117292381D01*
X80192477Y-117292381D01*
X82716905Y-116514619D02*
X82764524Y-116467000D01*
X82859762Y-116419381D01*
X83097858Y-116419381D01*
X83193096Y-116467000D01*
X83240715Y-116514619D01*
X83288334Y-116609857D01*
X83288334Y-116705095D01*
X83240715Y-116847952D01*
X82669286Y-117419381D01*
X83288334Y-117419381D01*
X83669286Y-116514619D02*
X83716905Y-116467000D01*
X83812143Y-116419381D01*
X84050239Y-116419381D01*
X84145477Y-116467000D01*
X84193096Y-116514619D01*
X84240715Y-116609857D01*
X84240715Y-116705095D01*
X84193096Y-116847952D01*
X83621667Y-117419381D01*
X84240715Y-117419381D01*
X85097858Y-116752714D02*
X85097858Y-117419381D01*
X84669286Y-116752714D02*
X84669286Y-117276524D01*
X84716905Y-117371762D01*
X84812143Y-117419381D01*
X84955001Y-117419381D01*
X85050239Y-117371762D01*
X85097858Y-117324143D01*
X85574048Y-117419381D02*
X85574048Y-116419381D01*
X85574048Y-116895571D02*
X86145477Y-116895571D01*
X86145477Y-117419381D02*
X86145477Y-116419381D01*
D14*
X79048429Y-134529286D02*
X78975857Y-134493000D01*
X78903286Y-134420429D01*
X78794429Y-134311571D01*
X78721857Y-134275286D01*
X78649286Y-134275286D01*
X78685571Y-134456714D02*
X78613000Y-134420429D01*
X78540429Y-134347857D01*
X78504143Y-134202714D01*
X78504143Y-133948714D01*
X78540429Y-133803571D01*
X78613000Y-133731000D01*
X78685571Y-133694714D01*
X78830714Y-133694714D01*
X78903286Y-133731000D01*
X78975857Y-133803571D01*
X79012143Y-133948714D01*
X79012143Y-134202714D01*
X78975857Y-134347857D01*
X78903286Y-134420429D01*
X78830714Y-134456714D01*
X78685571Y-134456714D01*
X79737857Y-134456714D02*
X79302429Y-134456714D01*
X79520143Y-134456714D02*
X79520143Y-133694714D01*
X79447572Y-133803571D01*
X79375000Y-133876143D01*
X79302429Y-133912429D01*
D15*
X79981516Y-135735362D02*
X79981516Y-135234982D01*
X80148309Y-135592397D01*
X80315103Y-135234982D01*
X80315103Y-135735362D01*
X80648690Y-135234982D02*
X80744000Y-135234982D01*
X80791655Y-135258810D01*
X80839311Y-135306465D01*
X80863138Y-135401776D01*
X80863138Y-135568569D01*
X80839311Y-135663880D01*
X80791655Y-135711535D01*
X80744000Y-135735362D01*
X80648690Y-135735362D01*
X80601034Y-135711535D01*
X80553379Y-135663880D01*
X80529551Y-135568569D01*
X80529551Y-135401776D01*
X80553379Y-135306465D01*
X80601034Y-135258810D01*
X80648690Y-135234982D01*
X81053759Y-135711535D02*
X81125242Y-135735362D01*
X81244380Y-135735362D01*
X81292036Y-135711535D01*
X81315863Y-135687707D01*
X81339691Y-135640052D01*
X81339691Y-135592397D01*
X81315863Y-135544741D01*
X81292036Y-135520914D01*
X81244380Y-135497086D01*
X81149070Y-135473259D01*
X81101415Y-135449431D01*
X81077587Y-135425603D01*
X81053759Y-135377948D01*
X81053759Y-135330293D01*
X81077587Y-135282638D01*
X81101415Y-135258810D01*
X81149070Y-135234982D01*
X81268208Y-135234982D01*
X81339691Y-135258810D01*
X81435001Y-135783018D02*
X81816243Y-135783018D01*
X81935381Y-135735362D02*
X81935381Y-135234982D01*
X82126002Y-135234982D01*
X82173657Y-135258810D01*
X82197485Y-135282638D01*
X82221313Y-135330293D01*
X82221313Y-135401776D01*
X82197485Y-135449431D01*
X82173657Y-135473259D01*
X82126002Y-135497086D01*
X81935381Y-135497086D01*
D10*
X79335334Y-141803381D02*
X79002000Y-141327190D01*
X78763905Y-141803381D02*
X78763905Y-140803381D01*
X79144858Y-140803381D01*
X79240096Y-140851000D01*
X79287715Y-140898619D01*
X79335334Y-140993857D01*
X79335334Y-141136714D01*
X79287715Y-141231952D01*
X79240096Y-141279571D01*
X79144858Y-141327190D01*
X78763905Y-141327190D01*
X80287715Y-141803381D02*
X79716286Y-141803381D01*
X80002000Y-141803381D02*
X80002000Y-140803381D01*
X79906762Y-140946238D01*
X79811524Y-141041476D01*
X79716286Y-141089095D01*
X82494524Y-141803381D02*
X81923095Y-141803381D01*
X82208809Y-141803381D02*
X82208809Y-140803381D01*
X82113571Y-140946238D01*
X82018333Y-141041476D01*
X81923095Y-141089095D01*
X83113571Y-140803381D02*
X83208810Y-140803381D01*
X83304048Y-140851000D01*
X83351667Y-140898619D01*
X83399286Y-140993857D01*
X83446905Y-141184333D01*
X83446905Y-141422429D01*
X83399286Y-141612905D01*
X83351667Y-141708143D01*
X83304048Y-141755762D01*
X83208810Y-141803381D01*
X83113571Y-141803381D01*
X83018333Y-141755762D01*
X82970714Y-141708143D01*
X82923095Y-141612905D01*
X82875476Y-141422429D01*
X82875476Y-141184333D01*
X82923095Y-140993857D01*
X82970714Y-140898619D01*
X83018333Y-140851000D01*
X83113571Y-140803381D01*
X83875476Y-141803381D02*
X83875476Y-140803381D01*
X84446905Y-141803381D02*
X84018333Y-141231952D01*
X84446905Y-140803381D02*
X83875476Y-141374810D01*
X91765381Y-126912666D02*
X91289190Y-127246000D01*
X91765381Y-127484095D02*
X90765381Y-127484095D01*
X90765381Y-127103142D01*
X90813000Y-127007904D01*
X90860619Y-126960285D01*
X90955857Y-126912666D01*
X91098714Y-126912666D01*
X91193952Y-126960285D01*
X91241571Y-127007904D01*
X91289190Y-127103142D01*
X91289190Y-127484095D01*
X90860619Y-126531714D02*
X90813000Y-126484095D01*
X90765381Y-126388857D01*
X90765381Y-126150761D01*
X90813000Y-126055523D01*
X90860619Y-126007904D01*
X90955857Y-125960285D01*
X91051095Y-125960285D01*
X91193952Y-126007904D01*
X91765381Y-126579333D01*
X91765381Y-125960285D01*
X91765381Y-136818666D02*
X91289190Y-137152000D01*
X91765381Y-137390095D02*
X90765381Y-137390095D01*
X90765381Y-137009142D01*
X90813000Y-136913904D01*
X90860619Y-136866285D01*
X90955857Y-136818666D01*
X91098714Y-136818666D01*
X91193952Y-136866285D01*
X91241571Y-136913904D01*
X91289190Y-137009142D01*
X91289190Y-137390095D01*
X90765381Y-136485333D02*
X90765381Y-135866285D01*
X91146333Y-136199619D01*
X91146333Y-136056761D01*
X91193952Y-135961523D01*
X91241571Y-135913904D01*
X91336810Y-135866285D01*
X91574905Y-135866285D01*
X91670143Y-135913904D01*
X91717762Y-135961523D01*
X91765381Y-136056761D01*
X91765381Y-136342476D01*
X91717762Y-136437714D01*
X91670143Y-136485333D01*
X97242476Y-136104381D02*
X97861524Y-136104381D01*
X97528190Y-136485333D01*
X97671048Y-136485333D01*
X97766286Y-136532952D01*
X97813905Y-136580571D01*
X97861524Y-136675810D01*
X97861524Y-136913905D01*
X97813905Y-137009143D01*
X97766286Y-137056762D01*
X97671048Y-137104381D01*
X97385333Y-137104381D01*
X97290095Y-137056762D01*
X97242476Y-137009143D01*
X98194857Y-136104381D02*
X98813905Y-136104381D01*
X98480571Y-136485333D01*
X98623429Y-136485333D01*
X98718667Y-136532952D01*
X98766286Y-136580571D01*
X98813905Y-136675810D01*
X98813905Y-136913905D01*
X98766286Y-137009143D01*
X98718667Y-137056762D01*
X98623429Y-137104381D01*
X98337714Y-137104381D01*
X98242476Y-137056762D01*
X98194857Y-137009143D01*
X99242476Y-137104381D02*
X99242476Y-136104381D01*
X99813905Y-137104381D02*
X99385333Y-136532952D01*
X99813905Y-136104381D02*
X99242476Y-136675810D01*
X92146381Y-122975666D02*
X91670190Y-123309000D01*
X92146381Y-123547095D02*
X91146381Y-123547095D01*
X91146381Y-123166142D01*
X91194000Y-123070904D01*
X91241619Y-123023285D01*
X91336857Y-122975666D01*
X91479714Y-122975666D01*
X91574952Y-123023285D01*
X91622571Y-123070904D01*
X91670190Y-123166142D01*
X91670190Y-123547095D01*
X91479714Y-122118523D02*
X92146381Y-122118523D01*
X91098762Y-122356619D02*
X91813048Y-122594714D01*
X91813048Y-121975666D01*
X93432476Y-124420381D02*
X94051524Y-124420381D01*
X93718190Y-124801333D01*
X93861048Y-124801333D01*
X93956286Y-124848952D01*
X94003905Y-124896571D01*
X94051524Y-124991810D01*
X94051524Y-125229905D01*
X94003905Y-125325143D01*
X93956286Y-125372762D01*
X93861048Y-125420381D01*
X93575333Y-125420381D01*
X93480095Y-125372762D01*
X93432476Y-125325143D01*
X94384857Y-124420381D02*
X95003905Y-124420381D01*
X94670571Y-124801333D01*
X94813429Y-124801333D01*
X94908667Y-124848952D01*
X94956286Y-124896571D01*
X95003905Y-124991810D01*
X95003905Y-125229905D01*
X94956286Y-125325143D01*
X94908667Y-125372762D01*
X94813429Y-125420381D01*
X94527714Y-125420381D01*
X94432476Y-125372762D01*
X94384857Y-125325143D01*
X95432476Y-125420381D02*
X95432476Y-124420381D01*
X96003905Y-125420381D02*
X95575333Y-124848952D01*
X96003905Y-124420381D02*
X95432476Y-124991810D01*
X92146381Y-119546666D02*
X91670190Y-119880000D01*
X92146381Y-120118095D02*
X91146381Y-120118095D01*
X91146381Y-119737142D01*
X91194000Y-119641904D01*
X91241619Y-119594285D01*
X91336857Y-119546666D01*
X91479714Y-119546666D01*
X91574952Y-119594285D01*
X91622571Y-119641904D01*
X91670190Y-119737142D01*
X91670190Y-120118095D01*
X91146381Y-118641904D02*
X91146381Y-119118095D01*
X91622571Y-119165714D01*
X91574952Y-119118095D01*
X91527333Y-119022857D01*
X91527333Y-118784761D01*
X91574952Y-118689523D01*
X91622571Y-118641904D01*
X91717810Y-118594285D01*
X91955905Y-118594285D01*
X92051143Y-118641904D01*
X92098762Y-118689523D01*
X92146381Y-118784761D01*
X92146381Y-119022857D01*
X92098762Y-119118095D01*
X92051143Y-119165714D01*
X93527715Y-120610381D02*
X93051524Y-120610381D01*
X93003905Y-121086571D01*
X93051524Y-121038952D01*
X93146762Y-120991333D01*
X93384858Y-120991333D01*
X93480096Y-121038952D01*
X93527715Y-121086571D01*
X93575334Y-121181810D01*
X93575334Y-121419905D01*
X93527715Y-121515143D01*
X93480096Y-121562762D01*
X93384858Y-121610381D01*
X93146762Y-121610381D01*
X93051524Y-121562762D01*
X93003905Y-121515143D01*
X94432477Y-120610381D02*
X94242000Y-120610381D01*
X94146762Y-120658000D01*
X94099143Y-120705619D01*
X94003905Y-120848476D01*
X93956286Y-121038952D01*
X93956286Y-121419905D01*
X94003905Y-121515143D01*
X94051524Y-121562762D01*
X94146762Y-121610381D01*
X94337239Y-121610381D01*
X94432477Y-121562762D01*
X94480096Y-121515143D01*
X94527715Y-121419905D01*
X94527715Y-121181810D01*
X94480096Y-121086571D01*
X94432477Y-121038952D01*
X94337239Y-120991333D01*
X94146762Y-120991333D01*
X94051524Y-121038952D01*
X94003905Y-121086571D01*
X93956286Y-121181810D01*
X95146762Y-120610381D02*
X95242001Y-120610381D01*
X95337239Y-120658000D01*
X95384858Y-120705619D01*
X95432477Y-120800857D01*
X95480096Y-120991333D01*
X95480096Y-121229429D01*
X95432477Y-121419905D01*
X95384858Y-121515143D01*
X95337239Y-121562762D01*
X95242001Y-121610381D01*
X95146762Y-121610381D01*
X95051524Y-121562762D01*
X95003905Y-121515143D01*
X94956286Y-121419905D01*
X94908667Y-121229429D01*
X94908667Y-120991333D01*
X94956286Y-120800857D01*
X95003905Y-120705619D01*
X95051524Y-120658000D01*
X95146762Y-120610381D01*
X95908667Y-121610381D02*
X95908667Y-120610381D01*
X96480096Y-121610381D02*
X96051524Y-121038952D01*
X96480096Y-120610381D02*
X95908667Y-121181810D01*
X112212381Y-112307666D02*
X111736190Y-112641000D01*
X112212381Y-112879095D02*
X111212381Y-112879095D01*
X111212381Y-112498142D01*
X111260000Y-112402904D01*
X111307619Y-112355285D01*
X111402857Y-112307666D01*
X111545714Y-112307666D01*
X111640952Y-112355285D01*
X111688571Y-112402904D01*
X111736190Y-112498142D01*
X111736190Y-112879095D01*
X111212381Y-111450523D02*
X111212381Y-111641000D01*
X111260000Y-111736238D01*
X111307619Y-111783857D01*
X111450476Y-111879095D01*
X111640952Y-111926714D01*
X112021905Y-111926714D01*
X112117143Y-111879095D01*
X112164762Y-111831476D01*
X112212381Y-111736238D01*
X112212381Y-111545761D01*
X112164762Y-111450523D01*
X112117143Y-111402904D01*
X112021905Y-111355285D01*
X111783810Y-111355285D01*
X111688571Y-111402904D01*
X111640952Y-111450523D01*
X111593333Y-111545761D01*
X111593333Y-111736238D01*
X111640952Y-111831476D01*
X111688571Y-111879095D01*
X111783810Y-111926714D01*
X113117381Y-114974524D02*
X113117381Y-114355476D01*
X113498333Y-114688810D01*
X113498333Y-114545952D01*
X113545952Y-114450714D01*
X113593571Y-114403095D01*
X113688810Y-114355476D01*
X113926905Y-114355476D01*
X114022143Y-114403095D01*
X114069762Y-114450714D01*
X114117381Y-114545952D01*
X114117381Y-114831667D01*
X114069762Y-114926905D01*
X114022143Y-114974524D01*
X114117381Y-113879286D02*
X114117381Y-113688810D01*
X114069762Y-113593571D01*
X114022143Y-113545952D01*
X113879286Y-113450714D01*
X113688810Y-113403095D01*
X113307857Y-113403095D01*
X113212619Y-113450714D01*
X113165000Y-113498333D01*
X113117381Y-113593571D01*
X113117381Y-113784048D01*
X113165000Y-113879286D01*
X113212619Y-113926905D01*
X113307857Y-113974524D01*
X113545952Y-113974524D01*
X113641190Y-113926905D01*
X113688810Y-113879286D01*
X113736429Y-113784048D01*
X113736429Y-113593571D01*
X113688810Y-113498333D01*
X113641190Y-113450714D01*
X113545952Y-113403095D01*
X114117381Y-112974524D02*
X113117381Y-112974524D01*
X114117381Y-112403095D02*
X113545952Y-112831667D01*
X113117381Y-112403095D02*
X113688810Y-112974524D01*
X110831334Y-127452381D02*
X110498000Y-126976190D01*
X110259905Y-127452381D02*
X110259905Y-126452381D01*
X110640858Y-126452381D01*
X110736096Y-126500000D01*
X110783715Y-126547619D01*
X110831334Y-126642857D01*
X110831334Y-126785714D01*
X110783715Y-126880952D01*
X110736096Y-126928571D01*
X110640858Y-126976190D01*
X110259905Y-126976190D01*
X111164667Y-126452381D02*
X111831334Y-126452381D01*
X111402762Y-127452381D01*
X110275905Y-128071619D02*
X110323524Y-128024000D01*
X110418762Y-127976381D01*
X110656858Y-127976381D01*
X110752096Y-128024000D01*
X110799715Y-128071619D01*
X110847334Y-128166857D01*
X110847334Y-128262095D01*
X110799715Y-128404952D01*
X110228286Y-128976381D01*
X110847334Y-128976381D01*
X111466381Y-127976381D02*
X111561620Y-127976381D01*
X111656858Y-128024000D01*
X111704477Y-128071619D01*
X111752096Y-128166857D01*
X111799715Y-128357333D01*
X111799715Y-128595429D01*
X111752096Y-128785905D01*
X111704477Y-128881143D01*
X111656858Y-128928762D01*
X111561620Y-128976381D01*
X111466381Y-128976381D01*
X111371143Y-128928762D01*
X111323524Y-128881143D01*
X111275905Y-128785905D01*
X111228286Y-128595429D01*
X111228286Y-128357333D01*
X111275905Y-128166857D01*
X111323524Y-128071619D01*
X111371143Y-128024000D01*
X111466381Y-127976381D01*
X112418762Y-127976381D02*
X112514001Y-127976381D01*
X112609239Y-128024000D01*
X112656858Y-128071619D01*
X112704477Y-128166857D01*
X112752096Y-128357333D01*
X112752096Y-128595429D01*
X112704477Y-128785905D01*
X112656858Y-128881143D01*
X112609239Y-128928762D01*
X112514001Y-128976381D01*
X112418762Y-128976381D01*
X112323524Y-128928762D01*
X112275905Y-128881143D01*
X112228286Y-128785905D01*
X112180667Y-128595429D01*
X112180667Y-128357333D01*
X112228286Y-128166857D01*
X112275905Y-128071619D01*
X112323524Y-128024000D01*
X112418762Y-127976381D01*
X113180667Y-128976381D02*
X113180667Y-127976381D01*
X113752096Y-128976381D02*
X113323524Y-128404952D01*
X113752096Y-127976381D02*
X113180667Y-128547810D01*
X110180381Y-135040666D02*
X109704190Y-135374000D01*
X110180381Y-135612095D02*
X109180381Y-135612095D01*
X109180381Y-135231142D01*
X109228000Y-135135904D01*
X109275619Y-135088285D01*
X109370857Y-135040666D01*
X109513714Y-135040666D01*
X109608952Y-135088285D01*
X109656571Y-135135904D01*
X109704190Y-135231142D01*
X109704190Y-135612095D01*
X109608952Y-134469238D02*
X109561333Y-134564476D01*
X109513714Y-134612095D01*
X109418476Y-134659714D01*
X109370857Y-134659714D01*
X109275619Y-134612095D01*
X109228000Y-134564476D01*
X109180381Y-134469238D01*
X109180381Y-134278761D01*
X109228000Y-134183523D01*
X109275619Y-134135904D01*
X109370857Y-134088285D01*
X109418476Y-134088285D01*
X109513714Y-134135904D01*
X109561333Y-134183523D01*
X109608952Y-134278761D01*
X109608952Y-134469238D01*
X109656571Y-134564476D01*
X109704190Y-134612095D01*
X109799429Y-134659714D01*
X109989905Y-134659714D01*
X110085143Y-134612095D01*
X110132762Y-134564476D01*
X110180381Y-134469238D01*
X110180381Y-134278761D01*
X110132762Y-134183523D01*
X110085143Y-134135904D01*
X109989905Y-134088285D01*
X109799429Y-134088285D01*
X109704190Y-134135904D01*
X109656571Y-134183523D01*
X109608952Y-134278761D01*
X109180381Y-132881524D02*
X109180381Y-132262476D01*
X109561333Y-132595810D01*
X109561333Y-132452952D01*
X109608952Y-132357714D01*
X109656571Y-132310095D01*
X109751810Y-132262476D01*
X109989905Y-132262476D01*
X110085143Y-132310095D01*
X110132762Y-132357714D01*
X110180381Y-132452952D01*
X110180381Y-132738667D01*
X110132762Y-132833905D01*
X110085143Y-132881524D01*
X110180381Y-131786286D02*
X110180381Y-131595810D01*
X110132762Y-131500571D01*
X110085143Y-131452952D01*
X109942286Y-131357714D01*
X109751810Y-131310095D01*
X109370857Y-131310095D01*
X109275619Y-131357714D01*
X109228000Y-131405333D01*
X109180381Y-131500571D01*
X109180381Y-131691048D01*
X109228000Y-131786286D01*
X109275619Y-131833905D01*
X109370857Y-131881524D01*
X109608952Y-131881524D01*
X109704190Y-131833905D01*
X109751810Y-131786286D01*
X109799429Y-131691048D01*
X109799429Y-131500571D01*
X109751810Y-131405333D01*
X109704190Y-131357714D01*
X109608952Y-131310095D01*
X110180381Y-130881524D02*
X109180381Y-130881524D01*
X110180381Y-130310095D02*
X109608952Y-130738667D01*
X109180381Y-130310095D02*
X109751810Y-130881524D01*
X107862762Y-121991381D02*
X107529428Y-121515190D01*
X107291333Y-121991381D02*
X107291333Y-120991381D01*
X107672286Y-120991381D01*
X107767524Y-121039000D01*
X107815143Y-121086619D01*
X107862762Y-121181857D01*
X107862762Y-121324714D01*
X107815143Y-121419952D01*
X107767524Y-121467571D01*
X107672286Y-121515190D01*
X107291333Y-121515190D01*
X108148476Y-120991381D02*
X108481809Y-121991381D01*
X108815143Y-120991381D01*
X109672286Y-121991381D02*
X109100857Y-121991381D01*
X109386571Y-121991381D02*
X109386571Y-120991381D01*
X109291333Y-121134238D01*
X109196095Y-121229476D01*
X109100857Y-121277095D01*
X113482381Y-122197666D02*
X113482381Y-122769095D01*
X113482381Y-122483381D02*
X112482381Y-122483381D01*
X112625238Y-122578619D01*
X112720476Y-122673857D01*
X112768095Y-122769095D01*
X112482381Y-121578619D02*
X112482381Y-121483380D01*
X112530000Y-121388142D01*
X112577619Y-121340523D01*
X112672857Y-121292904D01*
X112863333Y-121245285D01*
X113101429Y-121245285D01*
X113291905Y-121292904D01*
X113387143Y-121340523D01*
X113434762Y-121388142D01*
X113482381Y-121483380D01*
X113482381Y-121578619D01*
X113434762Y-121673857D01*
X113387143Y-121721476D01*
X113291905Y-121769095D01*
X113101429Y-121816714D01*
X112863333Y-121816714D01*
X112672857Y-121769095D01*
X112577619Y-121721476D01*
X112530000Y-121673857D01*
X112482381Y-121578619D01*
X112482381Y-120626238D02*
X112482381Y-120530999D01*
X112530000Y-120435761D01*
X112577619Y-120388142D01*
X112672857Y-120340523D01*
X112863333Y-120292904D01*
X113101429Y-120292904D01*
X113291905Y-120340523D01*
X113387143Y-120388142D01*
X113434762Y-120435761D01*
X113482381Y-120530999D01*
X113482381Y-120626238D01*
X113434762Y-120721476D01*
X113387143Y-120769095D01*
X113291905Y-120816714D01*
X113101429Y-120864333D01*
X112863333Y-120864333D01*
X112672857Y-120816714D01*
X112577619Y-120769095D01*
X112530000Y-120721476D01*
X112482381Y-120626238D01*
X113482381Y-119864333D02*
X112482381Y-119864333D01*
X113482381Y-119292904D02*
X112910952Y-119721476D01*
X112482381Y-119292904D02*
X113053810Y-119864333D01*
X86320381Y-127888905D02*
X87129905Y-127888905D01*
X87225143Y-127841286D01*
X87272762Y-127793667D01*
X87320381Y-127698429D01*
X87320381Y-127507952D01*
X87272762Y-127412714D01*
X87225143Y-127365095D01*
X87129905Y-127317476D01*
X86320381Y-127317476D01*
X87320381Y-126317476D02*
X87320381Y-126888905D01*
X87320381Y-126603191D02*
X86320381Y-126603191D01*
X86463238Y-126698429D01*
X86558476Y-126793667D01*
X86606095Y-126888905D01*
X84891810Y-124979381D02*
X84415619Y-124979381D01*
X84415619Y-123979381D01*
X85082286Y-123979381D02*
X85653715Y-123979381D01*
X85368000Y-124979381D02*
X85368000Y-123979381D01*
X86510858Y-124979381D02*
X85939429Y-124979381D01*
X86225143Y-124979381D02*
X86225143Y-123979381D01*
X86129905Y-124122238D01*
X86034667Y-124217476D01*
X85939429Y-124265095D01*
X86987048Y-124979381D02*
X87177524Y-124979381D01*
X87272763Y-124931762D01*
X87320382Y-124884143D01*
X87415620Y-124741286D01*
X87463239Y-124550810D01*
X87463239Y-124169857D01*
X87415620Y-124074619D01*
X87368001Y-124027000D01*
X87272763Y-123979381D01*
X87082286Y-123979381D01*
X86987048Y-124027000D01*
X86939429Y-124074619D01*
X86891810Y-124169857D01*
X86891810Y-124407952D01*
X86939429Y-124503190D01*
X86987048Y-124550810D01*
X87082286Y-124598429D01*
X87272763Y-124598429D01*
X87368001Y-124550810D01*
X87415620Y-124503190D01*
X87463239Y-124407952D01*
X88320382Y-124312714D02*
X88320382Y-124979381D01*
X88082286Y-123931762D02*
X87844191Y-124646048D01*
X88463239Y-124646048D01*
X89320382Y-123979381D02*
X88844191Y-123979381D01*
X88796572Y-124455571D01*
X88844191Y-124407952D01*
X88939429Y-124360333D01*
X89177525Y-124360333D01*
X89272763Y-124407952D01*
X89320382Y-124455571D01*
X89368001Y-124550810D01*
X89368001Y-124788905D01*
X89320382Y-124884143D01*
X89272763Y-124931762D01*
X89177525Y-124979381D01*
X88939429Y-124979381D01*
X88844191Y-124931762D01*
X88796572Y-124884143D01*
X100330095Y-123785381D02*
X100330095Y-124594905D01*
X100377714Y-124690143D01*
X100425333Y-124737762D01*
X100520571Y-124785381D01*
X100711048Y-124785381D01*
X100806286Y-124737762D01*
X100853905Y-124690143D01*
X100901524Y-124594905D01*
X100901524Y-123785381D01*
X101330095Y-123880619D02*
X101377714Y-123833000D01*
X101472952Y-123785381D01*
X101711048Y-123785381D01*
X101806286Y-123833000D01*
X101853905Y-123880619D01*
X101901524Y-123975857D01*
X101901524Y-124071095D01*
X101853905Y-124213952D01*
X101282476Y-124785381D01*
X101901524Y-124785381D01*
X104211381Y-126023476D02*
X104211381Y-126499667D01*
X103211381Y-126499667D01*
X104211381Y-125690143D02*
X103211381Y-125690143D01*
X103925667Y-125356809D01*
X103211381Y-125023476D01*
X104211381Y-125023476D01*
X103211381Y-124642524D02*
X103211381Y-124023476D01*
X103592333Y-124356810D01*
X103592333Y-124213952D01*
X103639952Y-124118714D01*
X103687571Y-124071095D01*
X103782810Y-124023476D01*
X104020905Y-124023476D01*
X104116143Y-124071095D01*
X104163762Y-124118714D01*
X104211381Y-124213952D01*
X104211381Y-124499667D01*
X104163762Y-124594905D01*
X104116143Y-124642524D01*
X103211381Y-123118714D02*
X103211381Y-123594905D01*
X103687571Y-123642524D01*
X103639952Y-123594905D01*
X103592333Y-123499667D01*
X103592333Y-123261571D01*
X103639952Y-123166333D01*
X103687571Y-123118714D01*
X103782810Y-123071095D01*
X104020905Y-123071095D01*
X104116143Y-123118714D01*
X104163762Y-123166333D01*
X104211381Y-123261571D01*
X104211381Y-123499667D01*
X104163762Y-123594905D01*
X104116143Y-123642524D01*
X103639952Y-122499667D02*
X103592333Y-122594905D01*
X103544714Y-122642524D01*
X103449476Y-122690143D01*
X103401857Y-122690143D01*
X103306619Y-122642524D01*
X103259000Y-122594905D01*
X103211381Y-122499667D01*
X103211381Y-122309190D01*
X103259000Y-122213952D01*
X103306619Y-122166333D01*
X103401857Y-122118714D01*
X103449476Y-122118714D01*
X103544714Y-122166333D01*
X103592333Y-122213952D01*
X103639952Y-122309190D01*
X103639952Y-122499667D01*
X103687571Y-122594905D01*
X103735190Y-122642524D01*
X103830429Y-122690143D01*
X104020905Y-122690143D01*
X104116143Y-122642524D01*
X104163762Y-122594905D01*
X104211381Y-122499667D01*
X104211381Y-122309190D01*
X104163762Y-122213952D01*
X104116143Y-122166333D01*
X104020905Y-122118714D01*
X103830429Y-122118714D01*
X103735190Y-122166333D01*
X103687571Y-122213952D01*
X103639952Y-122309190D01*
X118872095Y-134072381D02*
X118872095Y-134881905D01*
X118919714Y-134977143D01*
X118967333Y-135024762D01*
X119062571Y-135072381D01*
X119253048Y-135072381D01*
X119348286Y-135024762D01*
X119395905Y-134977143D01*
X119443524Y-134881905D01*
X119443524Y-134072381D01*
X119824476Y-134072381D02*
X120443524Y-134072381D01*
X120110190Y-134453333D01*
X120253048Y-134453333D01*
X120348286Y-134500952D01*
X120395905Y-134548571D01*
X120443524Y-134643810D01*
X120443524Y-134881905D01*
X120395905Y-134977143D01*
X120348286Y-135024762D01*
X120253048Y-135072381D01*
X119967333Y-135072381D01*
X119872095Y-135024762D01*
X119824476Y-134977143D01*
X119086381Y-125181905D02*
X119086381Y-124515238D01*
X120086381Y-124943810D01*
X119419714Y-123705714D02*
X120086381Y-123705714D01*
X119038762Y-123943810D02*
X119753048Y-124181905D01*
X119753048Y-123562857D01*
X120086381Y-123181905D02*
X119086381Y-123181905D01*
X119562571Y-123181905D02*
X119562571Y-122610476D01*
X120086381Y-122610476D02*
X119086381Y-122610476D01*
X119991143Y-121562857D02*
X120038762Y-121610476D01*
X120086381Y-121753333D01*
X120086381Y-121848571D01*
X120038762Y-121991429D01*
X119943524Y-122086667D01*
X119848286Y-122134286D01*
X119657810Y-122181905D01*
X119514952Y-122181905D01*
X119324476Y-122134286D01*
X119229238Y-122086667D01*
X119134000Y-121991429D01*
X119086381Y-121848571D01*
X119086381Y-121753333D01*
X119134000Y-121610476D01*
X119181619Y-121562857D01*
X119086381Y-120658095D02*
X119086381Y-121134286D01*
X119562571Y-121181905D01*
X119514952Y-121134286D01*
X119467333Y-121039048D01*
X119467333Y-120800952D01*
X119514952Y-120705714D01*
X119562571Y-120658095D01*
X119657810Y-120610476D01*
X119895905Y-120610476D01*
X119991143Y-120658095D01*
X120038762Y-120705714D01*
X120086381Y-120800952D01*
X120086381Y-121039048D01*
X120038762Y-121134286D01*
X119991143Y-121181905D01*
X120086381Y-120134286D02*
X120086381Y-119943810D01*
X120038762Y-119848571D01*
X119991143Y-119800952D01*
X119848286Y-119705714D01*
X119657810Y-119658095D01*
X119276857Y-119658095D01*
X119181619Y-119705714D01*
X119134000Y-119753333D01*
X119086381Y-119848571D01*
X119086381Y-120039048D01*
X119134000Y-120134286D01*
X119181619Y-120181905D01*
X119276857Y-120229524D01*
X119514952Y-120229524D01*
X119610190Y-120181905D01*
X119657810Y-120134286D01*
X119705429Y-120039048D01*
X119705429Y-119848571D01*
X119657810Y-119753333D01*
X119610190Y-119705714D01*
X119514952Y-119658095D01*
X119086381Y-118753333D02*
X119086381Y-119229524D01*
X119562571Y-119277143D01*
X119514952Y-119229524D01*
X119467333Y-119134286D01*
X119467333Y-118896190D01*
X119514952Y-118800952D01*
X119562571Y-118753333D01*
X119657810Y-118705714D01*
X119895905Y-118705714D01*
X119991143Y-118753333D01*
X120038762Y-118800952D01*
X120086381Y-118896190D01*
X120086381Y-119134286D01*
X120038762Y-119229524D01*
X119991143Y-119277143D01*
X130048095Y-134072381D02*
X130048095Y-134881905D01*
X130095714Y-134977143D01*
X130143333Y-135024762D01*
X130238571Y-135072381D01*
X130429048Y-135072381D01*
X130524286Y-135024762D01*
X130571905Y-134977143D01*
X130619524Y-134881905D01*
X130619524Y-134072381D01*
X131524286Y-134405714D02*
X131524286Y-135072381D01*
X131286190Y-134024762D02*
X131048095Y-134739048D01*
X131667143Y-134739048D01*
X130262381Y-125181905D02*
X130262381Y-124515238D01*
X131262381Y-124943810D01*
X130595714Y-123705714D02*
X131262381Y-123705714D01*
X130214762Y-123943810D02*
X130929048Y-124181905D01*
X130929048Y-123562857D01*
X131262381Y-123181905D02*
X130262381Y-123181905D01*
X130738571Y-123181905D02*
X130738571Y-122610476D01*
X131262381Y-122610476D02*
X130262381Y-122610476D01*
X131167143Y-121562857D02*
X131214762Y-121610476D01*
X131262381Y-121753333D01*
X131262381Y-121848571D01*
X131214762Y-121991429D01*
X131119524Y-122086667D01*
X131024286Y-122134286D01*
X130833810Y-122181905D01*
X130690952Y-122181905D01*
X130500476Y-122134286D01*
X130405238Y-122086667D01*
X130310000Y-121991429D01*
X130262381Y-121848571D01*
X130262381Y-121753333D01*
X130310000Y-121610476D01*
X130357619Y-121562857D01*
X130262381Y-120658095D02*
X130262381Y-121134286D01*
X130738571Y-121181905D01*
X130690952Y-121134286D01*
X130643333Y-121039048D01*
X130643333Y-120800952D01*
X130690952Y-120705714D01*
X130738571Y-120658095D01*
X130833810Y-120610476D01*
X131071905Y-120610476D01*
X131167143Y-120658095D01*
X131214762Y-120705714D01*
X131262381Y-120800952D01*
X131262381Y-121039048D01*
X131214762Y-121134286D01*
X131167143Y-121181905D01*
X131262381Y-120134286D02*
X131262381Y-119943810D01*
X131214762Y-119848571D01*
X131167143Y-119800952D01*
X131024286Y-119705714D01*
X130833810Y-119658095D01*
X130452857Y-119658095D01*
X130357619Y-119705714D01*
X130310000Y-119753333D01*
X130262381Y-119848571D01*
X130262381Y-120039048D01*
X130310000Y-120134286D01*
X130357619Y-120181905D01*
X130452857Y-120229524D01*
X130690952Y-120229524D01*
X130786190Y-120181905D01*
X130833810Y-120134286D01*
X130881429Y-120039048D01*
X130881429Y-119848571D01*
X130833810Y-119753333D01*
X130786190Y-119705714D01*
X130690952Y-119658095D01*
X130262381Y-118753333D02*
X130262381Y-119229524D01*
X130738571Y-119277143D01*
X130690952Y-119229524D01*
X130643333Y-119134286D01*
X130643333Y-118896190D01*
X130690952Y-118800952D01*
X130738571Y-118753333D01*
X130833810Y-118705714D01*
X131071905Y-118705714D01*
X131167143Y-118753333D01*
X131214762Y-118800952D01*
X131262381Y-118896190D01*
X131262381Y-119134286D01*
X131214762Y-119229524D01*
X131167143Y-119277143D01*
D16*
X100593071Y-117075857D02*
X101518357Y-117075857D01*
X101627214Y-117021429D01*
X101681643Y-116967000D01*
X101736071Y-116858143D01*
X101736071Y-116640429D01*
X101681643Y-116531571D01*
X101627214Y-116477143D01*
X101518357Y-116422714D01*
X100593071Y-116422714D01*
X100593071Y-115334142D02*
X100593071Y-115878428D01*
X101137357Y-115932857D01*
X101082929Y-115878428D01*
X101028500Y-115769571D01*
X101028500Y-115497428D01*
X101082929Y-115388571D01*
X101137357Y-115334142D01*
X101246214Y-115279714D01*
X101518357Y-115279714D01*
X101627214Y-115334142D01*
X101681643Y-115388571D01*
X101736071Y-115497428D01*
X101736071Y-115769571D01*
X101681643Y-115878428D01*
X101627214Y-115932857D01*
X100181833Y-112162167D02*
X100774500Y-112162167D01*
X100393500Y-113051167D01*
X101240167Y-112543167D02*
X101155500Y-112500833D01*
X101113167Y-112458500D01*
X101070833Y-112373833D01*
X101070833Y-112331500D01*
X101113167Y-112246833D01*
X101155500Y-112204500D01*
X101240167Y-112162167D01*
X101409500Y-112162167D01*
X101494167Y-112204500D01*
X101536500Y-112246833D01*
X101578833Y-112331500D01*
X101578833Y-112373833D01*
X101536500Y-112458500D01*
X101494167Y-112500833D01*
X101409500Y-112543167D01*
X101240167Y-112543167D01*
X101155500Y-112585500D01*
X101113167Y-112627833D01*
X101070833Y-112712500D01*
X101070833Y-112881833D01*
X101113167Y-112966500D01*
X101155500Y-113008833D01*
X101240167Y-113051167D01*
X101409500Y-113051167D01*
X101494167Y-113008833D01*
X101536500Y-112966500D01*
X101578833Y-112881833D01*
X101578833Y-112712500D01*
X101536500Y-112627833D01*
X101494167Y-112585500D01*
X101409500Y-112543167D01*
X102383167Y-113051167D02*
X101959834Y-113051167D01*
X101959834Y-112162167D01*
X103145167Y-113051167D02*
X102637167Y-113051167D01*
X102891167Y-113051167D02*
X102891167Y-112162167D01*
X102806501Y-112289167D01*
X102721834Y-112373833D01*
X102637167Y-112416167D01*
X103949501Y-112162167D02*
X103526168Y-112162167D01*
X103483834Y-112585500D01*
X103526168Y-112543167D01*
X103610834Y-112500833D01*
X103822501Y-112500833D01*
X103907168Y-112543167D01*
X103949501Y-112585500D01*
X103991834Y-112670167D01*
X103991834Y-112881833D01*
X103949501Y-112966500D01*
X103907168Y-113008833D01*
X103822501Y-113051167D01*
X103610834Y-113051167D01*
X103526168Y-113008833D01*
X103483834Y-112966500D01*
X100085071Y-133458857D02*
X101010357Y-133458857D01*
X101119214Y-133404429D01*
X101173643Y-133350000D01*
X101228071Y-133241143D01*
X101228071Y-133023429D01*
X101173643Y-132914571D01*
X101119214Y-132860143D01*
X101010357Y-132805714D01*
X100085071Y-132805714D01*
X100085071Y-131771571D02*
X100085071Y-131989285D01*
X100139500Y-132098142D01*
X100193929Y-132152571D01*
X100357214Y-132261428D01*
X100574929Y-132315857D01*
X101010357Y-132315857D01*
X101119214Y-132261428D01*
X101173643Y-132207000D01*
X101228071Y-132098142D01*
X101228071Y-131880428D01*
X101173643Y-131771571D01*
X101119214Y-131717142D01*
X101010357Y-131662714D01*
X100738214Y-131662714D01*
X100629357Y-131717142D01*
X100574929Y-131771571D01*
X100520500Y-131880428D01*
X100520500Y-132098142D01*
X100574929Y-132207000D01*
X100629357Y-132261428D01*
X100738214Y-132315857D01*
X101197833Y-135784167D02*
X101790500Y-135784167D01*
X101409500Y-136673167D01*
X102171500Y-136673167D02*
X102340833Y-136673167D01*
X102425500Y-136630833D01*
X102467833Y-136588500D01*
X102552500Y-136461500D01*
X102594833Y-136292167D01*
X102594833Y-135953500D01*
X102552500Y-135868833D01*
X102510167Y-135826500D01*
X102425500Y-135784167D01*
X102256167Y-135784167D01*
X102171500Y-135826500D01*
X102129167Y-135868833D01*
X102086833Y-135953500D01*
X102086833Y-136165167D01*
X102129167Y-136249833D01*
X102171500Y-136292167D01*
X102256167Y-136334500D01*
X102425500Y-136334500D01*
X102510167Y-136292167D01*
X102552500Y-136249833D01*
X102594833Y-136165167D01*
X103399167Y-136673167D02*
X102975834Y-136673167D01*
X102975834Y-135784167D01*
X104161167Y-136673167D02*
X103653167Y-136673167D01*
X103907167Y-136673167D02*
X103907167Y-135784167D01*
X103822501Y-135911167D01*
X103737834Y-135995833D01*
X103653167Y-136038167D01*
X104965501Y-135784167D02*
X104542168Y-135784167D01*
X104499834Y-136207500D01*
X104542168Y-136165167D01*
X104626834Y-136122833D01*
X104838501Y-136122833D01*
X104923168Y-136165167D01*
X104965501Y-136207500D01*
X105007834Y-136292167D01*
X105007834Y-136503833D01*
X104965501Y-136588500D01*
X104923168Y-136630833D01*
X104838501Y-136673167D01*
X104626834Y-136673167D01*
X104542168Y-136630833D01*
X104499834Y-136588500D01*
D10*
X155832381Y-130316905D02*
X156641905Y-130316905D01*
X156737143Y-130269286D01*
X156784762Y-130221667D01*
X156832381Y-130126429D01*
X156832381Y-129935952D01*
X156784762Y-129840714D01*
X156737143Y-129793095D01*
X156641905Y-129745476D01*
X155832381Y-129745476D01*
X155832381Y-129364524D02*
X155832381Y-128697857D01*
X156832381Y-129126429D01*
X152608571Y-136102619D02*
X152608571Y-135769285D01*
X153132381Y-135626428D02*
X153132381Y-136102619D01*
X152132381Y-136102619D01*
X152132381Y-135626428D01*
X153132381Y-135197857D02*
X152132381Y-135197857D01*
X152132381Y-134959762D01*
X152180000Y-134816904D01*
X152275238Y-134721666D01*
X152370476Y-134674047D01*
X152560952Y-134626428D01*
X152703810Y-134626428D01*
X152894286Y-134674047D01*
X152989524Y-134721666D01*
X153084762Y-134816904D01*
X153132381Y-134959762D01*
X153132381Y-135197857D01*
X152132381Y-134007381D02*
X152132381Y-133912142D01*
X152180000Y-133816904D01*
X152227619Y-133769285D01*
X152322857Y-133721666D01*
X152513333Y-133674047D01*
X152751429Y-133674047D01*
X152941905Y-133721666D01*
X153037143Y-133769285D01*
X153084762Y-133816904D01*
X153132381Y-133912142D01*
X153132381Y-134007381D01*
X153084762Y-134102619D01*
X153037143Y-134150238D01*
X152941905Y-134197857D01*
X152751429Y-134245476D01*
X152513333Y-134245476D01*
X152322857Y-134197857D01*
X152227619Y-134150238D01*
X152180000Y-134102619D01*
X152132381Y-134007381D01*
X152132381Y-132816904D02*
X152132381Y-133007381D01*
X152180000Y-133102619D01*
X152227619Y-133150238D01*
X152370476Y-133245476D01*
X152560952Y-133293095D01*
X152941905Y-133293095D01*
X153037143Y-133245476D01*
X153084762Y-133197857D01*
X153132381Y-133102619D01*
X153132381Y-132912142D01*
X153084762Y-132816904D01*
X153037143Y-132769285D01*
X152941905Y-132721666D01*
X152703810Y-132721666D01*
X152608571Y-132769285D01*
X152560952Y-132816904D01*
X152513333Y-132912142D01*
X152513333Y-133102619D01*
X152560952Y-133197857D01*
X152608571Y-133245476D01*
X152703810Y-133293095D01*
X152132381Y-132102619D02*
X152132381Y-132007380D01*
X152180000Y-131912142D01*
X152227619Y-131864523D01*
X152322857Y-131816904D01*
X152513333Y-131769285D01*
X152751429Y-131769285D01*
X152941905Y-131816904D01*
X153037143Y-131864523D01*
X153084762Y-131912142D01*
X153132381Y-132007380D01*
X153132381Y-132102619D01*
X153084762Y-132197857D01*
X153037143Y-132245476D01*
X152941905Y-132293095D01*
X152751429Y-132340714D01*
X152513333Y-132340714D01*
X152322857Y-132293095D01*
X152227619Y-132245476D01*
X152180000Y-132197857D01*
X152132381Y-132102619D01*
X153084762Y-131388333D02*
X153132381Y-131245476D01*
X153132381Y-131007380D01*
X153084762Y-130912142D01*
X153037143Y-130864523D01*
X152941905Y-130816904D01*
X152846667Y-130816904D01*
X152751429Y-130864523D01*
X152703810Y-130912142D01*
X152656190Y-131007380D01*
X152608571Y-131197857D01*
X152560952Y-131293095D01*
X152513333Y-131340714D01*
X152418095Y-131388333D01*
X152322857Y-131388333D01*
X152227619Y-131340714D01*
X152180000Y-131293095D01*
X152132381Y-131197857D01*
X152132381Y-130959761D01*
X152180000Y-130816904D01*
X153037143Y-129816904D02*
X153084762Y-129864523D01*
X153132381Y-130007380D01*
X153132381Y-130102618D01*
X153084762Y-130245476D01*
X152989524Y-130340714D01*
X152894286Y-130388333D01*
X152703810Y-130435952D01*
X152560952Y-130435952D01*
X152370476Y-130388333D01*
X152275238Y-130340714D01*
X152180000Y-130245476D01*
X152132381Y-130102618D01*
X152132381Y-130007380D01*
X152180000Y-129864523D01*
X152227619Y-129816904D01*
X152465714Y-128959761D02*
X153132381Y-128959761D01*
X152084762Y-129197857D02*
X152799048Y-129435952D01*
X152799048Y-128816904D01*
X152132381Y-128578809D02*
X153132381Y-128245476D01*
X152132381Y-127912142D01*
X152227619Y-127626428D02*
X152180000Y-127578809D01*
X152132381Y-127483571D01*
X152132381Y-127245475D01*
X152180000Y-127150237D01*
X152227619Y-127102618D01*
X152322857Y-127054999D01*
X152418095Y-127054999D01*
X152560952Y-127102618D01*
X153132381Y-127674047D01*
X153132381Y-127054999D01*
X152751429Y-126626428D02*
X152751429Y-125864523D01*
X152608571Y-125054999D02*
X152608571Y-125388333D01*
X153132381Y-125388333D02*
X152132381Y-125388333D01*
X152132381Y-124912142D01*
X153132381Y-124531190D02*
X152132381Y-124531190D01*
X152132381Y-124150237D01*
X152180000Y-124054999D01*
X152227619Y-124007380D01*
X152322857Y-123959761D01*
X152465714Y-123959761D01*
X152560952Y-124007380D01*
X152608571Y-124054999D01*
X152656190Y-124150237D01*
X152656190Y-124531190D01*
X153037143Y-122959761D02*
X153084762Y-123007380D01*
X153132381Y-123150237D01*
X153132381Y-123245475D01*
X153084762Y-123388333D01*
X152989524Y-123483571D01*
X152894286Y-123531190D01*
X152703810Y-123578809D01*
X152560952Y-123578809D01*
X152370476Y-123531190D01*
X152275238Y-123483571D01*
X152180000Y-123388333D01*
X152132381Y-123245475D01*
X152132381Y-123150237D01*
X152180000Y-123007380D01*
X152227619Y-122959761D01*
%LPC*%
D17*
X160020000Y-113792000D03*
X160020000Y-145288000D03*
X81788000Y-145288000D03*
D18*
X82149000Y-131064000D03*
X79649000Y-131064000D03*
X93238000Y-133096000D03*
X95738000Y-133096000D03*
X95738000Y-129413000D03*
X93238000Y-129413000D03*
X95992000Y-115570000D03*
X93492000Y-115570000D03*
D19*
X110998000Y-139466000D03*
X110998000Y-141966000D03*
D18*
X93492000Y-111760000D03*
X95992000Y-111760000D03*
D19*
X107950000Y-116947000D03*
X107950000Y-114447000D03*
X111760000Y-131465000D03*
X111760000Y-133965000D03*
D20*
X140208000Y-131064000D03*
D21*
X140208000Y-128564000D03*
D10*
G36*
X86845140Y-112124490D02*
X90446860Y-112124490D01*
X89446100Y-116424710D01*
X87845900Y-116424710D01*
X86845140Y-112124490D01*
X86845140Y-112124490D01*
G37*
G36*
X90446860Y-122825510D02*
X86845140Y-122825510D01*
X87845900Y-118525290D01*
X89446100Y-118525290D01*
X90446860Y-122825510D01*
X90446860Y-122825510D01*
G37*
G36*
X86089490Y-142389860D02*
X86089490Y-138788140D01*
X90389710Y-139788900D01*
X90389710Y-141389100D01*
X86089490Y-142389860D01*
X86089490Y-142389860D01*
G37*
G36*
X96790510Y-138788140D02*
X96790510Y-142389860D01*
X92490290Y-141389100D01*
X92490290Y-139788900D01*
X96790510Y-138788140D01*
X96790510Y-138788140D01*
G37*
G36*
X98027490Y-141500860D02*
X98027490Y-137899140D01*
X102327710Y-138899900D01*
X102327710Y-140500100D01*
X98027490Y-141500860D01*
X98027490Y-141500860D01*
G37*
G36*
X108728510Y-137899140D02*
X108728510Y-141500860D01*
X104428290Y-140500100D01*
X104428290Y-138899900D01*
X108728510Y-137899140D01*
X108728510Y-137899140D01*
G37*
D22*
X85217000Y-133985000D03*
X89535000Y-133985000D03*
X80137000Y-120523000D03*
X84455000Y-120523000D03*
D23*
X93980000Y-147320000D03*
X101600000Y-147320000D03*
X99060000Y-147320000D03*
X104140000Y-147320000D03*
D24*
X81026000Y-134409180D03*
X81978500Y-136608820D03*
X80073500Y-136608820D03*
D25*
X82376000Y-139446000D03*
X79676000Y-139446000D03*
X95838000Y-126746000D03*
X93138000Y-126746000D03*
X95838000Y-136779000D03*
X93138000Y-136779000D03*
X96092000Y-123190000D03*
X93392000Y-123190000D03*
X93392000Y-119380000D03*
X96092000Y-119380000D03*
D26*
X111760000Y-117047000D03*
X111760000Y-114347000D03*
D25*
X108919000Y-128016000D03*
X106219000Y-128016000D03*
D26*
X107950000Y-131365000D03*
X107950000Y-134065000D03*
D20*
X111418000Y-120389000D03*
X111418000Y-122689000D03*
D27*
X105918000Y-121539000D03*
D28*
X89068000Y-128127000D03*
X89068000Y-127627000D03*
X89068000Y-127127000D03*
X89068000Y-126627000D03*
X89068000Y-126127000D03*
X84668000Y-126127000D03*
X84668000Y-126627000D03*
X84668000Y-127127000D03*
X84668000Y-127627000D03*
X84668000Y-128127000D03*
D29*
X100117000Y-126533000D03*
X100767000Y-126533000D03*
X101417000Y-126533000D03*
X102067000Y-126533000D03*
X102067000Y-122133000D03*
X101417000Y-122133000D03*
X100767000Y-122133000D03*
X100117000Y-122133000D03*
D23*
X96520000Y-147320000D03*
X106680000Y-147320000D03*
X109220000Y-147320000D03*
X134620000Y-142240000D03*
D30*
X154940000Y-142240000D03*
D31*
X154940000Y-144780000D03*
X154940000Y-147320000D03*
D30*
X152400000Y-116840000D03*
D31*
X152400000Y-114300000D03*
X152400000Y-111760000D03*
D30*
X149860000Y-116840000D03*
D31*
X149860000Y-114300000D03*
X149860000Y-111760000D03*
D30*
X147320000Y-116840000D03*
D31*
X147320000Y-114300000D03*
X147320000Y-111760000D03*
D30*
X144780000Y-116840000D03*
D31*
X144780000Y-114300000D03*
X144780000Y-111760000D03*
D30*
X142240000Y-116840000D03*
D31*
X142240000Y-114300000D03*
X142240000Y-111760000D03*
D30*
X139700000Y-116840000D03*
D31*
X139700000Y-114300000D03*
X139700000Y-111760000D03*
D30*
X152400000Y-142240000D03*
D31*
X152400000Y-144780000D03*
X152400000Y-147320000D03*
D30*
X144780000Y-142240000D03*
D31*
X144780000Y-144780000D03*
X144780000Y-147320000D03*
D30*
X142240000Y-142240000D03*
D31*
X142240000Y-144780000D03*
X142240000Y-147320000D03*
D30*
X149860000Y-142240000D03*
D31*
X149860000Y-144780000D03*
X149860000Y-147320000D03*
D30*
X147320000Y-142240000D03*
D31*
X147320000Y-144780000D03*
X147320000Y-147320000D03*
D32*
X123444000Y-131064000D03*
X123444000Y-128524000D03*
X123444000Y-125984000D03*
X123444000Y-123444000D03*
X123444000Y-120904000D03*
X123444000Y-118364000D03*
X123444000Y-115824000D03*
X123444000Y-113284000D03*
X115824000Y-113284000D03*
X115824000Y-115824000D03*
X115824000Y-118364000D03*
X115824000Y-120904000D03*
X115824000Y-123444000D03*
X115824000Y-125984000D03*
X115824000Y-128524000D03*
X115824000Y-131064000D03*
X134620000Y-131064000D03*
X134620000Y-128524000D03*
X134620000Y-125984000D03*
X134620000Y-123444000D03*
X134620000Y-120904000D03*
X134620000Y-118364000D03*
X134620000Y-115824000D03*
X134620000Y-113284000D03*
X127000000Y-113284000D03*
X127000000Y-115824000D03*
X127000000Y-118364000D03*
X127000000Y-120904000D03*
X127000000Y-123444000D03*
X127000000Y-125984000D03*
X127000000Y-128524000D03*
X127000000Y-131064000D03*
D33*
X99441000Y-118110000D03*
X104775000Y-118110000D03*
X99441000Y-116840000D03*
X99441000Y-115570000D03*
X99441000Y-114300000D03*
X104775000Y-116840000D03*
X104775000Y-115570000D03*
X104775000Y-114300000D03*
X98933000Y-134493000D03*
X104267000Y-134493000D03*
X98933000Y-133223000D03*
X98933000Y-131953000D03*
X98933000Y-130683000D03*
X104267000Y-133223000D03*
X104267000Y-131953000D03*
X104267000Y-130683000D03*
D34*
X80772000Y-126619000D03*
X119126000Y-142240000D03*
X116840000Y-146050000D03*
X121666000Y-146050000D03*
X126746000Y-146050000D03*
X124206000Y-142240000D03*
X131826000Y-146050000D03*
X129286000Y-142240000D03*
D30*
X154940000Y-116840000D03*
D31*
X154940000Y-114300000D03*
X154940000Y-111760000D03*
D23*
X91440000Y-147320000D03*
D17*
X81788000Y-113792000D03*
D28*
X157880000Y-135255000D03*
X154930000Y-134955000D03*
X157880000Y-134655000D03*
X154930000Y-134355000D03*
X157880000Y-134055000D03*
X154930000Y-133755000D03*
X157880000Y-133455000D03*
X154930000Y-133155000D03*
X157880000Y-132855000D03*
X154930000Y-132555000D03*
X157880000Y-132255000D03*
X154930000Y-131955000D03*
X157880000Y-131655000D03*
X154930000Y-131355000D03*
X157880000Y-131055000D03*
X154930000Y-130755000D03*
X157880000Y-130455000D03*
X154930000Y-130155000D03*
X157880000Y-129855000D03*
X154930000Y-129555000D03*
X157880000Y-129255000D03*
X154930000Y-128955000D03*
X157880000Y-128655000D03*
X154930000Y-128355000D03*
X157880000Y-128055000D03*
X154930000Y-127755000D03*
X157880000Y-127455000D03*
X154930000Y-127155000D03*
X157880000Y-126855000D03*
X154930000Y-126555000D03*
X157880000Y-126255000D03*
X154930000Y-125955000D03*
X157880000Y-125655000D03*
X154930000Y-125355000D03*
X157880000Y-125055000D03*
X154930000Y-124755000D03*
X157880000Y-124455000D03*
X154930000Y-124155000D03*
X157880000Y-123855000D03*
D35*
X157730000Y-136080000D03*
X157730000Y-123030000D03*
M02*
