G04 (created by PCBNEW (25-Oct-2014 BZR 4029)-stable) date IDT 00:52:32 2015 ספט 30 ד'*
%MOIN*%
G04 Gerber Fmt 3.4, Leading zero omitted, Abs format*
%FSLAX34Y34*%
G01*
G70*
G90*
G04 APERTURE LIST*
%ADD10C,0.00590551*%
%ADD11R,0.0590551X0.0590551*%
%ADD12C,0.055*%
%ADD13C,0.027*%
%ADD14C,0.01*%
G04 APERTURE END LIST*
G54D10*
G54D11*
X43000Y-42000D03*
X43000Y-30000D03*
X43000Y-41000D03*
X43000Y-31000D03*
X32000Y-29000D03*
X41000Y-30000D03*
X40000Y-31000D03*
X43000Y-47000D03*
X33000Y-51000D03*
X39000Y-51000D03*
X31000Y-42000D03*
X39000Y-35000D03*
X37000Y-34000D03*
X36000Y-34000D03*
X36000Y-35000D03*
X43000Y-35000D03*
X31000Y-31000D03*
X43000Y-43000D03*
X43000Y-29000D03*
X43000Y-40000D03*
X43000Y-45000D03*
X43000Y-44000D03*
X34000Y-43000D03*
X43000Y-46000D03*
X43000Y-32000D03*
X43000Y-39000D03*
X43000Y-33000D03*
X43000Y-38000D03*
X43000Y-37000D03*
X43000Y-34000D03*
X43000Y-36000D03*
X39000Y-36000D03*
X36000Y-36000D03*
X37000Y-36000D03*
G54D12*
X38000Y-34750D03*
X38000Y-35750D03*
G54D11*
X43000Y-48000D03*
X37000Y-32000D03*
X31000Y-32000D03*
X32000Y-30000D03*
X31000Y-41000D03*
X31000Y-39000D03*
X31000Y-33000D03*
X31000Y-40000D03*
X33000Y-33000D03*
X31000Y-34000D03*
X31000Y-38000D03*
X31000Y-37000D03*
X31000Y-35000D03*
X31000Y-36000D03*
X37000Y-35000D03*
G54D13*
X35750Y-29500D03*
X40050Y-46500D03*
X39001Y-29539D03*
X39250Y-45019D03*
X40685Y-41081D03*
X39446Y-41177D03*
X38500Y-38564D03*
X38513Y-37440D03*
X38200Y-46600D03*
X34500Y-36651D03*
X34447Y-41093D03*
X38188Y-40060D03*
X34480Y-47066D03*
X32762Y-46952D03*
X31582Y-45779D03*
X35842Y-51028D03*
X36938Y-40060D03*
X35694Y-41093D03*
G54D10*
G36*
X43480Y-52230D02*
X43360Y-52230D01*
X43360Y-51014D01*
X43232Y-50705D01*
X42996Y-50468D01*
X42687Y-50340D01*
X42353Y-50340D01*
X42044Y-50468D01*
X41807Y-50704D01*
X41679Y-51013D01*
X41679Y-51347D01*
X41806Y-51656D01*
X42042Y-51893D01*
X42351Y-52021D01*
X42686Y-52021D01*
X42995Y-51894D01*
X43231Y-51657D01*
X43360Y-51349D01*
X43360Y-51014D01*
X43360Y-52230D01*
X41545Y-52230D01*
X41545Y-30245D01*
X41545Y-29655D01*
X41507Y-29563D01*
X41437Y-29492D01*
X41345Y-29454D01*
X41245Y-29454D01*
X40655Y-29454D01*
X40563Y-29492D01*
X40492Y-29562D01*
X40454Y-29654D01*
X40454Y-29754D01*
X40454Y-30344D01*
X40492Y-30436D01*
X40562Y-30507D01*
X40654Y-30545D01*
X40754Y-30545D01*
X41344Y-30545D01*
X41436Y-30507D01*
X41507Y-30437D01*
X41545Y-30345D01*
X41545Y-30245D01*
X41545Y-52230D01*
X40545Y-52230D01*
X40545Y-31245D01*
X40545Y-30655D01*
X40507Y-30563D01*
X40437Y-30492D01*
X40345Y-30454D01*
X40245Y-30454D01*
X39655Y-30454D01*
X39563Y-30492D01*
X39492Y-30562D01*
X39454Y-30654D01*
X39454Y-30754D01*
X39454Y-31344D01*
X39492Y-31436D01*
X39562Y-31507D01*
X39654Y-31545D01*
X39754Y-31545D01*
X40344Y-31545D01*
X40436Y-31507D01*
X40507Y-31437D01*
X40545Y-31345D01*
X40545Y-31245D01*
X40545Y-52230D01*
X39545Y-52230D01*
X39545Y-51245D01*
X39545Y-50754D01*
X39545Y-36245D01*
X39545Y-35655D01*
X39507Y-35563D01*
X39444Y-35499D01*
X39507Y-35437D01*
X39545Y-35345D01*
X39545Y-35245D01*
X39545Y-34655D01*
X39507Y-34563D01*
X39437Y-34492D01*
X39345Y-34454D01*
X39245Y-34454D01*
X38655Y-34454D01*
X38563Y-34492D01*
X38495Y-34560D01*
X38460Y-34477D01*
X38367Y-34452D01*
X38297Y-34523D01*
X38297Y-34382D01*
X38272Y-34289D01*
X38075Y-34220D01*
X37867Y-34231D01*
X37727Y-34289D01*
X37702Y-34382D01*
X38000Y-34679D01*
X38297Y-34382D01*
X38297Y-34523D01*
X38070Y-34750D01*
X38367Y-35047D01*
X38454Y-35024D01*
X38454Y-35344D01*
X38492Y-35436D01*
X38555Y-35500D01*
X38492Y-35562D01*
X38491Y-35565D01*
X38445Y-35453D01*
X38297Y-35305D01*
X38171Y-35252D01*
X38272Y-35210D01*
X38297Y-35117D01*
X38000Y-34820D01*
X37702Y-35117D01*
X37727Y-35210D01*
X37837Y-35249D01*
X37703Y-35304D01*
X37555Y-35452D01*
X37508Y-35565D01*
X37507Y-35563D01*
X37444Y-35499D01*
X37507Y-35437D01*
X37545Y-35345D01*
X37545Y-35245D01*
X37545Y-35024D01*
X37632Y-35047D01*
X37929Y-34750D01*
X37632Y-34452D01*
X37539Y-34477D01*
X37508Y-34565D01*
X37507Y-34563D01*
X37444Y-34499D01*
X37507Y-34437D01*
X37545Y-34345D01*
X37545Y-34245D01*
X37545Y-33655D01*
X37545Y-32245D01*
X37545Y-31655D01*
X37507Y-31563D01*
X37437Y-31492D01*
X37345Y-31454D01*
X37245Y-31454D01*
X36655Y-31454D01*
X36563Y-31492D01*
X36492Y-31562D01*
X36454Y-31654D01*
X36454Y-31754D01*
X36454Y-32344D01*
X36492Y-32436D01*
X36562Y-32507D01*
X36654Y-32545D01*
X36754Y-32545D01*
X37344Y-32545D01*
X37436Y-32507D01*
X37507Y-32437D01*
X37545Y-32345D01*
X37545Y-32245D01*
X37545Y-33655D01*
X37507Y-33563D01*
X37437Y-33492D01*
X37345Y-33454D01*
X37245Y-33454D01*
X36655Y-33454D01*
X36563Y-33492D01*
X36492Y-33562D01*
X36454Y-33654D01*
X36454Y-33754D01*
X36454Y-34344D01*
X36492Y-34436D01*
X36555Y-34500D01*
X36499Y-34555D01*
X36437Y-34492D01*
X36345Y-34454D01*
X36245Y-34454D01*
X35655Y-34454D01*
X35563Y-34492D01*
X35492Y-34562D01*
X35454Y-34654D01*
X35454Y-34754D01*
X35454Y-35344D01*
X35492Y-35436D01*
X35555Y-35500D01*
X35492Y-35562D01*
X35454Y-35654D01*
X35454Y-35754D01*
X35454Y-36344D01*
X35492Y-36436D01*
X35562Y-36507D01*
X35654Y-36545D01*
X35754Y-36545D01*
X36344Y-36545D01*
X36436Y-36507D01*
X36500Y-36444D01*
X36562Y-36507D01*
X36654Y-36545D01*
X36754Y-36545D01*
X37344Y-36545D01*
X37436Y-36507D01*
X37507Y-36437D01*
X37545Y-36345D01*
X37545Y-36245D01*
X37545Y-36024D01*
X37554Y-36047D01*
X37702Y-36194D01*
X37895Y-36274D01*
X38103Y-36275D01*
X38297Y-36195D01*
X38444Y-36047D01*
X38454Y-36024D01*
X38454Y-36344D01*
X38492Y-36436D01*
X38562Y-36507D01*
X38654Y-36545D01*
X38754Y-36545D01*
X39344Y-36545D01*
X39436Y-36507D01*
X39507Y-36437D01*
X39545Y-36345D01*
X39545Y-36245D01*
X39545Y-50754D01*
X39545Y-50654D01*
X39507Y-50562D01*
X39436Y-50492D01*
X39344Y-50454D01*
X39112Y-50454D01*
X39050Y-50517D01*
X39050Y-50950D01*
X39482Y-50950D01*
X39545Y-50887D01*
X39545Y-50754D01*
X39545Y-51245D01*
X39545Y-51112D01*
X39482Y-51050D01*
X39050Y-51050D01*
X39050Y-51482D01*
X39112Y-51545D01*
X39344Y-51545D01*
X39436Y-51507D01*
X39507Y-51437D01*
X39545Y-51345D01*
X39545Y-51245D01*
X39545Y-52230D01*
X38950Y-52230D01*
X38950Y-51482D01*
X38950Y-51050D01*
X38950Y-50950D01*
X38950Y-50517D01*
X38887Y-50454D01*
X38655Y-50454D01*
X38563Y-50492D01*
X38492Y-50562D01*
X38454Y-50654D01*
X38454Y-50754D01*
X38454Y-50887D01*
X38517Y-50950D01*
X38950Y-50950D01*
X38950Y-51050D01*
X38517Y-51050D01*
X38454Y-51112D01*
X38454Y-51245D01*
X38454Y-51345D01*
X38492Y-51437D01*
X38563Y-51507D01*
X38655Y-51545D01*
X38887Y-51545D01*
X38950Y-51482D01*
X38950Y-52230D01*
X34545Y-52230D01*
X34545Y-43245D01*
X34545Y-42655D01*
X34507Y-42563D01*
X34444Y-42499D01*
X34507Y-42437D01*
X34545Y-42345D01*
X34545Y-42245D01*
X34545Y-41655D01*
X34507Y-41563D01*
X34437Y-41492D01*
X34345Y-41454D01*
X34245Y-41454D01*
X33655Y-41454D01*
X33563Y-41492D01*
X33545Y-41510D01*
X33545Y-33245D01*
X33545Y-32655D01*
X33507Y-32563D01*
X33437Y-32492D01*
X33345Y-32454D01*
X33245Y-32454D01*
X32655Y-32454D01*
X32563Y-32492D01*
X32545Y-32510D01*
X32545Y-30245D01*
X32545Y-29655D01*
X32507Y-29563D01*
X32444Y-29499D01*
X32507Y-29437D01*
X32545Y-29345D01*
X32545Y-29245D01*
X32545Y-28655D01*
X32507Y-28563D01*
X32437Y-28492D01*
X32345Y-28454D01*
X32336Y-28454D01*
X32336Y-26605D01*
X32209Y-26296D01*
X31972Y-26059D01*
X31663Y-25931D01*
X31329Y-25931D01*
X31020Y-26058D01*
X30783Y-26294D01*
X30655Y-26603D01*
X30655Y-26938D01*
X30783Y-27247D01*
X31019Y-27483D01*
X31328Y-27612D01*
X31662Y-27612D01*
X31971Y-27484D01*
X32208Y-27248D01*
X32336Y-26939D01*
X32336Y-26605D01*
X32336Y-28454D01*
X32245Y-28454D01*
X31655Y-28454D01*
X31563Y-28492D01*
X31492Y-28562D01*
X31454Y-28654D01*
X31454Y-28754D01*
X31454Y-29344D01*
X31492Y-29436D01*
X31555Y-29500D01*
X31492Y-29562D01*
X31454Y-29654D01*
X31454Y-29754D01*
X31454Y-30344D01*
X31492Y-30436D01*
X31562Y-30507D01*
X31654Y-30545D01*
X31754Y-30545D01*
X32344Y-30545D01*
X32436Y-30507D01*
X32507Y-30437D01*
X32545Y-30345D01*
X32545Y-30245D01*
X32545Y-32510D01*
X32492Y-32562D01*
X32454Y-32654D01*
X32454Y-32754D01*
X32454Y-33344D01*
X32492Y-33436D01*
X32562Y-33507D01*
X32654Y-33545D01*
X32754Y-33545D01*
X33344Y-33545D01*
X33436Y-33507D01*
X33507Y-33437D01*
X33545Y-33345D01*
X33545Y-33245D01*
X33545Y-41510D01*
X33492Y-41562D01*
X33454Y-41654D01*
X33454Y-41754D01*
X33454Y-42344D01*
X33492Y-42436D01*
X33555Y-42500D01*
X33492Y-42562D01*
X33454Y-42654D01*
X33454Y-42754D01*
X33454Y-43344D01*
X33492Y-43436D01*
X33562Y-43507D01*
X33654Y-43545D01*
X33754Y-43545D01*
X34344Y-43545D01*
X34436Y-43507D01*
X34507Y-43437D01*
X34545Y-43345D01*
X34545Y-43245D01*
X34545Y-52230D01*
X33545Y-52230D01*
X33545Y-51245D01*
X33545Y-50655D01*
X33507Y-50563D01*
X33437Y-50492D01*
X33345Y-50454D01*
X33245Y-50454D01*
X32655Y-50454D01*
X32563Y-50492D01*
X32492Y-50562D01*
X32454Y-50654D01*
X32454Y-50754D01*
X32454Y-51344D01*
X32492Y-51436D01*
X32562Y-51507D01*
X32654Y-51545D01*
X32754Y-51545D01*
X33344Y-51545D01*
X33436Y-51507D01*
X33507Y-51437D01*
X33545Y-51345D01*
X33545Y-51245D01*
X33545Y-52230D01*
X32336Y-52230D01*
X32336Y-51014D01*
X32209Y-50705D01*
X31972Y-50468D01*
X31663Y-50340D01*
X31329Y-50340D01*
X31020Y-50468D01*
X30783Y-50704D01*
X30655Y-51013D01*
X30655Y-51347D01*
X30783Y-51656D01*
X31019Y-51893D01*
X31328Y-52021D01*
X31662Y-52021D01*
X31971Y-51894D01*
X32208Y-51657D01*
X32336Y-51349D01*
X32336Y-51014D01*
X32336Y-52230D01*
X30547Y-52230D01*
X30519Y-49225D01*
X30519Y-42463D01*
X30562Y-42507D01*
X30654Y-42545D01*
X30754Y-42545D01*
X31344Y-42545D01*
X31436Y-42507D01*
X31507Y-42437D01*
X31545Y-42345D01*
X31545Y-42245D01*
X31545Y-41655D01*
X31507Y-41563D01*
X31444Y-41499D01*
X31507Y-41437D01*
X31545Y-41345D01*
X31545Y-41245D01*
X31545Y-40655D01*
X31507Y-40563D01*
X31444Y-40499D01*
X31507Y-40437D01*
X31545Y-40345D01*
X31545Y-40245D01*
X31545Y-39655D01*
X31507Y-39563D01*
X31444Y-39499D01*
X31507Y-39437D01*
X31545Y-39345D01*
X31545Y-39245D01*
X31545Y-38655D01*
X31507Y-38563D01*
X31444Y-38499D01*
X31507Y-38437D01*
X31545Y-38345D01*
X31545Y-38245D01*
X31545Y-37655D01*
X31507Y-37563D01*
X31444Y-37499D01*
X31507Y-37437D01*
X31545Y-37345D01*
X31545Y-37245D01*
X31545Y-36655D01*
X31507Y-36563D01*
X31444Y-36499D01*
X31507Y-36437D01*
X31545Y-36345D01*
X31545Y-36245D01*
X31545Y-35655D01*
X31507Y-35563D01*
X31444Y-35499D01*
X31507Y-35437D01*
X31545Y-35345D01*
X31545Y-35245D01*
X31545Y-34655D01*
X31507Y-34563D01*
X31444Y-34499D01*
X31507Y-34437D01*
X31545Y-34345D01*
X31545Y-34245D01*
X31545Y-33655D01*
X31507Y-33563D01*
X31444Y-33499D01*
X31507Y-33437D01*
X31545Y-33345D01*
X31545Y-33245D01*
X31545Y-32655D01*
X31507Y-32563D01*
X31444Y-32499D01*
X31507Y-32437D01*
X31545Y-32345D01*
X31545Y-32245D01*
X31545Y-31655D01*
X31507Y-31563D01*
X31444Y-31499D01*
X31507Y-31437D01*
X31545Y-31345D01*
X31545Y-31245D01*
X31545Y-30655D01*
X31507Y-30563D01*
X31437Y-30492D01*
X31345Y-30454D01*
X31245Y-30454D01*
X30655Y-30454D01*
X30563Y-30492D01*
X30519Y-30536D01*
X30519Y-25769D01*
X43480Y-25769D01*
X43480Y-28536D01*
X43437Y-28492D01*
X43360Y-28461D01*
X43360Y-26605D01*
X43232Y-26296D01*
X42996Y-26059D01*
X42687Y-25931D01*
X42353Y-25931D01*
X42044Y-26058D01*
X41807Y-26294D01*
X41679Y-26603D01*
X41679Y-26938D01*
X41806Y-27247D01*
X42042Y-27483D01*
X42351Y-27612D01*
X42686Y-27612D01*
X42995Y-27484D01*
X43231Y-27248D01*
X43360Y-26939D01*
X43360Y-26605D01*
X43360Y-28461D01*
X43345Y-28454D01*
X43245Y-28454D01*
X42655Y-28454D01*
X42563Y-28492D01*
X42492Y-28562D01*
X42454Y-28654D01*
X42454Y-28754D01*
X42454Y-29344D01*
X42492Y-29436D01*
X42555Y-29500D01*
X42492Y-29562D01*
X42454Y-29654D01*
X42454Y-29754D01*
X42454Y-30344D01*
X42492Y-30436D01*
X42555Y-30500D01*
X42492Y-30562D01*
X42454Y-30654D01*
X42454Y-30754D01*
X42454Y-31344D01*
X42492Y-31436D01*
X42555Y-31500D01*
X42492Y-31562D01*
X42454Y-31654D01*
X42454Y-31754D01*
X42454Y-32344D01*
X42492Y-32436D01*
X42555Y-32500D01*
X42492Y-32562D01*
X42454Y-32654D01*
X42454Y-32754D01*
X42454Y-33344D01*
X42492Y-33436D01*
X42555Y-33500D01*
X42492Y-33562D01*
X42454Y-33654D01*
X42454Y-33754D01*
X42454Y-34344D01*
X42492Y-34436D01*
X42555Y-34500D01*
X42492Y-34562D01*
X42454Y-34654D01*
X42454Y-34754D01*
X42454Y-35344D01*
X42492Y-35436D01*
X42555Y-35500D01*
X42492Y-35562D01*
X42454Y-35654D01*
X42454Y-35754D01*
X42454Y-36344D01*
X42492Y-36436D01*
X42555Y-36500D01*
X42492Y-36562D01*
X42454Y-36654D01*
X42454Y-36754D01*
X42454Y-37344D01*
X42492Y-37436D01*
X42555Y-37500D01*
X42492Y-37562D01*
X42454Y-37654D01*
X42454Y-37754D01*
X42454Y-38344D01*
X42492Y-38436D01*
X42555Y-38500D01*
X42492Y-38562D01*
X42454Y-38654D01*
X42454Y-38754D01*
X42454Y-39344D01*
X42492Y-39436D01*
X42555Y-39500D01*
X42492Y-39562D01*
X42454Y-39654D01*
X42454Y-39754D01*
X42454Y-40344D01*
X42492Y-40436D01*
X42555Y-40500D01*
X42492Y-40562D01*
X42454Y-40654D01*
X42454Y-40754D01*
X42454Y-41344D01*
X42492Y-41436D01*
X42555Y-41500D01*
X42492Y-41562D01*
X42454Y-41654D01*
X42454Y-41754D01*
X42454Y-42344D01*
X42492Y-42436D01*
X42555Y-42500D01*
X42492Y-42562D01*
X42454Y-42654D01*
X42454Y-42754D01*
X42454Y-43344D01*
X42492Y-43436D01*
X42555Y-43500D01*
X42492Y-43563D01*
X42454Y-43655D01*
X42454Y-43887D01*
X42517Y-43950D01*
X42950Y-43950D01*
X42950Y-43942D01*
X43050Y-43942D01*
X43050Y-43950D01*
X43057Y-43950D01*
X43057Y-44050D01*
X43050Y-44050D01*
X43050Y-44057D01*
X42950Y-44057D01*
X42950Y-44050D01*
X42517Y-44050D01*
X42454Y-44112D01*
X42454Y-44344D01*
X42492Y-44436D01*
X42555Y-44500D01*
X42492Y-44562D01*
X42454Y-44654D01*
X42454Y-44754D01*
X42454Y-45344D01*
X42492Y-45436D01*
X42555Y-45500D01*
X42492Y-45562D01*
X42454Y-45654D01*
X42454Y-45754D01*
X42454Y-46344D01*
X42492Y-46436D01*
X42555Y-46500D01*
X42492Y-46562D01*
X42454Y-46654D01*
X42454Y-46754D01*
X42454Y-47344D01*
X42492Y-47436D01*
X42555Y-47500D01*
X42492Y-47562D01*
X42454Y-47654D01*
X42454Y-47754D01*
X42454Y-48344D01*
X42492Y-48436D01*
X42562Y-48507D01*
X42654Y-48545D01*
X42754Y-48545D01*
X43344Y-48545D01*
X43436Y-48507D01*
X43480Y-48463D01*
X43480Y-52230D01*
X43480Y-52230D01*
G37*
G54D14*
X43480Y-52230D02*
X43360Y-52230D01*
X43360Y-51014D01*
X43232Y-50705D01*
X42996Y-50468D01*
X42687Y-50340D01*
X42353Y-50340D01*
X42044Y-50468D01*
X41807Y-50704D01*
X41679Y-51013D01*
X41679Y-51347D01*
X41806Y-51656D01*
X42042Y-51893D01*
X42351Y-52021D01*
X42686Y-52021D01*
X42995Y-51894D01*
X43231Y-51657D01*
X43360Y-51349D01*
X43360Y-51014D01*
X43360Y-52230D01*
X41545Y-52230D01*
X41545Y-30245D01*
X41545Y-29655D01*
X41507Y-29563D01*
X41437Y-29492D01*
X41345Y-29454D01*
X41245Y-29454D01*
X40655Y-29454D01*
X40563Y-29492D01*
X40492Y-29562D01*
X40454Y-29654D01*
X40454Y-29754D01*
X40454Y-30344D01*
X40492Y-30436D01*
X40562Y-30507D01*
X40654Y-30545D01*
X40754Y-30545D01*
X41344Y-30545D01*
X41436Y-30507D01*
X41507Y-30437D01*
X41545Y-30345D01*
X41545Y-30245D01*
X41545Y-52230D01*
X40545Y-52230D01*
X40545Y-31245D01*
X40545Y-30655D01*
X40507Y-30563D01*
X40437Y-30492D01*
X40345Y-30454D01*
X40245Y-30454D01*
X39655Y-30454D01*
X39563Y-30492D01*
X39492Y-30562D01*
X39454Y-30654D01*
X39454Y-30754D01*
X39454Y-31344D01*
X39492Y-31436D01*
X39562Y-31507D01*
X39654Y-31545D01*
X39754Y-31545D01*
X40344Y-31545D01*
X40436Y-31507D01*
X40507Y-31437D01*
X40545Y-31345D01*
X40545Y-31245D01*
X40545Y-52230D01*
X39545Y-52230D01*
X39545Y-51245D01*
X39545Y-50754D01*
X39545Y-36245D01*
X39545Y-35655D01*
X39507Y-35563D01*
X39444Y-35499D01*
X39507Y-35437D01*
X39545Y-35345D01*
X39545Y-35245D01*
X39545Y-34655D01*
X39507Y-34563D01*
X39437Y-34492D01*
X39345Y-34454D01*
X39245Y-34454D01*
X38655Y-34454D01*
X38563Y-34492D01*
X38495Y-34560D01*
X38460Y-34477D01*
X38367Y-34452D01*
X38297Y-34523D01*
X38297Y-34382D01*
X38272Y-34289D01*
X38075Y-34220D01*
X37867Y-34231D01*
X37727Y-34289D01*
X37702Y-34382D01*
X38000Y-34679D01*
X38297Y-34382D01*
X38297Y-34523D01*
X38070Y-34750D01*
X38367Y-35047D01*
X38454Y-35024D01*
X38454Y-35344D01*
X38492Y-35436D01*
X38555Y-35500D01*
X38492Y-35562D01*
X38491Y-35565D01*
X38445Y-35453D01*
X38297Y-35305D01*
X38171Y-35252D01*
X38272Y-35210D01*
X38297Y-35117D01*
X38000Y-34820D01*
X37702Y-35117D01*
X37727Y-35210D01*
X37837Y-35249D01*
X37703Y-35304D01*
X37555Y-35452D01*
X37508Y-35565D01*
X37507Y-35563D01*
X37444Y-35499D01*
X37507Y-35437D01*
X37545Y-35345D01*
X37545Y-35245D01*
X37545Y-35024D01*
X37632Y-35047D01*
X37929Y-34750D01*
X37632Y-34452D01*
X37539Y-34477D01*
X37508Y-34565D01*
X37507Y-34563D01*
X37444Y-34499D01*
X37507Y-34437D01*
X37545Y-34345D01*
X37545Y-34245D01*
X37545Y-33655D01*
X37545Y-32245D01*
X37545Y-31655D01*
X37507Y-31563D01*
X37437Y-31492D01*
X37345Y-31454D01*
X37245Y-31454D01*
X36655Y-31454D01*
X36563Y-31492D01*
X36492Y-31562D01*
X36454Y-31654D01*
X36454Y-31754D01*
X36454Y-32344D01*
X36492Y-32436D01*
X36562Y-32507D01*
X36654Y-32545D01*
X36754Y-32545D01*
X37344Y-32545D01*
X37436Y-32507D01*
X37507Y-32437D01*
X37545Y-32345D01*
X37545Y-32245D01*
X37545Y-33655D01*
X37507Y-33563D01*
X37437Y-33492D01*
X37345Y-33454D01*
X37245Y-33454D01*
X36655Y-33454D01*
X36563Y-33492D01*
X36492Y-33562D01*
X36454Y-33654D01*
X36454Y-33754D01*
X36454Y-34344D01*
X36492Y-34436D01*
X36555Y-34500D01*
X36499Y-34555D01*
X36437Y-34492D01*
X36345Y-34454D01*
X36245Y-34454D01*
X35655Y-34454D01*
X35563Y-34492D01*
X35492Y-34562D01*
X35454Y-34654D01*
X35454Y-34754D01*
X35454Y-35344D01*
X35492Y-35436D01*
X35555Y-35500D01*
X35492Y-35562D01*
X35454Y-35654D01*
X35454Y-35754D01*
X35454Y-36344D01*
X35492Y-36436D01*
X35562Y-36507D01*
X35654Y-36545D01*
X35754Y-36545D01*
X36344Y-36545D01*
X36436Y-36507D01*
X36500Y-36444D01*
X36562Y-36507D01*
X36654Y-36545D01*
X36754Y-36545D01*
X37344Y-36545D01*
X37436Y-36507D01*
X37507Y-36437D01*
X37545Y-36345D01*
X37545Y-36245D01*
X37545Y-36024D01*
X37554Y-36047D01*
X37702Y-36194D01*
X37895Y-36274D01*
X38103Y-36275D01*
X38297Y-36195D01*
X38444Y-36047D01*
X38454Y-36024D01*
X38454Y-36344D01*
X38492Y-36436D01*
X38562Y-36507D01*
X38654Y-36545D01*
X38754Y-36545D01*
X39344Y-36545D01*
X39436Y-36507D01*
X39507Y-36437D01*
X39545Y-36345D01*
X39545Y-36245D01*
X39545Y-50754D01*
X39545Y-50654D01*
X39507Y-50562D01*
X39436Y-50492D01*
X39344Y-50454D01*
X39112Y-50454D01*
X39050Y-50517D01*
X39050Y-50950D01*
X39482Y-50950D01*
X39545Y-50887D01*
X39545Y-50754D01*
X39545Y-51245D01*
X39545Y-51112D01*
X39482Y-51050D01*
X39050Y-51050D01*
X39050Y-51482D01*
X39112Y-51545D01*
X39344Y-51545D01*
X39436Y-51507D01*
X39507Y-51437D01*
X39545Y-51345D01*
X39545Y-51245D01*
X39545Y-52230D01*
X38950Y-52230D01*
X38950Y-51482D01*
X38950Y-51050D01*
X38950Y-50950D01*
X38950Y-50517D01*
X38887Y-50454D01*
X38655Y-50454D01*
X38563Y-50492D01*
X38492Y-50562D01*
X38454Y-50654D01*
X38454Y-50754D01*
X38454Y-50887D01*
X38517Y-50950D01*
X38950Y-50950D01*
X38950Y-51050D01*
X38517Y-51050D01*
X38454Y-51112D01*
X38454Y-51245D01*
X38454Y-51345D01*
X38492Y-51437D01*
X38563Y-51507D01*
X38655Y-51545D01*
X38887Y-51545D01*
X38950Y-51482D01*
X38950Y-52230D01*
X34545Y-52230D01*
X34545Y-43245D01*
X34545Y-42655D01*
X34507Y-42563D01*
X34444Y-42499D01*
X34507Y-42437D01*
X34545Y-42345D01*
X34545Y-42245D01*
X34545Y-41655D01*
X34507Y-41563D01*
X34437Y-41492D01*
X34345Y-41454D01*
X34245Y-41454D01*
X33655Y-41454D01*
X33563Y-41492D01*
X33545Y-41510D01*
X33545Y-33245D01*
X33545Y-32655D01*
X33507Y-32563D01*
X33437Y-32492D01*
X33345Y-32454D01*
X33245Y-32454D01*
X32655Y-32454D01*
X32563Y-32492D01*
X32545Y-32510D01*
X32545Y-30245D01*
X32545Y-29655D01*
X32507Y-29563D01*
X32444Y-29499D01*
X32507Y-29437D01*
X32545Y-29345D01*
X32545Y-29245D01*
X32545Y-28655D01*
X32507Y-28563D01*
X32437Y-28492D01*
X32345Y-28454D01*
X32336Y-28454D01*
X32336Y-26605D01*
X32209Y-26296D01*
X31972Y-26059D01*
X31663Y-25931D01*
X31329Y-25931D01*
X31020Y-26058D01*
X30783Y-26294D01*
X30655Y-26603D01*
X30655Y-26938D01*
X30783Y-27247D01*
X31019Y-27483D01*
X31328Y-27612D01*
X31662Y-27612D01*
X31971Y-27484D01*
X32208Y-27248D01*
X32336Y-26939D01*
X32336Y-26605D01*
X32336Y-28454D01*
X32245Y-28454D01*
X31655Y-28454D01*
X31563Y-28492D01*
X31492Y-28562D01*
X31454Y-28654D01*
X31454Y-28754D01*
X31454Y-29344D01*
X31492Y-29436D01*
X31555Y-29500D01*
X31492Y-29562D01*
X31454Y-29654D01*
X31454Y-29754D01*
X31454Y-30344D01*
X31492Y-30436D01*
X31562Y-30507D01*
X31654Y-30545D01*
X31754Y-30545D01*
X32344Y-30545D01*
X32436Y-30507D01*
X32507Y-30437D01*
X32545Y-30345D01*
X32545Y-30245D01*
X32545Y-32510D01*
X32492Y-32562D01*
X32454Y-32654D01*
X32454Y-32754D01*
X32454Y-33344D01*
X32492Y-33436D01*
X32562Y-33507D01*
X32654Y-33545D01*
X32754Y-33545D01*
X33344Y-33545D01*
X33436Y-33507D01*
X33507Y-33437D01*
X33545Y-33345D01*
X33545Y-33245D01*
X33545Y-41510D01*
X33492Y-41562D01*
X33454Y-41654D01*
X33454Y-41754D01*
X33454Y-42344D01*
X33492Y-42436D01*
X33555Y-42500D01*
X33492Y-42562D01*
X33454Y-42654D01*
X33454Y-42754D01*
X33454Y-43344D01*
X33492Y-43436D01*
X33562Y-43507D01*
X33654Y-43545D01*
X33754Y-43545D01*
X34344Y-43545D01*
X34436Y-43507D01*
X34507Y-43437D01*
X34545Y-43345D01*
X34545Y-43245D01*
X34545Y-52230D01*
X33545Y-52230D01*
X33545Y-51245D01*
X33545Y-50655D01*
X33507Y-50563D01*
X33437Y-50492D01*
X33345Y-50454D01*
X33245Y-50454D01*
X32655Y-50454D01*
X32563Y-50492D01*
X32492Y-50562D01*
X32454Y-50654D01*
X32454Y-50754D01*
X32454Y-51344D01*
X32492Y-51436D01*
X32562Y-51507D01*
X32654Y-51545D01*
X32754Y-51545D01*
X33344Y-51545D01*
X33436Y-51507D01*
X33507Y-51437D01*
X33545Y-51345D01*
X33545Y-51245D01*
X33545Y-52230D01*
X32336Y-52230D01*
X32336Y-51014D01*
X32209Y-50705D01*
X31972Y-50468D01*
X31663Y-50340D01*
X31329Y-50340D01*
X31020Y-50468D01*
X30783Y-50704D01*
X30655Y-51013D01*
X30655Y-51347D01*
X30783Y-51656D01*
X31019Y-51893D01*
X31328Y-52021D01*
X31662Y-52021D01*
X31971Y-51894D01*
X32208Y-51657D01*
X32336Y-51349D01*
X32336Y-51014D01*
X32336Y-52230D01*
X30547Y-52230D01*
X30519Y-49225D01*
X30519Y-42463D01*
X30562Y-42507D01*
X30654Y-42545D01*
X30754Y-42545D01*
X31344Y-42545D01*
X31436Y-42507D01*
X31507Y-42437D01*
X31545Y-42345D01*
X31545Y-42245D01*
X31545Y-41655D01*
X31507Y-41563D01*
X31444Y-41499D01*
X31507Y-41437D01*
X31545Y-41345D01*
X31545Y-41245D01*
X31545Y-40655D01*
X31507Y-40563D01*
X31444Y-40499D01*
X31507Y-40437D01*
X31545Y-40345D01*
X31545Y-40245D01*
X31545Y-39655D01*
X31507Y-39563D01*
X31444Y-39499D01*
X31507Y-39437D01*
X31545Y-39345D01*
X31545Y-39245D01*
X31545Y-38655D01*
X31507Y-38563D01*
X31444Y-38499D01*
X31507Y-38437D01*
X31545Y-38345D01*
X31545Y-38245D01*
X31545Y-37655D01*
X31507Y-37563D01*
X31444Y-37499D01*
X31507Y-37437D01*
X31545Y-37345D01*
X31545Y-37245D01*
X31545Y-36655D01*
X31507Y-36563D01*
X31444Y-36499D01*
X31507Y-36437D01*
X31545Y-36345D01*
X31545Y-36245D01*
X31545Y-35655D01*
X31507Y-35563D01*
X31444Y-35499D01*
X31507Y-35437D01*
X31545Y-35345D01*
X31545Y-35245D01*
X31545Y-34655D01*
X31507Y-34563D01*
X31444Y-34499D01*
X31507Y-34437D01*
X31545Y-34345D01*
X31545Y-34245D01*
X31545Y-33655D01*
X31507Y-33563D01*
X31444Y-33499D01*
X31507Y-33437D01*
X31545Y-33345D01*
X31545Y-33245D01*
X31545Y-32655D01*
X31507Y-32563D01*
X31444Y-32499D01*
X31507Y-32437D01*
X31545Y-32345D01*
X31545Y-32245D01*
X31545Y-31655D01*
X31507Y-31563D01*
X31444Y-31499D01*
X31507Y-31437D01*
X31545Y-31345D01*
X31545Y-31245D01*
X31545Y-30655D01*
X31507Y-30563D01*
X31437Y-30492D01*
X31345Y-30454D01*
X31245Y-30454D01*
X30655Y-30454D01*
X30563Y-30492D01*
X30519Y-30536D01*
X30519Y-25769D01*
X43480Y-25769D01*
X43480Y-28536D01*
X43437Y-28492D01*
X43360Y-28461D01*
X43360Y-26605D01*
X43232Y-26296D01*
X42996Y-26059D01*
X42687Y-25931D01*
X42353Y-25931D01*
X42044Y-26058D01*
X41807Y-26294D01*
X41679Y-26603D01*
X41679Y-26938D01*
X41806Y-27247D01*
X42042Y-27483D01*
X42351Y-27612D01*
X42686Y-27612D01*
X42995Y-27484D01*
X43231Y-27248D01*
X43360Y-26939D01*
X43360Y-26605D01*
X43360Y-28461D01*
X43345Y-28454D01*
X43245Y-28454D01*
X42655Y-28454D01*
X42563Y-28492D01*
X42492Y-28562D01*
X42454Y-28654D01*
X42454Y-28754D01*
X42454Y-29344D01*
X42492Y-29436D01*
X42555Y-29500D01*
X42492Y-29562D01*
X42454Y-29654D01*
X42454Y-29754D01*
X42454Y-30344D01*
X42492Y-30436D01*
X42555Y-30500D01*
X42492Y-30562D01*
X42454Y-30654D01*
X42454Y-30754D01*
X42454Y-31344D01*
X42492Y-31436D01*
X42555Y-31500D01*
X42492Y-31562D01*
X42454Y-31654D01*
X42454Y-31754D01*
X42454Y-32344D01*
X42492Y-32436D01*
X42555Y-32500D01*
X42492Y-32562D01*
X42454Y-32654D01*
X42454Y-32754D01*
X42454Y-33344D01*
X42492Y-33436D01*
X42555Y-33500D01*
X42492Y-33562D01*
X42454Y-33654D01*
X42454Y-33754D01*
X42454Y-34344D01*
X42492Y-34436D01*
X42555Y-34500D01*
X42492Y-34562D01*
X42454Y-34654D01*
X42454Y-34754D01*
X42454Y-35344D01*
X42492Y-35436D01*
X42555Y-35500D01*
X42492Y-35562D01*
X42454Y-35654D01*
X42454Y-35754D01*
X42454Y-36344D01*
X42492Y-36436D01*
X42555Y-36500D01*
X42492Y-36562D01*
X42454Y-36654D01*
X42454Y-36754D01*
X42454Y-37344D01*
X42492Y-37436D01*
X42555Y-37500D01*
X42492Y-37562D01*
X42454Y-37654D01*
X42454Y-37754D01*
X42454Y-38344D01*
X42492Y-38436D01*
X42555Y-38500D01*
X42492Y-38562D01*
X42454Y-38654D01*
X42454Y-38754D01*
X42454Y-39344D01*
X42492Y-39436D01*
X42555Y-39500D01*
X42492Y-39562D01*
X42454Y-39654D01*
X42454Y-39754D01*
X42454Y-40344D01*
X42492Y-40436D01*
X42555Y-40500D01*
X42492Y-40562D01*
X42454Y-40654D01*
X42454Y-40754D01*
X42454Y-41344D01*
X42492Y-41436D01*
X42555Y-41500D01*
X42492Y-41562D01*
X42454Y-41654D01*
X42454Y-41754D01*
X42454Y-42344D01*
X42492Y-42436D01*
X42555Y-42500D01*
X42492Y-42562D01*
X42454Y-42654D01*
X42454Y-42754D01*
X42454Y-43344D01*
X42492Y-43436D01*
X42555Y-43500D01*
X42492Y-43563D01*
X42454Y-43655D01*
X42454Y-43887D01*
X42517Y-43950D01*
X42950Y-43950D01*
X42950Y-43942D01*
X43050Y-43942D01*
X43050Y-43950D01*
X43057Y-43950D01*
X43057Y-44050D01*
X43050Y-44050D01*
X43050Y-44057D01*
X42950Y-44057D01*
X42950Y-44050D01*
X42517Y-44050D01*
X42454Y-44112D01*
X42454Y-44344D01*
X42492Y-44436D01*
X42555Y-44500D01*
X42492Y-44562D01*
X42454Y-44654D01*
X42454Y-44754D01*
X42454Y-45344D01*
X42492Y-45436D01*
X42555Y-45500D01*
X42492Y-45562D01*
X42454Y-45654D01*
X42454Y-45754D01*
X42454Y-46344D01*
X42492Y-46436D01*
X42555Y-46500D01*
X42492Y-46562D01*
X42454Y-46654D01*
X42454Y-46754D01*
X42454Y-47344D01*
X42492Y-47436D01*
X42555Y-47500D01*
X42492Y-47562D01*
X42454Y-47654D01*
X42454Y-47754D01*
X42454Y-48344D01*
X42492Y-48436D01*
X42562Y-48507D01*
X42654Y-48545D01*
X42754Y-48545D01*
X43344Y-48545D01*
X43436Y-48507D01*
X43480Y-48463D01*
X43480Y-52230D01*
M02*
