G04 #@! TF.FileFunction,Legend,Bot*
%FSLAX46Y46*%
G04 Gerber Fmt 4.6, Leading zero omitted, Abs format (unit mm)*
G04 Created by KiCad (PCBNEW 4.0.2-4+6225~38~ubuntu15.10.1-stable) date IDT 22:32:43 2016 אפר 10 א'*
%MOMM*%
G01*
G04 APERTURE LIST*
%ADD10C,0.150000*%
%ADD11C,0.250000*%
%ADD12R,1.300000X1.300000*%
%ADD13C,1.300000*%
%ADD14R,2.235200X2.235200*%
%ADD15C,1.501140*%
G04 APERTURE END LIST*
D10*
D11*
X95702381Y-96974047D02*
X94702381Y-96974047D01*
X95702381Y-97402619D02*
X95178571Y-97402619D01*
X95083333Y-97355000D01*
X95035714Y-97259762D01*
X95035714Y-97116904D01*
X95083333Y-97021666D01*
X95130952Y-96974047D01*
X95035714Y-97735952D02*
X95035714Y-98116904D01*
X94702381Y-97878809D02*
X95559524Y-97878809D01*
X95654762Y-97926428D01*
X95702381Y-98021666D01*
X95702381Y-98116904D01*
X95035714Y-98307381D02*
X95035714Y-98688333D01*
X94702381Y-98450238D02*
X95559524Y-98450238D01*
X95654762Y-98497857D01*
X95702381Y-98593095D01*
X95702381Y-98688333D01*
X95035714Y-99021667D02*
X96035714Y-99021667D01*
X95083333Y-99021667D02*
X95035714Y-99116905D01*
X95035714Y-99307382D01*
X95083333Y-99402620D01*
X95130952Y-99450239D01*
X95226190Y-99497858D01*
X95511905Y-99497858D01*
X95607143Y-99450239D01*
X95654762Y-99402620D01*
X95702381Y-99307382D01*
X95702381Y-99116905D01*
X95654762Y-99021667D01*
X95654762Y-99878810D02*
X95702381Y-99974048D01*
X95702381Y-100164524D01*
X95654762Y-100259763D01*
X95559524Y-100307382D01*
X95511905Y-100307382D01*
X95416667Y-100259763D01*
X95369048Y-100164524D01*
X95369048Y-100021667D01*
X95321429Y-99926429D01*
X95226190Y-99878810D01*
X95178571Y-99878810D01*
X95083333Y-99926429D01*
X95035714Y-100021667D01*
X95035714Y-100164524D01*
X95083333Y-100259763D01*
X95607143Y-100735953D02*
X95654762Y-100783572D01*
X95702381Y-100735953D01*
X95654762Y-100688334D01*
X95607143Y-100735953D01*
X95702381Y-100735953D01*
X95083333Y-100735953D02*
X95130952Y-100783572D01*
X95178571Y-100735953D01*
X95130952Y-100688334D01*
X95083333Y-100735953D01*
X95178571Y-100735953D01*
X94654762Y-101926429D02*
X95940476Y-101069286D01*
X94654762Y-102974048D02*
X95940476Y-102116905D01*
X95702381Y-103307381D02*
X94702381Y-103307381D01*
X95702381Y-103735953D02*
X95178571Y-103735953D01*
X95083333Y-103688334D01*
X95035714Y-103593096D01*
X95035714Y-103450238D01*
X95083333Y-103355000D01*
X95130952Y-103307381D01*
X95702381Y-104640715D02*
X95178571Y-104640715D01*
X95083333Y-104593096D01*
X95035714Y-104497858D01*
X95035714Y-104307381D01*
X95083333Y-104212143D01*
X95654762Y-104640715D02*
X95702381Y-104545477D01*
X95702381Y-104307381D01*
X95654762Y-104212143D01*
X95559524Y-104164524D01*
X95464286Y-104164524D01*
X95369048Y-104212143D01*
X95321429Y-104307381D01*
X95321429Y-104545477D01*
X95273810Y-104640715D01*
X95654762Y-105545477D02*
X95702381Y-105450239D01*
X95702381Y-105259762D01*
X95654762Y-105164524D01*
X95607143Y-105116905D01*
X95511905Y-105069286D01*
X95226190Y-105069286D01*
X95130952Y-105116905D01*
X95083333Y-105164524D01*
X95035714Y-105259762D01*
X95035714Y-105450239D01*
X95083333Y-105545477D01*
X95702381Y-105974048D02*
X94702381Y-105974048D01*
X95321429Y-106069286D02*
X95702381Y-106355001D01*
X95035714Y-106355001D02*
X95416667Y-105974048D01*
X95702381Y-107212144D02*
X95178571Y-107212144D01*
X95083333Y-107164525D01*
X95035714Y-107069287D01*
X95035714Y-106878810D01*
X95083333Y-106783572D01*
X95654762Y-107212144D02*
X95702381Y-107116906D01*
X95702381Y-106878810D01*
X95654762Y-106783572D01*
X95559524Y-106735953D01*
X95464286Y-106735953D01*
X95369048Y-106783572D01*
X95321429Y-106878810D01*
X95321429Y-107116906D01*
X95273810Y-107212144D01*
X95702381Y-108116906D02*
X94702381Y-108116906D01*
X95654762Y-108116906D02*
X95702381Y-108021668D01*
X95702381Y-107831191D01*
X95654762Y-107735953D01*
X95607143Y-107688334D01*
X95511905Y-107640715D01*
X95226190Y-107640715D01*
X95130952Y-107688334D01*
X95083333Y-107735953D01*
X95035714Y-107831191D01*
X95035714Y-108021668D01*
X95083333Y-108116906D01*
X95702381Y-109021668D02*
X95178571Y-109021668D01*
X95083333Y-108974049D01*
X95035714Y-108878811D01*
X95035714Y-108688334D01*
X95083333Y-108593096D01*
X95654762Y-109021668D02*
X95702381Y-108926430D01*
X95702381Y-108688334D01*
X95654762Y-108593096D01*
X95559524Y-108545477D01*
X95464286Y-108545477D01*
X95369048Y-108593096D01*
X95321429Y-108688334D01*
X95321429Y-108926430D01*
X95273810Y-109021668D01*
X95035714Y-109402620D02*
X95702381Y-109640715D01*
X95035714Y-109878811D02*
X95702381Y-109640715D01*
X95940476Y-109545477D01*
X95988095Y-109497858D01*
X96035714Y-109402620D01*
X95607143Y-110259763D02*
X95654762Y-110307382D01*
X95702381Y-110259763D01*
X95654762Y-110212144D01*
X95607143Y-110259763D01*
X95702381Y-110259763D01*
X95702381Y-110735953D02*
X95035714Y-110735953D01*
X94702381Y-110735953D02*
X94750000Y-110688334D01*
X94797619Y-110735953D01*
X94750000Y-110783572D01*
X94702381Y-110735953D01*
X94797619Y-110735953D01*
X95702381Y-111355000D02*
X95654762Y-111259762D01*
X95607143Y-111212143D01*
X95511905Y-111164524D01*
X95226190Y-111164524D01*
X95130952Y-111212143D01*
X95083333Y-111259762D01*
X95035714Y-111355000D01*
X95035714Y-111497858D01*
X95083333Y-111593096D01*
X95130952Y-111640715D01*
X95226190Y-111688334D01*
X95511905Y-111688334D01*
X95607143Y-111640715D01*
X95654762Y-111593096D01*
X95702381Y-111497858D01*
X95702381Y-111355000D01*
X94654762Y-112831191D02*
X95940476Y-111974048D01*
X95035714Y-113164524D02*
X96035714Y-113164524D01*
X95083333Y-113164524D02*
X95035714Y-113259762D01*
X95035714Y-113450239D01*
X95083333Y-113545477D01*
X95130952Y-113593096D01*
X95226190Y-113640715D01*
X95511905Y-113640715D01*
X95607143Y-113593096D01*
X95654762Y-113545477D01*
X95702381Y-113450239D01*
X95702381Y-113259762D01*
X95654762Y-113164524D01*
X95702381Y-114069286D02*
X95035714Y-114069286D01*
X95226190Y-114069286D02*
X95130952Y-114116905D01*
X95083333Y-114164524D01*
X95035714Y-114259762D01*
X95035714Y-114355001D01*
X95702381Y-114831191D02*
X95654762Y-114735953D01*
X95607143Y-114688334D01*
X95511905Y-114640715D01*
X95226190Y-114640715D01*
X95130952Y-114688334D01*
X95083333Y-114735953D01*
X95035714Y-114831191D01*
X95035714Y-114974049D01*
X95083333Y-115069287D01*
X95130952Y-115116906D01*
X95226190Y-115164525D01*
X95511905Y-115164525D01*
X95607143Y-115116906D01*
X95654762Y-115069287D01*
X95702381Y-114974049D01*
X95702381Y-114831191D01*
X95035714Y-115593096D02*
X95892857Y-115593096D01*
X95988095Y-115545477D01*
X96035714Y-115450239D01*
X96035714Y-115402620D01*
X94702381Y-115593096D02*
X94750000Y-115545477D01*
X94797619Y-115593096D01*
X94750000Y-115640715D01*
X94702381Y-115593096D01*
X94797619Y-115593096D01*
X95654762Y-116450239D02*
X95702381Y-116355001D01*
X95702381Y-116164524D01*
X95654762Y-116069286D01*
X95559524Y-116021667D01*
X95178571Y-116021667D01*
X95083333Y-116069286D01*
X95035714Y-116164524D01*
X95035714Y-116355001D01*
X95083333Y-116450239D01*
X95178571Y-116497858D01*
X95273810Y-116497858D01*
X95369048Y-116021667D01*
X95654762Y-117355001D02*
X95702381Y-117259763D01*
X95702381Y-117069286D01*
X95654762Y-116974048D01*
X95607143Y-116926429D01*
X95511905Y-116878810D01*
X95226190Y-116878810D01*
X95130952Y-116926429D01*
X95083333Y-116974048D01*
X95035714Y-117069286D01*
X95035714Y-117259763D01*
X95083333Y-117355001D01*
X95035714Y-117640715D02*
X95035714Y-118021667D01*
X94702381Y-117783572D02*
X95559524Y-117783572D01*
X95654762Y-117831191D01*
X95702381Y-117926429D01*
X95702381Y-118021667D01*
X94654762Y-119069287D02*
X95940476Y-118212144D01*
X94702381Y-119307382D02*
X94702381Y-119974049D01*
X95702381Y-119545477D01*
X95035714Y-120783573D02*
X95702381Y-120783573D01*
X94654762Y-120545477D02*
X95369048Y-120307382D01*
X95369048Y-120926430D01*
X95035714Y-121735954D02*
X95702381Y-121735954D01*
X94654762Y-121497858D02*
X95369048Y-121259763D01*
X95369048Y-121878811D01*
X94702381Y-122164525D02*
X94702381Y-122783573D01*
X95083333Y-122450239D01*
X95083333Y-122593097D01*
X95130952Y-122688335D01*
X95178571Y-122735954D01*
X95273810Y-122783573D01*
X95511905Y-122783573D01*
X95607143Y-122735954D01*
X95654762Y-122688335D01*
X95702381Y-122593097D01*
X95702381Y-122307382D01*
X95654762Y-122212144D01*
X95607143Y-122164525D01*
X92638571Y-98069284D02*
X92638571Y-98402618D01*
X93162381Y-98545475D02*
X93162381Y-98069284D01*
X92162381Y-98069284D01*
X92162381Y-98545475D01*
X92781429Y-98974046D02*
X92781429Y-99735951D01*
X93162381Y-100212141D02*
X92162381Y-100212141D01*
X92495714Y-100688331D02*
X93162381Y-100688331D01*
X92590952Y-100688331D02*
X92543333Y-100735950D01*
X92495714Y-100831188D01*
X92495714Y-100974046D01*
X92543333Y-101069284D01*
X92638571Y-101116903D01*
X93162381Y-101116903D01*
X93162381Y-101593093D02*
X92162381Y-101593093D01*
X92781429Y-101688331D02*
X93162381Y-101974046D01*
X92495714Y-101974046D02*
X92876667Y-101593093D01*
X93162381Y-103164522D02*
X92162381Y-103164522D01*
X92162381Y-103402617D01*
X92210000Y-103545475D01*
X92305238Y-103640713D01*
X92400476Y-103688332D01*
X92590952Y-103735951D01*
X92733810Y-103735951D01*
X92924286Y-103688332D01*
X93019524Y-103640713D01*
X93114762Y-103545475D01*
X93162381Y-103402617D01*
X93162381Y-103164522D01*
X93162381Y-104164522D02*
X92495714Y-104164522D01*
X92162381Y-104164522D02*
X92210000Y-104116903D01*
X92257619Y-104164522D01*
X92210000Y-104212141D01*
X92162381Y-104164522D01*
X92257619Y-104164522D01*
X93114762Y-104593093D02*
X93162381Y-104688331D01*
X93162381Y-104878807D01*
X93114762Y-104974046D01*
X93019524Y-105021665D01*
X92971905Y-105021665D01*
X92876667Y-104974046D01*
X92829048Y-104878807D01*
X92829048Y-104735950D01*
X92781429Y-104640712D01*
X92686190Y-104593093D01*
X92638571Y-104593093D01*
X92543333Y-104640712D01*
X92495714Y-104735950D01*
X92495714Y-104878807D01*
X92543333Y-104974046D01*
X92495714Y-105450236D02*
X93495714Y-105450236D01*
X92543333Y-105450236D02*
X92495714Y-105545474D01*
X92495714Y-105735951D01*
X92543333Y-105831189D01*
X92590952Y-105878808D01*
X92686190Y-105926427D01*
X92971905Y-105926427D01*
X93067143Y-105878808D01*
X93114762Y-105831189D01*
X93162381Y-105735951D01*
X93162381Y-105545474D01*
X93114762Y-105450236D01*
X93162381Y-106497855D02*
X93114762Y-106402617D01*
X93019524Y-106354998D01*
X92162381Y-106354998D01*
X93162381Y-107307380D02*
X92638571Y-107307380D01*
X92543333Y-107259761D01*
X92495714Y-107164523D01*
X92495714Y-106974046D01*
X92543333Y-106878808D01*
X93114762Y-107307380D02*
X93162381Y-107212142D01*
X93162381Y-106974046D01*
X93114762Y-106878808D01*
X93019524Y-106831189D01*
X92924286Y-106831189D01*
X92829048Y-106878808D01*
X92781429Y-106974046D01*
X92781429Y-107212142D01*
X92733810Y-107307380D01*
X92495714Y-107688332D02*
X93162381Y-107926427D01*
X92495714Y-108164523D02*
X93162381Y-107926427D01*
X93400476Y-107831189D01*
X93448095Y-107783570D01*
X93495714Y-107688332D01*
X92876667Y-109259761D02*
X92876667Y-109735952D01*
X93162381Y-109164523D02*
X92162381Y-109497856D01*
X93162381Y-109831190D01*
X93162381Y-110593095D02*
X92162381Y-110593095D01*
X93114762Y-110593095D02*
X93162381Y-110497857D01*
X93162381Y-110307380D01*
X93114762Y-110212142D01*
X93067143Y-110164523D01*
X92971905Y-110116904D01*
X92686190Y-110116904D01*
X92590952Y-110164523D01*
X92543333Y-110212142D01*
X92495714Y-110307380D01*
X92495714Y-110497857D01*
X92543333Y-110593095D01*
X93162381Y-111497857D02*
X92638571Y-111497857D01*
X92543333Y-111450238D01*
X92495714Y-111355000D01*
X92495714Y-111164523D01*
X92543333Y-111069285D01*
X93114762Y-111497857D02*
X93162381Y-111402619D01*
X93162381Y-111164523D01*
X93114762Y-111069285D01*
X93019524Y-111021666D01*
X92924286Y-111021666D01*
X92829048Y-111069285D01*
X92781429Y-111164523D01*
X92781429Y-111402619D01*
X92733810Y-111497857D01*
X92495714Y-111974047D02*
X93495714Y-111974047D01*
X92543333Y-111974047D02*
X92495714Y-112069285D01*
X92495714Y-112259762D01*
X92543333Y-112355000D01*
X92590952Y-112402619D01*
X92686190Y-112450238D01*
X92971905Y-112450238D01*
X93067143Y-112402619D01*
X93114762Y-112355000D01*
X93162381Y-112259762D01*
X93162381Y-112069285D01*
X93114762Y-111974047D01*
X92495714Y-112735952D02*
X92495714Y-113116904D01*
X92162381Y-112878809D02*
X93019524Y-112878809D01*
X93114762Y-112926428D01*
X93162381Y-113021666D01*
X93162381Y-113116904D01*
X93114762Y-113831191D02*
X93162381Y-113735953D01*
X93162381Y-113545476D01*
X93114762Y-113450238D01*
X93019524Y-113402619D01*
X92638571Y-113402619D01*
X92543333Y-113450238D01*
X92495714Y-113545476D01*
X92495714Y-113735953D01*
X92543333Y-113831191D01*
X92638571Y-113878810D01*
X92733810Y-113878810D01*
X92829048Y-113402619D01*
X93162381Y-114307381D02*
X92495714Y-114307381D01*
X92686190Y-114307381D02*
X92590952Y-114355000D01*
X92543333Y-114402619D01*
X92495714Y-114497857D01*
X92495714Y-114593096D01*
X92781429Y-115688334D02*
X92781429Y-116450239D01*
X93162381Y-117688334D02*
X92495714Y-117688334D01*
X92686190Y-117688334D02*
X92590952Y-117735953D01*
X92543333Y-117783572D01*
X92495714Y-117878810D01*
X92495714Y-117974049D01*
X93114762Y-118688335D02*
X93162381Y-118593097D01*
X93162381Y-118402620D01*
X93114762Y-118307382D01*
X93019524Y-118259763D01*
X92638571Y-118259763D01*
X92543333Y-118307382D01*
X92495714Y-118402620D01*
X92495714Y-118593097D01*
X92543333Y-118688335D01*
X92638571Y-118735954D01*
X92733810Y-118735954D01*
X92829048Y-118259763D01*
X92495714Y-119069287D02*
X93162381Y-119307382D01*
X92495714Y-119545478D01*
X93067143Y-119926430D02*
X93114762Y-119974049D01*
X93162381Y-119926430D01*
X93114762Y-119878811D01*
X93067143Y-119926430D01*
X93162381Y-119926430D01*
X93162381Y-121688335D02*
X93162381Y-121116906D01*
X93162381Y-121402620D02*
X92162381Y-121402620D01*
X92305238Y-121307382D01*
X92400476Y-121212144D01*
X92448095Y-121116906D01*
%LPC*%
D12*
X97155000Y-86995000D03*
D13*
X94655000Y-86995000D03*
D14*
X109220000Y-116840000D03*
X109220000Y-114300000D03*
X109220000Y-124460000D03*
X109220000Y-121920000D03*
X109220000Y-119380000D03*
X109220000Y-104140000D03*
X109220000Y-106680000D03*
X109220000Y-101600000D03*
X109220000Y-99060000D03*
X109220000Y-109220000D03*
X109220000Y-96520000D03*
X109220000Y-76200000D03*
X109220000Y-78740000D03*
X109220000Y-81280000D03*
X109220000Y-83820000D03*
X109220000Y-86360000D03*
X109220000Y-88900000D03*
X109220000Y-91440000D03*
X109220000Y-93980000D03*
X109220000Y-111760000D03*
X78740000Y-78740000D03*
X78740000Y-81280000D03*
X78740000Y-104140000D03*
X78740000Y-83820000D03*
X78740000Y-101600000D03*
X78740000Y-86360000D03*
X78740000Y-99060000D03*
X78740000Y-88900000D03*
X86360000Y-83820000D03*
X78740000Y-91440000D03*
X78740000Y-96520000D03*
X78740000Y-93980000D03*
D15*
X99060000Y-129540000D03*
X86360000Y-109220000D03*
X78613000Y-123063000D03*
X96520000Y-91440000D03*
X91440000Y-91440000D03*
X93980000Y-91440000D03*
M02*
