G04 (created by PCBNEW (25-Oct-2014 BZR 4029)-stable) date IDT 00:52:32 2015 ספט 30 ד'*
%MOIN*%
G04 Gerber Fmt 3.4, Leading zero omitted, Abs format*
%FSLAX34Y34*%
G01*
G70*
G90*
G04 APERTURE LIST*
%ADD10C,0.00590551*%
%ADD11R,0.0590551X0.0590551*%
%ADD12R,0.0591X0.2087*%
%ADD13R,0.0472X0.0591*%
%ADD14R,0.0591X0.0472*%
%ADD15R,0.015X0.05*%
%ADD16R,0.0394X0.0106*%
%ADD17R,0.0315X0.0394*%
%ADD18C,0.055*%
%ADD19R,0.0511811X0.0511811*%
%ADD20R,0.0787402X0.0511811*%
%ADD21R,0.0236X0.0551*%
%ADD22R,0.011811X0.0314961*%
%ADD23R,0.011811X0.0255906*%
%ADD24R,0.015748X0.0374016*%
G04 APERTURE END LIST*
G54D10*
G54D11*
X43000Y-42000D03*
X43000Y-30000D03*
X43000Y-41000D03*
X43000Y-31000D03*
X32000Y-29000D03*
X41000Y-30000D03*
X40000Y-31000D03*
X43000Y-47000D03*
X33000Y-51000D03*
X39000Y-51000D03*
X31000Y-42000D03*
X39000Y-35000D03*
X37000Y-34000D03*
X36000Y-34000D03*
X36000Y-35000D03*
X43000Y-35000D03*
X31000Y-31000D03*
X43000Y-43000D03*
X43000Y-29000D03*
X43000Y-40000D03*
X43000Y-45000D03*
X43000Y-44000D03*
X34000Y-43000D03*
X43000Y-46000D03*
X43000Y-32000D03*
X43000Y-39000D03*
X43000Y-33000D03*
X43000Y-38000D03*
X43000Y-37000D03*
X43000Y-34000D03*
X43000Y-36000D03*
X39000Y-36000D03*
X36000Y-36000D03*
X37000Y-36000D03*
G54D12*
X40100Y-48750D03*
X38400Y-48750D03*
X39100Y-43000D03*
X37400Y-43000D03*
G54D13*
X34750Y-35762D03*
X34750Y-34738D03*
G54D14*
X31738Y-47750D03*
X32762Y-47750D03*
X39988Y-42500D03*
X41012Y-42500D03*
X35012Y-47000D03*
X33988Y-47000D03*
G54D13*
X35250Y-39988D03*
X35250Y-41012D03*
X40250Y-39988D03*
X40250Y-41012D03*
X37750Y-39988D03*
X37750Y-41012D03*
G54D14*
X36262Y-42250D03*
X35238Y-42250D03*
G54D15*
X36884Y-37150D03*
X36628Y-37150D03*
X36372Y-37150D03*
X36116Y-37150D03*
X36116Y-38850D03*
X36372Y-38850D03*
X36628Y-38850D03*
X36884Y-38850D03*
G54D16*
X40625Y-46900D03*
X40625Y-46700D03*
X40625Y-46500D03*
X40625Y-46300D03*
X40625Y-46100D03*
X38875Y-46100D03*
X38875Y-46300D03*
X38875Y-46500D03*
X38875Y-46700D03*
X38875Y-46900D03*
G54D17*
X40500Y-44433D03*
X40125Y-43567D03*
X40875Y-43567D03*
G54D10*
G36*
X36041Y-47893D02*
X37459Y-47893D01*
X37065Y-49586D01*
X36435Y-49586D01*
X36041Y-47893D01*
X36041Y-47893D01*
G37*
G36*
X37459Y-52106D02*
X36041Y-52106D01*
X36435Y-50413D01*
X37065Y-50413D01*
X37459Y-52106D01*
X37459Y-52106D01*
G37*
G36*
X38106Y-44541D02*
X38106Y-45959D01*
X36413Y-45565D01*
X36413Y-44935D01*
X38106Y-44541D01*
X38106Y-44541D01*
G37*
G36*
X33893Y-45959D02*
X33893Y-44541D01*
X35586Y-44935D01*
X35586Y-45565D01*
X33893Y-45959D01*
X33893Y-45959D01*
G37*
G36*
X35209Y-52106D02*
X33791Y-52106D01*
X34185Y-50413D01*
X34815Y-50413D01*
X35209Y-52106D01*
X35209Y-52106D01*
G37*
G36*
X33791Y-47893D02*
X35209Y-47893D01*
X34815Y-49586D01*
X34185Y-49586D01*
X33791Y-47893D01*
X33791Y-47893D01*
G37*
G54D14*
X38738Y-45000D03*
X39762Y-45000D03*
G54D13*
X36500Y-39988D03*
X36500Y-41012D03*
G54D14*
X31738Y-46500D03*
X32762Y-46500D03*
G54D13*
X34000Y-39988D03*
X34000Y-41012D03*
X39000Y-39988D03*
X39000Y-41012D03*
G54D14*
X31738Y-49000D03*
X32762Y-49000D03*
X37012Y-47000D03*
X35988Y-47000D03*
X35238Y-43500D03*
X36262Y-43500D03*
G54D18*
X38000Y-34750D03*
X38000Y-35750D03*
G54D19*
X34047Y-36834D03*
X34952Y-36834D03*
G54D20*
X34500Y-39000D03*
G54D21*
X33000Y-45300D03*
X33000Y-43200D03*
X32500Y-45300D03*
X32000Y-45300D03*
X31500Y-45300D03*
X32500Y-43200D03*
X32000Y-43200D03*
X31500Y-43200D03*
X39500Y-39050D03*
X39500Y-36950D03*
X39000Y-39050D03*
X38500Y-39050D03*
X38000Y-39050D03*
X39000Y-36950D03*
X38500Y-36950D03*
X38000Y-36950D03*
G54D11*
X43000Y-48000D03*
G54D22*
X34750Y-29907D03*
G54D23*
X34868Y-28903D03*
G54D22*
X34986Y-29907D03*
G54D23*
X35104Y-28903D03*
G54D22*
X35222Y-29907D03*
G54D23*
X35340Y-28903D03*
G54D22*
X35458Y-29907D03*
G54D23*
X35576Y-28903D03*
G54D22*
X35694Y-29907D03*
G54D23*
X35812Y-28903D03*
G54D22*
X35931Y-29907D03*
G54D23*
X36049Y-28903D03*
G54D22*
X36167Y-29907D03*
G54D23*
X36285Y-28903D03*
G54D22*
X36403Y-29907D03*
G54D23*
X36521Y-28903D03*
G54D22*
X36639Y-29907D03*
G54D23*
X36757Y-28903D03*
G54D22*
X36875Y-29907D03*
G54D23*
X36994Y-28903D03*
G54D22*
X37112Y-29907D03*
G54D23*
X37230Y-28903D03*
G54D22*
X37348Y-29907D03*
G54D23*
X37466Y-28903D03*
G54D22*
X37584Y-29907D03*
G54D23*
X37702Y-28903D03*
G54D22*
X37820Y-29907D03*
G54D23*
X37938Y-28903D03*
G54D22*
X38057Y-29907D03*
G54D23*
X38175Y-28903D03*
G54D22*
X38293Y-29907D03*
G54D23*
X38411Y-28903D03*
G54D22*
X38529Y-29907D03*
G54D23*
X38647Y-28903D03*
G54D22*
X38765Y-29907D03*
G54D23*
X38883Y-28903D03*
G54D22*
X39001Y-29907D03*
G54D23*
X39120Y-28903D03*
G54D22*
X39238Y-29907D03*
G54D24*
X39513Y-29799D03*
X34474Y-29799D03*
G54D11*
X37000Y-32000D03*
X31000Y-32000D03*
X32000Y-30000D03*
X31000Y-41000D03*
X31000Y-39000D03*
X31000Y-33000D03*
X31000Y-40000D03*
X33000Y-33000D03*
X31000Y-34000D03*
X31000Y-38000D03*
X31000Y-37000D03*
X31000Y-35000D03*
X31000Y-36000D03*
X37000Y-35000D03*
G54D14*
X35262Y-31000D03*
X34238Y-31000D03*
M02*
