G04 #@! TF.FileFunction,Copper,L1,Top,Signal*
%FSLAX46Y46*%
G04 Gerber Fmt 4.6, Leading zero omitted, Abs format (unit mm)*
G04 Created by KiCad (PCBNEW 4.0.4+e1-6308~48~ubuntu16.04.1-stable) date Wed Oct 19 17:44:58 2016*
%MOMM*%
%LPD*%
G01*
G04 APERTURE LIST*
%ADD10C,0.150000*%
%ADD11R,1.500000X1.250000*%
%ADD12R,1.250000X1.500000*%
%ADD13R,1.300000X1.300000*%
%ADD14C,1.300000*%
%ADD15R,1.501140X5.300980*%
%ADD16R,2.235200X2.235200*%
%ADD17R,0.800100X1.000760*%
%ADD18R,1.500000X1.300000*%
%ADD19R,1.300000X1.500000*%
%ADD20R,1.300000X2.000000*%
%ADD21R,1.400000X0.300000*%
%ADD22R,0.450000X1.450000*%
%ADD23R,2.032000X1.727200*%
%ADD24O,2.032000X1.727200*%
%ADD25O,2.300000X1.600000*%
%ADD26R,1.399540X0.599440*%
%ADD27C,3.000000*%
%ADD28R,1.200000X0.650000*%
%ADD29C,0.685800*%
%ADD30C,0.355600*%
%ADD31C,0.304800*%
%ADD32C,0.299800*%
G04 APERTURE END LIST*
D10*
D11*
X82149000Y-131064000D03*
X79649000Y-131064000D03*
X93238000Y-133096000D03*
X95738000Y-133096000D03*
X95738000Y-129413000D03*
X93238000Y-129413000D03*
X95992000Y-115570000D03*
X93492000Y-115570000D03*
D12*
X110998000Y-139466000D03*
X110998000Y-141966000D03*
D11*
X93492000Y-111760000D03*
X95992000Y-111760000D03*
D12*
X107950000Y-116947000D03*
X107950000Y-114447000D03*
X111760000Y-131465000D03*
X111760000Y-133965000D03*
D13*
X140208000Y-131064000D03*
D14*
X140208000Y-128564000D03*
D10*
G36*
X86845140Y-112124490D02*
X90446860Y-112124490D01*
X89446100Y-116424710D01*
X87845900Y-116424710D01*
X86845140Y-112124490D01*
X86845140Y-112124490D01*
G37*
G36*
X90446860Y-122825510D02*
X86845140Y-122825510D01*
X87845900Y-118525290D01*
X89446100Y-118525290D01*
X90446860Y-122825510D01*
X90446860Y-122825510D01*
G37*
G36*
X86089490Y-142389860D02*
X86089490Y-138788140D01*
X90389710Y-139788900D01*
X90389710Y-141389100D01*
X86089490Y-142389860D01*
X86089490Y-142389860D01*
G37*
G36*
X96790510Y-138788140D02*
X96790510Y-142389860D01*
X92490290Y-141389100D01*
X92490290Y-139788900D01*
X96790510Y-138788140D01*
X96790510Y-138788140D01*
G37*
G36*
X98027490Y-141500860D02*
X98027490Y-137899140D01*
X102327710Y-138899900D01*
X102327710Y-140500100D01*
X98027490Y-141500860D01*
X98027490Y-141500860D01*
G37*
G36*
X108728510Y-137899140D02*
X108728510Y-141500860D01*
X104428290Y-140500100D01*
X104428290Y-138899900D01*
X108728510Y-137899140D01*
X108728510Y-137899140D01*
G37*
D15*
X85217000Y-133985000D03*
X89535000Y-133985000D03*
X80137000Y-120523000D03*
X84455000Y-120523000D03*
D16*
X93980000Y-147320000D03*
X101600000Y-147320000D03*
X99060000Y-147320000D03*
X104140000Y-147320000D03*
D17*
X81026000Y-134409180D03*
X81978500Y-136608820D03*
X80073500Y-136608820D03*
D18*
X82376000Y-139446000D03*
X79676000Y-139446000D03*
X95838000Y-126746000D03*
X93138000Y-126746000D03*
X95838000Y-136779000D03*
X93138000Y-136779000D03*
X96092000Y-123190000D03*
X93392000Y-123190000D03*
X93392000Y-119380000D03*
X96092000Y-119380000D03*
D19*
X111760000Y-117047000D03*
X111760000Y-114347000D03*
D18*
X108919000Y-128016000D03*
X106219000Y-128016000D03*
D19*
X107950000Y-131365000D03*
X107950000Y-134065000D03*
D13*
X111418000Y-120389000D03*
X111418000Y-122689000D03*
D20*
X105918000Y-121539000D03*
D21*
X89068000Y-128127000D03*
X89068000Y-127627000D03*
X89068000Y-127127000D03*
X89068000Y-126627000D03*
X89068000Y-126127000D03*
X84668000Y-126127000D03*
X84668000Y-126627000D03*
X84668000Y-127127000D03*
X84668000Y-127627000D03*
X84668000Y-128127000D03*
D22*
X100117000Y-126533000D03*
X100767000Y-126533000D03*
X101417000Y-126533000D03*
X102067000Y-126533000D03*
X102067000Y-122133000D03*
X101417000Y-122133000D03*
X100767000Y-122133000D03*
X100117000Y-122133000D03*
D16*
X96520000Y-147320000D03*
X106680000Y-147320000D03*
X109220000Y-147320000D03*
X134620000Y-142240000D03*
D23*
X154940000Y-142240000D03*
D24*
X154940000Y-144780000D03*
X154940000Y-147320000D03*
D23*
X152400000Y-116840000D03*
D24*
X152400000Y-114300000D03*
X152400000Y-111760000D03*
D23*
X149860000Y-116840000D03*
D24*
X149860000Y-114300000D03*
X149860000Y-111760000D03*
D23*
X147320000Y-116840000D03*
D24*
X147320000Y-114300000D03*
X147320000Y-111760000D03*
D23*
X144780000Y-116840000D03*
D24*
X144780000Y-114300000D03*
X144780000Y-111760000D03*
D23*
X142240000Y-116840000D03*
D24*
X142240000Y-114300000D03*
X142240000Y-111760000D03*
D23*
X139700000Y-116840000D03*
D24*
X139700000Y-114300000D03*
X139700000Y-111760000D03*
D23*
X152400000Y-142240000D03*
D24*
X152400000Y-144780000D03*
X152400000Y-147320000D03*
D23*
X144780000Y-142240000D03*
D24*
X144780000Y-144780000D03*
X144780000Y-147320000D03*
D23*
X142240000Y-142240000D03*
D24*
X142240000Y-144780000D03*
X142240000Y-147320000D03*
D23*
X149860000Y-142240000D03*
D24*
X149860000Y-144780000D03*
X149860000Y-147320000D03*
D23*
X147320000Y-142240000D03*
D24*
X147320000Y-144780000D03*
X147320000Y-147320000D03*
D25*
X123444000Y-131064000D03*
X123444000Y-128524000D03*
X123444000Y-125984000D03*
X123444000Y-123444000D03*
X123444000Y-120904000D03*
X123444000Y-118364000D03*
X123444000Y-115824000D03*
X123444000Y-113284000D03*
X115824000Y-113284000D03*
X115824000Y-115824000D03*
X115824000Y-118364000D03*
X115824000Y-120904000D03*
X115824000Y-123444000D03*
X115824000Y-125984000D03*
X115824000Y-128524000D03*
X115824000Y-131064000D03*
X134620000Y-131064000D03*
X134620000Y-128524000D03*
X134620000Y-125984000D03*
X134620000Y-123444000D03*
X134620000Y-120904000D03*
X134620000Y-118364000D03*
X134620000Y-115824000D03*
X134620000Y-113284000D03*
X127000000Y-113284000D03*
X127000000Y-115824000D03*
X127000000Y-118364000D03*
X127000000Y-120904000D03*
X127000000Y-123444000D03*
X127000000Y-125984000D03*
X127000000Y-128524000D03*
X127000000Y-131064000D03*
D26*
X99441000Y-118110000D03*
X104775000Y-118110000D03*
X99441000Y-116840000D03*
X99441000Y-115570000D03*
X99441000Y-114300000D03*
X104775000Y-116840000D03*
X104775000Y-115570000D03*
X104775000Y-114300000D03*
X98933000Y-134493000D03*
X104267000Y-134493000D03*
X98933000Y-133223000D03*
X98933000Y-131953000D03*
X98933000Y-130683000D03*
X104267000Y-133223000D03*
X104267000Y-131953000D03*
X104267000Y-130683000D03*
D27*
X80772000Y-126619000D03*
X119126000Y-142240000D03*
X116840000Y-146050000D03*
X121666000Y-146050000D03*
X126746000Y-146050000D03*
X124206000Y-142240000D03*
X131826000Y-146050000D03*
X129286000Y-142240000D03*
D23*
X154940000Y-116840000D03*
D24*
X154940000Y-114300000D03*
X154940000Y-111760000D03*
D16*
X91440000Y-147320000D03*
D21*
X157880000Y-135255000D03*
X154930000Y-134955000D03*
X157880000Y-134655000D03*
X154930000Y-134355000D03*
X157880000Y-134055000D03*
X154930000Y-133755000D03*
X157880000Y-133455000D03*
X154930000Y-133155000D03*
X157880000Y-132855000D03*
X154930000Y-132555000D03*
X157880000Y-132255000D03*
X154930000Y-131955000D03*
X157880000Y-131655000D03*
X154930000Y-131355000D03*
X157880000Y-131055000D03*
X154930000Y-130755000D03*
X157880000Y-130455000D03*
X154930000Y-130155000D03*
X157880000Y-129855000D03*
X154930000Y-129555000D03*
X157880000Y-129255000D03*
X154930000Y-128955000D03*
X157880000Y-128655000D03*
X154930000Y-128355000D03*
X157880000Y-128055000D03*
X154930000Y-127755000D03*
X157880000Y-127455000D03*
X154930000Y-127155000D03*
X157880000Y-126855000D03*
X154930000Y-126555000D03*
X157880000Y-126255000D03*
X154930000Y-125955000D03*
X157880000Y-125655000D03*
X154930000Y-125355000D03*
X157880000Y-125055000D03*
X154930000Y-124755000D03*
X157880000Y-124455000D03*
X154930000Y-124155000D03*
X157880000Y-123855000D03*
D28*
X157730000Y-136080000D03*
X157730000Y-123030000D03*
D29*
X123028300Y-135350700D03*
X117601600Y-117289200D03*
X118313000Y-116719100D03*
X116515000Y-135681100D03*
X136673100Y-127583500D03*
X126925500Y-137757000D03*
X159084300Y-131655000D03*
X149557500Y-133297300D03*
X156145600Y-131055000D03*
X150274700Y-131086200D03*
X159088400Y-130455000D03*
X156128200Y-129855000D03*
X151826300Y-132014600D03*
X149180500Y-128966900D03*
X156672200Y-129206900D03*
X157047700Y-117587200D03*
X156190000Y-128055000D03*
X150747400Y-127806700D03*
X125132200Y-138485400D03*
X156664700Y-132703400D03*
X160762000Y-127956400D03*
X159843600Y-137880900D03*
X143673100Y-126754200D03*
X141969700Y-124907300D03*
X140904500Y-139974700D03*
X141004100Y-125409400D03*
X118566800Y-120324500D03*
X131534300Y-132838400D03*
X122479900Y-124762300D03*
X100166000Y-130885000D03*
X103576000Y-115401000D03*
X103563000Y-116861000D03*
X100647000Y-115591000D03*
X100647000Y-116861000D03*
X101417000Y-125303000D03*
X85887100Y-127627000D03*
X85933500Y-126627000D03*
X87850200Y-127123000D03*
X110238000Y-120589000D03*
X106785000Y-134250000D03*
X110585000Y-114542000D03*
X96353800Y-124370000D03*
X94404800Y-136676000D03*
X85532600Y-140758000D03*
X110631000Y-134138000D03*
X106798000Y-114643000D03*
X94741500Y-112247000D03*
X109870000Y-141793000D03*
X80899000Y-130582000D03*
X159109800Y-134655000D03*
X144928400Y-134410500D03*
X115824000Y-142585100D03*
X126906800Y-134380400D03*
X115239500Y-143900900D03*
X113943400Y-143946400D03*
X121543700Y-120996000D03*
X113936900Y-145247000D03*
X127928800Y-137775000D03*
X153733700Y-133234200D03*
X159706000Y-131086000D03*
X156147100Y-132020900D03*
D30*
X110679500Y-116947000D02*
X110779500Y-117047000D01*
X107950000Y-116947000D02*
X110679500Y-116947000D01*
X105832500Y-118110000D02*
X104775000Y-118110000D01*
X106994500Y-116947000D02*
X105832500Y-118110000D01*
X103331200Y-118110000D02*
X104775000Y-118110000D01*
X100364700Y-121077500D02*
X103331200Y-118110000D01*
X100117000Y-121077500D02*
X100364700Y-121077500D01*
X107950000Y-116947000D02*
X106994500Y-116947000D01*
X100117000Y-122133000D02*
X100117000Y-121077500D01*
X111760000Y-117047000D02*
X110779500Y-117047000D01*
X123295000Y-135084000D02*
X123028300Y-135350700D01*
X153770500Y-135084000D02*
X123295000Y-135084000D01*
X153899500Y-134955000D02*
X153770500Y-135084000D01*
X155330000Y-134955000D02*
X153899500Y-134955000D01*
X117359400Y-117047000D02*
X111760000Y-117047000D01*
X117601600Y-117289200D02*
X117359400Y-117047000D01*
X95652100Y-114274600D02*
X95992000Y-114614500D01*
X88646000Y-114274600D02*
X95652100Y-114274600D01*
X95992000Y-115570000D02*
X95992000Y-114614500D01*
X95992000Y-114614500D02*
X95992000Y-111760000D01*
X101275000Y-118110000D02*
X99441000Y-118110000D01*
X103261000Y-116124000D02*
X101275000Y-118110000D01*
X103810000Y-116124000D02*
X103261000Y-116124000D01*
X103895000Y-116210000D02*
X103810000Y-116124000D01*
X106312000Y-116210000D02*
X103895000Y-116210000D01*
X106994000Y-115528000D02*
X106312000Y-116210000D01*
X113332000Y-115528000D02*
X106994000Y-115528000D01*
X114184000Y-114675000D02*
X113332000Y-115528000D01*
X116633000Y-114675000D02*
X114184000Y-114675000D01*
X118313000Y-116355000D02*
X116633000Y-114675000D01*
X118313000Y-116719100D02*
X118313000Y-116355000D01*
X96092000Y-119380000D02*
X96092000Y-118399500D01*
X96381500Y-116915000D02*
X95992000Y-116525500D01*
X96381500Y-118110000D02*
X96381500Y-116915000D01*
X99441000Y-118110000D02*
X96381500Y-118110000D01*
X96381500Y-118110000D02*
X96092000Y-118399500D01*
X95992000Y-115570000D02*
X95992000Y-116525500D01*
X157480000Y-128655000D02*
X158910500Y-128655000D01*
X160379400Y-130123900D02*
X158910500Y-128655000D01*
X160379400Y-135503300D02*
X160379400Y-130123900D01*
X157890600Y-137992100D02*
X160379400Y-135503300D01*
X141580600Y-137992100D02*
X157890600Y-137992100D01*
X133522700Y-146050000D02*
X141580600Y-137992100D01*
X131826000Y-146050000D02*
X133522700Y-146050000D01*
X111760000Y-131465000D02*
X110804500Y-131465000D01*
X102067000Y-126533000D02*
X102067000Y-127588500D01*
X102494500Y-128016000D02*
X102067000Y-127588500D01*
X106219000Y-128016000D02*
X102494500Y-128016000D01*
X104267000Y-134493000D02*
X105297300Y-134493000D01*
X107507000Y-130284500D02*
X106219000Y-128996500D01*
X107950000Y-130284500D02*
X107507000Y-130284500D01*
X110704500Y-131365000D02*
X107950000Y-131365000D01*
X110804500Y-131465000D02*
X110704500Y-131365000D01*
X107344800Y-132445500D02*
X105297300Y-134493000D01*
X107950000Y-132445500D02*
X107344800Y-132445500D01*
X106219000Y-128016000D02*
X106219000Y-128996500D01*
X107950000Y-131365000D02*
X107950000Y-132445500D01*
X107950000Y-131365000D02*
X107950000Y-130284500D01*
X111760000Y-131465000D02*
X112715500Y-131465000D01*
X112715500Y-131881600D02*
X112715500Y-131465000D01*
X116515000Y-135681100D02*
X112715500Y-131881600D01*
X123014600Y-146050000D02*
X121666000Y-146050000D01*
X126925900Y-142138700D02*
X123014600Y-146050000D01*
X126925900Y-142006800D02*
X126925900Y-142138700D01*
X132880900Y-136051800D02*
X126925900Y-142006800D01*
X156052700Y-136051800D02*
X132880900Y-136051800D01*
X156849500Y-135255000D02*
X156052700Y-136051800D01*
X157480000Y-135255000D02*
X156849500Y-135255000D01*
X95738000Y-127826500D02*
X95838000Y-127726500D01*
X95738000Y-129413000D02*
X95738000Y-127826500D01*
X96318700Y-130368500D02*
X97902700Y-131953000D01*
X95738000Y-130368500D02*
X96318700Y-130368500D01*
X99963300Y-131953000D02*
X99963300Y-133223000D01*
X98933000Y-133223000D02*
X99963300Y-133223000D01*
X98933000Y-131953000D02*
X99963300Y-131953000D01*
X95738000Y-129413000D02*
X95738000Y-130368500D01*
X98933000Y-131953000D02*
X97902700Y-131953000D01*
X95838000Y-126746000D02*
X95838000Y-127726500D01*
X104267000Y-133223000D02*
X103236700Y-133223000D01*
X110998000Y-139466000D02*
X106812400Y-139466000D01*
X106812400Y-139466000D02*
X106578400Y-139700000D01*
X103236700Y-131953000D02*
X103236700Y-133223000D01*
X104267000Y-131953000D02*
X103236700Y-131953000D01*
X103236700Y-135890300D02*
X103236700Y-133223000D01*
X106812400Y-139466000D02*
X103236700Y-135890300D01*
X103236700Y-133223000D02*
X99963300Y-133223000D01*
X155330000Y-128355000D02*
X153899500Y-128355000D01*
X110998000Y-139466000D02*
X111953500Y-139466000D01*
X113662500Y-137757000D02*
X111953500Y-139466000D01*
X126925500Y-137757000D02*
X113662500Y-137757000D01*
X151151500Y-128355000D02*
X153899500Y-128355000D01*
X150974600Y-128531900D02*
X151151500Y-128355000D01*
X150416700Y-128531900D02*
X150974600Y-128531900D01*
X149633600Y-127748800D02*
X150416700Y-128531900D01*
X148629500Y-127748800D02*
X149633600Y-127748800D01*
X148458400Y-127919900D02*
X148629500Y-127748800D01*
X141087800Y-127919900D02*
X148458400Y-127919900D01*
X140751400Y-127583500D02*
X141087800Y-127919900D01*
X136673100Y-127583500D02*
X140751400Y-127583500D01*
D31*
X157480000Y-125655000D02*
X156874900Y-125655000D01*
X155630400Y-124155000D02*
X155330000Y-124155000D01*
X156034700Y-124559000D02*
X155630400Y-124155000D01*
X156035100Y-124559000D02*
X156034700Y-124559000D01*
X156509600Y-125033500D02*
X156035100Y-124559000D01*
X156874900Y-125398500D02*
X156509600Y-125033500D01*
X156874900Y-125655000D02*
X156874900Y-125398500D01*
X134620000Y-123444000D02*
X136075100Y-123444000D01*
X153213900Y-123444000D02*
X136075100Y-123444000D01*
X153924900Y-124155000D02*
X153213900Y-123444000D01*
X155330000Y-124155000D02*
X153924900Y-124155000D01*
X157480000Y-134055000D02*
X156874900Y-134055000D01*
X106680000Y-147320000D02*
X106680000Y-145897300D01*
X114327800Y-145897300D02*
X106680000Y-145897300D01*
X115982300Y-144242800D02*
X114327800Y-145897300D01*
X117777800Y-144242800D02*
X115982300Y-144242800D01*
X118063700Y-144528700D02*
X117777800Y-144242800D01*
X120101500Y-144528700D02*
X118063700Y-144528700D01*
X121802200Y-142828000D02*
X120101500Y-144528700D01*
X121802200Y-142032500D02*
X121802200Y-142828000D01*
X124146200Y-139688500D02*
X121802200Y-142032500D01*
X127157000Y-139688500D02*
X124146200Y-139688500D01*
X131276600Y-135568900D02*
X127157000Y-139688500D01*
X155639700Y-135568900D02*
X131276600Y-135568900D01*
X156874900Y-134333700D02*
X155639700Y-135568900D01*
X156874900Y-134055000D02*
X156874900Y-134333700D01*
X155330000Y-131955000D02*
X153924900Y-131955000D01*
X115824000Y-128524000D02*
X115824000Y-129629100D01*
X152683200Y-131955000D02*
X153924900Y-131955000D01*
X152081300Y-131353100D02*
X152683200Y-131955000D01*
X151571200Y-131353100D02*
X152081300Y-131353100D01*
X150513800Y-132410500D02*
X151571200Y-131353100D01*
X150513800Y-133257500D02*
X150513800Y-132410500D01*
X149826000Y-133945300D02*
X150513800Y-133257500D01*
X149289100Y-133945300D02*
X149826000Y-133945300D01*
X149046100Y-133702300D02*
X149289100Y-133945300D01*
X121002300Y-133702300D02*
X149046100Y-133702300D01*
X116929100Y-129629100D02*
X121002300Y-133702300D01*
X115824000Y-129629100D02*
X116929100Y-129629100D01*
X123444000Y-131064000D02*
X123444000Y-132169100D01*
X157480000Y-131655000D02*
X159084300Y-131655000D01*
X149390700Y-133130500D02*
X149557500Y-133297300D01*
X133267400Y-133130500D02*
X149390700Y-133130500D01*
X132306000Y-132169100D02*
X133267400Y-133130500D01*
X123444000Y-132169100D02*
X132306000Y-132169100D01*
X155330000Y-131355000D02*
X153924900Y-131355000D01*
X123444000Y-128524000D02*
X123444000Y-129629100D01*
X152730200Y-131355000D02*
X153924900Y-131355000D01*
X152270800Y-130895600D02*
X152730200Y-131355000D01*
X151381700Y-130895600D02*
X152270800Y-130895600D01*
X149650300Y-132627000D02*
X151381700Y-130895600D01*
X133477600Y-132627000D02*
X149650300Y-132627000D01*
X130479700Y-129629100D02*
X133477600Y-132627000D01*
X123444000Y-129629100D02*
X130479700Y-129629100D01*
X123444000Y-125984000D02*
X123444000Y-127089100D01*
X157480000Y-131055000D02*
X156145600Y-131055000D01*
X149191500Y-132169400D02*
X150274700Y-131086200D01*
X133703300Y-132169400D02*
X149191500Y-132169400D01*
X128623000Y-127089100D02*
X133703300Y-132169400D01*
X123444000Y-127089100D02*
X128623000Y-127089100D01*
X155330000Y-130755000D02*
X153924900Y-130755000D01*
X123444000Y-123444000D02*
X123444000Y-124549100D01*
X152777200Y-130755000D02*
X153924900Y-130755000D01*
X152460300Y-130438100D02*
X152777200Y-130755000D01*
X149627200Y-130438100D02*
X152460300Y-130438100D01*
X149261500Y-130072400D02*
X149627200Y-130438100D01*
X137053000Y-130072400D02*
X149261500Y-130072400D01*
X136936400Y-129955800D02*
X137053000Y-130072400D01*
X133281500Y-129955800D02*
X136936400Y-129955800D01*
X127874800Y-124549100D02*
X133281500Y-129955800D01*
X123444000Y-124549100D02*
X127874800Y-124549100D01*
X157480000Y-130455000D02*
X159088400Y-130455000D01*
X155330000Y-130155000D02*
X153924900Y-130155000D01*
X123444000Y-118364000D02*
X123444000Y-119469100D01*
X152824200Y-130155000D02*
X153924900Y-130155000D01*
X152649800Y-129980600D02*
X152824200Y-130155000D01*
X149816700Y-129980600D02*
X152649800Y-129980600D01*
X149451000Y-129614900D02*
X149816700Y-129980600D01*
X137709400Y-129614900D02*
X149451000Y-129614900D01*
X135499500Y-127405000D02*
X137709400Y-129614900D01*
X134057200Y-127405000D02*
X135499500Y-127405000D01*
X131725800Y-125073600D02*
X134057200Y-127405000D01*
X131725800Y-123674600D02*
X131725800Y-125073600D01*
X127520300Y-119469100D02*
X131725800Y-123674600D01*
X123444000Y-119469100D02*
X127520300Y-119469100D01*
X157480000Y-129855000D02*
X156128200Y-129855000D01*
X92336900Y-123863200D02*
X92336900Y-123190000D01*
X90073100Y-126127000D02*
X92336900Y-123863200D01*
X89068000Y-126127000D02*
X90073100Y-126127000D01*
X93392000Y-123190000D02*
X92336900Y-123190000D01*
X93392000Y-123190000D02*
X93392000Y-119380000D01*
X93492000Y-118324900D02*
X93492000Y-115570000D01*
X93392000Y-118424900D02*
X93492000Y-118324900D01*
X93392000Y-119380000D02*
X93392000Y-118424900D01*
X134620000Y-125984000D02*
X136075100Y-125984000D01*
X155330000Y-127155000D02*
X153924900Y-127155000D01*
X156574900Y-127155000D02*
X155935100Y-127155000D01*
X156874900Y-127455000D02*
X156574900Y-127155000D01*
X155330000Y-127155000D02*
X155935100Y-127155000D01*
X157480000Y-127455000D02*
X156874900Y-127455000D01*
X148540400Y-127155000D02*
X153924900Y-127155000D01*
X148286100Y-127409300D02*
X148540400Y-127155000D01*
X143323500Y-127409300D02*
X148286100Y-127409300D01*
X142849200Y-126935000D02*
X143323500Y-127409300D01*
X137026100Y-126935000D02*
X142849200Y-126935000D01*
X136075100Y-125984000D02*
X137026100Y-126935000D01*
X151826300Y-132277200D02*
X151826300Y-132014600D01*
X153431400Y-133882300D02*
X151826300Y-132277200D01*
X155202700Y-133882300D02*
X153431400Y-133882300D01*
X155330000Y-133755000D02*
X155202700Y-133882300D01*
X89068000Y-128127000D02*
X90073100Y-128127000D01*
X93138000Y-126746000D02*
X93138000Y-127701100D01*
X92332000Y-128507100D02*
X92332100Y-128507000D01*
X90453200Y-128507100D02*
X92332000Y-128507100D01*
X90073100Y-128127000D02*
X90453200Y-128507100D01*
X92332100Y-128507000D02*
X93138000Y-127701100D01*
X92332100Y-128507000D02*
X93238000Y-129413000D01*
X94293200Y-134279100D02*
X95838000Y-135823900D01*
X94293200Y-131398300D02*
X94293200Y-134279100D01*
X93238000Y-130343100D02*
X94293200Y-131398300D01*
X93238000Y-129413000D02*
X93238000Y-130343100D01*
X95838000Y-136779000D02*
X95838000Y-135823900D01*
X111186900Y-147864200D02*
X110642700Y-147320000D01*
X122519100Y-147864200D02*
X111186900Y-147864200D01*
X124206100Y-146177200D02*
X122519100Y-147864200D01*
X124206100Y-145937300D02*
X124206100Y-146177200D01*
X126095400Y-144048000D02*
X124206100Y-145937300D01*
X130108800Y-144048000D02*
X126095400Y-144048000D01*
X137367800Y-136789000D02*
X130108800Y-144048000D01*
X158377500Y-136789000D02*
X137367800Y-136789000D01*
X159763500Y-135403000D02*
X158377500Y-136789000D01*
X159763500Y-134323100D02*
X159763500Y-135403000D01*
X158895400Y-133455000D02*
X159763500Y-134323100D01*
X157480000Y-133455000D02*
X158895400Y-133455000D01*
X109220000Y-147320000D02*
X110642700Y-147320000D01*
X155330000Y-129555000D02*
X153924900Y-129555000D01*
X153893000Y-129523100D02*
X153924900Y-129555000D01*
X150006200Y-129523100D02*
X153893000Y-129523100D01*
X149450000Y-128966900D02*
X150006200Y-129523100D01*
X149180500Y-128966900D02*
X149450000Y-128966900D01*
X144780000Y-114300000D02*
X144780000Y-113131300D01*
X157480000Y-129255000D02*
X156874900Y-129255000D01*
X155601800Y-113131300D02*
X144780000Y-113131300D01*
X157047700Y-114577200D02*
X155601800Y-113131300D01*
X157047700Y-117587200D02*
X157047700Y-114577200D01*
X156720300Y-129255000D02*
X156672200Y-129206900D01*
X156874900Y-129255000D02*
X156720300Y-129255000D01*
X157480000Y-128055000D02*
X156190000Y-128055000D01*
X155330000Y-127755000D02*
X153924900Y-127755000D01*
X150799100Y-127755000D02*
X153924900Y-127755000D01*
X150747400Y-127806700D02*
X150799100Y-127755000D01*
X155975700Y-115468700D02*
X154940000Y-115468700D01*
X156261200Y-115754200D02*
X155975700Y-115468700D01*
X156261200Y-119632200D02*
X156261200Y-115754200D01*
X158885100Y-122256100D02*
X156261200Y-119632200D01*
X158885100Y-123855000D02*
X158885100Y-122256100D01*
X157480000Y-123855000D02*
X158885100Y-123855000D01*
X154940000Y-114300000D02*
X154940000Y-115468700D01*
X80073500Y-136608800D02*
X80778700Y-136608800D01*
X80073500Y-138093400D02*
X80073500Y-136608800D01*
X79676000Y-138490900D02*
X80073500Y-138093400D01*
X79676000Y-139446000D02*
X79676000Y-138490900D01*
X80778700Y-136432500D02*
X80778700Y-136608800D01*
X81408000Y-135803200D02*
X80778700Y-136432500D01*
X83186800Y-135803200D02*
X81408000Y-135803200D01*
X84608500Y-137224900D02*
X83186800Y-135803200D01*
X88323300Y-137224900D02*
X84608500Y-137224900D01*
X91440000Y-140341600D02*
X88323300Y-137224900D01*
X91440000Y-140770700D02*
X91440000Y-140341600D01*
X93371200Y-142701900D02*
X91440000Y-140770700D01*
X108002000Y-142701900D02*
X93371200Y-142701900D01*
X109912500Y-140791400D02*
X108002000Y-142701900D01*
X112319000Y-140791400D02*
X109912500Y-140791400D01*
X114625000Y-138485400D02*
X112319000Y-140791400D01*
X125132200Y-138485400D02*
X114625000Y-138485400D01*
D30*
X81026000Y-134409200D02*
X81756600Y-134409200D01*
X82149000Y-131064000D02*
X82149000Y-130108500D01*
X85217000Y-133985000D02*
X85217000Y-131004000D01*
X81756600Y-132411900D02*
X82149000Y-132019500D01*
X81756600Y-134409200D02*
X81756600Y-132411900D01*
X83289500Y-131004000D02*
X85217000Y-131004000D01*
X83229500Y-131064000D02*
X83289500Y-131004000D01*
X82149000Y-131064000D02*
X83229500Y-131064000D01*
X82149000Y-131064000D02*
X82149000Y-132019500D01*
D32*
X84255500Y-127127000D02*
X84668000Y-127127000D01*
D30*
X82149000Y-130108500D02*
X82149000Y-127127000D01*
X82149000Y-127127000D02*
X84255500Y-127127000D01*
X81280000Y-127127000D02*
X80772000Y-126619000D01*
X82149000Y-127127000D02*
X81280000Y-127127000D01*
X80137000Y-125984000D02*
X80137000Y-120523000D01*
X80772000Y-126619000D02*
X80137000Y-125984000D01*
D31*
X156874900Y-132493200D02*
X156664700Y-132703400D01*
X156874900Y-132255000D02*
X156874900Y-132493200D01*
X157480000Y-132255000D02*
X156874900Y-132255000D01*
X154429000Y-122009100D02*
X134620000Y-122009100D01*
X156874900Y-124455000D02*
X154429000Y-122009100D01*
X157480000Y-124455000D02*
X156874900Y-124455000D01*
X134620000Y-120904000D02*
X134620000Y-122009100D01*
X155330000Y-125955000D02*
X153924900Y-125955000D01*
X153806200Y-126073700D02*
X153924900Y-125955000D01*
X140003500Y-126073700D02*
X153806200Y-126073700D01*
X138656800Y-124727000D02*
X140003500Y-126073700D01*
X133912500Y-124727000D02*
X138656800Y-124727000D01*
X133156400Y-123970900D02*
X133912500Y-124727000D01*
X133156400Y-122909800D02*
X133156400Y-123970900D01*
X134057100Y-122009100D02*
X133156400Y-122909800D01*
X134620000Y-122009100D02*
X134057100Y-122009100D01*
X89535000Y-133985000D02*
X89535000Y-132507200D01*
X91594100Y-132507200D02*
X92182900Y-133096000D01*
X89535000Y-132507200D02*
X91594100Y-132507200D01*
X93238000Y-133096000D02*
X92182900Y-133096000D01*
X89048200Y-132507200D02*
X89535000Y-132507200D01*
X84668000Y-128127000D02*
X89048200Y-132507200D01*
X83662900Y-124270700D02*
X84455000Y-123478600D01*
X83662900Y-126127000D02*
X83662900Y-124270700D01*
X84668000Y-126127000D02*
X83662900Y-126127000D01*
X84455000Y-120523000D02*
X84455000Y-122000800D01*
X84455000Y-122000800D02*
X84455000Y-123478600D01*
X87320600Y-122000800D02*
X88646000Y-120675400D01*
X84455000Y-122000800D02*
X87320600Y-122000800D01*
X159060600Y-126255000D02*
X160762000Y-127956400D01*
X157480000Y-126255000D02*
X159060600Y-126255000D01*
X142240000Y-144780000D02*
X142240000Y-143611300D01*
X141204300Y-143611300D02*
X142240000Y-143611300D01*
X140918800Y-143325800D02*
X141204300Y-143611300D01*
X140918800Y-141235500D02*
X140918800Y-143325800D01*
X141124900Y-141029400D02*
X140918800Y-141235500D01*
X156695100Y-141029400D02*
X141124900Y-141029400D01*
X159843600Y-137880900D02*
X156695100Y-141029400D01*
X143872300Y-126555000D02*
X143673100Y-126754200D01*
X155330000Y-126555000D02*
X143872300Y-126555000D01*
X142122000Y-124755000D02*
X141969700Y-124907300D01*
X155330000Y-124755000D02*
X142122000Y-124755000D01*
X147320000Y-144780000D02*
X147320000Y-145948700D01*
X141581300Y-145948700D02*
X147320000Y-145948700D01*
X140456000Y-144823400D02*
X141581300Y-145948700D01*
X140456000Y-140423200D02*
X140456000Y-144823400D01*
X140904500Y-139974700D02*
X140456000Y-140423200D01*
X155576600Y-145948700D02*
X149860000Y-145948700D01*
X161461400Y-140063900D02*
X155576600Y-145948700D01*
X161461400Y-127631300D02*
X161461400Y-140063900D01*
X158885100Y-125055000D02*
X161461400Y-127631300D01*
X157480000Y-125055000D02*
X158885100Y-125055000D01*
X149860000Y-144780000D02*
X149860000Y-145948700D01*
D30*
X141175500Y-125580800D02*
X141004100Y-125409400D01*
X152842500Y-125580800D02*
X141175500Y-125580800D01*
X153068300Y-125355000D02*
X152842500Y-125580800D01*
X155330000Y-125355000D02*
X153068300Y-125355000D01*
X100767000Y-122133000D02*
X101417000Y-122133000D01*
X155330000Y-128955000D02*
X153899500Y-128955000D01*
X103139800Y-119354700D02*
X101417000Y-121077500D01*
X112173100Y-119354700D02*
X103139800Y-119354700D01*
X112452400Y-119634000D02*
X112173100Y-119354700D01*
X117876300Y-119634000D02*
X112452400Y-119634000D01*
X118566800Y-120324500D02*
X117876300Y-119634000D01*
X101417000Y-122133000D02*
X101417000Y-121077500D01*
X153814300Y-129040200D02*
X153899500Y-128955000D01*
X150206200Y-129040200D02*
X153814300Y-129040200D01*
X149439800Y-128273800D02*
X150206200Y-129040200D01*
X148823400Y-128273800D02*
X149439800Y-128273800D01*
X148533200Y-128564000D02*
X148823400Y-128273800D01*
X140208000Y-128564000D02*
X148533200Y-128564000D01*
D31*
X123230000Y-132838400D02*
X131534300Y-132838400D01*
X117777900Y-127386300D02*
X123230000Y-132838400D01*
X113024000Y-127386300D02*
X117777900Y-127386300D01*
X111439100Y-128971200D02*
X113024000Y-127386300D01*
X108042700Y-128971200D02*
X111439100Y-128971200D01*
X107806900Y-128735400D02*
X108042700Y-128971200D01*
X107806900Y-127671700D02*
X107806900Y-128735400D01*
X104782300Y-124647100D02*
X107806900Y-127671700D01*
X99619700Y-124647100D02*
X104782300Y-124647100D01*
X98596400Y-125670400D02*
X99619700Y-124647100D01*
X92286400Y-125670400D02*
X98596400Y-125670400D01*
X90329800Y-127627000D02*
X92286400Y-125670400D01*
X89068000Y-127627000D02*
X90329800Y-127627000D01*
X115225700Y-124762300D02*
X122479900Y-124762300D01*
X112197200Y-121733800D02*
X115225700Y-124762300D01*
X109925800Y-121733800D02*
X112197200Y-121733800D01*
X108496400Y-123163200D02*
X109925800Y-121733800D01*
X99372300Y-123163200D02*
X108496400Y-123163200D01*
X97517500Y-125018000D02*
X99372300Y-123163200D01*
X92289400Y-125018000D02*
X97517500Y-125018000D01*
X90680400Y-126627000D02*
X92289400Y-125018000D01*
X89068000Y-126627000D02*
X90680400Y-126627000D01*
D30*
X144780000Y-111760000D02*
X142240000Y-111760000D01*
X147320000Y-111760000D02*
X144780000Y-111760000D01*
X149860000Y-111760000D02*
X147320000Y-111760000D01*
X99963300Y-130683000D02*
X100166000Y-130885000D01*
X98933000Y-130683000D02*
X99963300Y-130683000D01*
X103745000Y-115570000D02*
X104775000Y-115570000D01*
X103576000Y-115401000D02*
X103745000Y-115570000D01*
X103745000Y-116840000D02*
X104775000Y-116840000D01*
X103724000Y-116861000D02*
X103745000Y-116840000D01*
X103563000Y-116861000D02*
X103724000Y-116861000D01*
X100471000Y-115570000D02*
X99441000Y-115570000D01*
X100492000Y-115591000D02*
X100471000Y-115570000D01*
X100647000Y-115591000D02*
X100492000Y-115591000D01*
X100471000Y-116840000D02*
X99441000Y-116840000D01*
X100492000Y-116861000D02*
X100471000Y-116840000D01*
X100647000Y-116861000D02*
X100492000Y-116861000D01*
X101417000Y-125303000D02*
X101417000Y-126533000D01*
X85887100Y-127627000D02*
X84668000Y-127627000D01*
X85933500Y-126627000D02*
X84668000Y-126627000D01*
X88037500Y-127127000D02*
X89068000Y-127127000D01*
X88033900Y-127123000D02*
X88037500Y-127127000D01*
X87850200Y-127123000D02*
X88033900Y-127123000D01*
X110438000Y-120389000D02*
X111418000Y-120389000D01*
X110238000Y-120589000D02*
X110438000Y-120389000D01*
X106970000Y-134065000D02*
X107950000Y-134065000D01*
X106785000Y-134250000D02*
X106970000Y-134065000D01*
X110780000Y-114347000D02*
X111760000Y-114347000D01*
X110585000Y-114542000D02*
X110780000Y-114347000D01*
X96092000Y-124170000D02*
X96092000Y-123190000D01*
X96154400Y-124170000D02*
X96092000Y-124170000D01*
X96353800Y-124370000D02*
X96154400Y-124170000D01*
X94218500Y-136779000D02*
X93138000Y-136779000D01*
X94321500Y-136676000D02*
X94218500Y-136779000D01*
X94404800Y-136676000D02*
X94321500Y-136676000D01*
X88070400Y-140758000D02*
X88239600Y-140589000D01*
X85532600Y-140758000D02*
X88070400Y-140758000D01*
X110804000Y-133965000D02*
X111760000Y-133965000D01*
X110631000Y-134138000D02*
X110804000Y-133965000D01*
X106994000Y-114447000D02*
X107950000Y-114447000D01*
X106798000Y-114643000D02*
X106994000Y-114447000D01*
X94572500Y-112078000D02*
X94741500Y-112247000D01*
X94572500Y-111760000D02*
X94572500Y-112078000D01*
X93492000Y-111760000D02*
X94572500Y-111760000D01*
X80729500Y-130752000D02*
X80899000Y-130582000D01*
X80729500Y-131064000D02*
X80729500Y-130752000D01*
X79649000Y-131064000D02*
X80729500Y-131064000D01*
X154940000Y-111760000D02*
X152400000Y-111760000D01*
X152400000Y-111760000D02*
X149860000Y-111760000D01*
X144780000Y-147320000D02*
X147320000Y-147320000D01*
X147320000Y-147320000D02*
X149860000Y-147320000D01*
X139700000Y-111760000D02*
X142240000Y-111760000D01*
X137960000Y-112153500D02*
X138353500Y-111760000D01*
X134620000Y-112153500D02*
X137960000Y-112153500D01*
X134620000Y-113284000D02*
X134620000Y-112153500D01*
X139700000Y-111760000D02*
X138353500Y-111760000D01*
X123444000Y-114414500D02*
X134620000Y-114414500D01*
X123444000Y-113284000D02*
X123444000Y-114414500D01*
X134620000Y-113284000D02*
X134620000Y-114414500D01*
X149860000Y-147320000D02*
X152400000Y-147320000D01*
X157480000Y-134655000D02*
X158910500Y-134655000D01*
X110042000Y-141966000D02*
X110998000Y-141966000D01*
X109870000Y-141793000D02*
X110042000Y-141966000D01*
X112020000Y-141899500D02*
X111953500Y-141966000D01*
X118785500Y-141899500D02*
X112020000Y-141899500D01*
X119126000Y-142240000D02*
X118785500Y-141899500D01*
X110998000Y-141966000D02*
X111953500Y-141966000D01*
X158910500Y-134655000D02*
X159109800Y-134655000D01*
D31*
X96911800Y-135200100D02*
X95738000Y-134026100D01*
X96911800Y-139700000D02*
X96911800Y-135200100D01*
X95529400Y-139700000D02*
X94640400Y-140589000D01*
X96911800Y-139700000D02*
X95529400Y-139700000D01*
X100177600Y-139700000D02*
X96911800Y-139700000D01*
X95738000Y-133096000D02*
X95738000Y-134026100D01*
X108919000Y-126143100D02*
X108919000Y-128016000D01*
X111418000Y-123644100D02*
X108919000Y-126143100D01*
X111418000Y-122689000D02*
X111418000Y-123644100D01*
X104368900Y-122133000D02*
X104962900Y-121539000D01*
X102067000Y-122133000D02*
X104368900Y-122133000D01*
X105918000Y-121539000D02*
X104962900Y-121539000D01*
X100767000Y-125502900D02*
X100117000Y-125502900D01*
X100767000Y-126533000D02*
X100767000Y-125502900D01*
X100117000Y-126533000D02*
X100117000Y-125502900D01*
X154940000Y-116840000D02*
X152400000Y-116840000D01*
X149860000Y-116840000D02*
X152400000Y-116840000D01*
X152400000Y-142240000D02*
X154940000Y-142240000D01*
X147320000Y-142240000D02*
X149860000Y-142240000D01*
X147320000Y-142240000D02*
X144780000Y-142240000D01*
X144780000Y-142240000D02*
X142240000Y-142240000D01*
X142240000Y-116840000D02*
X144780000Y-116840000D01*
X144780000Y-116840000D02*
X147320000Y-116840000D01*
X81978500Y-136608800D02*
X81978500Y-137414300D01*
X142240000Y-116840000D02*
X139700000Y-116840000D01*
X155330000Y-134355000D02*
X153924900Y-134355000D01*
X91440000Y-147320000D02*
X91440000Y-145897300D01*
X82376000Y-137811800D02*
X82376000Y-139446000D01*
X81978500Y-137414300D02*
X82376000Y-137811800D01*
X82376000Y-139446000D02*
X82376000Y-140401100D01*
X86574700Y-144599800D02*
X91440000Y-144599800D01*
X82376000Y-140401100D02*
X86574700Y-144599800D01*
X91440000Y-144599800D02*
X91440000Y-145897300D01*
X113094100Y-142585100D02*
X115824000Y-142585100D01*
X112519700Y-143159500D02*
X113094100Y-142585100D01*
X92880300Y-143159500D02*
X112519700Y-143159500D01*
X91440000Y-144599800D02*
X92880300Y-143159500D01*
X153869400Y-134410500D02*
X144928400Y-134410500D01*
X153924900Y-134355000D02*
X153869400Y-134410500D01*
X115824000Y-131064000D02*
X115824000Y-132169100D01*
X126936900Y-134410500D02*
X126906800Y-134380400D01*
X144928400Y-134410500D02*
X126936900Y-134410500D01*
X118035300Y-134380400D02*
X115824000Y-132169100D01*
X126906800Y-134380400D02*
X118035300Y-134380400D01*
X138289800Y-116929100D02*
X138378900Y-116840000D01*
X127000000Y-116929100D02*
X138289800Y-116929100D01*
X127000000Y-115824000D02*
X127000000Y-116929100D01*
X139700000Y-116840000D02*
X138378900Y-116840000D01*
X101600000Y-147320000D02*
X101600000Y-146011700D01*
X114546000Y-144594400D02*
X115239500Y-143900900D01*
X113672900Y-144594400D02*
X114546000Y-144594400D01*
X113628800Y-144638500D02*
X113672900Y-144594400D01*
X102973200Y-144638500D02*
X113628800Y-144638500D01*
X101600000Y-146011700D02*
X102973200Y-144638500D01*
X99060000Y-147320000D02*
X99060000Y-145897300D01*
X113673900Y-143946400D02*
X113943400Y-143946400D01*
X113439300Y-144181000D02*
X113673900Y-143946400D01*
X100776300Y-144181000D02*
X113439300Y-144181000D01*
X99060000Y-145897300D02*
X100776300Y-144181000D01*
X125894900Y-117258900D02*
X127000000Y-118364000D01*
X119208100Y-117258900D02*
X125894900Y-117258900D01*
X118103000Y-118364000D02*
X119208100Y-117258900D01*
X115824000Y-118364000D02*
X118103000Y-118364000D01*
X117371100Y-120996000D02*
X117279100Y-120904000D01*
X121543700Y-120996000D02*
X117371100Y-120996000D01*
X115824000Y-120904000D02*
X117279100Y-120904000D01*
X104140000Y-147320000D02*
X104140000Y-145897300D01*
X104790300Y-145247000D02*
X113936900Y-145247000D01*
X104140000Y-145897300D02*
X104790300Y-145247000D01*
X127000000Y-122338900D02*
X115824000Y-122338900D01*
X127000000Y-123444000D02*
X127000000Y-122338900D01*
X115824000Y-123444000D02*
X115824000Y-122338900D01*
X96520000Y-147320000D02*
X96520000Y-145897300D01*
X126472900Y-139230900D02*
X127928800Y-137775000D01*
X123886400Y-139230900D02*
X126472900Y-139230900D01*
X121183100Y-141934200D02*
X123886400Y-139230900D01*
X121183100Y-142800100D02*
X121183100Y-141934200D01*
X119912000Y-144071200D02*
X121183100Y-142800100D01*
X118385200Y-144071200D02*
X119912000Y-144071200D01*
X117566800Y-143252800D02*
X118385200Y-144071200D01*
X113720500Y-143252800D02*
X117566800Y-143252800D01*
X113249800Y-143723500D02*
X113720500Y-143252800D01*
X98693800Y-143723500D02*
X113249800Y-143723500D01*
X96520000Y-145897300D02*
X98693800Y-143723500D01*
X155330000Y-133155000D02*
X153924900Y-133155000D01*
X153845700Y-133234200D02*
X153733700Y-133234200D01*
X153924900Y-133155000D02*
X153845700Y-133234200D01*
X157480000Y-132855000D02*
X158885100Y-132855000D01*
X159736500Y-131116500D02*
X159706000Y-131086000D01*
X159736500Y-132003600D02*
X159736500Y-131116500D01*
X158885100Y-132855000D02*
X159736500Y-132003600D01*
X155935100Y-132232900D02*
X156147100Y-132020900D01*
X155935100Y-132555000D02*
X155935100Y-132232900D01*
X155330000Y-132555000D02*
X155935100Y-132555000D01*
X157480000Y-126855000D02*
X158885100Y-126855000D01*
X152400000Y-144780000D02*
X152400000Y-143611300D01*
X158885100Y-126995900D02*
X158885100Y-126855000D01*
X160865500Y-128976300D02*
X158885100Y-126995900D01*
X160865500Y-138676300D02*
X160865500Y-128976300D01*
X155930500Y-143611300D02*
X160865500Y-138676300D01*
X152400000Y-143611300D02*
X155930500Y-143611300D01*
M02*
