G04 #@! TF.FileFunction,Soldermask,Bot*
%FSLAX46Y46*%
G04 Gerber Fmt 4.6, Leading zero omitted, Abs format (unit mm)*
G04 Created by KiCad (PCBNEW 4.0.2-4+6225~38~ubuntu15.10.1-stable) date IDT 22:32:43 2016 אפר 10 א'*
%MOMM*%
G01*
G04 APERTURE LIST*
%ADD10C,0.150000*%
%ADD11R,1.300000X1.300000*%
%ADD12C,1.300000*%
%ADD13R,2.235200X2.235200*%
%ADD14C,1.501140*%
G04 APERTURE END LIST*
D10*
D11*
X97155000Y-86995000D03*
D12*
X94655000Y-86995000D03*
D13*
X109220000Y-116840000D03*
X109220000Y-114300000D03*
X109220000Y-124460000D03*
X109220000Y-121920000D03*
X109220000Y-119380000D03*
X109220000Y-104140000D03*
X109220000Y-106680000D03*
X109220000Y-101600000D03*
X109220000Y-99060000D03*
X109220000Y-109220000D03*
X109220000Y-96520000D03*
X109220000Y-76200000D03*
X109220000Y-78740000D03*
X109220000Y-81280000D03*
X109220000Y-83820000D03*
X109220000Y-86360000D03*
X109220000Y-88900000D03*
X109220000Y-91440000D03*
X109220000Y-93980000D03*
X109220000Y-111760000D03*
X78740000Y-78740000D03*
X78740000Y-81280000D03*
X78740000Y-104140000D03*
X78740000Y-83820000D03*
X78740000Y-101600000D03*
X78740000Y-86360000D03*
X78740000Y-99060000D03*
X78740000Y-88900000D03*
X86360000Y-83820000D03*
X78740000Y-91440000D03*
X78740000Y-96520000D03*
X78740000Y-93980000D03*
D14*
X99060000Y-129540000D03*
X86360000Y-109220000D03*
X78613000Y-123063000D03*
X96520000Y-91440000D03*
X91440000Y-91440000D03*
X93980000Y-91440000D03*
M02*
