M48
;DRILL file {KiCad 4.0.4+e1-6308~48~ubuntu16.04.1-stable} date Wed Oct 19 17:45:03 2016
;FORMAT={-:-/ absolute / metric / decimal}
FMAT,2
METRIC,TZ
T1C0.330
T2C0.800
T3C1.016
T4C1.500
T5C3.200
%
G90
G05
M71
T1
X80.899Y-130.582
X85.533Y-140.758
X85.887Y-127.627
X85.933Y-126.627
X87.85Y-127.123
X94.405Y-136.676
X94.742Y-112.247
X96.354Y-124.37
X100.166Y-130.885
X100.647Y-115.591
X100.647Y-116.861
X101.417Y-125.303
X103.563Y-116.861
X103.576Y-115.401
X106.785Y-134.25
X106.798Y-114.643
X109.87Y-141.793
X110.238Y-120.589
X110.585Y-114.542
X110.631Y-134.138
X113.937Y-145.247
X113.943Y-143.946
X115.239Y-143.901
X115.824Y-142.585
X116.515Y-135.681
X117.602Y-117.289
X118.313Y-116.719
X118.567Y-120.325
X121.544Y-120.996
X122.48Y-124.762
X123.028Y-135.351
X125.132Y-138.485
X126.907Y-134.38
X126.925Y-137.757
X127.929Y-137.775
X131.534Y-132.838
X136.673Y-127.584
X140.904Y-139.975
X141.004Y-125.409
X141.97Y-124.907
X143.673Y-126.754
X144.928Y-134.41
X149.18Y-128.967
X149.558Y-133.297
X150.275Y-131.086
X150.747Y-127.807
X151.826Y-132.015
X153.734Y-133.234
X156.128Y-129.855
X156.146Y-131.055
X156.147Y-132.021
X156.19Y-128.055
X156.665Y-132.703
X156.672Y-129.207
X157.048Y-117.587
X159.084Y-131.655
X159.088Y-130.455
X159.11Y-134.655
X159.706Y-131.086
X159.844Y-137.881
X160.762Y-127.956
T2
X115.824Y-113.284
X115.824Y-115.824
X115.824Y-118.364
X115.824Y-120.904
X115.824Y-123.444
X115.824Y-125.984
X115.824Y-128.524
X115.824Y-131.064
X123.444Y-113.284
X123.444Y-115.824
X123.444Y-118.364
X123.444Y-120.904
X123.444Y-123.444
X123.444Y-125.984
X123.444Y-128.524
X123.444Y-131.064
X127.Y-113.284
X127.Y-115.824
X127.Y-118.364
X127.Y-120.904
X127.Y-123.444
X127.Y-125.984
X127.Y-128.524
X127.Y-131.064
X134.62Y-113.284
X134.62Y-115.824
X134.62Y-118.364
X134.62Y-120.904
X134.62Y-123.444
X134.62Y-125.984
X134.62Y-128.524
X134.62Y-131.064
X140.208Y-128.564
X140.208Y-131.064
T3
X91.44Y-147.32
X93.98Y-147.32
X96.52Y-147.32
X99.06Y-147.32
X101.6Y-147.32
X104.14Y-147.32
X106.68Y-147.32
X109.22Y-147.32
X134.62Y-142.24
X139.7Y-111.76
X139.7Y-114.3
X139.7Y-116.84
X142.24Y-111.76
X142.24Y-114.3
X142.24Y-116.84
X142.24Y-142.24
X142.24Y-144.78
X142.24Y-147.32
X144.78Y-111.76
X144.78Y-114.3
X144.78Y-116.84
X144.78Y-142.24
X144.78Y-144.78
X144.78Y-147.32
X147.32Y-111.76
X147.32Y-114.3
X147.32Y-116.84
X147.32Y-142.24
X147.32Y-144.78
X147.32Y-147.32
X149.86Y-111.76
X149.86Y-114.3
X149.86Y-116.84
X149.86Y-142.24
X149.86Y-144.78
X149.86Y-147.32
X152.4Y-111.76
X152.4Y-114.3
X152.4Y-116.84
X152.4Y-142.24
X152.4Y-144.78
X152.4Y-147.32
X154.94Y-111.76
X154.94Y-114.3
X154.94Y-116.84
X154.94Y-142.24
X154.94Y-144.78
X154.94Y-147.32
T4
X80.772Y-126.619
X116.84Y-146.05
X119.126Y-142.24
X121.666Y-146.05
X124.206Y-142.24
X126.746Y-146.05
X129.286Y-142.24
X131.826Y-146.05
T5
X81.788Y-113.792
X81.788Y-145.288
X160.02Y-113.792
X160.02Y-145.288
T0
M30
