G04 #@! TF.FileFunction,Paste,Top*
%FSLAX46Y46*%
G04 Gerber Fmt 4.6, Leading zero omitted, Abs format (unit mm)*
G04 Created by KiCad (PCBNEW 4.0.4+e1-6308~48~ubuntu16.04.1-stable) date Wed Oct 19 17:44:58 2016*
%MOMM*%
%LPD*%
G01*
G04 APERTURE LIST*
%ADD10C,0.150000*%
%ADD11R,1.500000X1.250000*%
%ADD12R,1.250000X1.500000*%
%ADD13R,1.501140X5.300980*%
%ADD14R,0.800100X1.000760*%
%ADD15R,1.500000X1.300000*%
%ADD16R,1.300000X1.500000*%
%ADD17R,1.300000X1.300000*%
%ADD18R,1.300000X2.000000*%
%ADD19R,1.400000X0.300000*%
%ADD20R,0.450000X1.450000*%
%ADD21R,1.399540X0.599440*%
%ADD22R,1.200000X0.650000*%
G04 APERTURE END LIST*
D10*
D11*
X82149000Y-131064000D03*
X79649000Y-131064000D03*
X93238000Y-133096000D03*
X95738000Y-133096000D03*
X95738000Y-129413000D03*
X93238000Y-129413000D03*
X95992000Y-115570000D03*
X93492000Y-115570000D03*
D12*
X110998000Y-139466000D03*
X110998000Y-141966000D03*
D11*
X93492000Y-111760000D03*
X95992000Y-111760000D03*
D12*
X107950000Y-116947000D03*
X107950000Y-114447000D03*
X111760000Y-131465000D03*
X111760000Y-133965000D03*
D10*
G36*
X86845140Y-112124490D02*
X90446860Y-112124490D01*
X89446100Y-116424710D01*
X87845900Y-116424710D01*
X86845140Y-112124490D01*
X86845140Y-112124490D01*
G37*
G36*
X90446860Y-122825510D02*
X86845140Y-122825510D01*
X87845900Y-118525290D01*
X89446100Y-118525290D01*
X90446860Y-122825510D01*
X90446860Y-122825510D01*
G37*
G36*
X86089490Y-142389860D02*
X86089490Y-138788140D01*
X90389710Y-139788900D01*
X90389710Y-141389100D01*
X86089490Y-142389860D01*
X86089490Y-142389860D01*
G37*
G36*
X96790510Y-138788140D02*
X96790510Y-142389860D01*
X92490290Y-141389100D01*
X92490290Y-139788900D01*
X96790510Y-138788140D01*
X96790510Y-138788140D01*
G37*
G36*
X98027490Y-141500860D02*
X98027490Y-137899140D01*
X102327710Y-138899900D01*
X102327710Y-140500100D01*
X98027490Y-141500860D01*
X98027490Y-141500860D01*
G37*
G36*
X108728510Y-137899140D02*
X108728510Y-141500860D01*
X104428290Y-140500100D01*
X104428290Y-138899900D01*
X108728510Y-137899140D01*
X108728510Y-137899140D01*
G37*
D13*
X85217000Y-133985000D03*
X89535000Y-133985000D03*
X80137000Y-120523000D03*
X84455000Y-120523000D03*
D14*
X81026000Y-134409180D03*
X81978500Y-136608820D03*
X80073500Y-136608820D03*
D15*
X82376000Y-139446000D03*
X79676000Y-139446000D03*
X95838000Y-126746000D03*
X93138000Y-126746000D03*
X95838000Y-136779000D03*
X93138000Y-136779000D03*
X96092000Y-123190000D03*
X93392000Y-123190000D03*
X93392000Y-119380000D03*
X96092000Y-119380000D03*
D16*
X111760000Y-117047000D03*
X111760000Y-114347000D03*
D15*
X108919000Y-128016000D03*
X106219000Y-128016000D03*
D16*
X107950000Y-131365000D03*
X107950000Y-134065000D03*
D17*
X111418000Y-120389000D03*
X111418000Y-122689000D03*
D18*
X105918000Y-121539000D03*
D19*
X89068000Y-128127000D03*
X89068000Y-127627000D03*
X89068000Y-127127000D03*
X89068000Y-126627000D03*
X89068000Y-126127000D03*
X84668000Y-126127000D03*
X84668000Y-126627000D03*
X84668000Y-127127000D03*
X84668000Y-127627000D03*
X84668000Y-128127000D03*
D20*
X100117000Y-126533000D03*
X100767000Y-126533000D03*
X101417000Y-126533000D03*
X102067000Y-126533000D03*
X102067000Y-122133000D03*
X101417000Y-122133000D03*
X100767000Y-122133000D03*
X100117000Y-122133000D03*
D21*
X99441000Y-118110000D03*
X104775000Y-118110000D03*
X99441000Y-116840000D03*
X99441000Y-115570000D03*
X99441000Y-114300000D03*
X104775000Y-116840000D03*
X104775000Y-115570000D03*
X104775000Y-114300000D03*
X98933000Y-134493000D03*
X104267000Y-134493000D03*
X98933000Y-133223000D03*
X98933000Y-131953000D03*
X98933000Y-130683000D03*
X104267000Y-133223000D03*
X104267000Y-131953000D03*
X104267000Y-130683000D03*
D19*
X157880000Y-135255000D03*
X154930000Y-134955000D03*
X157880000Y-134655000D03*
X154930000Y-134355000D03*
X157880000Y-134055000D03*
X154930000Y-133755000D03*
X157880000Y-133455000D03*
X154930000Y-133155000D03*
X157880000Y-132855000D03*
X154930000Y-132555000D03*
X157880000Y-132255000D03*
X154930000Y-131955000D03*
X157880000Y-131655000D03*
X154930000Y-131355000D03*
X157880000Y-131055000D03*
X154930000Y-130755000D03*
X157880000Y-130455000D03*
X154930000Y-130155000D03*
X157880000Y-129855000D03*
X154930000Y-129555000D03*
X157880000Y-129255000D03*
X154930000Y-128955000D03*
X157880000Y-128655000D03*
X154930000Y-128355000D03*
X157880000Y-128055000D03*
X154930000Y-127755000D03*
X157880000Y-127455000D03*
X154930000Y-127155000D03*
X157880000Y-126855000D03*
X154930000Y-126555000D03*
X157880000Y-126255000D03*
X154930000Y-125955000D03*
X157880000Y-125655000D03*
X154930000Y-125355000D03*
X157880000Y-125055000D03*
X154930000Y-124755000D03*
X157880000Y-124455000D03*
X154930000Y-124155000D03*
X157880000Y-123855000D03*
D22*
X157730000Y-136080000D03*
X157730000Y-123030000D03*
M02*
